<?xml version="1.0" standalone="no"?>
<!DOCTYPE svg PUBLIC "-//W3C//DTD SVG 20010904//EN"
 "http://www.w3.org/TR/2001/REC-SVG-20010904/DTD/svg10.dtd">
<svg version="1.0" xmlns="http://www.w3.org/2000/svg"
 width="1254.000000pt" height="1254.000000pt" viewBox="0 0 1254.000000 1254.000000"
 preserveAspectRatio="xMidYMid meet">

<g transform="translate(0.000000,1254.000000) scale(0.100000,-0.100000)"
fill="#000000" stroke="none">
<path d="M5945 12254 c-22 -2 -110 -8 -195 -14 -998 -69 -1955 -399 -2800
-963 -328 -220 -564 -412 -859 -702 -304 -298 -529 -567 -748 -895 -359 -537
-594 -1035 -777 -1645 -124 -414 -204 -840 -238 -1265 -16 -199 -15 -802 1
-990 35 -411 124 -881 236 -1250 297 -977 845 -1865 1575 -2549 617 -578 1259
-975 2065 -1276 448 -167 957 -286 1470 -342 200 -22 913 -25 1120 -5 1014 99
1960 430 2790 977 628 414 1193 967 1607 1575 573 840 907 1764 1003 2775 34
353 29 935 -10 1295 -36 322 -113 704 -211 1039 -204 694 -521 1323 -959 1906
-346 459 -713 823 -1184 1175 -832 621 -1807 1009 -2816 1119 -282 31 -477 41
-764 39 -146 -1 -284 -3 -306 -4z m-464 -1661 l2 -98 9 93 c6 50 14 92 20 92
23 0 52 -26 116 -103 38 -45 74 -92 80 -104 19 -36 14 -89 -10 -117 -40 -44
-182 -156 -198 -156 -12 0 -15 13 -13 67 l2 68 -13 -82 c-8 -49 -22 -93 -35
-111 -52 -74 -276 -252 -316 -252 -3 0 -6 33 -6 73 l-2 72 -8 -68 c-12 -110
-43 -160 -154 -251 -87 -71 -169 -126 -187 -126 -12 0 -9 334 2 415 16 110 46
158 156 250 93 79 182 138 194 130 4 -2 3 -34 -2 -70 -5 -37 -8 -88 -6 -113 3
-40 4 -35 11 33 14 146 18 163 45 203 38 56 270 252 298 252 11 0 14 -21 15
-97z m-1323 -499 c116 -30 210 -85 314 -185 83 -80 103 -105 133 -171 19 -42
35 -85 35 -96 0 -10 7 -40 16 -66 13 -37 15 -74 11 -174 -5 -157 -27 -222
-123 -365 -56 -82 -79 -106 -150 -158 -87 -63 -174 -104 -242 -115 l-39 -6 5
77 c3 54 -1 101 -13 154 -16 72 -16 80 -1 112 11 24 38 48 85 78 65 40 72 49
98 110 40 95 39 180 -6 277 -30 65 -39 75 -98 113 -104 66 -195 77 -325 39
-70 -21 -79 -28 -139 -93 -49 -53 -71 -86 -88 -135 -33 -95 -34 -96 -72 -90
-44 6 -224 6 -269 0 l-35 -5 4 60 c13 218 169 445 391 568 165 92 335 115 508
71z m597 -66 c-4 -29 -10 -111 -14 -183 l-6 -130 -33 60 c-18 33 -50 84 -72
113 -22 29 -40 57 -40 63 0 21 136 129 163 129 6 0 6 -21 2 -52z m2432 -98
c274 -33 593 -71 708 -85 247 -29 1077 -125 1385 -161 118 -13 321 -38 451
-54 130 -17 239 -30 243 -30 19 0 1 -19 -37 -37 -186 -90 -360 -361 -413 -641
-23 -121 -21 -314 4 -427 37 -167 109 -318 195 -412 22 -24 38 -46 35 -48 -6
-6 -592 115 -875 180 -21 5 -23 11 -23 78 0 67 -2 75 -27 99 -38 34 -123 68
-173 68 -41 0 -90 -19 -122 -48 -29 -25 -21 -29 40 -19 50 9 63 7 110 -13 l52
-22 0 -53 c0 -40 5 -56 21 -71 94 -85 82 -282 -21 -350 l-37 -25 -6 -112 c-4
-62 -19 -232 -33 -379 l-26 -267 30 -26 c45 -38 62 -83 62 -164 0 -85 -22
-137 -81 -191 l-38 -35 -20 -210 c-11 -115 -30 -304 -41 -419 l-22 -210 30
-25 c17 -15 35 -36 41 -48 10 -20 6 -23 -87 -53 -199 -66 -446 -177 -601 -272
-59 -35 -77 -41 -161 -50 -52 -5 -192 -10 -311 -11 l-216 -2 -34 -36 c-19 -20
-50 -42 -70 -49 -32 -12 -38 -18 -44 -54 -7 -48 -75 -306 -147 -559 l-50 -178
25 -32 c37 -49 41 -71 18 -121 -20 -47 -64 -187 -76 -242 -5 -25 -13 -33 -44
-42 -35 -11 -39 -15 -50 -67 -10 -45 -18 -58 -41 -70 -65 -34 -182 -6 -205 49
-11 24 -10 38 1 74 12 43 12 46 -11 64 -13 10 -30 34 -36 53 -11 30 -18 35
-53 40 -427 57 -807 138 -1075 230 -74 25 -75 25 -95 6 -25 -24 -68 -41 -101
-41 -19 0 -30 -10 -45 -40 -26 -51 -51 -64 -111 -57 -66 8 -107 31 -126 73
-16 33 -16 36 4 77 19 41 20 43 2 72 -11 17 -21 44 -25 60 -5 28 -14 34 -112
73 -59 23 -165 68 -237 100 l-130 58 -8 59 c-4 33 -14 98 -22 145 -8 47 -15
88 -15 92 0 4 78 -31 173 -77 94 -46 233 -109 307 -139 132 -54 135 -54 155
-36 24 22 68 40 99 40 25 0 32 14 237 463 l108 237 -24 36 c-14 20 -25 45 -25
55 0 20 -31 39 -95 59 -153 48 -422 164 -624 268 l-114 60 -41 -19 c-23 -10
-58 -19 -78 -19 -21 0 -38 -4 -38 -8 0 -8 -190 -301 -221 -340 l-18 -23 -26
51 c-14 28 -44 80 -65 116 -22 35 -40 69 -40 74 0 6 38 67 85 137 54 81 83
133 79 143 -34 81 -25 160 28 243 35 55 114 107 163 107 29 0 34 8 162 253 73
138 155 299 183 357 l51 106 -20 44 c-41 89 -18 194 58 270 32 32 60 50 91 58
l45 11 39 103 c99 264 185 506 191 539 5 27 2 44 -14 70 -50 82 -31 203 44
276 24 22 57 44 73 48 28 6 31 12 57 105 30 111 52 139 112 147 53 7 115 -25
133 -67 14 -33 12 -45 -25 -181 l-18 -65 23 -32 c14 -18 27 -53 30 -79 l5 -46
125 -68 c130 -72 289 -143 423 -190 l79 -27 33 22 c18 13 46 28 63 35 31 13
38 30 63 143 21 97 83 129 173 89 73 -32 81 -62 50 -185 l-25 -97 25 -32 c13
-18 27 -44 31 -58 6 -26 13 -28 143 -53 141 -27 317 -50 478 -60 l91 -7 27 36
c15 19 44 44 64 54 36 18 38 22 50 94 26 154 43 177 134 177 55 0 87 -17 111
-58 19 -32 19 -34 0 -125 l-19 -94 37 -41 36 -42 127 15 c144 17 293 46 414
81 45 13 84 24 86 24 1 0 8 18 14 39 12 37 79 111 102 111 6 0 10 10 10 23 0
21 -7 25 -57 35 -62 12 -532 115 -933 205 -135 31 -398 88 -585 127 -504 105
-494 102 -587 194 -68 67 -141 206 -163 311 -8 39 -15 118 -15 176 0 125 21
220 75 333 91 193 264 333 412 335 23 1 266 -26 540 -59z m-2980 -290 c18 -17
20 -25 12 -52 -5 -18 -9 -34 -9 -36 0 -2 -4 -1 -10 3 -5 3 -3 -16 5 -42 26
-83 27 -89 16 -130 -15 -54 -44 -89 -94 -114 -58 -29 -85 -56 -113 -112 l-25
-48 17 -120 c40 -281 -35 -455 -238 -553 -61 -29 -185 -61 -196 -51 -2 2 4 25
12 51 8 27 19 105 25 174 5 69 17 162 27 208 15 73 16 92 4 166 -12 77 -10
162 5 241 5 25 4 27 -5 13 -6 -10 -19 -18 -28 -18 -10 0 -23 -5 -30 -12 -9 -9
-12 -9 -12 3 -1 9 -4 7 -12 -6 -7 -11 -13 -67 -15 -125 l-2 -105 -60 -28 c-44
-21 -83 -30 -152 -36 -119 -10 -193 -45 -267 -125 -74 -81 -102 -145 -108
-247 -5 -69 -2 -94 15 -143 12 -33 21 -66 21 -75 0 -32 92 -151 153 -197 74
-56 99 -67 196 -84 86 -16 147 -7 239 35 76 36 146 117 163 189 l11 52 84 43
c88 45 171 122 215 201 12 22 26 40 30 40 4 0 15 -35 24 -77 20 -88 16 -238
-9 -329 -23 -85 -94 -218 -154 -288 -94 -108 -145 -140 -357 -224 -30 -12 -77
-16 -190 -17 -145 0 -152 1 -225 31 -41 17 -88 34 -104 38 -91 22 -284 204
-365 343 l-54 93 -24 -51 c-20 -45 -22 -56 -12 -88 7 -22 10 -92 8 -173 -4
-133 -5 -137 -34 -179 -36 -51 -174 -173 -225 -199 -75 -38 -70 -51 -72 195
-1 230 3 267 33 326 33 65 186 184 224 175 22 -6 85 45 85 68 0 7 -9 39 -21
72 -13 37 -23 95 -26 154 -7 127 32 306 84 383 18 27 33 53 33 58 0 21 57 98
113 151 65 63 172 138 198 138 9 0 22 6 28 14 12 14 93 42 211 73 84 22 199
27 274 13 36 -7 66 -16 66 -20 0 -4 16 -10 36 -12 35 -4 36 -3 65 56 47 95
103 161 166 199 32 19 85 51 117 71 42 25 72 36 100 36 23 1 52 7 66 15 33 19
42 18 67 -5z m6168 -119 c83 -41 144 -97 204 -186 96 -145 140 -302 141 -508
1 -421 -234 -793 -535 -848 -240 -44 -456 155 -542 497 -25 97 -25 391 0 488
75 296 269 532 483 585 71 18 180 6 249 -28z m-6750 -678 c-13 -36 -35 -157
-50 -276 -18 -149 -26 -176 -66 -238 -63 -98 -264 -199 -286 -144 -3 9 -1 101
5 205 10 172 13 196 38 250 41 93 125 156 264 201 74 24 104 25 95 2z m-395
-232 c0 -5 -5 -22 -11 -38 -6 -15 -17 -89 -25 -163 -8 -74 -17 -141 -19 -149
-15 -39 -93 94 -116 196 -11 49 -11 56 8 81 34 46 163 103 163 73z m-961 -708
c-5 -21 -6 -129 -2 -239 6 -194 5 -203 -16 -247 -32 -66 -228 -237 -303 -266
l-28 -11 0 244 c0 290 2 299 100 389 107 99 231 184 251 171 4 -2 3 -21 -2
-41z m453 -26 c42 -56 45 -64 32 -78 -18 -20 -101 -66 -107 -59 -5 8 16 200
22 200 3 -1 27 -29 53 -63z m-827 -485 c0 -237 -1 -249 -23 -293 -25 -51 -151
-164 -193 -173 -39 -9 -74 15 -146 99 -89 103 -109 133 -117 172 -10 46 8 74
89 135 39 29 100 83 136 119 73 74 158 140 215 169 22 11 39 19 39 20 0 0 0
-111 0 -248z m969 -952 c163 -24 334 -103 484 -224 82 -66 99 -90 82 -111 -21
-26 -330 -245 -345 -245 -9 0 -38 15 -65 34 -142 98 -315 110 -440 31 -82 -52
-141 -135 -185 -262 -5 -16 -34 -16 -269 -1 -230 15 -222 8 -175 148 148 444
503 689 913 630z m763 -517 c90 -122 125 -180 121 -204 -2 -19 -35 -37 -203
-111 -110 -48 -205 -88 -212 -88 -13 0 -19 8 -99 130 -42 63 -54 88 -47 100 5
8 81 66 169 127 198 140 200 140 271 46z m-715 -115 c59 -31 138 -108 192
-186 45 -65 31 -70 -116 -43 -68 13 -130 27 -138 31 -12 6 -49 113 -74 214
l-7 29 42 -7 c24 -4 69 -21 101 -38z m-248 -15 c2 -10 17 -63 32 -117 l28 -99
-105 -98 c-57 -54 -110 -98 -116 -99 -16 0 -17 93 -2 176 14 77 71 195 110
228 36 31 46 32 53 9z m6862 -134 c360 -50 629 -225 735 -478 96 -231 74 -468
-71 -750 -146 -285 -409 -566 -730 -781 -479 -320 -985 -490 -1461 -490 -236
0 -415 34 -577 110 -425 199 -536 607 -299 1095 105 214 215 362 413 555 466
453 1150 745 1756 749 86 1 191 -4 234 -10z m-5657 -144 c28 -58 91 -230 91
-248 -1 -31 -29 -41 -241 -86 -244 -52 -249 -52 -264 7 -3 15 -20 63 -36 106
-36 94 -31 116 27 134 22 6 109 41 194 76 85 36 166 64 180 63 19 -2 30 -13
49 -52z m-1516 -7 c15 -8 17 -25 17 -137 0 -91 -4 -131 -12 -138 -7 -6 -56
-16 -108 -22 -52 -6 -151 -21 -219 -32 -165 -27 -157 -36 -153 168 1 101 6
161 14 170 10 12 48 13 227 7 119 -3 224 -11 234 -16z m729 -68 c107 -22 147
-34 159 -49 19 -23 89 -194 89 -216 0 -27 -27 -27 -172 0 -226 42 -198 25
-235 145 -40 131 -41 150 -8 150 13 0 89 -13 167 -30z m-276 -146 l34 -119
-129 -127 c-71 -71 -134 -128 -139 -128 -19 0 -29 27 -51 136 -16 80 -20 117
-13 130 6 11 63 70 127 133 80 78 119 111 127 103 5 -5 25 -63 44 -128z m7649
-213 c52 -80 142 -259 181 -360 l28 -73 -23 -19 -24 -20 16 -176 c11 -111 13
-181 7 -187 -5 -5 -40 -14 -77 -20 -91 -15 -93 -19 -93 -223 0 -144 -2 -163
-18 -172 -9 -5 -64 -12 -120 -16 -93 -7 -105 -10 -112 -29 -5 -11 -21 -84 -36
-161 -14 -77 -32 -149 -39 -160 -12 -19 -23 -20 -160 -20 l-148 0 -23 -65
c-13 -36 -40 -110 -60 -165 -54 -146 -39 -139 -224 -109 -99 16 -163 23 -178
17 -17 -6 -48 -52 -107 -158 -67 -120 -88 -151 -107 -153 -13 -1 -86 16 -163
39 -181 54 -191 56 -216 33 -11 -10 -59 -67 -107 -126 -48 -60 -94 -111 -103
-113 -10 -3 -92 30 -184 75 -93 44 -174 80 -181 80 -7 0 -61 -38 -120 -85 -59
-47 -112 -85 -119 -85 -10 0 -104 62 -273 181 l-64 44 -78 -43 c-43 -23 -85
-42 -93 -42 -33 0 -146 148 -248 325 -76 132 -173 334 -165 343 4 3 14 -5 23
-19 22 -32 139 -147 185 -181 19 -15 46 -48 58 -72 12 -25 33 -55 47 -66 l26
-20 34 26 35 27 86 -27 c48 -14 117 -32 155 -40 55 -11 75 -21 112 -55 54 -50
78 -52 107 -8 l22 34 170 7 c94 3 182 9 196 12 19 4 40 -4 78 -30 28 -20 58
-36 65 -36 19 0 45 30 58 68 10 28 19 34 82 53 40 11 122 36 183 55 62 19 119
34 127 34 9 0 32 -9 51 -21 19 -11 47 -19 63 -17 24 3 29 10 43 58 l16 55 114
60 c63 33 143 76 177 95 55 30 66 33 90 23 96 -39 92 -38 108 -23 8 8 21 46
29 83 10 51 20 73 37 85 13 9 70 53 125 98 56 45 106 84 112 88 6 3 34 -3 63
-13 29 -11 56 -18 61 -15 4 3 8 39 8 80 l0 74 68 82 c37 44 81 97 98 116 l31
35 46 -12 c71 -20 80 -4 53 96 l-14 51 61 132 61 132 43 -7 43 -6 0 38 c0 21
-5 54 -12 73 -6 20 -12 106 -13 200 -2 136 -6 178 -23 237 -12 40 -22 75 -22
78 0 16 26 -14 65 -74z m-8078 7 c16 -21 67 -268 57 -277 -18 -16 -427 -152
-447 -149 -28 4 -41 33 -62 133 -24 116 -30 210 -15 220 6 4 109 24 228 45
120 21 220 38 223 39 4 0 11 -5 16 -11z m1625 -15 c18 -21 42 -208 36 -288 -3
-46 -5 -50 -33 -56 -16 -4 -123 -7 -236 -8 -154 -1 -209 2 -217 12 -17 21 -40
246 -27 263 7 11 79 28 216 54 243 45 242 45 261 23z m-822 -28 c69 -14 137
-28 152 -32 41 -8 54 -31 66 -118 14 -96 15 -152 3 -160 -5 -3 -70 8 -144 25
-74 16 -142 30 -150 30 -22 0 -33 24 -71 153 -34 114 -33 143 3 133 9 -3 72
-17 141 -31z m-258 -141 c20 -60 36 -118 37 -129 0 -12 -44 -66 -115 -140 -95
-98 -118 -117 -131 -109 -9 6 -39 59 -65 118 l-49 107 30 37 c50 64 231 234
244 230 6 -3 28 -54 49 -114z m-421 -244 c43 -81 107 -233 103 -244 -3 -7 -39
-32 -82 -56 -42 -24 -133 -77 -201 -117 -87 -52 -130 -72 -144 -67 -27 9 -140
246 -141 298 -1 24 4 42 14 47 40 23 407 158 424 156 10 -1 23 -9 27 -17z
m763 -35 c77 -19 144 -40 148 -47 9 -12 2 -205 -8 -240 -7 -24 -22 -26 -99
-12 -38 7 -90 13 -114 13 -43 1 -47 -2 -127 -84 -46 -47 -90 -85 -99 -85 -15
0 -165 194 -165 214 0 6 49 66 109 131 107 117 166 160 201 150 8 -3 78 -20
154 -40z m769 -55 c5 -4 8 -77 8 -161 -1 -118 -5 -157 -16 -168 -12 -12 -32
-13 -137 -2 -239 24 -339 38 -349 48 -16 16 0 271 19 289 13 13 48 14 241 8
124 -3 230 -10 234 -14z m6693 -95 c26 -64 44 -149 56 -266 29 -297 -79 -608
-321 -924 -464 -607 -1394 -1045 -2111 -994 -180 13 -289 32 -412 75 -118 41
-157 60 -249 119 -67 43 -209 170 -209 186 0 5 9 9 20 9 12 0 43 11 70 25 27
14 54 25 59 25 5 0 75 -47 156 -105 102 -73 156 -105 175 -105 27 0 79 34 190
124 25 19 51 36 58 36 7 0 56 -22 110 -48 53 -27 132 -64 174 -82 74 -32 78
-32 103 -16 14 9 53 51 88 94 34 42 78 94 98 116 l37 40 148 -42 c188 -53 207
-56 233 -43 11 6 57 77 102 157 45 80 87 148 93 150 6 2 72 -5 146 -16 167
-25 202 -25 222 -2 9 9 42 89 73 177 32 88 63 163 69 168 6 4 72 4 146 1 125
-6 136 -5 152 13 11 12 29 76 47 169 17 82 33 157 36 165 5 13 27 18 93 23 70
6 146 20 153 29 1 1 4 85 8 187 l6 185 60 13 c33 7 67 17 75 21 21 11 24 75
10 213 -12 114 -9 158 11 158 6 0 17 -16 25 -35z m-8013 -198 c2 -7 39 -56 81
-109 42 -53 76 -103 76 -110 0 -17 -313 -310 -345 -322 -34 -14 -46 -5 -119
86 -110 137 -139 184 -132 210 5 16 60 57 194 140 179 111 233 135 245 105z
m1489 -449 c9 -7 44 -68 79 -135 52 -99 62 -125 53 -140 -14 -23 -392 -175
-410 -165 -7 4 -39 60 -71 125 -53 110 -56 118 -40 134 21 21 336 190 358 192
8 0 22 -5 31 -11z m-454 -373 c18 -36 32 -70 32 -75 0 -5 -28 -43 -62 -86 -74
-92 -104 -107 -180 -95 -29 5 -79 12 -110 16 l-57 6 -26 68 c-15 38 -25 76
-24 85 3 13 41 30 134 61 72 24 150 52 175 64 72 33 81 30 118 -44z m676 -47
c28 -46 87 -217 84 -244 -3 -27 -6 -28 -203 -76 -110 -26 -209 -47 -220 -46
-13 2 -25 19 -38 53 -10 28 -23 55 -29 60 -7 7 -9 6 -4 -2 8 -15 -53 -66 -71
-59 -10 4 -13 1 -8 -13 4 -15 -10 -32 -60 -75 -36 -31 -70 -56 -75 -56 -9 0
-70 141 -70 162 0 16 103 128 118 128 6 0 18 -10 26 -22 13 -18 16 -19 16 -6
0 15 51 38 84 38 5 0 14 7 20 16 12 16 366 161 398 163 10 0 24 -9 32 -21z
m-1251 -20 c20 -16 99 -225 95 -252 -2 -13 -19 -26 -48 -37 -338 -134 -350
-138 -370 -120 -11 9 -40 74 -65 144 -53 151 -52 159 33 183 57 17 322 91 333
93 3 0 13 -5 22 -11z m389 -304 l56 -6 32 -75 c17 -42 29 -81 27 -87 -3 -6
-38 -12 -88 -14 l-85 -3 -21 38 c-12 21 -30 61 -42 89 -23 60 -14 78 34 70 17
-3 55 -8 87 -12z m987 -78 c35 -42 36 -266 2 -308 l-18 -21 -202 39 c-111 21
-207 42 -213 45 -16 10 -19 145 -4 158 6 5 56 19 111 30 55 12 145 32 200 45
55 14 103 25 106 25 4 1 12 -5 18 -13z m-1178 -101 c21 -48 39 -93 39 -100 0
-21 -29 -39 -207 -131 -140 -72 -176 -87 -190 -78 -10 6 -40 60 -67 119 -36
81 -46 112 -39 124 11 17 28 24 218 96 66 25 134 52 150 59 17 8 36 10 43 6 8
-4 31 -46 53 -95z m614 -14 c3 -16 1 -49 -5 -73 -13 -48 -55 -118 -71 -118 -6
0 -24 30 -40 66 -29 64 -30 67 -12 87 24 27 104 78 114 72 4 -3 10 -18 14 -34z
m-224 -156 c16 -36 27 -70 24 -75 -8 -13 -47 -13 -82 1 -65 24 -152 106 -138
129 3 6 42 10 86 10 l80 0 30 -65z m-228 -110 c33 -38 46 -60 40 -68 -5 -7
-63 -81 -129 -164 -91 -117 -124 -153 -142 -153 -15 0 -50 28 -105 83 -93 94
-117 130 -100 155 11 19 349 201 373 201 8 1 37 -24 63 -54z m688 16 c68 -16
159 -37 202 -46 49 -10 80 -22 84 -32 8 -19 -27 -90 -76 -157 -159 -215 -482
-352 -749 -316 -88 12 -227 52 -259 75 -21 15 -23 11 130 216 l109 147 107 4
c95 4 112 7 166 35 33 17 76 47 94 67 19 20 43 36 52 36 9 0 72 -13 140 -29z"/>
<path d="M6596 9664 c-20 -19 -20 -38 -1 -54 7 -6 119 -29 247 -50 128 -22
286 -49 351 -61 94 -17 120 -19 132 -9 18 15 19 42 3 58 -17 17 -93 15 -107
-2 -7 -8 -23 -17 -38 -20 -27 -8 -133 11 -133 23 0 14 24 31 44 31 37 0 7 12
-66 26 -40 8 -140 25 -223 39 -82 14 -160 27 -172 30 -12 3 -28 -2 -37 -11z"/>
<path d="M8418 9315 c-14 -31 1 -51 45 -58 18 -3 195 -34 395 -68 389 -67 381
-67 382 -12 0 30 -10 34 -130 54 -58 9 -227 38 -377 63 -149 25 -279 46 -288
46 -8 0 -20 -11 -27 -25z"/>
<path d="M6622 9128 c-16 -16 -15 -43 1 -56 6 -5 116 -29 242 -51 127 -23 278
-51 337 -63 59 -11 114 -18 123 -15 18 8 20 41 2 55 -16 13 -130 38 -422 92
-121 22 -231 43 -245 45 -14 3 -31 0 -38 -7z"/>
<path d="M7662 9118 c-16 -16 -16 -53 1 -65 6 -6 44 -15 82 -21 39 -7 121 -21
184 -32 l114 -20 53 25 c29 14 58 25 65 25 42 0 -25 15 -217 50 -121 22 -230
42 -244 45 -14 3 -31 0 -38 -7z"/>
<path d="M8472 8967 c24 -19 4 -47 -35 -48 l-32 -1 34 -10 c18 -5 40 -7 47 -4
19 7 18 62 -2 70 -25 10 -30 6 -12 -7z"/>
<path d="M8385 8746 c-16 -11 -17 -18 -8 -38 10 -21 29 -27 209 -65 385 -80
371 -78 388 -64 9 8 16 19 16 25 0 37 -27 46 -285 96 -143 28 -269 53 -281 55
-11 3 -29 -2 -39 -9z"/>
<path d="M5395 8241 c-14 -6 -28 -32 -44 -82 -32 -103 -131 -373 -181 -499
l-41 -104 19 -36 c11 -19 22 -51 24 -70 4 -33 8 -38 113 -92 121 -63 365 -169
491 -213 l81 -29 36 28 c19 15 50 31 69 36 l33 10 97 321 c97 318 97 321 77
338 -11 9 -26 34 -33 56 l-14 40 -158 56 c-162 57 -297 119 -437 203 -80 47
-96 51 -132 37z"/>
<path d="M8340 7844 c-161 -52 -333 -84 -523 -99 l-89 -7 -46 -46 c-26 -26
-55 -51 -65 -57 -13 -7 -23 -40 -39 -120 -11 -60 -42 -211 -68 -335 l-47 -225
36 -43 36 -43 131 5 c158 7 240 17 450 57 l161 31 12 33 c11 32 74 98 101 107
9 3 22 110 47 368 l35 364 -24 18 c-13 10 -25 17 -28 17 -3 -1 -39 -12 -80
-25z"/>
<path d="M6527 7826 c-3 -8 -29 -25 -57 -38 -48 -22 -52 -26 -66 -78 -32 -112
-116 -388 -150 -489 l-34 -105 21 -22 c11 -12 27 -39 34 -61 l13 -38 164 -32
c162 -32 411 -67 563 -78 l80 -7 17 31 c9 17 37 40 64 54 l48 24 32 154 c18
85 49 234 70 331 l37 177 -39 44 -39 45 -120 7 c-170 9 -347 31 -486 61 -66
14 -126 27 -133 30 -7 3 -16 -2 -19 -10z"/>
<path d="M5040 7175 c-14 -8 -39 -14 -56 -15 -30 0 -33 -5 -146 -232 -63 -128
-145 -286 -181 -352 -70 -123 -74 -135 -56 -153 6 -6 14 -35 17 -64 l7 -54
142 -72 c156 -78 390 -179 550 -238 l102 -37 22 21 c13 12 45 29 72 39 l49 19
87 219 c81 202 158 403 184 481 8 27 7 36 -7 52 -10 11 -24 37 -31 57 -12 36
-17 40 -96 66 -162 54 -325 123 -478 200 -84 43 -154 78 -155 78 0 -1 -12 -7
-26 -15z"/>
<path d="M6203 6756 c-13 -20 -56 -46 -95 -57 -21 -5 -38 -15 -38 -20 0 -14
-143 -394 -219 -582 l-60 -148 25 -36 c13 -20 24 -44 24 -55 0 -24 21 -32 225
-78 187 -43 408 -81 615 -106 111 -13 135 -14 139 -2 8 25 73 79 102 85 16 3
29 7 29 8 0 1 20 83 44 181 24 99 65 272 92 386 l47 207 -36 41 c-21 22 -37
44 -37 49 0 4 -48 11 -107 15 -207 13 -542 66 -695 111 -38 11 -49 11 -55 1z"/>
<path d="M8170 6695 c-167 -38 -313 -56 -492 -64 l-167 -6 -33 -37 c-18 -21
-49 -45 -68 -56 -34 -18 -34 -19 -70 -183 -21 -90 -58 -252 -85 -359 -26 -107
-50 -208 -54 -225 -6 -25 -2 -36 26 -68 18 -20 33 -44 33 -52 0 -12 16 -15 88
-15 195 0 496 24 706 57 100 16 109 19 118 43 12 31 55 77 88 95 25 13 26 20
43 177 26 235 57 576 57 626 0 34 -5 48 -27 67 -33 29 -31 29 -163 0z"/>
<path d="M5737 5574 c-16 -13 -48 -30 -71 -36 -40 -11 -45 -16 -71 -77 -58
-136 -159 -361 -222 -494 l-66 -139 21 -46 c12 -26 23 -56 24 -66 3 -23 32
-33 293 -101 216 -56 420 -98 655 -135 l185 -29 36 35 c20 20 54 41 75 49 l38
13 33 118 c18 66 65 238 103 383 l69 264 -28 33 c-16 18 -32 41 -35 52 -5 16
-20 21 -79 26 -258 25 -489 64 -724 121 -99 25 -187 47 -195 50 -7 2 -26 -7
-41 -21z"/>
<path d="M10126 9284 c-72 -23 -171 -125 -219 -224 -51 -106 -68 -178 -74
-310 -5 -97 -2 -129 16 -199 53 -212 156 -323 299 -323 76 0 140 30 206 98 48
48 96 122 110 170 5 16 2 23 -11 27 -10 2 -25 8 -34 11 -12 5 -20 -2 -29 -25
-8 -17 -33 -57 -56 -89 -53 -73 -132 -116 -195 -107 -87 12 -156 86 -201 216
-20 56 -23 86 -23 196 1 114 4 140 28 212 105 316 363 368 472 96 36 -92 49
-195 36 -301 -6 -48 -14 -97 -17 -108 -5 -19 -2 -21 21 -16 16 3 30 0 35 -8
15 -24 33 56 37 172 15 351 -169 586 -401 512z"/>
<path d="M10137 8960 c-55 -48 -81 -119 -81 -225 0 -71 4 -100 21 -137 25 -55
69 -83 116 -74 32 7 77 42 77 60 0 20 -37 35 -73 29 -53 -8 -72 27 -72 132 0
87 18 132 60 155 53 28 88 -35 86 -152 l-1 -69 27 3 c20 2 29 11 35 33 11 38
1 147 -17 191 -36 86 -115 110 -178 54z"/>
<path d="M9040 5194 c-415 -53 -823 -245 -1116 -526 -285 -274 -400 -580 -296
-791 57 -116 168 -194 330 -234 91 -22 316 -22 439 1 539 98 1077 461 1273
859 154 313 37 572 -302 667 -72 20 -252 33 -328 24z m265 -119 c145 -31 272
-120 310 -218 10 -26 15 -50 13 -53 -3 -3 -28 8 -54 24 -27 17 -87 42 -134 57
-123 40 -329 46 -480 15 -412 -84 -809 -326 -1013 -617 -94 -134 -157 -296
-157 -404 0 -39 -12 -37 -42 9 -36 54 -48 97 -48 166 1 413 650 927 1300 1029
63 10 241 5 305 -8z"/>
</g>
</svg>
