<?xml version="1.0" standalone="no"?>
<!DOCTYPE svg PUBLIC "-//W3C//DTD SVG 20010904//EN"
 "http://www.w3.org/TR/2001/REC-SVG-20010904/DTD/svg10.dtd">
<svg version="1.0" xmlns="http://www.w3.org/2000/svg"
 width="1254.000000pt" height="1254.000000pt" viewBox="0 0 1254.000000 1254.000000"
 preserveAspectRatio="xMidYMid meet">

<g transform="translate(0.000000,1254.000000) scale(0.100000,-0.100000)"
fill="#000000" stroke="none">
<path d="M5941 12270 c-579 -35 -1223 -173 -1741 -375 -1117 -435 -2048 -1156
-2707 -2097 -607 -867 -956 -1789 -1084 -2863 -27 -227 -38 -801 -20 -1072 56
-851 256 -1604 620 -2333 290 -580 616 -1029 1072 -1475 1049 -1028 2369
-1623 3828 -1726 216 -15 786 -6 981 15 1768 196 3299 1117 4270 2571 560 838
892 1791 986 2830 24 267 25 806 1 1045 -39 392 -87 681 -161 977 -266 1053
-781 1986 -1511 2732 -492 504 -974 857 -1590 1166 -659 331 -1318 518 -2075
590 -199 19 -671 27 -869 15z m-285 -901 c13 -12 29 -37 36 -55 10 -28 17 -33
55 -39 37 -5 59 -1 131 29 167 67 256 88 393 93 165 7 242 -12 433 -106 171
-84 240 -104 366 -105 126 -1 261 33 443 110 42 18 77 30 77 25 0 -15 -50
-129 -163 -375 -98 -211 -114 -253 -105 -270 6 -12 93 -103 193 -203 124 -124
179 -186 171 -192 -26 -20 -157 -81 -241 -110 -126 -45 -211 -61 -321 -61
-132 0 -218 22 -364 92 -159 76 -241 105 -345 119 -147 19 -309 -12 -520 -100
-54 -23 -102 -41 -107 -41 -4 0 -8 203 -8 451 l0 451 -34 34 c-33 33 -36 34
-115 34 -78 0 -83 1 -117 33 -70 64 -60 173 21 208 32 14 95 3 121 -22z m4
-1213 l0 -914 -63 -45 c-35 -25 -69 -52 -76 -61 -8 -9 -17 -16 -22 -16 -5 0
-9 422 -9 975 l0 975 85 0 85 0 0 -914z m-380 81 l0 -94 -77 -22 c-43 -13
-127 -42 -188 -66 -495 -194 -921 -494 -1296 -911 l-45 -51 -110 -6 c-60 -3
-111 -3 -113 -1 -10 9 168 215 303 349 350 350 777 628 1221 797 94 36 275 96
293 97 9 1 12 -24 12 -92z m2633 -163 c325 -164 645 -400 907 -670 103 -107
283 -315 277 -321 -2 -1 -55 1 -119 6 l-116 9 -38 43 c-72 85 -292 297 -396
382 -206 169 -457 331 -663 427 -58 27 -105 52 -105 55 0 2 26 18 58 34 31 17
71 39 87 50 17 12 31 21 33 21 1 0 35 -16 75 -36z m-1443 -945 c230 -57 442
-234 555 -463 72 -148 89 -225 90 -401 0 -178 -20 -265 -90 -405 -108 -215
-277 -364 -504 -444 -82 -29 -94 -30 -246 -30 -155 -1 -163 0 -255 32 -119 42
-196 84 -284 159 -132 110 -240 284 -288 463 -33 120 -32 327 1 450 126 472
572 750 1021 639z m-2640 -319 c495 -118 783 -668 609 -1163 -97 -275 -325
-486 -603 -557 -90 -23 -254 -27 -352 -9 -325 60 -603 346 -675 694 -45 215
-1 446 123 652 88 147 275 299 438 358 135 49 317 59 460 25z m5233 5 c84 -18
203 -68 282 -120 79 -51 221 -196 263 -267 44 -74 97 -198 117 -273 9 -33 19
-109 22 -170 18 -389 -230 -754 -597 -878 -90 -30 -103 -31 -250 -32 -135 0
-165 3 -230 23 -153 49 -271 123 -381 239 -120 129 -203 298 -230 473 -14 93
-6 272 16 360 23 89 102 252 159 327 114 151 291 267 476 313 93 23 258 25
353 5z m-3249 -1592 c196 -186 389 -338 444 -349 16 -3 40 0 53 6 63 33 256
195 429 359 99 95 82 93 277 29 357 -117 556 -348 637 -738 32 -160 97 -756
112 -1037 l7 -121 -34 -10 c-149 -41 -470 -114 -476 -109 -3 4 -12 91 -19 195
-22 326 -54 642 -75 734 -12 54 -37 81 -71 76 l-23 -3 -5 -510 c-3 -280 -8
-509 -12 -507 -5 1 -47 20 -95 43 -172 79 -304 122 -457 145 -302 46 -636 -27
-845 -185 -56 -42 -65 -44 -141 -33 l-45 7 -5 520 -5 520 -24 0 c-51 0 -58
-25 -107 -355 -11 -77 -34 -370 -47 -600 -2 -45 -2 -45 -37 -42 -44 3 -468
106 -477 116 -12 12 34 588 67 838 6 46 13 101 16 123 43 357 126 559 300 726
116 111 240 176 449 235 44 12 86 23 94 23 7 1 59 -42 115 -96z m-2715 -286
c203 -197 409 -357 460 -357 39 0 74 25 261 190 124 108 179 150 197 150 34 0
166 -70 235 -125 108 -86 196 -231 240 -393 17 -63 21 -109 22 -257 0 -99 -5
-236 -12 -305 -7 -69 -15 -152 -17 -185 -9 -106 -18 -180 -22 -187 -4 -8 -181
52 -268 91 -78 35 -243 174 -572 479 -133 123 -145 132 -182 132 -30 0 -44 -6
-55 -22 -36 -51 -28 -63 182 -260 421 -395 470 -434 631 -497 238 -94 634
-207 969 -277 114 -24 115 -29 57 -159 -69 -155 -101 -284 -111 -450 -8 -120
-18 -130 -124 -120 -335 28 -612 71 -855 131 -389 96 -521 179 -1262 782 -68
55 -101 64 -140 37 -27 -19 -37 -59 -21 -90 29 -54 604 -510 819 -648 161
-103 374 -196 547 -237 28 -6 52 -16 52 -22 0 -5 -18 -87 -39 -181 -22 -95
-54 -239 -71 -322 -18 -82 -36 -157 -41 -166 -18 -35 -69 -48 -149 -38 -338
41 -864 206 -1254 393 -208 99 -335 173 -357 209 -18 31 -19 62 -19 949 0 593
4 944 11 995 46 342 210 613 455 753 83 47 252 110 298 110 24 0 50 -20 135
-103z m6603 70 c345 -120 557 -393 623 -802 12 -74 15 -250 15 -1013 0 -862
-1 -926 -17 -954 -14 -24 -55 -49 -198 -119 -305 -149 -582 -260 -890 -357
-358 -114 -596 -156 -652 -117 -27 19 -27 19 -108 390 -61 279 -64 301 -48
312 9 7 23 13 30 13 32 0 292 94 376 136 171 86 384 237 717 508 253 206 280
232 280 270 0 40 -35 76 -74 76 -24 0 -50 -16 -111 -68 -200 -170 -467 -377
-650 -504 -250 -174 -450 -245 -935 -332 -100 -18 -378 -52 -501 -62 -117 -9
-124 -2 -132 132 -8 129 -54 306 -112 434 -47 102 -51 134 -17 144 9 3 97 24
196 46 408 91 838 229 978 314 64 38 203 156 393 332 327 303 327 303 284 358
-15 19 -30 26 -54 26 -30 0 -52 -16 -172 -127 -218 -201 -464 -413 -518 -448
-39 -25 -306 -135 -328 -135 -5 0 -10 46 -38 365 -33 380 -17 558 65 730 45
96 114 185 183 240 68 53 202 125 233 125 13 0 50 -24 88 -57 129 -114 288
-247 317 -265 59 -36 87 -25 240 97 87 69 318 277 359 324 27 29 67 27 178
-12z m-3096 -1761 c125 -31 217 -67 385 -151 l131 -66 43 -92 c54 -115 90
-226 110 -341 22 -132 21 -149 -17 -182 -56 -47 -106 -64 -190 -64 -92 0 -160
22 -263 87 -139 87 -170 98 -270 97 -101 -1 -172 -22 -327 -100 -135 -68 -210
-69 -243 -3 -34 65 -14 95 115 168 105 60 193 96 293 122 51 13 67 31 50 58
-12 19 -48 17 -138 -5 -109 -28 -229 -92 -404 -213 -61 -43 -112 -43 -152 0
-33 35 -38 81 -14 116 43 62 313 201 465 239 105 27 131 43 110 68 -17 21 -51
20 -155 -5 -151 -35 -374 -153 -483 -254 l-60 -55 -21 26 c-31 39 -26 74 16
128 90 115 269 225 434 267 46 11 101 25 122 30 42 11 47 27 17 54 -20 18 -23
18 -108 -4 -115 -30 -209 -70 -322 -136 -51 -30 -96 -55 -100 -55 -12 0 -110
-108 -110 -121 0 -7 -9 -23 -21 -35 -76 -81 -23 -254 83 -271 22 -3 44 -11 49
-17 72 -91 106 -111 185 -104 44 3 45 3 54 -33 6 -20 21 -48 35 -63 14 -15 25
-28 25 -30 0 -2 -21 -6 -47 -10 -27 -4 -64 -9 -83 -13 -19 -4 -91 -7 -160 -7
-98 -1 -138 3 -184 18 -72 24 -139 68 -179 117 l-29 37 12 98 c24 210 103 428
169 467 16 9 73 24 127 32 55 9 113 24 129 34 17 10 67 41 112 68 85 52 204
96 326 119 115 22 357 12 483 -20z m35 -933 c136 -143 329 -422 329 -476 0
-27 -27 -75 -49 -87 -28 -14 -73 -12 -98 5 -11 8 -49 60 -83 116 -92 149 -196
282 -299 383 -51 48 -90 90 -88 92 15 15 121 43 163 44 51 0 52 0 125 -77z
m-366 -32 c83 -50 200 -180 337 -371 86 -120 98 -141 98 -168 0 -31 -38 -71
-79 -83 -33 -10 -43 -8 -80 10 -23 12 -53 38 -67 59 -131 191 -191 271 -269
352 -113 118 -117 124 -109 145 9 22 92 75 118 75 12 0 35 -8 51 -19z m617
-41 c33 -16 79 -83 113 -168 25 -61 33 -122 16 -122 -8 0 -55 69 -112 164 -12
22 -44 66 -71 97 -26 32 -48 60 -48 63 0 6 59 -14 102 -34z m-856 -98 c83 -61
292 -304 330 -386 16 -33 17 -38 1 -70 -20 -43 -71 -63 -120 -47 -53 18 -90
50 -162 141 -95 120 -167 191 -267 267 -49 36 -88 69 -88 73 0 11 24 18 112
35 118 21 150 19 194 -13z m-3706 -302 c110 -73 110 -73 157 -305 18 -93 41
-192 49 -218 28 -84 19 -82 -196 52 -120 74 -164 144 -190 300 -14 83 -7 174
16 208 24 38 62 29 164 -37z m8036 39 c14 -16 20 -40 23 -102 5 -111 -13 -198
-57 -282 -30 -56 -51 -79 -107 -122 -64 -49 -109 -72 -120 -61 -3 2 -6 94 -7
204 -2 147 0 207 10 229 17 38 176 154 213 155 14 0 34 -9 45 -21z m-7654
-273 c162 -94 166 -100 223 -301 21 -71 50 -167 66 -212 16 -45 29 -84 29 -88
0 -15 -62 10 -197 81 -163 86 -190 112 -222 214 -27 86 -83 369 -77 387 7 17
17 12 178 -81z m7315 -59 c1 -70 4 -130 6 -135 8 -12 -12 -115 -29 -155 -29
-64 -168 -135 -205 -105 -25 21 -64 89 -87 151 -36 96 -27 172 28 222 49 45
236 154 260 152 l24 -2 3 -128z m-6884 -173 c83 -42 163 -86 175 -98 32 -29
50 -65 117 -241 32 -82 69 -171 83 -198 42 -79 26 -78 -165 2 -187 80 -218
102 -257 190 -29 66 -130 394 -127 414 2 14 23 6 174 -69z m6477 36 c0 -38 35
-144 62 -187 27 -45 13 -44 -118 12 -59 25 -124 51 -145 58 -43 13 -46 18 -23
38 23 19 197 108 212 109 7 0 12 -13 12 -30z m-93 -228 c100 -40 186 -72 192
-72 19 0 12 -28 -11 -51 -13 -11 -84 -51 -158 -87 -158 -77 -177 -79 -297 -32
-163 65 -323 145 -321 160 3 16 74 54 223 120 122 54 143 52 372 -38z m-5891
-28 c198 -80 201 -83 295 -279 37 -77 85 -171 106 -208 31 -55 35 -69 24 -77
-10 -5 -74 12 -190 52 -134 46 -184 68 -209 92 -35 32 -111 181 -155 301 -14
39 -32 86 -40 105 -28 67 -30 80 -11 80 9 0 90 -30 180 -66z m2209 -93 c94
-25 137 -42 225 -85 116 -57 115 -50 20 -160 -50 -58 -98 -103 -122 -115 -37
-18 -44 -18 -86 -5 -219 67 -338 61 -446 -21 -48 -37 -98 -138 -99 -202 -2
-157 110 -273 263 -273 108 1 177 41 279 165 49 59 75 81 124 104 87 41 178
55 316 48 131 -7 129 -6 176 -105 27 -56 26 -72 -6 -72 -30 0 -142 -54 -219
-105 -38 -26 -107 -85 -152 -132 -205 -211 -427 -291 -650 -234 -224 58 -377
207 -438 426 l-17 60 -89 12 c-132 19 -167 35 -222 104 -27 32 -77 107 -112
167 -35 59 -79 132 -97 162 -18 31 -33 59 -33 63 0 14 42 7 213 -34 l172 -42
45 -47 c25 -26 61 -75 80 -109 19 -33 37 -61 40 -61 3 0 11 24 18 53 49 211
246 400 473 452 83 19 249 12 344 -14z m1083 13 c106 -21 226 -82 307 -156 64
-58 92 -95 82 -105 -3 -2 -70 -9 -149 -14 -279 -18 -351 -37 -470 -124 l-74
-54 -265 -9 c-148 -6 -268 -6 -273 -2 -20 20 154 208 288 312 191 147 355 193
554 152z m2077 -96 c88 -41 181 -83 207 -94 83 -33 68 -47 -138 -132 -189 -77
-202 -77 -377 12 -297 150 -308 160 -224 190 23 8 98 35 167 60 87 31 137 44
165 42 24 -2 105 -33 200 -78z m-4864 -2 c128 -41 179 -62 201 -83 17 -15 73
-100 125 -188 52 -88 110 -181 129 -206 54 -74 38 -76 -166 -23 -95 25 -183
50 -194 56 -61 31 -107 99 -218 321 -72 145 -83 177 -58 177 5 0 86 -24 181
-54z m4354 -184 c88 -47 181 -96 208 -109 78 -38 69 -45 -118 -106 -215 -71
-222 -72 -300 -42 -42 17 -299 171 -384 232 -29 21 334 126 399 117 19 -3 107
-44 195 -92z m-673 -63 c21 -11 89 -53 151 -93 61 -40 139 -88 172 -106 33
-19 62 -35 64 -37 3 -2 -2 -11 -11 -19 -17 -17 -330 -94 -383 -94 -17 0 -53
11 -81 25 -51 25 -366 259 -372 276 -5 14 17 20 192 50 171 29 208 29 268 -2z
m-558 -80 c22 -12 92 -60 154 -108 62 -47 142 -106 178 -131 63 -43 64 -46 45
-61 -21 -18 -191 -47 -323 -56 -78 -5 -86 -3 -135 23 -51 28 -343 278 -343
294 0 5 19 18 43 29 30 15 77 23 157 30 139 11 170 8 224 -20z m-629 -436 c80
-26 81 -26 392 -25 199 0 315 -3 319 -10 10 -15 -63 -114 -125 -169 -65 -58
-188 -122 -281 -145 -49 -12 -95 -15 -190 -12 -106 4 -139 10 -220 37 -103 35
-280 127 -280 146 0 13 108 119 157 153 36 26 98 50 128 51 11 0 56 -11 100
-26z"/>
</g>
</svg>
