<svg xmlns="http://www.w3.org/2000/svg" width="163" height="175" viewBox="0 0 163 175">
<g>
<path d="M 134.00 113.16 L 105.50 142.98 L 62.17 143.00 L 47.60 127.75 L 33.02 112.50 L 33.01 91.11 L 33.00 69.72 L 37.18 65.11 C39.48,62.58 46.00,55.66 51.68,49.75 L 62.01 39.00 L 105.83 39.00 L 119.91 53.75 L 133.99 68.50 L 133.99 90.83 ZM 60.89 139.36 C62.46,141.26 73.44,141.72 74.54,139.93 C75.62,138.19 74.10,137.50 69.59,137.67 C66.51,137.79 65.33,137.44 65.33,136.42 C65.33,135.64 65.82,134.98 66.42,134.96 C67.01,134.94 65.25,132.92 62.50,130.48 C59.75,128.04 58.09,126.03 58.81,126.02 C59.53,126.01 59.84,125.54 59.49,124.98 C59.14,124.42 58.43,124.23 57.91,124.56 C57.38,124.88 57.06,124.78 57.19,124.32 C57.32,123.87 56.88,122.52 56.22,121.33 C55.55,120.13 55.01,118.10 55.01,116.83 C55.01,115.55 54.59,111.12 54.07,107.00 C52.88,97.53 52.72,74.00 53.85,74.00 C54.31,74.00 55.00,81.62 55.38,90.94 C56.40,116.12 59.23,122.96 71.08,128.88 C84.12,135.40 99.62,131.33 106.50,119.58 C108.65,115.92 117.00,90.33 117.00,87.41 C117.00,85.53 113.87,83.47 111.60,83.85 C108.30,84.39 107.29,85.69 104.82,92.57 C103.56,96.11 102.13,99.00 101.66,99.00 C101.19,99.00 100.96,89.82 101.15,78.60 C101.34,67.37 101.79,58.37 102.14,58.59 C102.49,58.80 103.10,64.39 103.50,71.00 C104.21,82.74 105.03,85.37 107.29,83.11 C110.51,79.89 118.00,83.30 118.00,87.99 C118.00,89.57 118.44,92.03 118.98,93.44 C119.74,95.46 119.50,96.89 117.87,100.02 C116.44,102.77 115.93,105.20 116.25,107.76 C116.57,110.42 116.14,112.31 114.74,114.31 C113.49,116.11 112.95,118.10 113.27,119.81 C113.88,123.11 111.06,128.37 108.42,128.85 C105.48,129.39 103.29,131.78 102.61,135.18 C102.07,137.92 101.70,138.19 99.20,137.69 C95.61,136.97 92.77,138.47 95.86,139.46 C97.03,139.83 98.40,139.87 98.91,139.56 C99.42,139.24 100.95,139.41 102.32,139.93 C104.25,140.67 105.16,140.49 106.40,139.11 C107.28,138.14 108.00,136.80 108.00,136.15 C108.00,135.49 109.17,134.51 110.60,133.96 C112.26,133.33 113.00,132.45 112.65,131.54 C112.27,130.53 112.59,130.29 113.71,130.72 C114.79,131.13 115.09,130.95 114.61,130.17 C114.17,129.47 114.51,129.00 115.44,129.00 C116.30,129.00 117.06,128.55 117.12,128.00 C117.19,127.45 117.36,126.55 117.50,126.00 C117.64,125.45 117.81,124.55 117.88,124.00 C117.94,123.45 119.12,123.00 120.50,123.00 C121.88,123.00 123.00,122.54 123.00,121.97 C123.00,121.41 125.03,119.05 127.52,116.72 L 132.04 112.50 L 132.20 95.00 C132.38,75.69 131.77,68.35 130.00,68.77 C129.37,68.93 129.13,68.61 129.46,68.07 C130.22,66.83 123.51,59.30 120.91,58.47 C119.85,58.13 118.26,56.43 117.38,54.68 C116.51,52.93 113.26,48.91 110.18,45.75 L 104.56 40.00 L 62.89 40.00 L 60.01 42.75 C58.43,44.26 51.93,51.11 45.57,57.96 L 34.00 70.42 L 34.00 85.56 C34.00,106.59 34.70,112.27 37.64,115.16 C40.16,117.64 41.40,118.93 44.29,122.11 C45.27,123.19 46.54,123.79 47.10,123.44 C47.67,123.09 48.38,123.73 48.68,124.87 C48.97,126.00 50.10,127.21 51.18,127.56 C52.33,127.92 52.92,128.76 52.61,129.58 C52.31,130.35 52.39,130.90 52.79,130.81 C54.08,130.52 59.00,133.30 59.15,134.41 C59.24,135.01 59.36,136.00 59.42,136.61 C59.48,137.23 60.14,138.46 60.89,139.36 ZM 93.68 170.92 C81.97,172.54 71.36,171.61 60.61,168.03 C53.31,165.61 40.44,158.47 35.44,154.09 C31.55,150.67 31.74,149.86 35.70,152.98 C37.45,154.36 39.25,154.83 41.60,154.53 C44.22,154.19 45.22,154.54 46.04,156.07 C46.62,157.15 46.81,158.49 46.47,159.05 C46.13,159.60 46.28,159.93 46.81,159.77 C47.34,159.62 50.25,160.99 53.28,162.81 C57.40,165.28 60.39,166.26 65.14,166.68 C68.64,166.98 71.83,167.75 72.23,168.37 C72.76,169.18 72.97,169.19 72.98,168.39 C73.00,167.13 77.72,167.74 78.57,169.12 C79.28,170.26 85.32,170.26 86.55,169.12 C87.07,168.64 89.19,167.70 91.26,167.04 C93.33,166.38 94.78,165.46 94.49,164.99 C94.20,164.52 94.42,163.86 94.98,163.51 C95.54,163.16 96.00,163.36 96.00,163.94 C96.00,164.52 96.90,165.00 98.00,165.00 C99.10,165.00 100.00,165.45 100.00,166.00 C100.00,167.46 101.92,167.22 103.60,165.54 C104.88,164.27 104.78,163.90 102.78,162.62 C100.00,160.84 97.10,160.43 94.68,161.48 C93.68,161.91 91.88,161.79 90.68,161.21 C87.04,159.45 77.83,158.96 71.79,160.21 C66.94,161.21 65.81,161.15 64.29,159.86 C63.31,159.02 60.92,157.73 59.00,156.99 C57.08,156.25 54.61,155.05 53.53,154.32 C52.44,153.59 50.87,152.99 50.03,152.98 C49.19,152.97 47.40,152.11 46.05,151.07 C44.05,149.54 43.82,148.92 44.82,147.72 C46.22,146.03 45.50,143.41 43.42,142.61 C42.63,142.31 42.00,140.74 42.00,139.09 C42.00,137.46 41.54,135.84 40.98,135.49 C40.42,135.14 40.27,134.37 40.64,133.78 C41.03,133.14 40.85,132.98 40.20,133.38 C39.58,133.76 37.33,132.49 35.19,130.55 C33.05,128.62 31.08,127.26 30.81,127.53 C30.53,127.80 29.51,126.24 28.53,124.07 C27.55,121.90 26.13,119.88 25.38,119.59 C24.28,119.17 24.09,116.24 24.41,104.78 C24.63,96.93 24.86,85.66 24.91,79.75 C24.96,73.31 25.40,69.00 26.00,69.00 C26.64,69.00 27.00,77.45 27.00,92.36 L 27.00 115.72 L 60.19 150.00 L 107.77 150.00 L 123.86 133.14 L 139.96 116.29 L 140.07 91.14 C140.14,77.31 140.34,66.00 140.52,66.00 C141.88,66.00 143.86,78.23 143.94,87.00 C143.98,92.78 144.30,99.62 144.63,102.20 C144.97,104.79 144.92,110.78 144.53,115.51 C143.87,123.37 143.60,124.20 141.41,125.04 C139.77,125.66 139.00,126.73 139.00,128.39 C139.00,129.81 137.86,131.79 136.25,133.16 C134.74,134.45 133.46,136.06 133.40,136.75 C133.17,139.59 132.89,139.87 130.37,139.69 C128.20,139.53 127.28,140.30 125.21,144.00 C123.82,146.48 121.96,149.18 121.07,150.00 C120.18,150.82 118.90,152.77 118.22,154.31 C117.26,156.50 116.53,156.99 114.96,156.49 C113.71,156.09 111.57,156.64 109.41,157.92 C107.47,159.06 105.12,160.01 104.19,160.03 C102.71,160.06 102.74,160.25 104.44,161.53 C106.66,163.21 110.00,163.49 110.00,162.00 C110.00,161.45 110.80,161.00 111.78,161.00 C112.76,161.00 114.44,160.39 115.53,159.65 C116.61,158.90 118.49,158.38 119.70,158.48 C120.92,158.58 121.68,158.29 121.39,157.83 C121.11,157.37 121.58,157.00 122.44,157.00 C123.30,157.00 124.00,156.48 124.00,155.83 C124.00,155.19 124.30,154.96 124.66,155.33 C125.02,155.69 125.95,155.09 126.72,153.99 C127.49,152.90 128.90,152.00 129.86,152.00 C132.20,152.00 137.68,146.23 139.03,142.33 C139.63,140.61 140.97,138.98 142.01,138.71 C143.04,138.44 145.31,135.90 147.06,133.06 C148.80,130.22 150.47,128.13 150.76,128.42 C151.55,129.21 145.07,139.48 140.00,145.47 C128.04,159.60 112.09,168.36 93.68,170.92 ZM 92.75 57.25 C91.86,57.54 91.36,61.87 91.00,72.42 C90.72,80.54 90.16,86.84 89.75,86.42 C89.34,86.01 89.03,77.98 89.06,68.58 C89.11,56.83 89.42,52.23 90.07,53.85 C90.67,55.36 91.55,56.00 92.51,55.64 C93.33,55.32 94.00,55.46 94.00,55.95 C94.00,56.43 93.44,57.02 92.75,57.25 ZM 78.00 71.03 C78.00,79.81 77.76,87.00 77.47,87.00 C76.34,87.00 76.04,84.02 75.77,70.26 C75.57,59.58 75.81,55.90 76.75,55.54 C77.72,55.17 78.00,58.67 78.00,71.03 ZM 65.90 76.25 C65.96,84.36 65.85,91.00 65.67,91.00 C64.44,91.00 64.00,88.78 64.00,82.56 C64.00,77.86 63.49,74.72 62.50,73.31 C61.38,71.71 61.31,71.06 62.22,70.76 C62.89,70.54 63.97,68.36 64.62,65.93 C65.69,61.94 65.81,62.97 65.90,76.25 ZM 84.00 163.43 C84.00,164.35 83.15,165.00 81.92,165.00 C79.48,165.00 79.82,162.66 82.33,162.18 C83.32,161.99 84.00,162.50 84.00,163.43 Z" fill="rgb(190,31,28)"/>
<path d="M 60.89 139.36 C60.14,138.46 59.48,137.23 59.42,136.61 C59.36,136.00 59.24,135.01 59.15,134.41 C59.00,133.30 54.08,130.52 52.79,130.81 C52.39,130.90 52.31,130.35 52.61,129.58 C52.92,128.76 52.33,127.92 51.18,127.56 C50.10,127.21 48.97,126.00 48.68,124.87 C48.38,123.73 47.67,123.09 47.10,123.44 C46.54,123.79 45.27,123.19 44.29,122.11 C41.40,118.93 40.16,117.64 37.64,115.16 C34.70,112.27 34.00,106.59 34.00,85.56 L 34.00 70.42 L 45.57 57.96 C51.93,51.11 58.43,44.26 60.01,42.75 L 62.89 40.00 L 104.56 40.00 L 110.18 45.75 C113.26,48.91 116.51,52.93 117.38,54.68 C118.26,56.43 119.85,58.13 120.91,58.47 C123.51,59.30 130.22,66.83 129.46,68.07 C129.13,68.61 129.37,68.93 130.00,68.77 C131.77,68.35 132.38,75.69 132.20,95.00 L 132.04 112.50 L 127.52 116.72 C125.03,119.05 123.00,121.41 123.00,121.97 C123.00,122.54 121.88,123.00 120.50,123.00 C119.12,123.00 117.94,123.45 117.88,124.00 C117.81,124.55 117.64,125.45 117.50,126.00 C117.36,126.55 117.19,127.45 117.12,128.00 C117.06,128.55 116.30,129.00 115.44,129.00 C114.51,129.00 114.17,129.47 114.61,130.17 C115.09,130.95 114.79,131.13 113.71,130.72 C112.59,130.29 112.27,130.53 112.65,131.54 C113.00,132.45 112.26,133.33 110.60,133.96 C109.17,134.51 108.00,135.49 108.00,136.15 C108.00,136.80 107.28,138.14 106.40,139.11 C105.16,140.49 104.25,140.67 102.32,139.93 C100.95,139.41 99.42,139.24 98.91,139.56 C98.40,139.87 97.03,139.83 95.86,139.46 C92.77,138.47 95.61,136.97 99.20,137.69 C101.70,138.19 102.07,137.92 102.61,135.18 C103.29,131.78 105.48,129.39 108.42,128.85 C111.06,128.37 113.88,123.11 113.27,119.81 C112.95,118.10 113.49,116.11 114.74,114.31 C116.14,112.31 116.57,110.42 116.25,107.76 C115.93,105.20 116.44,102.77 117.87,100.02 C119.50,96.89 119.74,95.46 118.98,93.44 C118.44,92.03 118.00,89.57 118.00,87.99 C118.00,83.30 110.51,79.89 107.29,83.11 C105.03,85.37 104.21,82.74 103.50,71.00 C103.10,64.39 102.49,58.80 102.14,58.59 C101.82,58.39 101.44,65.57 101.22,75.12 C101.46,57.55 100.85,56.00 96.45,56.00 C95.40,56.00 94.55,56.10 93.86,56.40 C93.95,56.25 94.00,56.10 94.00,55.95 C94.00,55.46 93.33,55.32 92.51,55.64 C91.55,56.00 90.67,55.36 90.07,53.85 C89.42,52.23 89.11,56.83 89.06,68.58 C89.05,73.17 89.11,77.44 89.23,80.65 C89.08,77.69 89.00,73.75 89.00,69.14 C89.00,57.45 88.64,52.04 87.80,51.20 C85.85,49.25 80.22,49.72 79.04,51.93 C78.44,53.05 78.00,60.99 78.00,70.63 C78.00,70.69 78.00,70.74 78.00,70.79 C78.00,58.62 77.71,55.17 76.75,55.54 C75.81,55.90 75.57,59.58 75.77,70.26 C75.81,71.86 75.84,73.32 75.87,74.64 C75.83,73.50 75.80,72.28 75.78,70.98 L 75.50 56.50 L 72.18 56.18 C66.28,55.61 66.00,56.45 66.00,74.68 C66.00,77.83 65.97,80.53 65.91,82.76 C65.92,80.79 65.92,78.58 65.90,76.25 C65.81,62.97 65.69,61.94 64.62,65.93 C63.97,68.36 62.89,70.54 62.22,70.76 C61.31,71.06 61.38,71.71 62.50,73.31 C62.73,73.63 62.93,74.05 63.11,74.55 C62.85,73.93 62.52,73.40 62.12,72.90 C60.42,70.80 59.96,70.70 57.46,71.83 L 54.69 73.10 L 55.37 90.45 C55.67,98.11 56.13,104.09 56.94,108.88 C56.14,104.19 55.68,98.36 55.38,90.94 C55.00,81.62 54.31,74.00 53.85,74.00 C52.72,74.00 52.88,97.53 54.07,107.00 C54.59,111.12 55.01,115.55 55.01,116.83 C55.01,118.10 55.55,120.13 56.22,121.33 C56.88,122.52 57.32,123.87 57.19,124.32 C57.06,124.78 57.38,124.88 57.91,124.56 C58.43,124.23 59.14,124.42 59.49,124.98 C59.84,125.54 59.53,126.01 58.81,126.02 C58.09,126.03 59.75,128.04 62.50,130.48 C65.25,132.92 67.01,134.94 66.42,134.96 C65.82,134.98 65.33,135.64 65.33,136.42 C65.33,137.44 66.51,137.79 69.59,137.67 C74.10,137.50 75.62,138.19 74.54,139.93 C73.44,141.72 62.46,141.26 60.89,139.36 ZM 27.00 92.36 C27.00,77.45 26.64,69.00 26.00,69.00 C25.40,69.00 24.96,73.31 24.91,79.75 C24.86,85.66 24.63,96.93 24.41,104.78 C24.09,116.24 24.28,119.17 25.38,119.59 C26.13,119.88 27.55,121.90 28.53,124.07 C29.51,126.24 30.53,127.80 30.81,127.53 C31.08,127.26 33.05,128.62 35.19,130.55 C37.33,132.49 39.58,133.76 40.20,133.38 C40.85,132.98 41.03,133.14 40.64,133.78 C40.27,134.37 40.42,135.14 40.98,135.49 C41.54,135.84 42.00,137.46 42.00,139.09 C42.00,140.74 42.63,142.31 43.42,142.61 C45.50,143.41 46.22,146.03 44.82,147.72 C43.82,148.92 44.05,149.54 46.05,151.07 C47.40,152.11 49.19,152.97 50.03,152.98 C50.87,152.99 52.44,153.59 53.53,154.32 C54.61,155.05 57.08,156.25 59.00,156.99 C60.92,157.73 63.31,159.02 64.29,159.86 C65.81,161.15 66.94,161.21 71.79,160.21 C77.83,158.96 87.04,159.45 90.68,161.21 C91.88,161.79 93.68,161.91 94.68,161.48 C97.10,160.43 100.00,160.84 102.78,162.62 C104.78,163.90 104.88,164.27 103.60,165.54 C101.92,167.22 100.00,167.46 100.00,166.00 C100.00,165.45 99.10,165.00 98.00,165.00 C96.90,165.00 96.00,164.52 96.00,163.94 C96.00,163.36 95.54,163.16 94.98,163.51 C94.42,163.86 94.20,164.52 94.49,164.99 C94.78,165.46 93.33,166.38 91.26,167.04 C89.19,167.70 87.07,168.64 86.55,169.12 C85.32,170.26 79.28,170.26 78.57,169.12 C77.72,167.74 73.00,167.13 72.98,168.39 C72.97,169.19 72.76,169.18 72.23,168.37 C71.83,167.75 68.64,166.98 65.14,166.68 C60.39,166.26 57.40,165.28 53.28,162.81 C50.25,160.99 47.34,159.62 46.81,159.77 C46.28,159.93 46.13,159.60 46.47,159.05 C46.81,158.49 46.62,157.15 46.04,156.07 C45.22,154.54 44.22,154.19 41.60,154.53 C39.25,154.83 37.45,154.36 35.70,152.98 C32.83,150.72 31.94,150.52 33.15,151.88 C23.87,142.58 13.17,125.50 11.47,117.00 C11.08,115.07 10.41,113.05 9.96,112.49 C8.41,110.55 7.11,89.72 8.03,81.62 C8.88,74.22 9.98,70.30 10.02,74.58 C10.03,76.19 10.19,76.25 11.00,75.00 C11.53,74.18 11.99,73.95 12.02,74.50 C12.04,75.05 12.69,74.67 13.46,73.65 C15.33,71.19 13.47,66.36 11.34,68.13 C9.62,69.56 9.65,68.93 11.58,63.04 C13.15,58.25 13.19,58.22 15.81,59.58 C18.74,61.10 20.63,60.09 19.66,57.54 C18.79,55.30 15.97,54.44 14.91,56.10 C13.42,58.47 13.91,56.08 15.59,52.84 C16.75,50.58 17.47,50.07 18.29,50.89 C19.93,52.53 21.81,52.24 22.18,50.28 C22.55,48.38 22.90,48.66 27.08,54.25 C28.66,56.36 29.54,56.78 30.86,56.08 C33.72,54.54 33.10,59.00 29.85,63.19 L 27.00 66.88 L 27.00 92.36 ZM 149.91 131.00 C150.63,129.60 150.98,128.64 150.76,128.42 C150.47,128.13 148.80,130.22 147.06,133.06 C145.31,135.90 143.04,138.44 142.01,138.71 C140.97,138.98 139.63,140.61 139.03,142.33 C137.68,146.23 132.20,152.00 129.86,152.00 C128.90,152.00 127.49,152.90 126.72,153.99 C125.95,155.09 125.02,155.69 124.66,155.33 C124.30,154.96 124.00,155.19 124.00,155.83 C124.00,156.48 123.30,157.00 122.44,157.00 C121.58,157.00 121.11,157.37 121.39,157.83 C121.68,158.29 120.92,158.58 119.70,158.48 C118.49,158.38 116.61,158.90 115.53,159.65 C114.44,160.39 112.76,161.00 111.78,161.00 C110.80,161.00 110.00,161.45 110.00,162.00 C110.00,163.49 106.66,163.21 104.44,161.53 C102.74,160.25 102.71,160.06 104.19,160.03 C105.12,160.01 107.47,159.06 109.41,157.92 C111.57,156.64 113.71,156.09 114.96,156.49 C116.53,156.99 117.26,156.50 118.22,154.31 C118.90,152.77 120.18,150.82 121.07,150.00 C121.96,149.18 123.82,146.48 125.21,144.00 C127.28,140.30 128.20,139.53 130.37,139.69 C132.89,139.87 133.17,139.59 133.40,136.75 C133.46,136.06 134.74,134.45 136.25,133.16 C137.86,131.79 139.00,129.81 139.00,128.39 C139.00,126.73 139.77,125.66 141.41,125.04 C143.60,124.20 143.87,123.37 144.53,115.51 C144.92,110.78 144.97,104.79 144.63,102.20 C144.30,99.62 143.98,92.78 143.94,87.00 C143.86,78.23 141.88,66.00 140.52,66.00 C140.34,66.00 140.14,77.31 140.07,91.14 L 139.96 116.29 L 139.86 116.39 L 140.00 96.45 C140.08,85.48 140.12,73.95 140.07,70.83 L 140.00 65.17 L 130.25 54.90 C124.89,49.26 117.54,41.57 113.92,37.82 L 107.34 31.00 L 84.00 31.00 C71.17,31.00 60.87,30.80 61.11,30.56 C61.35,30.31 74.37,30.02 90.03,29.91 L 118.50 29.70 L 120.00 32.35 C121.78,35.50 125.00,35.92 125.00,33.01 C125.00,31.54 125.61,31.07 127.32,31.21 C129.01,31.35 129.57,31.96 129.40,33.45 C129.27,34.58 129.13,35.86 129.08,36.31 C129.04,36.75 128.60,36.87 128.10,36.56 C127.61,36.26 126.94,36.72 126.61,37.58 C126.23,38.55 127.23,40.38 129.25,42.43 C133.93,47.17 134.97,48.68 134.19,49.61 C133.81,50.06 134.28,49.84 135.24,49.10 C136.20,48.37 136.70,47.32 136.36,46.77 C136.02,46.22 135.39,44.24 134.97,42.38 C134.41,39.87 134.55,39.00 135.52,39.00 C136.25,39.00 137.47,38.76 138.24,38.46 C139.10,38.13 140.11,38.95 140.85,40.56 C141.61,42.25 142.58,42.99 143.52,42.63 C144.83,42.13 149.45,46.90 149.53,48.83 C149.54,49.20 150.29,50.62 151.20,52.00 C153.56,55.58 157.02,66.32 158.48,74.64 C160.86,88.20 158.05,115.03 153.47,122.50 C152.79,123.60 151.97,125.67 151.64,127.09 C151.43,127.99 150.81,129.36 149.91,131.00 ZM 44.48 46.15 C44.74,46.40 42.28,49.25 39.02,52.48 C33.33,58.11 33.10,58.23 33.31,55.50 C33.43,53.94 34.15,52.45 34.90,52.20 C35.82,51.89 36.01,52.17 35.48,53.02 C34.98,53.85 35.09,54.06 35.80,53.62 C36.41,53.24 36.67,52.31 36.38,51.54 C36.08,50.77 36.76,49.66 37.92,49.04 C39.07,48.43 40.00,48.24 40.00,48.62 C40.00,49.00 40.90,48.49 42.01,47.49 C43.11,46.50 44.22,45.89 44.48,46.15 ZM 84.00 163.43 C84.00,162.50 83.32,161.99 82.33,162.18 C79.82,162.66 79.48,165.00 81.92,165.00 C83.15,165.00 84.00,164.35 84.00,163.43 ZM 143.24 40.34 C144.18,40.71 144.19,40.86 143.29,40.92 C142.62,40.96 141.60,40.13 141.04,39.07 C139.58,36.34 139.75,35.55 141.49,36.99 C142.31,37.67 142.76,38.59 142.48,39.03 C142.21,39.47 142.55,40.06 143.24,40.34 ZM 113.32 100.86 C115.40,93.65 116.88,87.03 116.28,86.07 C115.26,84.44 111.79,83.71 109.61,84.42 C110.18,84.15 110.82,83.98 111.60,83.85 C113.87,83.47 117.00,85.53 117.00,87.41 C117.00,88.71 115.34,94.51 113.32,100.86 ZM 89.88 86.34 C90.28,85.51 90.75,79.70 91.00,72.42 L 91.00 72.40 C91.00,72.64 91.00,72.88 91.00,73.13 C91.00,82.20 90.65,86.90 90.00,86.50 C89.96,86.48 89.92,86.42 89.88,86.34 ZM 93.68 170.92 C101.09,169.89 108.10,167.85 114.61,164.87 C109.87,167.13 105.02,168.83 100.31,169.84 C97.66,170.41 94.93,170.83 92.16,171.11 C92.66,171.05 93.17,170.99 93.68,170.92 ZM 107.67 86.14 C106.84,87.57 105.73,90.03 104.82,92.57 C105.96,89.40 106.79,87.41 107.67,86.14 ZM 92.75 57.25 L 92.76 57.25 C92.52,57.54 92.31,57.89 92.13,58.32 C92.32,57.67 92.52,57.32 92.75,57.25 ZM 101.66 99.00 C102.11,98.99 103.38,96.45 104.59,93.22 C103.38,96.46 102.10,99.00 101.66,99.00 ZM 136.58 149.25 C136.42,149.42 136.26,149.59 136.10,149.75 C136.26,149.59 136.42,149.42 136.58,149.25 ZM 59.61 167.69 C59.94,167.81 60.26,167.92 60.57,168.02 C60.26,167.92 59.94,167.81 59.61,167.69 Z" fill="rgb(218,40,34)"/>
<path d="M 148.98 47.36 C147.70,45.17 144.56,42.23 143.52,42.63 C142.58,42.99 141.61,42.25 140.85,40.56 C140.11,38.95 139.10,38.13 138.24,38.46 C137.47,38.76 136.25,39.00 135.52,39.00 C134.55,39.00 134.41,39.87 134.97,42.38 C135.39,44.24 136.02,46.22 136.36,46.77 C136.70,47.32 136.20,48.37 135.24,49.10 C134.28,49.84 133.81,50.06 134.19,49.61 C134.97,48.68 133.93,47.17 129.25,42.43 C127.23,40.38 126.23,38.55 126.61,37.58 C126.94,36.72 127.61,36.26 128.10,36.56 C128.60,36.87 129.04,36.75 129.08,36.31 C129.13,35.86 129.27,34.58 129.40,33.45 C129.57,31.96 129.01,31.35 127.32,31.21 C125.61,31.07 125.00,31.54 125.00,33.01 C125.00,35.92 121.78,35.50 120.00,32.35 L 118.50 29.70 L 90.03 29.91 C74.37,30.02 61.35,30.31 61.11,30.56 C60.87,30.80 71.17,31.00 84.00,31.00 L 107.34 31.00 L 108.31 32.00 L 59.87 32.00 L 53.93 37.22 C50.67,40.09 48.00,42.85 48.00,43.34 C48.00,43.83 43.28,49.16 37.50,55.19 L 29.95 63.06 C33.11,58.91 33.69,54.56 30.86,56.08 C29.54,56.78 28.66,56.36 27.08,54.25 C22.90,48.66 22.55,48.38 22.18,50.28 C21.81,52.24 19.93,52.53 18.29,50.89 C17.47,50.07 16.75,50.58 15.59,52.84 C13.91,56.08 13.42,58.47 14.91,56.10 C15.97,54.44 18.79,55.30 19.66,57.54 C20.63,60.09 18.74,61.10 15.81,59.58 C13.66,58.46 13.25,58.28 12.30,60.91 C12.37,60.65 12.43,60.39 12.48,60.16 C13.49,55.46 19.69,43.22 22.47,40.44 C23.74,39.17 24.61,37.94 24.39,37.72 C24.17,37.50 26.72,34.52 30.06,31.10 C46.36,14.39 69.53,6.15 92.26,8.97 C109.16,11.07 121.95,17.21 134.74,29.36 C139.90,34.26 146.97,43.34 148.98,47.36 ZM 11.11 64.51 C9.66,69.03 9.78,69.43 11.34,68.13 C13.47,66.36 15.33,71.19 13.46,73.65 C12.69,74.67 12.04,75.05 12.02,74.50 C11.99,73.95 11.53,74.18 11.00,75.00 C10.19,76.25 10.03,76.19 10.02,74.58 C9.98,70.30 8.88,74.22 8.03,81.62 C7.86,83.13 7.77,85.09 7.74,87.28 C7.73,84.38 7.80,81.67 7.96,79.48 C8.37,73.94 9.39,68.13 10.23,66.48 C10.52,65.93 10.82,65.24 11.11,64.51 ZM 44.48 46.15 C44.22,45.89 43.11,46.50 42.01,47.49 C40.90,48.49 40.00,49.00 40.00,48.62 C40.00,48.24 39.07,48.43 37.92,49.04 C36.76,49.66 36.08,50.77 36.38,51.54 C36.67,52.31 36.41,53.24 35.80,53.62 C35.09,54.06 34.98,53.85 35.48,53.02 C36.01,52.17 35.82,51.89 34.90,52.20 C34.15,52.45 33.43,53.94 33.31,55.50 C33.10,58.23 33.33,58.11 39.02,52.48 C42.28,49.25 44.74,46.40 44.48,46.15 ZM 143.24 40.34 C142.55,40.06 142.21,39.47 142.48,39.03 C142.76,38.59 142.31,37.67 141.49,36.99 C139.75,35.55 139.58,36.34 141.04,39.07 C141.60,40.13 142.62,40.96 143.29,40.92 C144.19,40.86 144.18,40.71 143.24,40.34 ZM 121.26 45.46 C124.26,48.61 127.52,52.02 130.25,54.90 L 140.00 65.17 L 130.34 55.04 C127.53,52.09 124.23,48.61 121.26,45.46 Z" fill="rgb(229,76,68)"/>
<path d="M 0.00 87.50 L 0.00 0.00 L 81.50 0.00 L 163.00 0.00 L 163.00 87.50 L 163.00 175.00 L 81.50 175.00 L 0.00 175.00 L 0.00 87.50 ZM 100.31 169.84 C112.84,167.15 126.37,159.56 136.10,149.75 C141.93,143.87 150.73,131.05 151.64,127.09 C151.97,125.67 152.79,123.60 153.47,122.50 C158.05,115.03 160.86,88.20 158.48,74.64 C157.02,66.32 153.56,55.58 151.20,52.00 C150.29,50.62 149.54,49.24 149.53,48.92 C149.42,46.53 140.77,35.08 134.74,29.36 C121.95,17.21 109.16,11.07 92.26,8.97 C69.53,6.15 46.36,14.39 30.06,31.10 C26.72,34.52 24.17,37.50 24.39,37.72 C24.61,37.94 23.74,39.17 22.47,40.44 C19.69,43.22 13.49,55.46 12.48,60.16 C12.08,62.00 11.07,64.84 10.23,66.48 C9.39,68.13 8.37,73.94 7.96,79.48 C7.20,89.61 8.48,110.64 9.96,112.49 C10.41,113.05 11.08,115.07 11.47,117.00 C13.26,125.95 25.04,144.43 34.62,153.31 C39.47,157.79 53.15,165.55 60.57,168.02 C72.33,171.94 87.33,172.62 100.31,169.84 ZM 43.59 132.86 L 27.00 115.72 L 27.00 90.93 L 27.00 66.14 L 37.50 55.19 C43.28,49.16 48.00,43.83 48.00,43.34 C48.00,42.85 50.67,40.09 53.93,37.22 L 59.87 32.00 L 84.25 32.00 L 108.64 32.00 L 114.66 38.46 C117.97,42.01 125.03,49.47 130.34,55.04 L 140.00 65.17 L 140.07 70.83 C140.12,73.95 140.08,85.48 140.00,96.45 L 139.86 116.39 L 123.81 133.20 L 107.77 150.00 L 83.98 150.00 L 60.19 150.00 L 43.59 132.86 ZM 119.75 128.07 L 134.00 113.16 L 133.99 90.83 L 133.99 68.50 L 119.91 53.75 L 105.83 39.00 L 83.92 39.00 L 62.01 39.00 L 51.68 49.75 C46.00,55.66 39.48,62.58 37.18,65.11 L 33.00 69.72 L 33.01 91.11 L 33.02 112.50 L 47.60 127.75 L 62.17 143.00 L 83.84 142.99 L 105.50 142.98 L 119.75 128.07 ZM 71.08 128.88 C59.16,122.93 56.37,116.11 55.37,90.45 L 54.69 73.10 L 57.46 71.83 C59.96,70.70 60.42,70.80 62.12,72.90 C63.58,74.70 64.00,76.86 64.00,82.55 C64.00,86.58 64.45,90.16 65.00,90.50 C65.65,90.90 66.00,85.38 66.00,74.68 C66.00,56.45 66.28,55.61 72.18,56.18 L 75.50 56.50 L 75.78 70.98 C76.18,91.82 78.00,91.54 78.00,70.63 C78.00,60.99 78.44,53.05 79.04,51.93 C80.22,49.72 85.85,49.25 87.80,51.20 C88.64,52.04 89.00,57.45 89.00,69.14 C89.00,79.22 89.40,86.13 90.00,86.50 C90.65,86.90 91.00,82.20 91.00,73.13 C91.00,58.02 91.64,56.00 96.45,56.00 C101.16,56.00 101.53,57.78 101.16,79.15 C100.97,90.07 101.20,99.00 101.66,99.00 C102.13,99.00 103.56,96.11 104.82,92.57 C106.09,89.03 107.75,85.62 108.51,85.00 C110.35,83.47 115.06,84.12 116.28,86.07 C117.51,88.03 110.10,113.45 106.51,119.57 C99.62,131.33 84.13,135.40 71.08,128.88 Z" fill="rgb(249,244,242)"/>
</g>
</svg>