<svg xmlns="http://www.w3.org/2000/svg" width="162" height="170" viewBox="0 0 162 170">
<g>
<path d="M 100.50 163.59 C82.05,168.48 61.21,165.06 44.25,154.34 C37.16,149.86 24.31,136.79 21.18,130.88 C19.90,128.47 19.56,127.37 20.43,128.44 C21.41,129.65 22.00,129.89 22.00,129.07 C22.00,128.14 22.37,128.05 23.25,128.78 C23.94,129.34 25.71,129.66 27.18,129.50 C30.23,129.15 31.71,131.44 29.87,133.65 C29.24,134.42 29.00,135.33 29.35,135.68 C29.70,136.03 29.46,136.95 28.82,137.71 C27.92,138.81 27.97,139.05 29.08,138.81 C29.86,138.64 30.37,139.12 30.21,139.87 C30.02,140.75 30.48,141.03 31.46,140.65 C32.31,140.33 33.00,140.55 33.00,141.15 C33.00,141.85 33.56,141.78 34.56,140.95 C35.50,140.17 35.91,138.79 35.59,137.51 C35.30,136.34 35.52,133.71 36.08,131.68 C36.86,128.85 37.91,127.65 40.55,126.54 C43.44,125.34 44.00,124.59 44.00,121.99 C44.00,120.27 43.55,118.02 42.99,116.99 C42.44,115.95 41.89,113.98 41.78,112.60 C41.66,111.22 41.38,110.29 41.14,110.53 C40.59,111.08 36.04,105.85 35.89,104.50 C35.50,101.20 35.60,100.39 36.50,99.37 C38.01,97.66 39.98,98.93 46.00,105.50 C57.21,117.72 65.55,126.20 67.26,127.13 C68.23,127.65 69.66,127.73 70.43,127.29 C71.21,126.86 79.36,117.28 88.56,106.00 C97.76,94.72 110.39,79.36 116.63,71.86 C122.87,64.36 128.41,57.16 128.93,55.86 C129.68,53.98 129.89,54.73 129.94,59.60 C129.99,64.47 129.60,66.05 128.00,67.50 C126.90,68.50 126.00,69.83 126.00,70.46 C126.00,72.27 104.63,99.61 100.67,102.87 C99.75,103.63 99.00,104.83 99.00,105.55 C99.00,106.27 98.41,107.45 97.70,108.18 C96.98,108.91 95.20,111.53 93.73,114.00 C85.93,127.18 85.31,132.39 91.59,131.84 C93.59,131.67 95.42,132.07 95.86,132.77 C96.42,133.68 97.26,133.41 99.04,131.75 C100.37,130.51 101.78,129.60 102.17,129.73 C102.56,129.86 103.16,129.07 103.51,127.98 C104.18,125.87 106.00,125.24 106.00,127.12 C106.00,127.93 106.39,127.92 107.41,127.08 C109.07,125.69 117.99,126.05 118.01,127.50 C118.02,128.08 118.34,128.03 118.77,127.39 C119.17,126.79 121.08,125.77 123.01,125.15 C125.69,124.27 126.94,123.04 128.28,119.96 C130.05,115.87 130.35,115.64 135.25,114.56 C137.23,114.13 138.00,113.35 138.00,111.76 C138.00,109.13 143.01,104.40 144.04,106.07 C144.42,106.67 145.01,107.13 145.36,107.09 C145.71,107.04 146.11,107.04 146.25,107.10 C147.63,107.65 151.81,107.51 151.46,106.93 C151.20,106.51 151.55,105.98 152.24,105.74 C153.19,105.42 153.25,104.61 152.45,102.41 C150.76,97.71 152.94,72.00 155.03,72.00 C157.73,72.00 156.78,104.91 154.06,105.81 C153.47,106.01 153.25,106.59 153.57,107.11 C154.45,108.54 151.22,117.58 146.65,126.50 C140.68,138.15 126.73,151.93 115.00,157.77 C110.32,160.09 103.80,162.71 100.50,163.59 ZM 74.00 92.35 C70.97,95.99 68.27,98.98 67.98,98.99 C67.69,98.99 63.65,95.18 59.00,90.50 C54.35,85.82 51.10,82.00 51.77,82.00 C52.45,82.00 53.00,82.47 53.00,83.05 C53.00,83.63 54.69,84.80 56.75,85.65 C58.81,86.51 62.47,88.10 64.87,89.18 C68.00,90.60 69.55,90.85 70.32,90.08 C71.76,88.64 73.31,88.70 72.40,90.15 C71.95,90.89 72.13,91.04 72.91,90.55 C73.59,90.14 73.90,89.19 73.62,88.45 C73.30,87.61 73.62,87.30 74.46,87.62 C75.25,87.93 76.10,87.28 76.48,86.07 C76.84,84.93 77.51,84.00 77.98,84.00 C78.44,84.00 81.13,81.06 83.95,77.47 C86.99,73.60 89.54,71.22 90.21,71.63 C90.92,72.07 90.09,73.43 87.91,75.38 C86.04,77.06 84.60,78.76 84.73,79.16 C84.86,79.56 83.73,80.85 82.23,82.03 C80.73,83.21 79.50,84.53 79.50,84.95 C79.50,85.37 77.03,88.70 74.00,92.35 Z" fill="rgb(34,149,54)"/>
<path d="M 155.92 73.61 C155.69,72.59 155.39,72.00 155.03,72.00 C152.94,72.00 150.76,97.71 152.45,102.41 C153.25,104.61 153.19,105.42 152.24,105.74 C151.55,105.98 151.20,106.51 151.46,106.93 C151.81,107.51 147.63,107.65 146.25,107.10 C146.11,107.04 145.71,107.04 145.36,107.09 C145.01,107.13 144.42,106.67 144.04,106.07 C143.01,104.40 138.00,109.13 138.00,111.76 C138.00,113.35 137.23,114.13 135.25,114.56 C130.35,115.64 130.05,115.87 128.28,119.96 C126.94,123.04 125.69,124.27 123.01,125.15 C121.08,125.77 119.17,126.79 118.77,127.39 C118.34,128.03 118.02,128.08 118.01,127.50 C117.99,126.05 109.07,125.69 107.41,127.08 C106.39,127.92 106.00,127.93 106.00,127.12 C106.00,125.24 104.18,125.87 103.51,127.98 C103.16,129.07 102.56,129.86 102.17,129.73 C101.78,129.60 100.37,130.51 99.04,131.75 C97.26,133.41 96.42,133.68 95.86,132.77 C95.42,132.07 93.59,131.67 91.59,131.84 C85.31,132.39 85.93,127.18 93.73,114.00 C95.20,111.53 96.98,108.91 97.70,108.18 C98.41,107.45 99.00,106.27 99.00,105.55 C99.00,104.83 99.75,103.63 100.67,102.87 C104.63,99.61 126.00,72.27 126.00,70.46 C126.00,69.83 126.90,68.50 128.00,67.50 C129.60,66.05 129.99,64.47 129.94,59.60 C129.89,54.73 129.68,53.98 128.93,55.86 C128.88,55.98 128.79,56.15 128.66,56.37 C128.88,55.97 129.00,55.70 129.00,55.56 C129.00,54.80 127.43,52.30 125.50,50.00 C123.57,47.70 122.00,45.57 122.00,45.27 C122.00,44.67 132.05,53.80 133.23,55.46 C133.64,56.03 133.98,56.10 133.98,55.62 C133.99,55.13 134.96,55.95 136.14,57.45 C137.79,59.55 138.48,59.87 139.16,58.83 C140.53,56.75 143.00,60.68 143.00,64.94 L 143.00 68.50 L 145.37 65.75 C146.67,64.24 148.19,63.00 148.75,63.00 C149.31,63.00 150.00,62.10 150.29,61.00 C150.62,59.72 151.36,59.20 152.31,59.56 C153.94,60.19 155.26,65.65 155.92,73.61 ZM 67.26 127.13 C65.55,126.20 57.21,117.72 46.00,105.50 C39.98,98.93 38.01,97.66 36.50,99.37 C35.60,100.39 35.50,101.20 35.89,104.50 C36.04,105.85 40.59,111.08 41.14,110.53 C41.38,110.29 41.66,111.22 41.78,112.60 C41.89,113.98 42.44,115.95 42.99,116.99 C43.55,118.02 44.00,120.27 44.00,121.99 C44.00,124.59 43.44,125.34 40.55,126.54 C37.91,127.65 36.86,128.85 36.08,131.68 C35.52,133.71 35.30,136.34 35.59,137.51 C35.91,138.79 35.50,140.17 34.56,140.95 C33.56,141.78 33.00,141.85 33.00,141.15 C33.00,140.55 32.31,140.33 31.46,140.65 C30.48,141.03 30.02,140.75 30.21,139.87 C30.37,139.12 29.86,138.64 29.08,138.81 C27.97,139.05 27.92,138.81 28.82,137.71 C29.46,136.95 29.70,136.03 29.35,135.68 C29.00,135.33 29.24,134.42 29.87,133.65 C31.71,131.44 30.23,129.15 27.18,129.50 C25.71,129.66 23.94,129.34 23.25,128.78 C22.37,128.05 22.00,128.14 22.00,129.07 C22.00,129.89 21.41,129.65 20.43,128.44 C19.56,127.37 19.90,128.47 21.18,130.88 C24.31,136.79 37.16,149.86 44.25,154.34 C54.16,160.60 65.39,164.37 76.70,165.45 C73.67,165.27 70.87,164.93 68.55,164.41 C33.88,156.67 10.13,126.87 8.44,89.00 C7.99,78.97 8.03,78.67 9.44,82.26 C10.24,84.33 11.20,88.69 11.57,91.94 C12.19,97.43 12.38,97.78 14.13,96.68 C15.17,96.04 15.80,94.92 15.52,94.20 C15.25,93.48 15.47,93.17 16.01,93.51 C16.56,93.84 17.00,93.30 17.00,92.31 C17.00,90.82 17.79,90.51 21.44,90.58 C24.75,90.64 26.51,90.08 28.34,88.39 C29.68,87.14 31.00,86.34 31.27,86.61 C31.54,86.87 32.04,85.96 32.39,84.58 C32.76,83.10 33.55,82.27 34.30,82.56 C35.00,82.83 36.88,81.69 38.48,80.03 C40.07,78.36 41.99,77.00 42.75,77.00 C43.50,77.00 43.84,76.55 43.50,76.00 C42.59,74.52 46.25,74.79 50.35,76.50 C52.37,77.35 56.97,78.00 60.90,78.00 C65.75,78.00 68.31,78.45 69.36,79.50 C71.06,81.20 73.00,81.48 73.00,80.02 C73.00,79.00 80.47,74.81 81.13,75.46 C81.33,75.66 81.57,74.72 81.65,73.35 C81.73,71.99 81.95,70.77 82.15,70.65 C82.34,70.53 84.60,68.76 87.17,66.72 C89.74,64.67 92.30,63.00 92.86,63.00 C93.43,63.00 94.59,62.00 95.44,60.78 C96.31,59.54 97.00,59.15 97.00,59.90 C97.00,61.00 97.28,61.01 98.55,59.96 C99.58,59.10 99.74,58.46 99.01,58.01 C98.34,57.60 99.51,55.64 102.03,52.92 C104.29,50.49 105.85,49.17 105.49,50.00 C105.12,50.83 106.21,50.04 107.90,48.25 C109.59,46.46 111.54,45.01 112.24,45.03 C112.95,45.05 112.64,45.73 111.50,46.60 C110.40,47.45 109.58,48.48 109.69,48.89 C109.79,49.30 107.51,52.19 104.62,55.33 C101.72,58.46 99.55,61.21 99.78,61.44 C100.01,61.67 99.25,62.45 98.10,63.17 C96.94,63.89 96.00,64.88 96.00,65.37 C96.00,65.86 90.49,72.78 83.75,80.74 C80.64,84.42 77.63,87.99 75.20,90.88 C77.65,87.85 79.50,85.31 79.50,84.95 C79.50,84.53 80.73,83.21 82.23,82.03 C83.73,80.85 84.86,79.56 84.73,79.16 C84.60,78.76 86.04,77.06 87.91,75.38 C90.09,73.43 90.92,72.07 90.21,71.63 C89.54,71.22 86.99,73.60 83.95,77.47 C81.13,81.06 78.44,84.00 77.98,84.00 C77.51,84.00 76.84,84.93 76.48,86.07 C76.10,87.28 75.25,87.93 74.46,87.62 C73.62,87.30 73.30,87.61 73.62,88.45 C73.90,89.19 73.59,90.14 72.91,90.55 C72.13,91.04 71.95,90.89 72.40,90.15 C73.31,88.70 71.76,88.64 70.32,90.08 C69.55,90.85 68.00,90.60 64.87,89.18 C62.47,88.10 58.81,86.51 56.75,85.65 C54.69,84.80 53.00,83.63 53.00,83.05 C53.00,82.47 52.45,82.00 51.77,82.00 C51.10,82.00 54.35,85.82 59.00,90.50 C60.50,92.01 61.94,93.43 63.20,94.66 C61.81,93.33 60.05,91.59 57.79,89.37 C45.74,77.51 42.98,76.32 38.45,81.05 C36.90,82.67 35.97,84.00 36.39,84.00 C36.80,84.00 36.21,85.19 35.07,86.63 C33.93,88.08 33.00,89.63 33.00,90.06 C33.00,91.85 63.95,125.34 67.26,127.13 ZM 126.00 84.62 C126.00,85.44 126.45,85.84 127.00,85.50 C127.55,85.16 128.00,84.23 128.00,83.44 C128.00,82.65 128.68,82.00 129.50,82.00 C131.04,82.00 131.47,79.39 130.40,76.59 C129.49,74.22 128.00,75.72 128.00,79.00 C128.00,80.59 127.55,82.16 127.00,82.50 C126.45,82.84 126.00,83.79 126.00,84.62 ZM 153.24 110.57 C153.71,108.80 153.85,107.57 153.57,107.11 C153.25,106.59 153.47,106.01 154.06,105.81 C154.88,105.54 155.53,102.39 155.98,98.11 C155.61,102.06 154.92,105.00 153.58,109.45 C153.47,109.83 153.35,110.20 153.24,110.57 ZM 127.63 149.20 C123.24,153.18 120.06,155.24 115.00,157.77 C119.08,155.73 123.44,152.74 127.63,149.20 ZM 145.49 128.61 C145.91,127.90 146.29,127.20 146.65,126.50 C148.66,122.59 150.40,118.65 151.66,115.34 C149.88,120.33 147.91,124.61 145.49,128.61 ZM 87.23 107.63 C78.59,118.19 71.17,126.88 70.43,127.29 C70.09,127.48 69.63,127.58 69.13,127.58 C69.62,127.58 70.09,127.48 70.42,127.29 C71.07,126.93 78.19,118.57 87.23,107.63 ZM 110.15 79.69 C114.68,74.18 118.47,69.58 120.67,66.93 C119.39,68.52 118.03,70.18 116.63,71.86 C114.90,73.95 112.66,76.64 110.15,79.69 ZM 71.49 95.31 C70.63,96.34 70.03,97.06 69.79,97.36 C69.37,97.89 69.05,98.28 68.65,98.42 C69.29,97.79 70.29,96.68 71.49,95.31 Z" fill="rgb(41,159,60)"/>
<path d="M 154.87 65.56 C154.18,62.12 153.30,59.95 152.31,59.56 C151.36,59.20 150.62,59.72 150.29,61.00 C150.00,62.10 149.31,63.00 148.75,63.00 C148.19,63.00 146.67,64.24 145.37,65.75 L 143.00 68.50 L 143.00 64.94 C143.00,60.68 140.53,56.75 139.16,58.83 C138.48,59.87 137.79,59.55 136.14,57.45 C134.96,55.95 133.99,55.13 133.98,55.62 C133.98,56.10 133.64,56.03 133.23,55.46 C132.05,53.80 122.00,44.67 122.00,45.27 C122.00,45.57 123.57,47.70 125.50,50.00 C126.55,51.26 127.50,52.58 128.15,53.64 C127.31,52.36 125.92,50.62 124.36,48.96 C117.14,41.23 116.03,41.66 103.29,57.25 C102.04,58.78 100.81,60.20 99.77,61.34 C99.90,60.77 101.96,58.21 104.62,55.33 C107.51,52.19 109.79,49.30 109.69,48.89 C109.58,48.48 110.40,47.45 111.50,46.60 C112.64,45.73 112.95,45.05 112.24,45.03 C111.54,45.01 109.59,46.46 107.90,48.25 C106.21,50.04 105.12,50.83 105.49,50.00 C105.85,49.17 104.29,50.49 102.03,52.92 C99.51,55.64 98.34,57.60 99.01,58.01 C99.74,58.46 99.58,59.10 98.55,59.96 C97.28,61.01 97.00,61.00 97.00,59.90 C97.00,59.15 96.31,59.54 95.44,60.78 C94.59,62.00 93.43,63.00 92.86,63.00 C92.30,63.00 89.74,64.67 87.17,66.72 C84.60,68.76 82.34,70.53 82.15,70.65 C81.95,70.77 81.73,71.99 81.65,73.35 C81.57,74.72 81.33,75.66 81.13,75.46 C80.47,74.81 73.00,79.00 73.00,80.02 C73.00,81.48 71.06,81.20 69.36,79.50 C68.31,78.45 65.75,78.00 60.90,78.00 C56.97,78.00 52.37,77.35 50.35,76.50 C46.25,74.79 42.59,74.52 43.50,76.00 C43.84,76.55 43.50,77.00 42.75,77.00 C41.99,77.00 40.07,78.36 38.48,80.03 C36.88,81.69 35.00,82.83 34.30,82.56 C33.55,82.27 32.76,83.10 32.39,84.58 C32.04,85.96 31.54,86.87 31.27,86.61 C31.00,86.34 29.68,87.14 28.34,88.39 C26.51,90.08 24.75,90.64 21.44,90.58 C17.79,90.51 17.00,90.82 17.00,92.31 C17.00,93.30 16.56,93.84 16.01,93.51 C15.47,93.17 15.25,93.48 15.52,94.20 C15.80,94.92 15.17,96.04 14.13,96.68 C12.38,97.78 12.19,97.43 11.57,91.94 C11.20,88.69 10.24,84.33 9.44,82.26 C9.07,81.33 8.80,80.66 8.60,80.35 C8.86,71.30 10.00,63.19 11.92,60.11 C12.64,58.96 13.43,59.10 16.43,60.95 C19.09,62.60 20.40,62.91 21.34,62.13 C22.05,61.54 24.09,60.95 25.87,60.81 C27.66,60.68 29.54,60.05 30.07,59.42 C31.04,58.24 38.02,58.54 38.97,59.80 C39.91,61.04 45.00,60.64 45.00,59.32 C45.00,58.63 45.64,58.31 46.43,58.61 C47.34,58.96 48.45,58.03 49.46,56.08 C50.40,54.26 51.84,53.00 52.97,53.00 C54.02,53.00 55.47,52.16 56.19,51.13 C56.91,50.11 57.82,49.32 58.22,49.38 C58.61,49.45 59.85,48.71 60.98,47.75 C64.25,44.95 66.69,45.54 67.97,49.42 C68.75,51.77 70.00,53.15 71.97,53.84 C73.54,54.39 75.09,54.57 75.41,54.25 C75.74,53.93 76.01,54.53 76.02,55.58 C76.03,57.04 76.24,57.17 76.89,56.14 C77.58,55.05 77.91,55.04 78.54,56.06 C79.11,56.99 79.56,56.73 80.16,55.11 C80.61,53.88 81.42,53.14 81.96,53.48 C83.02,54.13 84.62,49.28 83.65,48.32 C83.33,48.00 84.51,45.66 86.27,43.12 C88.03,40.58 89.55,38.35 89.65,38.17 C89.75,37.98 91.95,38.77 94.54,39.92 C100.55,42.57 101.38,42.54 102.99,39.52 C103.72,38.15 105.13,36.78 106.11,36.47 C107.79,35.93 109.26,33.26 108.92,31.35 C107.85,25.42 111.20,24.77 116.18,29.95 L 120.23 34.16 L 123.03 31.47 C124.74,29.83 125.69,28.01 125.47,26.82 C125.23,25.61 125.55,25.03 126.29,25.30 C126.96,25.53 128.32,25.31 129.33,24.79 C130.89,23.98 131.01,24.11 130.16,25.71 C129.35,27.21 129.51,27.57 131.01,27.57 C132.02,27.57 132.57,27.11 132.22,26.54 C131.09,24.69 138.00,30.85 140.29,33.72 C143.39,37.64 150.43,49.96 151.01,52.50 C151.14,53.05 151.67,54.62 152.19,56.00 C153.34,59.03 154.22,62.12 154.87,65.56 ZM 126.00 84.62 C126.00,83.79 126.45,82.84 127.00,82.50 C127.55,82.16 128.00,80.59 128.00,79.00 C128.00,75.72 129.49,74.22 130.40,76.59 C131.47,79.39 131.04,82.00 129.50,82.00 C128.68,82.00 128.00,82.65 128.00,83.44 C128.00,84.23 127.55,85.16 127.00,85.50 C126.45,85.84 126.00,85.44 126.00,84.62 ZM 33.49 88.92 C33.87,88.27 34.44,87.44 35.07,86.63 C36.21,85.19 36.80,84.00 36.39,84.00 C35.97,84.00 36.90,82.67 38.45,81.05 C41.00,78.39 42.99,77.60 46.39,79.53 C43.33,78.26 41.35,79.98 37.64,83.96 C35.83,85.89 34.26,87.79 33.49,88.92 ZM 9.10 96.77 C10.59,108.36 14.20,119.05 19.59,128.40 C15.86,122.04 12.92,115.03 10.88,107.50 C10.08,104.53 9.49,100.82 9.10,96.77 ZM 128.00 24.11 C128.00,25.39 127.42,25.21 125.98,23.48 C124.92,22.20 124.99,22.06 126.36,22.58 C127.26,22.93 128.00,23.62 128.00,24.11 ZM 49.23 108.96 C40.95,100.02 33.00,90.97 33.00,90.06 C33.00,90.03 33.00,90.00 33.01,89.96 C33.37,91.18 41.06,100.10 49.23,108.96 ZM 67.26 127.13 C66.08,126.49 61.39,121.83 55.85,116.01 C57.10,117.32 58.33,118.58 59.48,119.75 C62.74,123.04 65.80,125.90 67.44,127.22 C67.38,127.19 67.32,127.16 67.26,127.13 ZM 153.24 110.57 C153.35,110.20 153.47,109.83 153.58,109.45 C154.92,105.00 155.61,102.06 155.98,98.11 C156.01,97.79 156.05,97.47 156.08,97.14 C155.77,101.66 155.08,104.55 153.60,109.45 C153.44,109.96 153.29,110.46 153.13,110.96 C153.17,110.83 153.21,110.70 153.24,110.57 ZM 129.00 55.48 C129.00,55.51 129.00,55.53 129.00,55.56 C129.00,55.70 128.88,55.97 128.66,56.37 C128.20,57.13 127.24,58.47 125.95,60.19 C127.76,57.75 128.91,55.99 129.00,55.48 ZM 70.12 127.43 C70.44,127.20 70.81,126.89 71.26,126.47 C70.82,126.95 70.53,127.23 70.42,127.29 C70.33,127.34 70.23,127.39 70.12,127.43 ZM 151.80 114.96 C149.98,120.11 147.97,124.51 145.49,128.61 C145.50,128.61 145.50,128.61 145.50,128.61 C147.91,124.60 149.88,120.33 151.66,115.34 C151.71,115.21 151.75,115.09 151.80,114.96 ZM 97.71 63.43 C97.44,63.68 97.21,63.85 97.06,63.94 C97.26,63.76 97.48,63.59 97.71,63.43 Z" fill="rgb(49,171,66)"/>
<path d="M 144.50 40.06 C142.91,37.45 141.36,35.08 140.29,33.72 C138.00,30.85 131.09,24.69 132.22,26.54 C132.57,27.11 132.02,27.57 131.01,27.57 C129.51,27.57 129.35,27.21 130.16,25.71 C131.01,24.11 130.89,23.98 129.33,24.79 C128.32,25.31 126.96,25.53 126.29,25.30 C125.55,25.03 125.23,25.61 125.47,26.82 C125.69,28.01 124.74,29.83 123.03,31.47 L 120.23 34.16 L 116.18 29.95 C111.20,24.77 107.85,25.42 108.92,31.35 C109.26,33.26 107.79,35.93 106.11,36.47 C105.13,36.78 103.72,38.15 102.99,39.52 C101.38,42.54 100.55,42.57 94.54,39.92 C91.95,38.77 89.75,37.98 89.65,38.17 C89.55,38.35 88.03,40.58 86.27,43.12 C84.51,45.66 83.33,48.00 83.65,48.32 C84.62,49.28 83.02,54.13 81.96,53.48 C81.42,53.14 80.61,53.88 80.16,55.11 C79.56,56.73 79.11,56.99 78.54,56.06 C77.91,55.04 77.58,55.05 76.89,56.14 C76.24,57.17 76.03,57.04 76.02,55.58 C76.01,54.53 75.74,53.93 75.41,54.25 C75.09,54.57 73.54,54.39 71.97,53.84 C70.00,53.15 68.75,51.77 67.97,49.42 C66.69,45.54 64.25,44.95 60.98,47.75 C59.85,48.71 58.61,49.45 58.22,49.38 C57.82,49.32 56.91,50.11 56.19,51.13 C55.47,52.16 54.02,53.00 52.97,53.00 C51.84,53.00 50.40,54.26 49.46,56.08 C48.45,58.03 47.34,58.96 46.43,58.61 C45.64,58.31 45.00,58.63 45.00,59.32 C45.00,60.64 39.91,61.04 38.97,59.80 C38.02,58.54 31.04,58.24 30.07,59.42 C29.54,60.05 27.66,60.68 25.87,60.81 C24.09,60.95 22.05,61.54 21.34,62.13 C20.40,62.91 19.09,62.60 16.43,60.95 C13.43,59.10 12.64,58.96 11.92,60.11 C11.59,60.64 11.29,61.31 11.00,62.12 C19.11,31.79 42.53,9.70 71.41,5.39 C92.63,2.22 112.73,7.85 129.48,21.66 C135.34,26.50 137.23,28.74 143.18,37.91 C143.55,38.48 144.00,39.22 144.50,40.06 ZM 128.00 24.11 C128.00,23.62 127.26,22.93 126.36,22.58 C124.99,22.06 124.92,22.20 125.98,23.48 C127.42,25.21 128.00,25.39 128.00,24.11 ZM 9.10 96.77 C9.49,100.82 10.08,104.53 10.88,107.50 C9.98,104.17 9.33,99.98 8.94,95.42 C8.99,95.87 9.05,96.32 9.10,96.77 ZM 8.85 75.16 C8.74,76.83 8.65,78.57 8.60,80.35 C8.59,80.33 8.58,80.32 8.57,80.30 C8.63,78.55 8.72,76.83 8.85,75.16 Z" fill="rgb(59,178,75)"/>
<path d="M 0.00 85.00 L 0.00 0.00 L 81.00 0.00 L 162.00 0.00 L 162.00 85.00 L 162.00 170.00 L 81.00 170.00 L 0.00 170.00 L 0.00 85.00 ZM 100.50 163.59 C103.80,162.71 110.32,160.09 115.00,157.77 C121.90,154.33 125.29,151.74 133.02,144.02 C143.89,133.16 149.05,124.48 153.60,109.45 C156.00,101.51 156.31,98.86 156.32,86.00 C156.34,72.22 155.19,63.89 152.19,56.00 C151.67,54.62 151.14,53.05 151.01,52.50 C150.72,51.24 145.42,41.36 143.18,37.91 C137.23,28.74 135.34,26.50 129.48,21.66 C112.73,7.85 92.63,2.22 71.41,5.39 C41.78,9.81 17.90,32.95 10.40,64.50 C7.68,75.97 7.91,96.50 10.88,107.50 C18.80,136.79 40.43,158.13 68.55,164.41 C76.95,166.28 91.77,165.90 100.50,163.59 ZM 59.48 119.75 C48.87,109.02 33.00,91.13 33.00,89.89 C33.00,89.35 35.09,86.68 37.64,83.96 C44.43,76.70 45.41,76.96 57.77,89.25 C68.02,99.44 68.09,99.49 69.79,97.36 C70.73,96.19 77.01,88.71 83.75,80.74 C90.49,72.78 96.00,65.76 96.00,65.13 C96.00,64.51 96.40,64.00 96.89,64.00 C97.38,64.00 100.26,60.96 103.29,57.25 C116.03,41.66 117.14,41.23 124.36,48.96 C126.91,51.68 129.00,54.60 129.00,55.43 C129.00,56.26 124.59,62.24 119.21,68.72 C113.82,75.20 101.17,90.62 91.09,103.00 C72.86,125.39 70.51,128.00 68.63,128.00 C68.09,128.00 63.97,124.29 59.48,119.75 Z" fill="rgb(249,251,249)"/>
</g>
</svg>