<svg xmlns="http://www.w3.org/2000/svg" width="161" height="171" viewBox="0 0 161 171">
<g>
<path d="M 57.63 90.25 C56.05,92.31 54.37,94.00 53.88,94.00 C52.36,94.00 52.92,82.23 54.67,77.77 C56.08,74.16 65.00,62.87 65.00,64.70 C65.00,65.03 65.82,64.56 66.83,63.65 C67.84,62.74 68.96,62.30 69.33,62.66 C69.70,63.03 70.00,62.84 70.00,62.23 C70.00,61.11 77.92,59.47 79.99,60.16 C81.26,60.59 74.29,70.00 72.71,70.00 C72.15,70.00 72.37,69.21 73.19,68.25 C75.28,65.82 76.09,63.18 74.97,62.48 C73.40,61.51 65.74,65.49 61.92,69.25 C57.22,73.86 54.95,78.84 54.35,85.82 L 53.87 91.50 L 58.18 86.74 C60.56,84.12 62.95,82.00 63.50,82.02 C64.05,82.05 63.60,82.74 62.50,83.57 C61.40,84.41 60.50,85.40 60.50,85.79 C60.49,86.18 59.20,88.19 57.63,90.25 ZM 94.13 114.84 C89.59,116.20 88.99,116.25 89.02,115.25 C89.03,114.84 93.42,108.94 98.77,102.14 C104.12,95.34 109.29,88.59 110.24,87.14 C111.32,85.52 111.99,85.09 111.99,86.02 C112.00,86.85 110.31,89.62 108.25,92.16 C106.19,94.70 103.60,98.05 102.50,99.59 C101.40,101.14 99.33,103.78 97.90,105.45 C96.46,107.13 94.78,109.48 94.15,110.68 C93.06,112.76 93.14,112.82 96.10,111.97 C97.80,111.48 99.83,110.56 100.60,109.92 C101.70,109.00 102.00,109.10 102.00,110.38 C102.00,111.33 101.18,112.00 100.00,112.00 C98.90,112.00 98.00,112.38 98.00,112.84 C98.00,113.30 96.26,114.20 94.13,114.84 ZM 62.50 108.00 C66.06,111.71 65.53,111.81 61.39,108.21 C58.60,105.78 56.00,102.09 56.00,100.57 C56.00,100.25 60.28,100.00 65.50,100.00 C71.36,100.00 75.00,100.40 75.00,101.03 C75.00,102.62 72.18,109.00 71.48,109.00 C71.14,109.00 70.94,107.99 71.04,106.75 C71.46,101.53 71.13,101.00 67.46,101.00 C65.30,101.00 63.08,101.78 61.77,103.00 L 59.62 105.00 ZM 68.97 142.87 C66.75,146.42 63.00,149.91 63.00,148.44 C63.00,148.12 66.02,144.06 69.70,139.43 C75.88,131.65 79.87,128.89 80.08,132.25 C80.19,134.04 80.69,136.43 81.46,138.88 C81.86,140.14 81.70,141.00 81.07,141.00 C80.48,141.00 80.00,139.90 80.00,138.56 C80.00,137.22 79.58,135.86 79.08,135.55 C77.44,134.53 71.51,138.83 68.97,142.87 ZM 102.82 130.72 C102.19,131.48 101.34,133.77 100.95,135.80 L 100.23 139.50 L 100.13 135.50 C100.01,130.69 100.42,130.04 105.31,127.21 C110.05,124.46 111.51,124.45 114.29,127.12 L 116.50 129.25 L 114.11 128.01 C112.20,127.03 110.93,127.03 107.84,128.05 C105.71,128.75 103.45,129.95 102.82,130.72 ZM 64.00 133.08 C64.00,134.81 62.23,134.01 61.72,132.05 C61.08,129.60 55.00,125.80 53.00,126.59 C49.12,128.14 48.64,128.15 50.50,126.67 C52.70,124.91 57.00,124.44 57.00,125.96 C57.00,126.49 58.82,127.46 61.04,128.13 C63.84,128.97 64.92,129.78 64.54,130.75 C64.24,131.53 64.00,132.58 64.00,133.08 ZM 92.24 81.46 C90.30,82.21 90.00,82.15 90.00,81.02 C90.00,79.73 94.89,66.77 95.65,66.05 C96.62,65.13 94.85,72.40 93.77,73.74 C93.22,74.42 92.97,76.32 93.21,77.95 C93.49,79.90 93.16,81.11 92.24,81.46 ZM 126.00 107.80 C126.00,110.21 125.48,110.59 124.45,108.91 C124.08,108.31 124.28,107.32 124.89,106.71 C125.70,105.90 126.00,106.18 126.00,107.80 Z" fill="rgb(67,45,109)"/>
<path d="M 68.97 142.87 C71.51,138.83 77.44,134.53 79.08,135.55 C79.58,135.86 80.00,137.22 80.00,138.56 C80.00,139.90 80.48,141.00 81.07,141.00 C81.70,141.00 81.86,140.14 81.46,138.88 C80.83,136.87 80.38,134.91 80.17,133.28 C80.45,134.09 80.72,135.15 81.00,136.50 C81.94,141.04 82.57,142.10 84.59,142.61 C87.94,143.45 98.33,142.06 99.23,140.65 C99.64,140.02 99.98,137.70 100.00,135.50 C100.03,131.28 100.35,130.25 103.65,128.20 C100.32,130.27 100.03,131.30 100.13,135.50 L 100.23 139.50 L 100.95 135.80 C101.34,133.77 102.19,131.48 102.82,130.72 C103.45,129.95 105.71,128.75 107.84,128.05 C110.93,127.03 112.20,127.03 114.11,128.01 L 116.50 129.25 L 114.29 127.12 C113.19,126.07 112.30,125.43 111.33,125.21 C112.66,125.42 114.13,126.16 116.35,127.47 L 120.56 129.93 L 123.21 127.22 C131.59,118.60 131.67,118.25 126.68,111.79 C126.10,111.04 125.65,110.43 125.31,109.91 C125.77,110.11 126.00,109.41 126.00,107.80 C126.00,106.18 125.70,105.90 124.89,106.71 C124.76,106.84 124.65,106.99 124.55,107.15 C124.66,106.75 124.86,106.32 125.14,105.81 C125.85,104.54 126.35,103.21 126.25,102.86 C125.76,101.07 131.01,97.25 134.80,96.65 C137.11,96.28 139.00,95.46 139.00,94.82 C139.00,94.19 139.26,93.93 139.58,94.25 C140.76,95.42 136.76,99.89 134.00,100.50 C130.40,101.29 129.05,102.91 128.34,107.30 C127.91,109.94 128.31,111.51 130.02,113.81 C131.77,116.18 132.08,117.46 131.45,119.67 C131.00,121.23 130.55,123.33 130.45,124.35 C130.26,126.24 126.93,129.82 123.65,131.65 C122.41,132.35 120.40,132.36 117.41,131.67 C114.34,130.97 112.31,130.99 110.75,131.74 C109.51,132.33 107.71,133.07 106.73,133.38 C105.76,133.69 104.52,135.12 103.98,136.55 C103.44,137.98 102.31,139.83 101.49,140.66 C100.66,141.48 100.23,142.56 100.52,143.04 C101.36,144.39 96.95,146.83 92.34,147.56 C89.08,148.08 87.18,147.73 83.61,145.95 C79.46,143.88 78.66,143.78 74.77,144.93 C72.42,145.62 69.38,147.20 68.00,148.45 C63.94,152.12 62.44,152.18 59.62,148.78 C58.22,147.09 57.28,145.36 57.54,144.94 C57.80,144.52 58.22,141.68 58.48,138.64 C59.01,132.37 57.27,129.25 54.16,130.91 C51.24,132.48 41.75,131.11 39.25,128.76 C38.02,127.61 37.22,126.45 37.47,126.20 C37.73,125.94 37.04,124.60 35.95,123.21 C34.86,121.83 34.24,120.43 34.56,120.11 C34.88,119.78 35.60,120.32 36.15,121.30 C37.86,124.35 42.86,129.00 44.44,129.00 C45.27,129.00 47.43,128.10 49.23,127.00 C51.21,125.79 52.67,125.17 54.20,125.13 C52.94,125.33 51.50,125.86 50.50,126.67 C48.64,128.15 49.12,128.14 53.00,126.59 C55.00,125.80 61.08,129.60 61.72,132.05 C62.06,133.32 62.92,134.11 63.48,134.02 C63.16,135.03 62.79,136.16 62.39,137.35 C59.92,144.69 59.78,148.00 61.91,148.00 C62.45,148.00 65.93,144.18 69.64,139.50 C65.98,144.11 63.00,148.12 63.00,148.44 C63.00,149.91 66.75,146.42 68.97,142.87 ZM 92.24 81.46 C93.16,81.11 93.49,79.90 93.21,77.95 C92.97,76.32 93.22,74.42 93.77,73.74 C94.85,72.40 96.62,65.13 95.65,66.05 C94.90,66.76 90.08,79.51 90.00,80.99 C90.00,80.98 90.00,80.97 90.00,80.97 C90.00,80.40 91.39,76.24 93.09,71.72 C94.79,67.20 97.31,60.35 98.69,56.50 C100.06,52.65 102.02,47.70 103.03,45.50 C104.50,42.32 104.89,41.97 104.94,43.79 C104.97,45.05 104.07,47.91 102.93,50.14 C101.71,52.54 101.15,54.87 101.58,55.85 C102.96,59.01 102.82,60.15 100.41,65.61 L 97.98 71.11 L 100.61 74.55 C102.88,77.53 103.82,78.00 107.47,78.00 C111.02,78.00 112.14,78.52 114.35,81.19 C117.69,85.22 117.66,85.92 114.00,91.34 C112.35,93.79 111.00,96.51 111.00,97.40 C111.00,98.28 110.55,99.00 110.00,99.00 C109.45,99.00 109.00,99.62 109.00,100.37 C109.00,101.90 104.61,108.06 101.96,110.74 C101.99,110.62 102.00,110.50 102.00,110.38 C102.00,109.10 101.70,109.00 100.60,109.92 C99.83,110.56 97.80,111.48 96.10,111.97 C93.14,112.82 93.06,112.76 94.15,110.68 C94.78,109.48 96.46,107.13 97.90,105.45 C99.33,103.78 101.40,101.14 102.50,99.59 C103.60,98.05 106.19,94.70 108.25,92.16 C110.31,89.62 112.00,86.85 111.99,86.02 C111.99,85.09 111.32,85.52 110.24,87.14 C109.78,87.85 108.33,89.79 106.34,92.39 C111.21,85.93 112.13,84.02 111.52,83.03 C111.15,82.43 106.51,82.00 100.44,82.00 C96.56,82.00 93.59,81.86 91.83,81.61 C91.96,81.57 92.10,81.52 92.24,81.46 ZM 67.07 78.32 C64.25,81.87 61.58,85.16 59.39,87.80 C60.06,86.79 60.50,86.02 60.50,85.79 C60.50,85.40 61.40,84.41 62.50,83.57 C63.60,82.74 64.05,82.05 63.50,82.02 C62.95,82.00 60.56,84.12 58.18,86.74 L 53.87 91.50 L 54.35 85.82 C54.95,78.84 57.22,73.86 61.92,69.25 C65.74,65.49 73.40,61.51 74.97,62.48 C76.09,63.18 75.28,65.82 73.19,68.25 C72.37,69.21 72.15,70.00 72.71,70.00 C73.27,70.00 74.48,68.85 75.77,67.33 C73.70,69.98 70.85,73.54 67.07,78.32 ZM 62.50 108.00 L 59.62 105.00 L 61.77 103.00 C63.08,101.78 65.30,101.00 67.46,101.00 C71.13,101.00 71.46,101.53 71.04,106.75 C70.94,107.99 71.14,109.00 71.48,109.00 C71.87,109.00 72.94,106.98 73.79,104.94 C73.52,105.75 73.22,106.63 72.91,107.53 C71.76,110.82 70.75,113.57 70.66,113.67 C70.57,113.76 69.04,113.22 67.25,112.46 C65.46,111.71 64.00,111.32 64.00,111.58 C64.00,111.85 62.72,110.59 61.15,108.78 C59.62,107.03 58.19,105.05 57.23,103.43 C58.25,105.00 59.79,106.82 61.39,108.21 C65.53,111.81 66.06,111.71 62.50,108.00 ZM 57.92 83.79 C58.13,84.55 62.18,81.69 62.66,80.43 C62.97,79.65 63.92,79.00 64.77,79.00 C65.63,79.00 66.03,78.70 65.66,78.32 C65.29,77.95 65.82,76.71 66.84,75.57 C71.61,70.26 69.48,67.30 63.54,70.98 C58.69,73.97 56.58,78.79 57.92,83.79 ZM 41.30 107.34 C41.90,108.90 40.49,111.63 39.74,110.36 C39.46,109.89 38.93,108.10 38.57,106.39 C37.82,102.89 34.36,98.66 32.96,99.52 C32.46,99.83 30.80,99.41 29.27,98.58 L 26.50 97.08 L 29.68 97.04 C34.02,96.99 38.00,98.63 38.00,100.48 C38.00,101.31 38.50,102.00 39.12,102.00 C39.74,102.00 40.00,102.88 39.71,104.00 C39.42,105.10 39.55,106.00 39.99,106.00 C40.43,106.00 41.02,106.60 41.30,107.34 ZM 71.22 61.36 C70.48,61.65 70.00,61.95 70.00,62.23 C70.00,62.84 69.70,63.03 69.33,62.66 C68.96,62.30 67.84,62.74 66.83,63.65 C65.82,64.56 65.00,65.03 65.00,64.70 C65.00,62.92 56.61,73.49 54.81,77.42 C57.61,69.64 63.48,63.81 71.22,61.36 ZM 64.61 130.28 C64.51,129.51 63.38,128.83 61.04,128.13 C58.82,127.46 57.00,126.49 57.00,125.96 C57.00,125.83 56.97,125.72 56.92,125.62 C57.91,125.97 59.03,126.51 60.36,127.23 C62.64,128.45 64.61,129.50 64.74,129.55 C64.78,129.57 64.73,129.83 64.61,130.28 ZM 94.13 114.84 C96.26,114.20 98.00,113.30 98.00,112.84 C98.00,112.38 98.90,112.00 100.00,112.00 C100.01,112.00 100.03,112.00 100.04,112.00 C99.45,112.08 99.00,112.44 99.00,112.88 C99.00,113.36 97.76,114.02 96.25,114.35 C95.62,114.49 94.86,114.67 94.10,114.85 ZM 53.96 80.22 C53.40,82.78 53.06,86.09 53.00,88.82 C53.00,88.61 53.00,88.39 53.00,88.18 C53.00,85.39 53.33,82.72 53.96,80.22 ZM 78.39 63.88 C79.67,61.98 80.50,60.33 79.99,60.16 C79.63,60.04 79.08,59.99 78.43,60.00 C79.35,59.89 79.97,59.89 80.19,60.18 C80.51,60.60 80.01,61.64 78.39,63.88 ZM 78.30 131.01 C77.10,131.48 75.32,132.98 73.08,135.43 C75.49,132.77 77.46,131.00 78.13,131.00 C78.19,131.00 78.25,131.00 78.30,131.01 ZM 74.98 100.95 C74.76,100.52 72.77,100.21 69.50,100.07 C72.74,100.20 75.00,100.47 75.00,100.78 C75.00,100.82 74.99,100.88 74.98,100.95 ZM 108.83 125.46 C107.87,125.79 106.74,126.38 105.31,127.21 C106.75,126.37 107.85,125.79 108.83,125.46 ZM 53.71 93.94 C53.75,93.97 53.79,93.99 53.84,94.00 C53.83,94.00 53.83,94.00 53.82,94.00 C53.78,94.00 53.74,93.98 53.71,93.94 ZM 89.02 115.41 C89.02,115.40 89.02,115.38 89.02,115.37 L 89.02 115.36 C89.02,115.38 89.02,115.40 89.02,115.41 Z" fill="rgb(78,56,149)"/>
<path d="M 96.29 165.95 C89.79,167.15 71.18,167.16 66.00,165.96 C56.29,163.71 53.10,162.63 46.59,159.36 C42.69,157.41 39.28,155.48 39.00,155.09 C38.72,154.69 36.47,152.99 34.00,151.31 C21.42,142.75 8.95,123.42 5.54,107.18 C3.61,98.01 3.69,94.67 5.66,102.00 C6.47,105.03 7.56,107.93 8.07,108.45 C8.58,108.97 9.00,110.69 9.00,112.28 C9.00,115.03 9.78,116.01 15.73,120.73 C17.67,122.27 17.85,122.99 17.09,126.23 C16.27,129.73 16.34,129.89 18.19,128.90 C20.00,127.93 20.06,128.03 18.94,130.17 C18.27,131.45 18.09,132.16 18.53,131.75 C18.98,131.33 20.12,131.70 21.07,132.56 C23.00,134.31 24.37,133.13 23.39,130.56 C22.87,129.22 22.49,129.17 21.13,130.22 C19.69,131.35 19.65,131.30 20.82,129.81 C21.55,128.88 22.74,128.35 23.47,128.63 C25.30,129.33 28.00,125.16 28.00,121.62 C28.00,120.01 29.12,117.22 30.49,115.42 C31.90,113.58 32.51,112.00 31.91,111.80 C31.32,111.61 30.77,110.04 30.67,108.31 C30.58,106.59 29.37,103.91 27.99,102.34 C25.19,99.17 24.59,95.27 27.00,95.88 C27.83,96.09 30.44,96.69 32.82,97.23 C33.32,97.34 33.80,97.47 34.26,97.63 C32.92,97.24 31.33,97.02 29.68,97.04 L 26.50 97.08 L 29.27 98.58 C30.80,99.41 32.46,99.83 32.96,99.52 C34.36,98.66 37.82,102.89 38.57,106.39 C38.93,108.10 39.46,109.89 39.74,110.36 C39.92,110.66 40.14,110.74 40.36,110.65 C39.97,111.08 39.46,111.57 38.82,112.17 C34.79,115.93 34.72,119.50 38.58,124.38 C38.90,124.78 39.21,125.15 39.52,125.50 C38.15,124.12 36.86,122.57 36.15,121.30 C35.60,120.32 34.88,119.78 34.56,120.11 C34.24,120.43 34.86,121.83 35.95,123.21 C37.04,124.60 37.73,125.94 37.47,126.20 C37.22,126.45 38.02,127.61 39.25,128.76 C41.75,131.11 51.24,132.48 54.16,130.91 C57.27,129.25 59.01,132.37 58.48,138.64 C58.22,141.68 57.80,144.52 57.54,144.94 C57.28,145.36 58.22,147.09 59.62,148.78 C62.44,152.18 63.94,152.12 68.00,148.45 C69.38,147.20 72.42,145.62 74.77,144.93 C78.66,143.78 79.46,143.88 83.61,145.95 C87.18,147.73 89.08,148.08 92.34,147.56 C96.95,146.83 101.36,144.39 100.52,143.04 C100.23,142.56 100.66,141.48 101.49,140.66 C102.31,139.83 103.44,137.98 103.98,136.55 C104.52,135.12 105.76,133.69 106.73,133.38 C107.71,133.07 109.51,132.33 110.75,131.74 C112.31,130.99 114.34,130.97 117.41,131.67 C120.40,132.36 122.41,132.35 123.65,131.65 C126.93,129.82 130.26,126.24 130.45,124.35 C130.55,123.33 131.00,121.23 131.45,119.67 C132.08,117.46 131.77,116.18 130.02,113.81 C128.31,111.51 127.91,109.94 128.34,107.30 C129.05,102.91 130.40,101.29 134.00,100.50 C136.76,99.89 140.76,95.42 139.58,94.25 C139.26,93.93 139.00,94.19 139.00,94.82 C139.00,95.22 138.26,95.69 137.14,96.08 C138.67,94.86 139.00,92.18 139.00,86.53 C139.00,86.11 139.00,85.72 139.00,85.34 C139.01,81.30 139.01,79.41 138.07,78.37 C137.16,77.36 135.36,77.15 131.80,76.55 C128.69,76.03 127.76,75.24 125.94,71.60 C124.14,67.99 123.98,66.90 124.99,65.02 L 126.20 62.76 L 127.57 65.13 C128.33,66.43 129.62,68.91 130.44,70.63 C131.31,72.46 132.97,74.03 134.42,74.39 C137.04,75.05 142.18,79.27 142.07,80.68 C142.04,81.13 142.48,82.93 143.06,84.67 C144.12,87.89 143.76,99.66 142.48,103.74 C141.62,106.47 142.73,113.00 144.05,113.00 C144.57,113.00 145.00,112.44 145.00,111.75 C145.00,110.13 149.53,104.86 150.27,105.61 C150.59,105.92 151.66,103.55 152.66,100.34 C153.65,97.13 154.82,94.35 155.24,94.17 C155.66,93.98 156.00,92.10 156.00,89.98 C156.00,87.85 156.50,85.81 157.11,85.43 C158.23,84.74 157.89,97.21 156.57,105.00 C155.30,112.56 147.14,131.97 144.88,132.83 C144.39,133.02 144.00,133.76 144.00,134.48 C144.00,135.20 143.32,136.05 142.50,136.36 C141.68,136.68 140.96,137.51 140.90,138.22 C140.85,138.92 137.14,142.79 132.65,146.82 C121.45,156.88 119.97,158.00 117.85,158.00 C116.83,158.00 116.00,158.38 116.00,158.84 C116.00,159.89 111.48,162.00 109.20,162.01 C108.27,162.01 106.25,162.66 104.72,163.46 C103.20,164.26 99.40,165.38 96.29,165.95 ZM 57.92 83.79 C56.58,78.79 58.69,73.97 63.54,70.98 C69.48,67.30 71.61,70.26 66.84,75.57 C65.82,76.71 65.29,77.95 65.66,78.32 C66.03,78.70 65.63,79.00 64.77,79.00 C63.92,79.00 62.97,79.65 62.66,80.43 C62.18,81.69 58.13,84.55 57.92,83.79 ZM 99.81 66.96 L 100.41 65.61 C102.82,60.15 102.96,59.01 101.58,55.85 C101.15,54.87 101.71,52.54 102.93,50.14 C104.07,47.91 104.97,45.05 104.94,43.79 C104.89,41.97 104.50,42.32 103.03,45.50 C102.50,46.67 101.69,48.61 100.85,50.75 L 100.89 50.64 C103.64,42.39 104.94,38.48 105.59,38.59 C106.20,38.69 106.24,42.31 106.36,49.19 C106.45,53.84 106.99,57.39 107.75,58.14 C109.91,60.32 109.11,61.12 106.49,59.40 L 103.98 57.76 L 100.97 64.41 ZM 25.85 84.00 C26.07,87.17 25.79,89.00 25.10,89.00 C23.55,89.00 23.71,79.78 25.29,77.62 C26.03,76.61 28.45,75.63 31.04,75.31 C34.53,74.87 35.25,75.01 34.35,75.97 C33.72,76.64 31.61,77.24 29.67,77.29 C27.72,77.35 26.35,77.75 26.62,78.20 C26.89,78.64 26.75,79.00 26.31,79.00 C25.86,79.00 25.66,81.25 25.85,84.00 ZM 41.25 107.22 C40.95,106.54 40.40,106.00 39.99,106.00 C39.55,106.00 39.42,105.10 39.71,104.00 C39.77,103.77 39.81,103.55 39.82,103.35 C40.15,104.05 40.51,104.94 40.82,105.86 C41.00,106.38 41.15,106.83 41.25,107.22 ZM 42.22 127.87 C43.97,128.90 45.67,128.83 47.80,127.79 C46.41,128.50 45.06,129.00 44.44,129.00 C43.96,129.00 43.15,128.56 42.22,127.87 ZM 133.38 97.00 C131.67,97.55 129.84,98.57 128.46,99.65 C130.00,98.26 131.96,97.00 133.02,97.00 C133.14,97.00 133.26,97.00 133.38,97.00 ZM 39.00 101.99 C38.44,101.91 38.00,101.26 38.00,100.48 C38.00,100.47 38.00,100.46 38.00,100.46 C38.32,101.15 38.72,101.77 39.00,101.99 ZM 92.94 72.11 C93.59,70.35 94.31,68.40 95.11,66.29 C94.39,68.24 93.69,70.12 93.09,71.72 C93.04,71.85 92.99,71.98 92.94,72.11 ZM 41.24 109.42 C41.35,109.08 41.43,108.71 41.44,108.35 C41.45,108.73 41.39,109.07 41.24,109.42 ZM 56.92 125.62 C57.72,125.91 58.61,126.31 59.63,126.84 C58.61,126.31 57.72,125.91 56.92,125.62 ZM 90.24 79.92 C90.09,80.46 90.00,80.83 90.00,80.97 C90.00,80.82 90.08,80.46 90.24,79.92 Z" fill="rgb(96,68,178)"/>
<path d="M 157.58 95.83 C157.95,90.07 157.84,84.98 157.11,85.43 C156.50,85.81 156.00,87.85 156.00,89.98 C156.00,92.10 155.66,93.98 155.24,94.17 C154.82,94.35 153.65,97.13 152.66,100.34 C151.66,103.55 150.59,105.92 150.27,105.61 C149.53,104.86 145.00,110.13 145.00,111.75 C145.00,112.44 144.57,113.00 144.05,113.00 C142.73,113.00 141.62,106.47 142.48,103.74 C143.76,99.66 144.12,87.89 143.06,84.67 C142.48,82.93 142.04,81.13 142.07,80.68 C142.18,79.27 137.04,75.05 134.42,74.39 C132.97,74.03 131.31,72.46 130.44,70.63 C129.62,68.91 128.33,66.43 127.57,65.13 L 126.30 62.95 C127.39,60.72 127.01,59.32 125.14,57.63 C123.44,56.09 120.44,56.24 119.00,57.95 C118.07,59.05 112.92,61.00 110.92,61.00 C110.18,61.00 109.03,60.67 107.94,60.18 C109.32,60.70 109.44,59.84 107.75,58.14 C106.99,57.39 106.45,53.84 106.36,49.19 C106.24,42.31 106.20,38.69 105.59,38.59 C105.33,38.55 104.97,39.13 104.46,40.37 C105.81,35.98 105.48,35.13 104.30,34.25 C102.21,32.70 100.92,32.64 101.25,34.12 C101.80,36.58 99.27,35.86 97.11,32.93 L 94.82 29.83 L 97.36 31.50 C98.77,32.42 100.43,32.85 101.06,32.46 C102.92,31.31 109.34,33.96 111.40,36.73 C112.44,38.13 113.35,40.63 113.40,42.29 C113.48,44.69 114.00,45.38 115.98,45.68 C117.34,45.89 118.83,46.43 119.28,46.88 C120.64,48.24 124.93,46.91 126.77,44.56 C127.72,43.36 129.74,41.56 131.26,40.57 C133.64,39.01 134.43,38.94 137.07,40.03 C139.74,41.13 140.35,41.07 141.82,39.51 C142.74,38.52 143.02,37.98 142.43,38.31 C141.84,38.63 140.49,37.91 139.43,36.70 C136.99,33.92 136.68,30.79 138.88,31.22 C139.87,31.41 140.54,32.59 140.60,34.28 C140.66,35.80 141.07,37.37 141.51,37.77 C141.95,38.17 142.04,37.71 141.69,36.75 C140.84,34.37 142.29,34.53 143.51,36.95 C144.06,38.02 145.97,41.40 147.76,44.46 C155.41,57.48 158.97,77.83 157.58,95.83 ZM 29.74 96.53 C28.50,96.24 27.46,96.00 27.00,95.88 C24.59,95.27 25.19,99.17 27.99,102.34 C29.37,103.91 30.58,106.59 30.67,108.31 C30.77,110.04 31.32,111.61 31.91,111.80 C32.51,112.00 31.90,113.58 30.49,115.42 C29.12,117.22 28.00,120.01 28.00,121.62 C28.00,125.16 25.30,129.33 23.47,128.63 C22.74,128.35 21.55,128.88 20.82,129.81 C19.65,131.30 19.69,131.35 21.13,130.22 C22.49,129.17 22.87,129.22 23.39,130.56 C24.37,133.13 23.00,134.31 21.07,132.56 C20.12,131.70 18.98,131.33 18.53,131.75 C18.09,132.16 18.27,131.45 18.94,130.17 C20.06,128.03 20.00,127.93 18.19,128.90 C16.34,129.89 16.27,129.73 17.09,126.23 C17.85,122.99 17.67,122.27 15.73,120.73 C9.78,116.01 9.00,115.03 9.00,112.28 C9.00,110.69 8.58,108.97 8.07,108.45 C7.56,107.93 6.47,105.03 5.66,102.00 C3.95,95.63 3.66,97.32 4.88,103.87 L 4.88 103.86 C1.56,87.13 3.21,67.09 8.93,54.61 L 10.82 50.50 L 10.28 56.81 C9.78,62.67 9.90,63.16 11.91,63.69 C13.10,64.00 14.75,65.55 15.57,67.13 C16.38,68.71 17.60,69.99 18.28,69.98 C19.22,69.97 19.21,69.79 18.25,69.17 C17.39,68.63 18.10,67.94 20.47,67.01 C24.36,65.48 26.51,63.30 30.16,57.18 C31.54,54.88 33.03,53.33 33.49,53.75 C33.95,54.16 34.02,53.67 33.66,52.67 C33.22,51.44 33.41,50.97 34.25,51.24 C34.94,51.47 35.64,53.36 35.82,55.45 C35.99,57.54 37.17,60.89 38.42,62.88 C39.85,65.14 40.42,67.07 39.94,68.00 C39.51,68.83 38.65,70.91 38.01,72.62 C37.05,75.24 36.02,75.97 31.68,77.13 L 26.74 78.45 C26.71,78.37 26.68,78.29 26.62,78.20 C26.35,77.75 27.72,77.35 29.67,77.29 C31.61,77.24 33.72,76.64 34.35,75.97 C35.25,75.01 34.53,74.87 31.04,75.31 C28.45,75.63 26.03,76.61 25.29,77.62 C23.71,79.78 23.55,89.00 25.10,89.00 C25.24,89.00 25.37,88.92 25.48,88.76 C25.13,93.05 25.44,93.89 26.93,95.11 C27.50,95.59 28.55,96.10 29.74,96.53 ZM 62.38 47.39 C56.30,49.46 54.77,49.43 55.19,47.25 C55.40,46.20 56.45,45.49 57.82,45.47 C59.08,45.46 60.42,44.96 60.80,44.37 C61.19,43.78 62.45,42.80 63.62,42.19 C65.00,41.46 65.95,39.70 66.37,37.09 C66.72,34.91 67.42,32.86 67.94,32.54 C69.07,31.84 68.51,38.54 67.12,42.19 C66.57,43.62 66.35,45.02 66.62,45.28 C66.89,45.55 64.98,46.50 62.38,47.39 ZM 52.54 44.86 C54.04,45.26 54.66,45.94 54.20,46.68 C53.66,47.55 52.76,47.42 50.74,46.20 C49.23,45.28 48.00,44.16 48.00,43.71 C48.00,43.25 48.49,43.18 49.08,43.55 C49.67,43.91 51.23,44.50 52.54,44.86 ZM 34.00 151.31 C26.13,145.95 18.94,137.42 13.53,127.48 C19.05,137.29 26.51,146.21 34.00,151.31 ZM 105.13 93.98 C103.24,96.43 101.02,99.28 98.77,102.14 C96.26,105.33 93.96,108.33 92.22,110.65 C95.34,106.26 100.41,99.66 105.13,93.98 ZM 25.85 84.00 C25.66,81.25 25.86,79.00 26.31,79.00 C26.36,79.00 26.41,78.99 26.45,78.99 L 25.88 84.58 C25.87,84.39 25.86,84.20 25.85,84.00 ZM 150.66 122.45 C152.30,118.65 153.92,114.39 155.07,110.74 C154.74,111.97 154.37,113.17 153.96,114.33 C153.13,116.74 151.93,119.65 150.66,122.45 ZM 124.64 65.76 C124.06,67.24 124.38,68.46 125.90,71.52 C124.21,68.14 123.88,67.25 124.64,65.76 ZM 37.38 99.22 C36.81,98.66 35.89,98.15 34.74,97.78 C35.97,98.14 36.89,98.64 37.38,99.22 ZM 100.44 82.00 C104.64,82.00 108.16,82.21 110.05,82.53 C108.11,82.22 104.47,82.00 100.44,82.00 ZM 101.17 49.80 C101.08,50.07 100.98,50.35 100.89,50.64 L 100.85 50.75 C100.65,51.25 100.45,51.77 100.25,52.29 C100.58,51.41 100.88,50.59 101.17,49.80 ZM 93.21 115.12 C93.49,115.03 93.78,114.95 94.10,114.85 C94.34,114.79 94.58,114.74 94.82,114.68 C94.28,114.84 93.74,114.98 93.21,115.12 ZM 111.51 83.01 C111.51,83.02 111.51,83.02 111.52,83.03 C111.65,83.24 111.71,83.50 111.67,83.84 C111.69,83.51 111.64,83.24 111.51,83.01 ZM 38.00 100.45 C38.33,101.15 38.73,101.77 39.00,101.99 C38.72,101.77 38.32,101.15 38.00,100.46 Z" fill="rgb(114,80,192)"/>
<path d="M 52.54 44.86 C51.23,44.50 49.67,43.91 49.08,43.55 C48.49,43.18 48.00,43.25 48.00,43.71 C48.00,44.15 49.16,45.21 50.60,46.11 C46.66,44.25 44.35,45.05 40.20,49.04 C37.24,51.88 35.89,54.20 36.03,56.81 C35.93,56.32 35.85,55.87 35.82,55.45 C35.64,53.36 34.94,51.47 34.25,51.24 C33.41,50.97 33.22,51.44 33.66,52.67 C34.02,53.67 33.95,54.16 33.49,53.75 C33.03,53.33 31.54,54.88 30.16,57.18 C26.51,63.30 24.36,65.48 20.47,67.01 C18.10,67.94 17.39,68.63 18.25,69.17 C19.21,69.79 19.22,69.97 18.28,69.98 C17.60,69.99 16.38,68.71 15.57,67.13 C14.75,65.55 13.10,64.00 11.91,63.69 C9.90,63.16 9.78,62.67 10.28,56.81 L 10.82 50.50 L 10.01 52.27 C12.73,45.84 15.84,39.53 17.25,37.99 C18.21,36.94 19.00,35.77 19.00,35.38 C19.00,33.60 31.55,21.08 37.27,17.15 C44.34,12.30 53.51,8.28 62.99,5.88 C74.21,3.05 93.97,3.58 103.98,6.99 C111.92,9.70 119.44,13.44 121.94,15.94 C122.96,16.96 124.71,18.09 125.81,18.44 C126.92,18.79 131.12,22.58 135.16,26.87 C136.51,28.30 137.79,29.76 139.01,31.25 C138.97,31.23 138.93,31.22 138.88,31.22 C136.68,30.79 136.99,33.92 139.43,36.70 C140.49,37.91 141.84,38.63 142.43,38.31 C143.02,37.98 142.74,38.52 141.82,39.51 C140.35,41.07 139.74,41.13 137.07,40.03 C134.43,38.94 133.64,39.01 131.26,40.57 C129.74,41.56 127.72,43.36 126.77,44.56 C124.93,46.91 120.64,48.24 119.28,46.88 C118.83,46.43 117.34,45.89 115.98,45.68 C114.00,45.38 113.48,44.69 113.40,42.29 C113.35,40.63 112.44,38.13 111.40,36.73 C109.34,33.96 102.92,31.31 101.06,32.46 C100.43,32.85 98.77,32.42 97.36,31.50 L 94.82 29.83 L 97.11 32.93 C97.21,33.06 97.30,33.19 97.40,33.31 C96.05,32.03 93.90,31.99 83.07,32.22 L 69.70 32.50 L 68.17 38.11 C68.70,35.02 68.71,32.06 67.94,32.54 C67.42,32.86 66.72,34.91 66.37,37.09 C65.95,39.70 65.00,41.46 63.62,42.19 C62.45,42.80 61.19,43.78 60.80,44.37 C60.42,44.96 59.08,45.46 57.82,45.47 C56.45,45.49 55.40,46.20 55.19,47.25 C55.07,47.89 55.11,48.34 55.39,48.61 C54.61,48.37 53.78,47.89 52.54,47.15 C52.46,47.11 52.38,47.06 52.31,47.02 C53.28,47.41 53.83,47.28 54.20,46.68 C54.66,45.94 54.04,45.26 52.54,44.86 ZM 141.99 35.09 C141.46,34.87 141.21,35.41 141.69,36.75 C142.04,37.71 141.95,38.17 141.51,37.77 C141.07,37.37 140.66,35.80 140.60,34.28 C140.58,33.81 140.52,33.38 140.42,33.00 C140.95,33.69 141.48,34.39 141.99,35.09 ZM 101.24 35.23 C101.35,34.98 101.36,34.62 101.25,34.12 C100.93,32.68 102.15,32.70 104.15,34.14 C103.54,34.05 102.76,34.30 101.81,34.89 C101.60,35.02 101.41,35.13 101.24,35.23 ZM 6.20 62.18 C4.82,67.07 3.90,72.55 3.46,78.25 C3.78,73.12 4.46,68.34 5.48,64.54 C5.67,63.84 5.91,63.05 6.20,62.18 ZM 149.11 46.91 C148.68,46.06 148.23,45.25 147.76,44.46 C146.56,42.40 145.30,40.20 144.43,38.65 C146.16,41.31 147.72,44.07 149.11,46.91 ZM 67.18 42.03 C66.76,43.90 66.58,45.24 66.73,45.40 C66.90,45.57 65.86,46.09 64.20,46.71 C65.81,46.06 66.82,45.49 66.62,45.28 C66.35,45.02 66.57,43.62 67.12,42.19 C67.14,42.14 67.16,42.08 67.18,42.03 ZM 157.19 75.90 C156.53,69.99 155.39,64.19 153.80,58.83 C155.39,64.05 156.50,69.54 157.13,75.28 C157.15,75.49 157.17,75.69 157.19,75.90 ZM 98.00 34.00 C98.90,34.94 99.78,35.50 100.41,35.60 C99.56,35.83 99.05,35.39 98.06,34.08 C98.04,34.05 98.02,34.02 98.00,34.00 ZM 60.57 146.99 C61.13,148.10 61.88,148.16 63.49,146.67 C62.67,147.51 62.10,148.00 61.91,148.00 C61.24,148.00 60.79,147.67 60.57,146.99 ZM 105.34 36.25 C105.34,37.12 105.08,38.38 104.46,40.37 C104.38,40.56 104.30,40.78 104.21,41.01 C104.91,38.75 105.27,37.26 105.34,36.25 ZM 62.39 137.35 C61.65,139.55 61.05,141.73 60.69,143.43 C60.99,141.84 61.56,139.82 62.39,137.35 ZM 101.17 49.80 C100.88,50.59 100.58,51.41 100.25,52.29 L 100.25 52.30 C100.59,51.38 100.91,50.50 101.21,49.67 Z" fill="rgb(134,97,204)"/>
<path d="M 78.30 131.01 C78.25,131.00 78.19,131.00 78.13,131.00 C77.84,131.00 77.30,131.33 76.59,131.93 C77.49,131.15 78.20,130.66 78.65,130.55 C81.10,129.94 87.00,122.73 87.00,120.35 C87.00,119.61 87.35,119.00 87.79,119.00 C88.22,119.00 88.65,118.06 88.73,116.91 C88.75,116.66 88.89,116.27 89.13,115.76 C89.43,116.13 90.40,115.94 93.21,115.12 C93.74,114.98 94.28,114.84 94.82,114.68 C95.33,114.56 95.82,114.45 96.25,114.35 C97.76,114.02 99.00,113.36 99.00,112.88 C99.00,112.44 99.45,112.08 100.04,112.00 C101.04,111.99 101.78,111.49 101.96,110.74 C104.61,108.06 109.00,101.90 109.00,100.37 C109.00,99.62 109.45,99.00 110.00,99.00 C110.55,99.00 111.00,98.28 111.00,97.40 C111.00,96.51 112.35,93.79 114.00,91.34 C117.66,85.92 117.69,85.22 114.35,81.19 C112.14,78.52 111.02,78.00 107.47,78.00 C106.83,78.00 106.28,77.99 105.78,77.95 C106.34,77.93 106.99,77.89 107.76,77.84 C110.37,77.65 112.82,77.05 113.22,76.50 C113.68,75.86 114.75,76.00 116.20,76.91 C118.08,78.07 124.91,78.90 134.18,79.10 C135.11,79.12 136.40,79.78 137.06,80.57 C138.29,82.05 138.78,82.32 138.94,81.27 C139.00,82.20 139.00,83.36 139.00,84.83 L 139.00 85.01 L 139.00 85.34 L 139.00 85.44 C139.00,85.79 139.00,86.15 139.00,86.53 C139.00,92.18 138.67,94.86 137.14,96.08 C136.47,96.31 135.67,96.51 134.80,96.65 C134.35,96.72 133.87,96.84 133.38,97.00 C133.26,97.00 133.14,97.00 133.02,97.00 C131.96,97.00 130.00,98.26 128.46,99.65 C126.99,100.81 126.02,102.04 126.25,102.86 C126.35,103.21 125.85,104.54 125.14,105.81 C124.86,106.32 124.66,106.75 124.55,107.15 C124.22,107.73 124.16,108.44 124.45,108.91 C124.79,109.47 125.08,109.80 125.31,109.91 C125.65,110.43 126.10,111.04 126.68,111.79 C131.67,118.25 131.59,118.60 123.21,127.22 L 120.56 129.93 L 116.35 127.47 C114.13,126.16 112.66,125.42 111.33,125.21 C110.58,125.05 109.80,125.13 108.83,125.46 C107.85,125.79 106.75,126.37 105.31,127.21 C105.00,127.38 104.72,127.55 104.45,127.71 C104.16,127.88 103.90,128.04 103.65,128.20 C100.35,130.25 100.03,131.28 100.00,135.50 C99.98,137.70 99.64,140.02 99.23,140.65 C98.33,142.06 87.94,143.45 84.59,142.61 C82.57,142.10 81.94,141.04 81.00,136.50 C80.72,135.15 80.45,134.09 80.17,133.28 C80.13,132.92 80.10,132.57 80.08,132.25 C80.00,130.98 79.38,130.59 78.30,131.01 ZM 41.30 107.34 C41.29,107.30 41.27,107.26 41.25,107.22 C41.15,106.83 41.00,106.38 40.82,105.86 C40.51,104.94 40.15,104.05 39.82,103.35 C39.88,102.56 39.61,102.00 39.12,102.00 C39.08,102.00 39.04,102.00 39.00,101.99 C38.73,101.77 38.33,101.15 38.00,100.45 C37.99,100.02 37.77,99.61 37.38,99.22 C36.89,98.64 35.97,98.14 34.74,97.78 C34.59,97.72 34.43,97.67 34.26,97.63 C33.80,97.47 33.32,97.34 32.82,97.23 C31.78,96.99 30.70,96.75 29.74,96.53 C29.65,96.50 29.56,96.46 29.47,96.43 C29.78,96.28 30.07,95.92 30.48,95.36 C31.35,94.17 32.39,93.90 34.10,94.41 C35.42,94.81 38.62,95.35 41.22,95.60 C45.01,95.97 46.33,95.67 47.94,94.06 C49.06,92.94 50.64,92.31 51.48,92.63 C52.73,93.11 53.00,92.24 53.00,87.79 C53.00,84.49 53.50,81.35 54.43,78.45 C54.26,78.98 54.10,79.57 53.96,80.22 C53.33,82.72 53.00,85.39 53.00,88.18 C53.00,88.39 53.00,88.61 53.00,88.82 C52.95,91.47 53.17,93.57 53.71,93.94 C53.74,93.98 53.78,94.00 53.82,94.00 C53.83,94.00 53.83,94.00 53.84,94.00 C53.85,94.00 53.87,94.00 53.88,94.00 C54.28,94.00 55.52,92.83 56.83,91.26 C53.88,95.11 52.00,97.69 52.00,97.94 C52.00,99.35 56.14,99.97 65.75,99.99 C70.84,99.99 75.00,100.35 75.00,100.78 C75.00,100.47 72.74,100.20 69.50,100.07 L 69.50 100.07 C68.33,100.03 66.99,100.00 65.50,100.00 C60.28,100.00 56.00,100.25 56.00,100.57 C56.00,101.21 56.47,102.26 57.23,103.43 C58.19,105.05 59.62,107.03 61.15,108.78 C62.72,110.59 64.00,111.85 64.00,111.58 C64.00,111.32 65.46,111.71 67.25,112.46 C68.77,113.10 70.11,113.59 70.53,113.67 C70.11,114.67 69.73,115.49 69.46,116.00 C68.48,117.79 66.54,123.51 64.70,129.54 C64.39,129.39 62.52,128.39 60.36,127.23 C60.20,127.14 60.05,127.06 59.89,126.98 C59.80,126.93 59.71,126.88 59.63,126.84 L 59.61 126.83 C58.59,126.31 57.72,125.90 56.92,125.62 C56.61,125.07 55.49,124.93 54.20,125.13 C52.67,125.17 51.21,125.79 49.23,127.00 C48.77,127.28 48.28,127.55 47.80,127.79 C45.67,128.83 43.97,128.90 42.22,127.87 C41.38,127.25 40.43,126.41 39.52,125.50 C39.21,125.15 38.90,124.78 38.58,124.38 C34.72,119.50 34.79,115.93 38.82,112.17 C39.46,111.57 39.97,111.08 40.36,110.65 C40.69,110.52 41.03,110.03 41.24,109.42 C41.39,109.07 41.45,108.73 41.44,108.35 C41.46,107.99 41.42,107.64 41.30,107.34 ZM 99.81 66.96 L 101.68 62.85 C100.72,65.34 100.69,67.02 102.00,65.00 C102.70,63.91 102.97,63.86 102.98,64.81 C102.99,65.53 103.45,65.84 104.00,65.50 C106.00,64.26 104.95,69.74 102.83,71.60 C101.63,72.64 100.91,73.05 101.22,72.50 C101.53,71.95 101.16,70.92 100.40,70.21 C99.25,69.15 99.00,69.19 99.00,70.40 C99.00,71.22 99.48,72.18 100.06,72.54 C100.65,72.90 101.55,74.32 102.07,75.69 C102.23,76.10 102.37,76.44 102.54,76.73 C101.94,76.22 101.34,75.52 100.61,74.55 L 97.98 71.11 ZM 100.44 82.00 C96.56,82.00 93.59,81.86 91.83,81.61 C90.26,82.19 90.00,82.06 90.00,81.02 C90.00,81.01 90.00,81.00 90.00,80.99 C90.00,80.98 90.00,80.97 90.00,80.97 C90.00,80.82 90.08,80.46 90.24,79.92 L 90.24 79.92 L 90.24 79.92 L 90.34 79.65 C90.79,78.18 91.63,75.78 92.60,73.27 C93.00,72.22 93.41,71.13 93.81,70.08 L 96.23 63.40 C96.88,61.51 98.46,57.15 99.99,53.00 C100.08,52.76 100.16,52.53 100.25,52.30 L 96.23 63.40 C96.14,63.64 96.07,63.84 96.02,64.00 C95.71,64.95 94.87,67.24 93.91,69.80 C93.88,69.89 93.84,69.99 93.81,70.08 L 90.34 79.65 C90.12,80.36 90.00,80.85 90.00,81.02 C90.00,81.25 90.67,81.45 91.85,81.61 C93.68,81.85 96.72,82.00 100.44,82.00 ZM 62.39 137.35 C62.46,137.14 62.53,136.94 62.60,136.74 C61.47,140.77 60.62,144.21 60.42,145.78 C60.42,145.14 60.51,144.36 60.69,143.43 C61.05,141.73 61.65,139.55 62.39,137.35 ZM 102.62 60.78 L 103.98 57.76 L 106.49 59.40 C104.24,57.93 104.06,57.98 102.62,60.78 ZM 78.71 63.42 C80.07,61.50 80.49,60.57 80.19,60.18 C80.15,60.12 80.09,60.08 80.01,60.04 C80.80,60.13 80.84,60.46 80.46,61.09 C80.32,61.31 79.70,62.13 78.71,63.42 ZM 58.41 89.20 C58.77,88.71 59.10,88.23 59.39,87.80 C60.04,87.02 60.73,86.17 61.46,85.29 C60.38,86.66 59.35,87.98 58.41,89.20 ZM 58.01 71.16 C56.70,73.06 55.63,75.16 54.81,77.42 C54.76,77.54 54.71,77.66 54.67,77.77 C54.59,77.95 54.52,78.15 54.46,78.36 C55.31,75.74 56.51,73.32 58.01,71.16 ZM 137.08 77.68 C136.00,77.31 134.34,76.98 131.80,76.55 C134.36,76.98 136.02,77.21 137.08,77.68 ZM 105.13 93.98 C102.07,97.67 98.86,101.74 96.13,105.34 C98.71,101.89 101.81,97.97 105.13,93.97 ZM 27.03 95.19 C26.99,95.17 26.96,95.14 26.93,95.11 C26.29,94.58 25.86,94.13 25.62,93.43 C25.88,94.14 26.33,94.61 27.03,95.19 ZM 73.26 106.53 C73.45,105.98 73.63,105.45 73.79,104.94 C73.82,104.86 73.85,104.79 73.89,104.71 C73.69,105.29 73.48,105.90 73.26,106.53 ZM 107.94 60.18 C109.03,60.67 110.18,61.00 110.92,61.00 C110.14,61.00 108.92,60.64 107.80,60.13 C107.85,60.14 107.89,60.16 107.94,60.18 ZM 74.98 100.95 C74.99,100.88 75.00,100.82 75.00,100.78 C75.00,100.83 74.99,100.89 74.98,100.96 C74.98,100.96 74.98,100.95 74.98,100.95 ZM 106.66 59.51 C106.62,59.48 106.57,59.45 106.53,59.43 C106.57,59.46 106.62,59.48 106.66,59.51 Z" fill="rgb(213,211,216)"/>
<path d="M 0.00 85.50 L 0.00 0.00 L 80.50 0.00 L 161.00 0.00 L 161.00 85.50 L 161.00 171.00 L 80.50 171.00 L 0.00 171.00 L 0.00 85.50 ZM 96.29 165.95 C99.40,165.38 103.20,164.26 104.72,163.46 C106.25,162.66 108.27,162.01 109.20,162.01 C111.48,162.00 116.00,159.89 116.00,158.84 C116.00,158.38 116.83,158.00 117.85,158.00 C119.97,158.00 121.45,156.88 132.65,146.82 C137.14,142.79 140.85,138.92 140.90,138.22 C140.96,137.51 141.68,136.68 142.50,136.36 C143.32,136.05 144.00,135.20 144.00,134.48 C144.00,133.76 144.39,133.02 144.88,132.83 C147.14,131.97 155.30,112.56 156.57,105.00 C157.90,97.13 158.14,84.57 157.13,75.28 C155.07,56.36 147.75,40.24 135.16,26.87 C131.12,22.58 126.92,18.79 125.81,18.44 C124.71,18.09 122.96,16.96 121.94,15.94 C119.44,13.44 111.92,9.70 103.98,6.99 C93.97,3.58 74.21,3.05 62.99,5.88 C53.51,8.28 44.34,12.30 37.27,17.15 C31.55,21.08 19.00,33.60 19.00,35.38 C19.00,35.77 18.21,36.94 17.25,37.99 C14.82,40.63 7.42,57.34 5.48,64.54 C2.75,74.69 2.49,91.83 4.88,103.86 C8.69,123.06 20.31,141.99 34.00,151.31 C36.47,152.99 38.72,154.69 39.00,155.09 C39.28,155.48 42.69,157.41 46.59,159.36 C53.10,162.63 56.29,163.71 66.00,165.96 C71.18,167.16 89.79,167.15 96.29,165.95 ZM 60.40 146.61 C59.83,145.11 67.22,120.13 69.46,116.00 C70.91,113.33 75.00,102.09 75.00,100.78 C75.00,100.35 70.84,99.99 65.75,99.99 C56.14,99.97 52.00,99.35 52.00,97.94 C52.00,97.48 58.21,89.32 65.80,79.80 C73.39,70.29 79.98,61.87 80.46,61.09 C81.17,59.93 80.44,59.79 76.22,60.29 C62.62,61.90 53.00,73.28 53.00,87.79 C53.00,92.24 52.73,93.11 51.48,92.63 C50.64,92.31 49.06,92.94 47.94,94.06 C46.33,95.67 45.01,95.97 41.22,95.60 C38.62,95.35 35.42,94.81 34.10,94.41 C32.39,93.90 31.35,94.17 30.48,95.36 C29.34,96.91 29.11,96.91 27.12,95.26 C25.13,93.63 25.03,92.94 25.74,86.01 L 26.50 78.52 L 31.68 77.13 C36.02,75.97 37.05,75.24 38.01,72.62 C38.65,70.91 39.51,68.83 39.94,68.00 C40.42,67.07 39.83,65.11 38.36,62.77 C34.79,57.12 35.23,53.81 40.20,49.04 C44.99,44.44 47.33,44.08 52.54,47.15 C56.12,49.27 56.28,49.28 61.68,47.57 C64.70,46.62 66.98,45.64 66.73,45.40 C66.49,45.16 67.06,42.16 68.00,38.73 L 69.70 32.50 L 83.07 32.22 C95.74,31.95 96.53,32.05 98.06,34.08 C99.48,35.97 99.93,36.06 101.81,34.89 C103.23,34.00 104.28,33.88 104.95,34.55 C106.05,35.65 105.11,39.12 99.99,53.00 C98.26,57.67 96.48,62.62 96.02,64.00 C95.57,65.38 94.02,69.55 92.60,73.27 C91.17,77.00 90.00,80.49 90.00,81.02 C90.00,81.60 94.31,82.00 100.44,82.00 C106.18,82.00 111.15,82.44 111.49,82.98 C112.31,84.32 110.47,87.56 105.52,93.50 C96.40,104.45 88.88,114.93 88.73,116.91 C88.65,118.06 88.22,119.00 87.79,119.00 C87.35,119.00 87.00,119.61 87.00,120.35 C87.00,122.73 81.10,129.94 78.65,130.55 C77.29,130.89 73.46,134.70 69.59,139.57 C62.85,148.05 61.39,149.17 60.40,146.61 ZM 137.06 80.57 C136.40,79.78 135.11,79.12 134.18,79.10 C124.91,78.90 118.08,78.07 116.20,76.91 C114.75,76.00 113.68,75.86 113.22,76.50 C112.82,77.05 110.37,77.65 107.76,77.84 C103.48,78.15 102.93,77.94 102.07,75.69 C101.55,74.32 100.65,72.90 100.06,72.54 C99.48,72.18 99.00,71.22 99.00,70.40 C99.00,69.19 99.25,69.15 100.40,70.21 C101.16,70.92 101.53,71.95 101.22,72.50 C100.91,73.05 101.63,72.64 102.83,71.60 C104.95,69.74 106.00,64.26 104.00,65.50 C103.45,65.84 102.99,65.53 102.98,64.81 C102.97,63.86 102.70,63.91 102.00,65.00 C100.37,67.53 100.81,64.26 102.56,60.88 C104.07,57.97 104.22,57.91 106.53,59.43 C107.85,60.29 109.82,61.00 110.92,61.00 C112.92,61.00 118.07,59.05 119.00,57.95 C120.44,56.24 123.44,56.09 125.14,57.63 C127.43,59.70 127.48,61.34 125.35,64.59 C123.79,66.97 123.82,67.35 125.90,71.52 C127.76,75.25 128.68,76.03 131.80,76.55 C138.06,77.61 139.00,78.07 139.00,80.07 C139.00,82.38 138.63,82.47 137.06,80.57 Z" fill="rgb(186,149,86)"/>
<path d="M 0.00 85.50 L 0.00 0.00 L 80.50 0.00 L 161.00 0.00 L 161.00 85.50 L 161.00 171.00 L 80.50 171.00 L 0.00 171.00 L 0.00 85.50 ZM 96.29 165.95 C99.40,165.38 103.20,164.26 104.72,163.46 C106.25,162.66 108.27,162.01 109.20,162.01 C111.48,162.00 116.00,159.89 116.00,158.84 C116.00,158.38 116.83,158.00 117.85,158.00 C119.97,158.00 121.45,156.88 132.65,146.82 C137.14,142.79 140.85,138.92 140.90,138.22 C140.96,137.51 141.68,136.68 142.50,136.36 C143.32,136.05 144.00,135.20 144.00,134.48 C144.00,133.76 144.39,133.02 144.88,132.83 C147.14,131.97 155.30,112.56 156.57,105.00 C157.90,97.13 158.14,84.57 157.13,75.28 C155.07,56.36 147.75,40.24 135.16,26.87 C131.12,22.58 126.92,18.79 125.81,18.44 C124.71,18.09 122.96,16.96 121.94,15.94 C119.44,13.44 111.92,9.70 103.98,6.99 C93.97,3.58 74.21,3.05 62.99,5.88 C53.51,8.28 44.34,12.30 37.27,17.15 C31.55,21.08 19.00,33.60 19.00,35.38 C19.00,35.77 18.21,36.94 17.25,37.99 C14.82,40.63 7.42,57.34 5.48,64.54 C2.75,74.69 2.49,91.83 4.88,103.86 C8.69,123.06 20.31,141.99 34.00,151.31 C36.47,152.99 38.72,154.69 39.00,155.09 C39.28,155.48 42.69,157.41 46.59,159.36 C53.10,162.63 56.29,163.71 66.00,165.96 C71.18,167.16 89.79,167.15 96.29,165.95 ZM 60.40 146.61 C59.83,145.11 67.22,120.13 69.46,116.00 C70.91,113.33 75.00,102.09 75.00,100.78 C75.00,100.35 70.84,99.99 65.75,99.99 C56.14,99.97 52.00,99.35 52.00,97.94 C52.00,97.48 58.21,89.32 65.80,79.80 C73.39,70.29 79.98,61.87 80.46,61.09 C81.17,59.93 80.44,59.79 76.22,60.29 C62.62,61.90 53.00,73.28 53.00,87.79 C53.00,92.24 52.73,93.11 51.48,92.63 C50.64,92.31 49.06,92.94 47.94,94.06 C46.33,95.67 45.01,95.97 41.22,95.60 C38.62,95.35 35.42,94.81 34.10,94.41 C32.39,93.90 31.35,94.17 30.48,95.36 C29.34,96.91 29.11,96.91 27.12,95.26 C25.13,93.63 25.03,92.94 25.74,86.01 L 26.50 78.52 L 31.68 77.13 C36.02,75.97 37.05,75.24 38.01,72.62 C38.65,70.91 39.51,68.83 39.94,68.00 C40.42,67.07 39.83,65.11 38.36,62.77 C34.79,57.12 35.23,53.81 40.20,49.04 C44.99,44.44 47.33,44.08 52.54,47.15 C56.12,49.27 56.28,49.28 61.68,47.57 C64.70,46.62 66.98,45.64 66.73,45.40 C66.49,45.16 67.06,42.16 68.00,38.73 L 69.70 32.50 L 83.07 32.22 C95.74,31.95 96.53,32.05 98.06,34.08 C99.48,35.97 99.93,36.06 101.81,34.89 C103.23,34.00 104.28,33.88 104.95,34.55 C106.05,35.65 105.11,39.12 99.99,53.00 C98.26,57.67 96.48,62.62 96.02,64.00 C95.57,65.38 94.02,69.55 92.60,73.27 C91.17,77.00 90.00,80.49 90.00,81.02 C90.00,81.60 94.31,82.00 100.44,82.00 C106.51,82.00 111.15,82.43 111.52,83.03 C111.87,83.59 111.33,85.35 110.33,86.94 C107.52,91.38 95.16,106.97 90.46,112.00 C85.69,117.11 74.00,132.40 74.00,133.53 C74.00,134.73 62.86,148.00 61.86,148.00 C61.35,148.00 60.70,147.37 60.40,146.61 ZM 137.06 80.57 C136.40,79.78 135.11,79.12 134.18,79.10 C124.91,78.90 118.08,78.07 116.20,76.91 C114.75,76.00 113.68,75.86 113.22,76.50 C112.82,77.05 110.37,77.65 107.76,77.84 C103.48,78.15 102.93,77.94 102.07,75.69 C101.55,74.32 100.65,72.90 100.06,72.54 C99.48,72.18 99.00,71.22 99.00,70.40 C99.00,69.19 99.25,69.15 100.40,70.21 C101.16,70.92 101.53,71.95 101.22,72.50 C100.91,73.05 101.63,72.64 102.83,71.60 C104.95,69.74 106.00,64.26 104.00,65.50 C103.45,65.84 102.99,65.53 102.98,64.81 C102.97,63.86 102.70,63.91 102.00,65.00 C100.37,67.53 100.81,64.26 102.56,60.88 C104.07,57.97 104.22,57.91 106.53,59.43 C107.85,60.29 109.82,61.00 110.92,61.00 C112.92,61.00 118.07,59.05 119.00,57.95 C120.44,56.24 123.44,56.09 125.14,57.63 C127.43,59.70 127.48,61.34 125.35,64.59 C123.79,66.97 123.82,67.35 125.90,71.52 C127.76,75.25 128.68,76.03 131.80,76.55 C138.06,77.61 139.00,78.07 139.00,80.07 C139.00,82.38 138.63,82.47 137.06,80.57 Z" fill="rgb(248,247,248)"/>
<path d="M 60.40 146.61 C59.83,145.11 67.22,120.13 69.46,116.00 C70.91,113.33 75.00,102.09 75.00,100.78 C75.00,100.35 70.84,99.99 65.75,99.99 C56.14,99.97 52.00,99.35 52.00,97.94 C52.00,97.48 58.35,89.16 66.11,79.44 C73.86,69.72 80.29,61.20 80.40,60.50 C80.50,59.81 81.91,57.71 83.54,55.83 C85.17,53.96 87.85,50.69 89.50,48.56 C96.11,40.02 101.91,34.00 103.53,34.00 C106.60,34.00 106.19,36.19 99.99,53.00 C98.26,57.67 96.48,62.62 96.02,64.00 C95.57,65.38 94.02,69.55 92.60,73.27 C91.17,77.00 90.00,80.49 90.00,81.02 C90.00,81.60 94.31,82.00 100.44,82.00 C106.51,82.00 111.15,82.43 111.52,83.03 C111.87,83.59 111.33,85.35 110.33,86.94 C107.52,91.38 95.16,106.97 90.46,112.00 C85.69,117.11 74.00,132.40 74.00,133.53 C74.00,134.73 62.86,148.00 61.86,148.00 C61.35,148.00 60.70,147.37 60.40,146.61 Z" fill="rgb(249,227,126)"/>
<path d="M 60.47 146.95 C60.11,146.37 60.93,143.55 62.29,140.70 C65.52,133.90 66.98,130.37 68.59,125.50 C69.32,123.30 71.46,117.00 73.35,111.50 C75.79,104.40 76.45,101.29 75.64,100.77 C75.01,100.36 70.14,100.02 64.81,100.02 C58.41,100.01 54.87,99.60 54.38,98.81 C53.98,98.15 54.18,97.44 54.84,97.22 C55.50,97.00 59.15,92.70 62.95,87.66 C78.59,66.96 91.47,50.62 96.19,45.51 C97.71,43.86 99.47,41.28 100.10,39.76 C100.80,38.08 102.01,37.00 103.20,37.00 C104.89,37.00 105.06,37.45 104.45,40.25 C104.05,42.03 103.16,44.84 102.47,46.50 C101.77,48.15 100.07,52.65 98.69,56.50 C97.31,60.35 94.83,67.10 93.18,71.50 C88.35,84.39 87.82,83.42 100.00,84.00 C108.50,84.40 110.48,84.79 110.40,86.00 C110.30,87.64 98.25,103.36 90.91,111.44 C85.58,117.31 74.00,132.44 74.00,133.53 C74.00,134.67 62.89,148.00 61.95,148.00 C61.49,148.00 60.83,147.53 60.47,146.95 Z" fill="rgb(248,201,51)"/>
</g>
</svg>