<svg xmlns="http://www.w3.org/2000/svg" width="160" height="172" viewBox="0 0 160 172">
<g>
<path d="M 91.40 166.52 C88.16,166.84 84.38,167.20 83.00,167.33 C81.62,167.46 78.47,167.45 76.00,167.31 C39.94,165.20 11.78,141.38 3.50,106.00 C1.54,97.62 1.21,76.05 2.96,70.00 C3.80,67.06 3.89,67.61 3.50,73.42 C3.00,80.98 4.13,84.01 6.54,81.60 C7.85,80.30 13.00,80.54 13.00,81.90 C13.00,82.27 13.90,82.64 15.01,82.73 C18.36,82.98 19.52,79.58 22.58,60.50 C23.27,56.25 25.08,50.80 26.49,48.75 C28.17,46.30 28.99,64.14 29.00,103.03 C29.00,129.01 29.00,135.03 31.98,137.67 C32.89,138.47 34.06,138.96 35.60,139.61 C40.53,141.67 119.51,141.65 124.45,139.58 C131.06,136.82 130.88,138.25 131.09,88.25 C131.19,63.36 131.45,43.00 131.66,43.00 C132.95,43.00 138.00,52.91 138.01,55.45 C138.02,60.65 139.84,65.38 142.98,68.33 C144.64,69.89 146.00,70.68 146.00,70.08 C146.00,69.49 146.34,69.05 146.75,69.12 C148.67,69.42 150.98,68.93 150.79,68.25 C150.67,67.84 151.16,66.45 151.87,65.16 C152.59,63.87 152.90,61.62 152.57,60.16 C152.02,57.72 152.09,57.65 153.38,59.30 C155.83,62.42 157.50,73.99 157.39,87.00 C157.23,105.75 153.19,119.42 143.51,133.98 C132.01,151.29 110.60,164.65 91.40,166.52 ZM 56.80 51.80 C56.14,52.46 54.65,53.00 53.50,53.00 C50.68,53.00 49.00,51.14 49.02,48.05 L 49.04 45.50 L 50.89 47.91 C52.88,50.49 56.00,50.26 56.00,47.53 C56.00,46.69 56.45,46.00 57.00,46.00 C58.40,46.00 58.25,50.35 56.80,51.80 ZM 109.80 51.80 C108.26,53.34 104.74,53.34 103.20,51.80 C101.75,50.35 101.60,46.00 103.00,46.00 C103.55,46.00 104.00,46.69 104.00,47.53 C104.00,50.26 107.12,50.49 109.11,47.91 L 110.96 45.50 L 110.98 48.05 C110.99,49.45 110.46,51.14 109.80,51.80 ZM 60.37 35.70 C62.09,36.63 62.03,36.76 59.62,37.22 C57.33,37.66 57.00,37.39 57.02,35.11 C57.02,33.68 57.36,32.99 57.77,33.59 C58.17,34.18 59.34,35.13 60.37,35.70 ZM 111.86 35.34 C112.80,36.46 112.73,36.89 111.56,37.34 C109.74,38.04 108.85,36.86 109.90,35.15 C110.51,34.18 110.94,34.22 111.86,35.34 Z" fill="rgb(37,112,185)"/>
<path d="M 154.72 62.04 C154.31,60.84 153.86,59.91 153.38,59.30 C152.09,57.65 152.02,57.72 152.57,60.16 C152.90,61.62 152.59,63.87 151.87,65.16 C151.16,66.45 150.67,67.84 150.79,68.25 C150.98,68.93 148.67,69.42 146.75,69.12 C146.34,69.05 146.00,69.49 146.00,70.08 C146.00,70.68 144.64,69.89 142.98,68.33 C139.84,65.38 138.02,60.65 138.01,55.45 C138.00,52.91 132.95,43.00 131.66,43.00 C131.49,43.00 131.30,55.44 131.17,72.75 C131.28,48.91 131.00,41.66 127.48,39.33 C125.57,38.07 122.71,38.24 118.45,38.00 L 109.50 37.50 L 109.00 33.50 C108.60,30.33 108.08,29.50 106.50,29.50 C104.86,29.50 104.44,30.27 104.19,33.72 L 103.89 37.93 L 79.39 38.22 L 54.88 38.50 L 55.19 34.00 C55.46,30.06 55.25,29.50 53.50,29.50 C51.86,29.50 51.44,30.27 51.19,33.71 L 50.89 37.93 L 32.56 38.50 L 30.43 42.30 C28.86,45.10 28.45,46.14 28.53,64.37 C28.12,52.52 27.44,47.36 26.49,48.75 C25.08,50.80 23.27,56.25 22.58,60.50 C19.52,79.58 18.36,82.98 15.01,82.73 C13.90,82.64 13.00,82.27 13.00,81.90 C13.00,80.54 7.85,80.30 6.54,81.60 C4.13,84.01 3.00,80.98 3.50,73.42 C3.89,67.61 3.80,67.06 2.96,70.00 C2.86,70.35 2.76,70.75 2.67,71.20 C3.21,67.13 3.80,64.14 4.18,63.90 C4.70,63.57 5.17,61.89 5.21,60.15 C5.26,58.42 5.71,57.00 6.21,57.00 C6.71,57.00 6.85,56.57 6.53,56.05 C6.20,55.52 7.25,52.20 8.86,48.66 C17.90,28.72 34.65,13.81 56.50,6.26 C63.90,3.71 65.67,3.50 80.00,3.50 C93.68,3.50 96.32,3.78 102.50,5.87 C128.33,14.63 146.88,34.60 154.72,62.04 ZM 55.91 43.25 C55.96,44.76 56.45,46.00 57.00,46.00 C56.45,46.00 56.00,46.69 56.00,47.53 C56.00,50.26 52.88,50.49 50.89,47.91 L 49.82 46.51 C50.20,46.37 50.75,46.37 51.51,46.45 C53.55,46.68 54.18,46.15 54.92,43.61 L 55.82 40.50 ZM 110.29 46.36 L 109.11 47.91 C107.12,50.49 104.00,50.26 104.00,47.53 C104.00,46.95 103.78,46.43 103.47,46.18 C103.64,46.20 103.84,46.25 104.06,46.31 C105.55,46.69 106.34,46.24 106.92,44.69 L 107.72 42.53 L 108.43 44.78 C108.82,46.02 109.56,46.77 110.07,46.46 C110.15,46.41 110.22,46.38 110.29,46.36 ZM 60.37 35.70 C59.34,35.13 58.17,34.18 57.77,33.59 C57.36,32.99 57.02,33.68 57.02,35.11 C57.00,37.39 57.33,37.66 59.62,37.22 C62.03,36.76 62.09,36.63 60.37,35.70 ZM 111.86 35.34 C110.94,34.22 110.51,34.18 109.90,35.15 C108.85,36.86 109.74,38.04 111.56,37.34 C112.73,36.89 112.80,36.46 111.86,35.34 ZM 32.45 138.05 C32.29,137.93 32.13,137.81 31.98,137.67 C29.33,135.33 29.04,130.32 29.00,111.02 C29.32,131.44 29.88,136.01 32.45,138.05 ZM 2.01 77.38 C1.59,84.59 1.87,94.62 2.74,101.52 C1.50,93.94 1.28,85.95 2.01,77.38 ZM 36.00 139.73 C45.02,141.60 119.69,141.57 124.45,139.58 C119.60,141.61 43.76,141.67 36.00,139.73 ZM 28.90 148.76 C33.60,152.80 38.79,156.24 44.39,159.04 C41.15,157.51 38.14,155.83 35.50,154.03 C33.46,152.63 31.19,150.81 28.90,148.76 ZM 155.18 107.62 C156.63,101.31 157.33,94.57 157.39,87.00 C157.45,80.83 157.10,74.99 156.46,70.21 C158.13,81.95 157.71,97.93 155.18,107.62 ZM 7.01 117.43 C10.36,126.13 15.03,133.93 20.79,140.64 C18.35,137.92 16.25,135.24 14.82,132.97 C11.63,127.89 9.03,122.73 7.01,117.43 ZM 116.02 158.56 C125.27,153.55 133.82,146.55 140.26,138.45 C137.92,141.41 135.34,144.19 132.53,146.82 C127.67,151.37 121.99,155.36 116.02,158.56 ZM 67.79 166.43 C70.47,166.85 73.21,167.14 76.00,167.31 C78.47,167.45 81.62,167.46 83.00,167.33 C78.56,167.75 73.30,167.40 67.79,166.43 ZM 141.57 136.73 C142.25,135.83 142.89,134.91 143.51,133.98 C144.79,132.07 145.96,130.16 147.05,128.26 C145.40,131.23 143.58,134.05 141.57,136.73 ZM 102.42 46.34 C101.88,47.12 101.91,49.09 102.45,50.54 C102.16,49.87 102.00,49.08 102.00,48.18 C102.00,47.20 102.10,46.62 102.42,46.34 ZM 49.02 47.80 L 49.02 48.05 C49.01,49.82 49.55,51.18 50.54,52.02 C49.56,51.22 49.00,49.95 49.00,48.39 C49.00,48.17 49.01,47.98 49.02,47.80 ZM 107.77 52.82 C107.34,52.93 106.90,53.00 106.50,53.00 C105.71,53.00 105.01,52.85 104.41,52.57 C105.42,52.98 106.67,53.06 107.77,52.82 ZM 129.57 134.77 C128.64,138.05 127.09,138.48 124.45,139.58 C127.09,138.48 128.64,138.03 129.57,134.77 ZM 109.80 51.80 C110.15,51.45 110.46,50.81 110.68,50.08 C110.48,50.79 110.18,51.42 109.80,51.80 ZM 110.97 48.33 C110.98,48.23 110.98,48.14 110.98,48.05 L 110.97 47.59 C110.99,47.82 110.99,48.07 110.97,48.33 Z" fill="rgb(68,143,204)"/>
<path d="M 56.80 51.80 C58.25,50.35 58.40,46.00 57.00,46.00 C56.45,46.00 55.96,44.76 55.91,43.25 L 55.82 40.50 L 54.92 43.61 C54.61,44.69 54.31,45.40 53.93,45.85 C54.51,44.87 54.83,42.59 55.07,38.50 L 79.39 38.22 L 103.89 37.93 L 104.19 33.72 C104.40,30.86 104.73,29.84 105.76,29.58 C104.63,29.89 104.43,31.32 104.20,36.91 C104.04,40.98 104.15,44.95 104.45,45.72 C104.57,46.04 104.70,46.27 104.85,46.44 C104.61,46.42 104.35,46.38 104.06,46.31 C103.84,46.25 103.64,46.20 103.47,46.18 C103.33,46.06 103.17,46.00 103.00,46.00 C102.76,46.00 102.57,46.13 102.42,46.34 C102.10,46.62 102.00,47.20 102.00,48.18 C102.00,49.08 102.16,49.87 102.45,50.54 C102.64,51.05 102.89,51.49 103.20,51.80 C103.53,52.13 103.94,52.38 104.41,52.57 C105.01,52.85 105.71,53.00 106.50,53.00 C106.90,53.00 107.34,52.93 107.77,52.82 C108.57,52.65 109.29,52.31 109.80,51.80 C110.15,51.45 110.46,50.81 110.68,50.08 C110.84,49.52 110.95,48.91 110.97,48.33 L 110.97 48.32 C110.99,48.07 110.99,47.82 110.97,47.59 L 110.96 45.50 L 110.29 46.36 C110.22,46.38 110.15,46.41 110.07,46.46 C109.56,46.77 108.82,46.02 108.43,44.78 L 107.72 42.53 L 107.31 43.64 C107.41,43.27 107.50,42.88 107.57,42.45 C107.93,40.54 108.55,38.78 108.94,38.54 C109.24,38.35 109.35,37.03 109.23,35.34 L 109.50 37.50 L 118.45 38.00 C122.71,38.24 125.57,38.07 127.48,39.33 C131.00,41.66 131.28,48.91 131.17,72.75 C131.14,77.59 131.11,82.81 131.09,88.25 C131.06,95.42 131.03,101.53 131.00,106.75 C131.00,104.71 131.00,102.54 131.00,100.22 L 131.00 98.78 L 131.00 64.00 L 29.00 64.00 L 29.00 98.78 L 29.00 99.91 C29.00,104.31 29.00,108.19 29.01,111.61 C29.01,111.42 29.00,111.22 29.00,111.02 C29.00,108.59 29.00,105.93 29.00,103.03 C28.99,86.24 28.84,73.38 28.53,64.37 C28.45,46.14 28.86,45.10 30.43,42.30 L 32.56 38.50 L 50.89 37.93 L 51.19 33.71 C51.40,30.83 51.73,29.82 52.79,29.57 C51.63,29.87 51.43,31.33 51.20,37.41 C51.00,43.03 51.28,45.56 52.19,46.12 C52.48,46.30 52.74,46.40 52.97,46.43 C52.58,46.52 52.10,46.52 51.51,46.45 C50.75,46.37 50.20,46.37 49.82,46.51 L 49.04 45.50 L 49.02 47.80 C49.01,47.98 49.00,48.17 49.00,48.39 C49.00,49.95 49.56,51.22 50.54,52.02 C51.29,52.66 52.29,53.00 53.50,53.00 C54.65,53.00 56.14,52.46 56.80,51.80 ZM 117.50 95.50 L 117.50 107.50 L 104.90 108.10 L 105.50 95.50 ZM 117.00 76.00 L 117.00 88.00 L 105.00 88.00 L 105.00 76.00 ZM 108.87 140.74 C92.53,141.23 67.17,141.22 50.85,140.71 C67.16,141.21 92.54,141.22 108.87,140.74 ZM 55.28 32.23 C55.24,30.12 54.91,29.62 54.01,29.52 C55.04,29.63 55.33,30.19 55.28,32.23 ZM 108.59 31.26 C108.18,29.90 107.60,29.50 106.50,29.50 C107.62,29.50 108.20,29.91 108.59,31.26 Z" fill="rgb(227,84,73)"/>
<path d="M 0.00 86.00 L 0.00 0.00 L 80.00 0.00 L 160.00 0.00 L 160.00 86.00 L 160.00 172.00 L 80.00 172.00 L 0.00 172.00 L 0.00 86.00 ZM 91.40 166.52 C105.09,165.19 121.09,157.52 132.53,146.82 C143.53,136.53 150.87,123.86 155.14,107.80 C158.24,96.11 158.23,75.04 155.12,63.50 C147.53,35.31 128.78,14.79 102.50,5.87 C96.32,3.78 93.68,3.50 80.00,3.50 C65.67,3.50 63.90,3.71 56.50,6.26 C34.65,13.81 17.90,28.72 8.86,48.66 C7.25,52.20 6.20,55.52 6.53,56.05 C6.85,56.57 6.71,57.00 6.21,57.00 C5.71,57.00 5.26,58.42 5.21,60.15 C5.17,61.89 4.70,63.57 4.18,63.90 C3.67,64.23 2.74,69.68 2.13,76.00 C0.03,97.81 4.03,115.79 14.82,132.97 C18.90,139.47 28.52,149.26 35.50,154.03 C48.15,162.66 69.42,168.62 83.00,167.33 C84.38,167.20 88.16,166.84 91.40,166.52 ZM 35.38 139.56 C28.94,136.76 29.00,137.17 29.00,98.78 L 29.00 64.00 L 80.00 64.00 L 131.00 64.00 L 131.00 98.78 C131.00,137.34 131.09,136.81 124.40,139.61 C119.59,141.62 40.01,141.58 35.38,139.56 ZM 117.50 101.50 L 117.50 95.50 L 111.50 95.50 L 105.50 95.50 L 105.20 101.80 L 104.90 108.10 L 111.20 107.80 L 117.50 107.50 L 117.50 101.50 ZM 117.00 82.00 L 117.00 76.00 L 111.00 76.00 L 105.00 76.00 L 105.00 82.00 L 105.00 88.00 L 111.00 88.00 L 117.00 88.00 L 117.00 82.00 ZM 52.19 46.12 C51.28,45.56 51.00,43.03 51.20,37.41 C51.47,30.27 51.69,29.50 53.50,29.50 C55.35,29.50 55.47,30.05 55.14,37.00 C54.75,45.32 54.11,47.30 52.19,46.12 ZM 104.45 45.72 C104.15,44.95 104.04,40.98 104.20,36.91 C104.47,30.27 104.71,29.50 106.50,29.50 C108.10,29.50 108.61,30.36 109.07,33.80 C109.39,36.16 109.33,38.30 108.94,38.54 C108.55,38.78 107.93,40.54 107.57,42.45 C106.86,46.28 105.29,47.92 104.45,45.72 Z" fill="rgb(241,242,242)"/>
</g>
</svg>