<svg xmlns="http://www.w3.org/2000/svg" width="157" height="172" viewBox="0 0 157 172">
<g>
<path d="M 157.00 172.00 L 0.00 172.00 L 36.25 171.88 C67.42,171.78 71.66,171.59 66.50,170.56 C37.30,164.68 15.44,145.21 6.37,117.00 C4.22,110.31 2.00,97.22 2.00,91.23 C2.00,86.43 2.24,85.86 4.67,84.93 C6.14,84.38 7.94,84.15 8.67,84.43 C9.40,84.71 10.00,84.32 10.00,83.58 C10.00,81.96 12.70,80.71 13.48,81.97 C13.78,82.45 14.27,84.98 14.58,87.59 C15.33,93.98 18.08,99.58 20.28,99.21 C21.23,99.04 22.00,99.41 22.00,100.02 C22.00,100.62 22.37,100.89 22.83,100.61 C23.28,100.32 25.31,101.45 27.32,103.11 C29.59,104.98 31.46,105.83 32.24,105.34 C34.33,104.04 35.83,104.12 36.39,105.58 C37.09,107.41 39.76,106.33 40.53,103.91 C41.14,101.97 44.45,101.36 46.68,102.78 C47.32,103.19 50.11,106.58 52.87,110.32 C56.37,115.07 58.21,118.71 58.98,122.43 C59.59,125.35 60.73,128.58 61.51,129.62 C62.30,130.65 62.95,132.24 62.97,133.14 C63.01,135.51 64.05,135.69 79.11,135.92 C90.61,136.10 92.98,135.88 94.37,134.49 C95.28,133.58 95.76,132.43 95.45,131.92 C95.14,131.41 95.35,131.00 95.91,131.00 C96.48,131.00 97.69,128.41 98.60,125.25 C100.72,117.86 102.38,114.62 107.14,108.62 C109.26,105.94 111.00,103.14 111.00,102.42 C111.00,100.54 113.77,99.23 116.60,99.77 C118.06,100.05 119.00,100.93 119.00,102.01 C119.00,104.36 121.54,105.26 123.04,103.45 C123.70,102.66 125.99,101.54 128.14,100.96 C130.85,100.23 132.72,98.86 134.27,96.46 C135.50,94.56 137.40,92.73 138.50,92.39 C142.17,91.24 143.73,88.97 145.02,82.93 C145.95,78.54 146.00,76.29 145.21,74.56 C144.32,72.62 144.48,71.88 146.07,70.44 C147.13,69.48 148.03,69.10 148.08,69.60 C148.44,73.88 150.33,76.53 152.20,75.38 C152.64,75.10 153.00,75.81 153.00,76.94 C153.00,78.07 153.34,79.00 153.75,79.00 C154.86,79.00 154.40,100.49 153.13,108.00 C150.14,125.65 140.25,142.10 125.05,154.73 C114.63,163.39 105.10,167.69 90.00,170.55 C84.31,171.62 88.09,171.79 120.25,171.89 L 157.00 172.00 ZM 93.74 128.75 C92.60,130.19 86.39,130.45 85.55,129.08 C84.65,127.62 86.74,115.03 88.18,113.21 C94.37,105.42 95.60,104.79 98.43,107.92 C100.08,109.75 100.06,110.07 98.07,114.58 C96.92,117.18 95.69,121.16 95.35,123.41 C95.01,125.66 94.28,128.06 93.74,128.75 ZM 73.00 125.44 L 73.00 130.00 L 69.08 130.00 C65.54,130.00 65.05,129.68 64.09,126.75 C62.93,123.23 61.18,115.52 60.30,110.10 C59.75,106.71 59.75,106.71 62.10,108.35 C63.39,109.26 65.17,110.00 66.06,110.00 C68.52,110.00 73.00,119.97 73.00,125.44 ZM 67.50 150.13 C77.13,152.17 93.00,150.12 93.00,146.83 C93.00,145.14 91.88,145.00 78.43,145.00 C63.91,145.00 63.86,145.01 64.18,147.24 C64.40,148.81 65.40,149.68 67.50,150.13 ZM 64.04 141.07 C64.97,142.82 66.17,142.99 76.79,142.90 C89.94,142.79 93.35,142.16 93.81,139.76 C94.09,138.28 92.42,138.07 78.56,137.80 C70.00,137.63 63.00,137.87 63.00,138.32 C63.00,138.76 63.47,140.00 64.04,141.07 ZM 82.00 123.93 L 82.00 130.00 L 79.00 130.00 C76.14,130.00 76.00,129.81 76.01,125.75 C76.01,120.69 77.72,114.00 79.01,114.00 C80.81,114.00 82.00,117.96 82.00,123.93 Z" fill="rgb(240,174,20)"/>
<path d="M 2.01 89.94 C1.42,56.04 20.48,25.46 51.34,13.15 C62.23,8.81 70.24,7.62 83.95,8.29 C100.83,9.12 112.46,13.63 126.25,24.68 C137.56,33.74 146.79,48.29 151.50,64.50 C152.80,68.98 153.67,74.36 154.12,80.09 C154.02,79.39 153.90,79.00 153.75,79.00 C153.34,79.00 153.00,78.07 153.00,76.94 C153.00,75.81 152.64,75.10 152.20,75.38 C150.33,76.53 148.44,73.88 148.08,69.60 C148.03,69.10 147.13,69.48 146.07,70.44 C144.48,71.88 144.32,72.62 145.21,74.56 C146.00,76.29 145.95,78.54 145.02,82.93 C143.73,88.97 142.17,91.24 138.50,92.39 C137.40,92.73 135.50,94.56 134.27,96.46 C132.72,98.86 130.85,100.23 128.14,100.96 C125.99,101.54 123.70,102.66 123.04,103.45 C121.54,105.26 119.00,104.36 119.00,102.01 C119.00,100.93 118.06,100.05 116.60,99.77 C113.77,99.23 111.00,100.54 111.00,102.42 C111.00,103.09 109.53,105.50 107.64,107.98 C111.10,102.97 114.53,94.30 115.50,87.85 C117.00,77.88 112.14,64.38 104.17,56.33 C89.99,42.01 65.03,43.38 51.94,59.20 C45.11,67.45 43.50,72.20 43.53,84.00 C43.55,93.56 43.81,94.99 46.40,100.00 C47.86,102.81 50.73,107.37 53.03,110.54 C52.98,110.47 52.92,110.39 52.87,110.32 C50.11,106.58 47.32,103.19 46.68,102.78 C44.45,101.36 41.14,101.97 40.53,103.91 C39.76,106.33 37.09,107.41 36.39,105.58 C35.83,104.12 34.33,104.04 32.24,105.34 C31.46,105.83 29.59,104.98 27.32,103.11 C25.31,101.45 23.28,100.32 22.83,100.61 C22.37,100.89 22.00,100.62 22.00,100.02 C22.00,99.41 21.23,99.04 20.28,99.21 C18.08,99.58 15.33,93.98 14.58,87.59 C14.27,84.98 13.78,82.45 13.48,81.97 C12.70,80.71 10.00,81.96 10.00,83.58 C10.00,84.32 9.40,84.71 8.67,84.43 C7.94,84.15 6.14,84.38 4.67,84.93 C2.48,85.77 2.07,86.31 2.01,89.94 ZM 97.06 117.13 C97.39,116.22 97.73,115.34 98.07,114.58 C100.06,110.07 100.08,109.75 98.43,107.92 C95.60,104.79 94.37,105.42 88.18,113.21 C87.36,114.25 86.32,118.79 85.76,122.78 C86.07,118.49 86.69,112.01 87.62,103.17 C88.19,97.84 88.65,96.70 90.55,95.98 C95.16,94.23 97.31,88.31 94.94,83.89 C94.06,82.25 94.40,81.47 96.94,79.24 C98.62,77.76 100.01,75.64 100.02,74.53 C100.06,71.44 103.43,67.57 105.42,68.33 C108.67,69.58 111.40,77.84 111.43,86.50 C111.46,95.40 110.52,97.81 103.40,107.13 C100.23,111.29 98.29,114.28 97.06,117.13 ZM 72.79 123.15 C71.88,117.58 68.20,110.00 66.06,110.00 C65.17,110.00 63.39,109.26 62.10,108.35 C59.75,106.71 59.75,106.71 60.30,110.10 C60.97,114.24 62.15,119.71 63.19,123.64 L 63.07 123.25 C61.83,119.08 58.76,113.02 55.05,107.40 C46.42,94.32 44.49,85.06 48.99,78.25 C50.91,75.35 51.64,75.41 52.42,78.55 C52.87,80.35 54.38,81.66 57.53,83.01 C60.80,84.41 62.00,85.49 62.00,87.03 C62.00,89.82 63.74,93.05 66.56,95.50 C68.25,96.96 69.18,99.38 70.02,104.50 C70.66,108.35 71.56,113.75 72.02,116.50 C72.34,118.40 72.63,120.97 72.79,123.15 ZM 82.00 123.93 C82.00,117.96 80.81,114.00 79.01,114.00 C77.72,114.00 76.01,120.69 76.01,125.75 C76.00,129.81 76.14,130.00 79.00,130.00 L 75.29 130.00 L 74.65 120.25 C74.30,114.89 73.73,107.57 73.39,104.00 L 72.77 97.50 L 75.97 96.31 C78.83,95.24 81.70,95.66 84.82,97.60 C84.99,97.71 84.35,105.05 83.39,113.90 L 82.00 126.69 ZM 107.03 45.75 C107.01,46.44 107.89,47.00 108.97,47.00 C111.50,47.00 118.80,36.66 116.61,36.19 C115.02,35.85 107.06,43.78 107.03,45.75 ZM 124.00 69.66 C124.00,71.41 125.62,71.35 131.32,69.41 C137.16,67.42 137.99,64.40 132.41,65.45 C127.38,66.39 124.00,68.09 124.00,69.66 ZM 44.58 42.66 C47.84,46.64 50.00,47.51 50.00,44.83 C50.00,43.08 43.92,36.00 42.42,36.00 C40.12,36.00 40.77,38.01 44.58,42.66 ZM 27.08 69.21 C31.91,71.07 34.13,71.12 34.71,69.36 C35.11,68.18 27.10,65.00 23.74,65.00 C20.51,65.00 22.42,67.40 27.08,69.21 ZM 78.64 36.31 C80.17,37.84 81.00,35.43 81.00,29.44 C81.00,24.38 80.68,23.00 79.50,23.00 C78.32,23.00 78.00,24.37 78.00,29.33 C78.00,32.82 78.29,35.95 78.64,36.31 ZM 154.35 83.93 C154.63,90.28 154.41,96.89 153.71,103.08 C154.22,97.16 154.47,89.06 154.35,83.93 ZM 65.08 130.00 L 64.31 127.39 C65.14,129.72 65.81,130.00 69.04,130.00 ZM 26.32 149.76 C36.97,160.18 50.66,167.37 66.50,170.56 C50.60,167.36 36.97,160.27 26.32,149.76 ZM 151.78 114.22 C151.38,115.85 150.93,117.41 150.44,118.86 C149.13,122.75 147.38,126.66 145.26,130.48 C148.10,125.27 150.29,119.83 151.78,114.22 ZM 66.78 135.51 C69.52,135.67 74.14,135.83 79.12,135.90 C90.57,136.08 92.99,135.86 94.37,134.49 C92.98,135.88 90.61,136.10 79.11,135.92 C72.95,135.83 69.14,135.74 66.78,135.51 ZM 53.24 110.83 C53.35,110.98 53.45,111.12 53.56,111.26 C56.45,115.13 58.23,118.77 58.97,122.38 C58.98,122.39 58.98,122.41 58.98,122.43 C59.60,125.36 60.73,128.59 61.51,129.62 C60.73,128.58 59.59,125.35 58.98,122.43 C58.24,118.85 56.50,115.33 53.24,110.83 ZM 4.34 108.94 C4.04,107.53 3.75,106.05 3.47,104.50 C3.07,102.31 2.75,100.13 2.51,97.95 C2.94,101.40 3.59,105.32 4.34,108.94 ZM 10.33 127.10 C8.89,124.11 7.70,121.15 6.68,117.94 C7.74,121.11 8.96,124.16 10.33,127.10 ZM 89.68 129.96 C87.85,130.08 86.03,129.86 85.63,129.22 C85.62,129.20 85.62,129.18 85.61,129.16 C86.13,129.80 87.90,130.05 89.68,129.96 ZM 62.97 133.24 C62.99,133.72 63.17,134.20 63.43,134.59 C63.08,134.24 62.99,133.81 62.97,133.24 ZM 95.34 123.45 C95.35,123.44 95.35,123.42 95.35,123.41 C95.36,123.33 95.37,123.26 95.39,123.18 C95.37,123.27 95.36,123.36 95.34,123.45 Z" fill="rgb(249,199,45)"/>
<path d="M 93.74 128.75 C94.28,128.07 95.00,125.69 95.34,123.45 C95.36,123.36 95.37,123.27 95.39,123.18 L 95.39 123.18 C95.66,121.59 96.31,119.25 97.06,117.13 C98.29,114.28 100.23,111.29 103.40,107.13 C107.43,101.87 109.47,98.80 110.49,95.53 C109.69,98.65 108.59,101.10 107.37,102.11 C106.08,103.17 105.41,107.00 106.50,107.00 C108.40,107.00 111.45,101.72 113.53,95.64 C111.99,100.22 109.82,104.82 107.64,107.98 C107.47,108.19 107.31,108.41 107.14,108.62 C102.38,114.62 100.72,117.86 98.60,125.25 C97.69,128.41 96.48,131.00 95.91,131.00 C95.35,131.00 95.14,131.41 95.45,131.92 C95.76,132.43 95.28,133.58 94.37,134.49 C92.99,135.86 90.57,136.08 79.12,135.90 C74.14,135.83 69.52,135.67 66.78,135.51 C64.87,135.32 63.91,135.04 63.43,134.59 C63.17,134.20 62.99,133.72 62.97,133.24 C62.97,133.21 62.97,133.17 62.97,133.14 C62.95,132.24 62.30,130.65 61.51,129.62 L 61.51 129.62 C60.73,128.59 59.60,125.36 58.98,122.43 C58.98,122.41 58.98,122.39 58.97,122.38 C58.47,119.94 57.49,117.49 56.02,114.96 C57.09,116.73 58.02,118.48 58.51,119.70 C59.85,123.08 60.44,123.67 61.49,122.70 C62.02,122.22 62.25,121.53 62.12,120.53 C62.50,121.50 62.82,122.41 63.07,123.25 L 63.19 123.64 C63.51,124.85 63.82,125.92 64.09,126.75 C64.16,126.98 64.24,127.19 64.31,127.39 L 65.08 130.00 L 69.04 130.00 L 69.04 130.00 L 69.08 130.00 L 73.00 130.00 L 73.00 125.44 C73.00,124.74 72.93,123.96 72.79,123.15 C72.63,120.97 72.34,118.40 72.02,116.50 C71.56,113.75 70.66,108.35 70.02,104.50 C69.18,99.38 68.25,96.96 66.56,95.50 C66.01,95.02 65.50,94.51 65.04,93.98 C65.75,94.76 66.57,95.39 67.43,95.78 C68.96,96.48 70.00,97.78 70.00,98.98 C70.00,100.09 70.45,101.00 71.00,101.00 C71.55,101.00 72.00,100.11 72.00,99.01 C72.00,96.19 78.34,93.58 81.34,95.18 C83.16,96.15 83.32,96.11 82.33,94.91 C81.69,94.13 81.01,91.92 80.83,90.00 C80.61,87.66 79.93,86.41 78.77,86.19 C77.44,85.94 76.90,86.80 76.40,89.93 C75.86,93.29 75.35,94.00 73.50,94.00 C71.63,94.00 71.17,93.32 70.71,89.86 C70.00,84.55 68.00,82.39 65.18,83.90 C64.06,84.50 62.86,85.88 62.52,86.95 C62.07,88.37 62.60,90.38 63.67,92.16 C62.60,90.46 62.00,88.67 62.00,87.03 C62.00,85.49 60.80,84.41 57.53,83.01 C54.38,81.66 52.87,80.35 52.42,78.55 C51.64,75.41 50.91,75.35 48.99,78.25 C46.94,81.35 46.23,84.96 46.87,89.21 C44.60,78.10 47.89,67.91 56.72,59.31 C69.61,46.76 88.88,46.82 101.54,59.47 C108.50,66.42 111.29,72.61 111.80,82.21 C111.98,85.57 111.72,89.16 111.16,92.38 C111.38,90.70 111.44,88.82 111.43,86.50 C111.40,77.84 108.67,69.58 105.42,68.33 C103.43,67.57 100.06,71.44 100.02,74.53 C100.01,75.64 98.62,77.76 96.94,79.24 C94.40,81.47 94.06,82.25 94.94,83.89 C96.28,86.40 96.17,89.39 94.98,91.83 C96.12,88.94 95.61,85.40 93.01,84.01 C90.38,82.60 87.00,85.90 87.00,89.88 C87.00,91.46 86.37,93.27 85.61,93.91 C84.51,94.82 84.46,95.58 85.36,97.51 C86.45,99.85 86.56,99.88 88.00,98.12 C88.26,97.80 88.59,97.47 88.95,97.16 C88.29,98.13 87.98,99.83 87.62,103.17 C86.69,112.01 86.07,118.49 85.76,122.78 C85.33,125.77 85.16,128.46 85.55,129.08 C85.57,129.11 85.59,129.14 85.61,129.16 C85.62,129.18 85.62,129.20 85.63,129.22 C86.03,129.86 87.85,130.08 89.68,129.96 C91.43,129.87 93.19,129.45 93.74,128.75 ZM 75.29 130.00 L 82.00 130.00 L 82.00 126.69 L 83.39 113.90 C84.35,105.05 84.99,97.71 84.82,97.60 C81.70,95.66 78.83,95.24 75.97,96.31 L 72.77 97.50 L 73.39 104.00 C73.73,107.57 74.30,114.89 74.65,120.25 ZM 67.50 150.13 C65.40,149.68 64.40,148.81 64.18,147.24 C63.86,145.01 63.91,145.00 78.43,145.00 C91.88,145.00 93.00,145.14 93.00,146.83 C93.00,150.12 77.13,152.17 67.50,150.13 ZM 64.04 141.07 C63.47,140.00 63.00,138.76 63.00,138.32 C63.00,137.87 70.00,137.63 78.56,137.80 C92.42,138.07 94.09,138.28 93.81,139.76 C93.35,142.16 89.94,142.79 76.79,142.90 C66.17,142.99 64.97,142.82 64.04,141.07 ZM 94.95 127.75 C94.00,130.10 94.60,130.54 96.80,129.15 C98.17,128.27 99.08,120.00 97.80,120.00 C97.38,120.00 96.77,121.24 96.45,122.75 C96.13,124.26 95.45,126.51 94.95,127.75 ZM 92.50 89.57 C92.50,91.48 91.93,92.58 90.84,92.79 C88.46,93.25 87.79,91.55 89.16,88.55 C90.67,85.24 92.50,85.80 92.50,89.57 ZM 68.17 88.47 C68.93,90.15 69.00,91.40 68.37,92.03 C67.13,93.27 65.00,91.26 65.00,88.86 C65.00,85.96 66.92,85.72 68.17,88.47 ZM 107.03 45.75 C107.05,44.60 109.79,41.39 112.38,39.01 C110.61,40.99 109.00,43.46 109.00,44.70 C109.00,46.71 112.39,44.68 114.77,41.25 C115.32,40.45 115.79,39.76 116.18,39.19 C114.48,42.39 110.66,47.00 108.97,47.00 C107.89,47.00 107.01,46.44 107.03,45.75 ZM 53.24 110.83 C53.17,110.74 53.10,110.64 53.03,110.54 C52.78,110.20 52.53,109.84 52.27,109.47 C52.53,109.84 52.79,110.18 53.03,110.50 C53.52,111.14 54.03,111.86 54.53,112.62 C54.22,112.17 53.90,111.71 53.56,111.26 C53.45,111.12 53.35,110.98 53.24,110.83 ZM 54.18 106.06 C53.21,104.56 52.32,103.07 51.52,101.59 C52.31,103.03 53.20,104.52 54.18,106.06 ZM 91.22 95.69 C91.03,95.78 90.84,95.87 90.65,95.94 C90.84,95.84 91.03,95.76 91.19,95.70 C91.20,95.70 91.21,95.69 91.22,95.69 Z" fill="rgb(229,217,133)"/>
<path d="M 0.00 86.00 L 0.00 0.00 L 78.50 0.00 L 157.00 0.00 L 157.00 86.00 L 157.00 172.00 L 120.25 171.89 C88.09,171.79 84.31,171.62 90.00,170.55 C105.10,167.69 114.63,163.39 125.05,154.73 C136.78,144.98 146.05,131.88 150.44,118.86 C155.36,104.27 155.84,79.43 151.50,64.50 C146.79,48.29 137.56,33.74 126.25,24.68 C112.46,13.63 100.83,9.12 83.95,8.29 C70.24,7.62 62.23,8.81 51.34,13.15 C16.11,27.20 -3.74,65.08 3.47,104.50 C5.81,117.33 8.55,124.83 14.46,134.65 C25.87,153.58 43.88,166.01 66.50,170.56 C71.66,171.59 67.42,171.78 36.25,171.88 L 0.00 172.00 L 0.00 86.00 ZM 94.95 127.75 C95.45,126.51 96.13,124.26 96.45,122.75 C96.77,121.24 97.38,120.00 97.80,120.00 C99.08,120.00 98.17,128.27 96.80,129.15 C94.60,130.54 94.00,130.10 94.95,127.75 ZM 58.51 119.70 C57.59,117.39 55.12,113.25 53.03,110.50 C50.94,107.75 47.95,103.03 46.39,100.00 C43.81,95.00 43.55,93.54 43.53,84.00 C43.50,72.20 45.11,67.45 51.94,59.20 C65.03,43.38 89.99,42.01 104.17,56.33 C112.13,64.37 117.00,77.88 115.50,87.83 C114.23,96.30 109.21,107.00 106.50,107.00 C105.41,107.00 106.08,103.17 107.37,102.11 C110.11,99.83 112.23,90.33 111.80,82.21 C111.29,72.61 108.50,66.42 101.54,59.47 C88.88,46.82 69.61,46.76 56.72,59.31 C43.44,72.25 42.68,88.78 54.56,106.64 C61.63,117.25 63.27,121.07 61.49,122.70 C60.44,123.67 59.85,123.08 58.51,119.70 ZM 70.00 98.98 C70.00,97.78 68.96,96.48 67.43,95.78 C64.30,94.36 61.67,89.62 62.52,86.95 C62.86,85.88 64.06,84.50 65.18,83.90 C68.00,82.39 70.00,84.55 70.71,89.86 C71.17,93.32 71.63,94.00 73.50,94.00 C75.35,94.00 75.86,93.29 76.40,89.93 C76.90,86.80 77.44,85.94 78.77,86.19 C79.93,86.41 80.61,87.66 80.83,90.00 C81.01,91.92 81.69,94.13 82.33,94.91 C83.32,96.11 83.16,96.15 81.34,95.18 C78.34,93.58 72.00,96.19 72.00,99.01 C72.00,100.11 71.55,101.00 71.00,101.00 C70.45,101.00 70.00,100.09 70.00,98.98 ZM 68.17 88.47 C66.92,85.72 65.00,85.96 65.00,88.86 C65.00,91.26 67.13,93.27 68.37,92.03 C69.00,91.40 68.93,90.15 68.17,88.47 ZM 85.36 97.51 C84.46,95.58 84.51,94.82 85.61,93.91 C86.37,93.27 87.00,91.46 87.00,89.88 C87.00,85.90 90.38,82.60 93.01,84.01 C97.19,86.24 95.98,94.03 91.19,95.70 C90.26,96.02 88.82,97.12 88.00,98.12 C86.56,99.88 86.45,99.85 85.36,97.51 ZM 92.50 89.57 C92.50,85.80 90.67,85.24 89.16,88.55 C87.79,91.55 88.46,93.25 90.84,92.79 C91.93,92.58 92.50,91.48 92.50,89.57 ZM 27.08 69.21 C22.42,67.40 20.51,65.00 23.74,65.00 C27.10,65.00 35.11,68.18 34.71,69.36 C34.13,71.12 31.91,71.07 27.08,69.21 ZM 124.00 69.66 C124.00,68.09 127.38,66.39 132.41,65.45 C137.99,64.40 137.16,67.42 131.32,69.41 C125.62,71.35 124.00,71.41 124.00,69.66 ZM 44.58 42.66 C40.77,38.01 40.12,36.00 42.42,36.00 C43.92,36.00 50.00,43.08 50.00,44.83 C50.00,47.51 47.84,46.64 44.58,42.66 ZM 109.00 44.70 C109.00,42.43 114.36,36.08 116.31,36.04 C118.23,36.00 118.10,36.44 114.77,41.25 C112.39,44.68 109.00,46.71 109.00,44.70 ZM 78.64 36.31 C78.29,35.95 78.00,32.82 78.00,29.33 C78.00,24.37 78.32,23.00 79.50,23.00 C80.68,23.00 81.00,24.38 81.00,29.44 C81.00,35.43 80.17,37.84 78.64,36.31 Z" fill="rgb(251,250,241)"/>
</g>
</svg>