<svg xmlns="http://www.w3.org/2000/svg" width="160" height="173" viewBox="0 0 160 173">
<g>
<path d="M 60.12 135.75 C59.98,137.24 56.38,137.43 55.50,136.00 C55.16,135.45 53.86,135.00 52.60,135.00 C49.70,135.00 41.87,127.50 42.65,125.47 C43.49,123.29 44.21,123.61 48.50,128.00 C50.65,130.20 53.03,132.00 53.80,132.00 C55.28,132.00 55.64,131.65 71.70,114.74 C77.30,108.83 82.25,104.04 82.70,104.08 C83.14,104.13 88.68,109.80 95.00,116.68 C101.32,123.57 107.54,129.90 108.81,130.75 C111.03,132.25 111.31,132.12 116.06,127.44 C119.27,124.28 121.00,121.73 121.00,120.17 C121.00,118.51 118.41,115.04 112.77,109.13 C108.25,104.38 102.32,98.16 99.60,95.30 L 94.66 90.10 L 107.41 76.58 C114.42,69.14 120.53,61.81 120.99,60.28 L 121.83 57.50 L 121.91 60.19 C121.96,61.67 121.55,63.16 121.00,63.50 C120.45,63.84 120.00,64.94 120.00,65.94 C120.00,66.94 119.32,68.32 118.50,69.00 C117.68,69.68 117.00,71.10 117.00,72.14 C117.00,73.20 115.89,74.55 114.50,75.18 C113.12,75.81 112.00,76.66 112.00,77.08 C112.00,77.50 109.97,79.87 107.49,82.35 C104.64,85.20 102.85,87.95 102.64,89.79 C102.45,91.40 102.01,93.18 101.66,93.74 C100.89,94.98 110.82,106.03 114.44,107.97 C115.85,108.72 117.00,109.88 117.00,110.53 C117.00,111.19 118.34,113.41 119.97,115.47 C124.47,121.13 125.30,130.00 121.33,130.00 C120.49,130.00 118.34,131.46 116.54,133.26 C114.75,135.05 112.66,136.46 111.89,136.41 C111.13,136.35 109.78,136.24 108.91,136.15 C107.33,136.00 97.12,127.00 98.53,127.00 C98.94,127.00 98.13,126.10 96.73,125.00 C95.33,123.90 93.81,122.99 93.34,122.99 C92.88,122.98 91.54,121.50 90.37,119.69 C89.12,117.75 86.59,115.75 84.23,114.82 L 80.21 113.24 L 75.55 117.71 C72.98,120.17 70.46,123.28 69.95,124.62 C69.44,125.96 67.02,128.28 64.56,129.78 C62.10,131.28 60.12,132.95 60.16,133.50 C60.20,134.05 60.18,135.06 60.12,135.75 ZM 64.36 96.04 C61.81,98.77 59.32,101.00 58.83,101.00 C57.63,101.00 59.66,97.30 61.40,96.29 C62.16,95.86 63.47,93.85 64.31,91.83 C65.71,88.45 65.69,88.03 64.08,86.58 C63.12,85.71 62.07,85.26 61.74,85.59 C61.41,85.92 59.96,84.32 58.52,82.03 C57.08,79.75 53.01,74.87 49.48,71.19 C45.95,67.51 43.04,63.83 43.03,63.02 C43.00,61.37 43.67,62.02 58.89,78.34 C64.45,84.31 69.00,89.61 69.00,90.14 C69.00,90.66 66.91,93.32 64.36,96.04 ZM 53.48 161.32 C58.84,164.93 55.83,164.70 49.10,160.99 C41.42,156.75 33.64,150.53 27.94,144.07 C20.29,135.39 22.11,136.27 32.05,146.05 C38.61,152.50 42.16,155.24 44.97,155.99 C47.10,156.57 48.99,157.40 49.17,157.84 C49.35,158.28 51.29,159.85 53.48,161.32 ZM 79.00 168.00 C79.00,170.17 63.74,167.83 59.15,164.95 C57.09,163.66 69.64,164.78 72.18,166.11 C73.11,166.60 75.02,167.00 76.43,167.00 C77.85,167.00 79.00,167.45 79.00,168.00 ZM 95.95 167.92 C89.63,169.27 84.00,169.31 84.00,168.00 C84.00,167.45 85.10,167.00 86.44,167.00 C87.78,167.00 89.16,166.55 89.50,166.00 C90.27,164.75 101.00,164.67 101.00,165.92 C101.00,166.42 98.73,167.32 95.95,167.92 Z" fill="rgb(189,40,37)"/>
<path d="M 29.81 33.81 C29.09,34.81 27.89,35.99 27.15,36.43 C26.09,37.07 26.02,36.85 26.83,35.37 C28.36,32.56 38.43,23.12 37.08,25.75 C36.45,26.99 36.24,28.00 36.62,28.00 C37.00,28.00 36.50,28.90 35.50,30.00 C34.50,31.10 33.11,32.00 32.40,32.00 C31.69,32.00 30.53,32.82 29.81,33.81 ZM 20.59 49.00 C20.30,50.38 18.94,52.01 17.57,52.64 L 15.08 53.77 L 17.50 49.14 C18.83,46.59 20.40,43.83 20.99,43.00 C22.09,41.46 22.04,42.22 20.59,49.00 ZM 73.50 10.51 C70.75,11.31 67.15,11.93 65.50,11.89 L 62.50 11.83 L 65.19 11.02 C66.67,10.57 70.27,9.94 73.19,9.63 L 78.50 9.05 Z" fill="rgb(211,73,69)"/>
<path d="M 60.12 135.75 C60.18,135.06 60.20,134.05 60.16,133.50 C60.12,132.95 62.10,131.28 64.56,129.78 C67.02,128.28 69.44,125.96 69.95,124.62 C70.46,123.28 72.98,120.17 75.55,117.71 L 80.21 113.24 L 84.23 114.82 C86.59,115.75 89.12,117.75 90.37,119.69 C91.54,121.50 92.88,122.98 93.34,122.99 C93.81,122.99 95.33,123.90 96.73,125.00 C98.13,126.10 98.94,127.00 98.53,127.00 C97.12,127.00 107.33,136.00 108.91,136.15 C109.78,136.24 111.13,136.35 111.89,136.41 C112.66,136.46 114.75,135.05 116.54,133.26 C118.34,131.46 120.49,130.00 121.33,130.00 C125.30,130.00 124.47,121.13 119.97,115.47 C118.34,113.41 117.00,111.19 117.00,110.53 C117.00,109.88 115.85,108.72 114.44,107.97 C110.82,106.03 100.89,94.98 101.66,93.74 C102.01,93.18 102.45,91.40 102.64,89.79 C102.85,87.95 104.64,85.20 107.49,82.35 C109.97,79.87 112.00,77.50 112.00,77.08 C112.00,76.66 113.12,75.81 114.50,75.18 C115.89,74.55 117.00,73.20 117.00,72.14 C117.00,71.10 117.68,69.68 118.50,69.00 C119.32,68.32 120.00,66.94 120.00,65.94 C120.00,64.94 120.45,63.84 121.00,63.50 C121.55,63.16 121.96,61.67 121.91,60.19 L 121.83 57.50 L 120.99 60.28 C120.92,60.51 120.73,60.87 120.42,61.34 C120.84,60.40 120.89,59.69 120.78,58.92 C120.54,57.32 120.65,56.00 121.02,56.00 C122.16,56.00 124.61,59.34 125.93,62.70 C126.99,65.36 126.95,66.39 125.72,68.87 C123.05,74.22 128.68,76.14 133.08,71.37 C137.91,66.13 146.62,64.69 148.49,68.82 C149.79,71.70 151.19,71.64 150.12,68.75 C149.66,67.51 149.41,65.93 149.57,65.22 C149.72,64.52 149.62,64.41 149.34,64.97 C148.60,66.48 147.30,66.23 146.62,64.45 C146.28,63.56 146.44,63.16 147.01,63.51 C147.56,63.84 148.00,63.39 148.00,62.50 C148.00,61.61 148.41,61.13 148.91,61.44 C149.41,61.75 149.58,61.10 149.29,60.00 C149.00,58.90 149.24,58.00 149.81,58.00 C150.86,58.00 152.91,64.10 155.02,73.50 C155.72,76.63 155.90,82.43 155.49,89.00 C153.79,116.33 147.42,131.73 131.12,147.87 C124.70,154.22 121.49,156.46 111.95,161.22 C108.07,163.17 103.84,165.06 100.60,166.36 C100.86,166.20 101.00,166.04 101.00,165.92 C101.00,164.67 90.27,164.75 89.50,166.00 C89.16,166.55 87.78,167.00 86.44,167.00 C85.10,167.00 84.00,167.45 84.00,168.00 C84.00,168.36 84.43,168.62 85.18,168.78 C82.41,168.85 79.52,168.87 76.95,168.83 C78.22,168.75 79.00,168.49 79.00,168.00 C79.00,167.45 77.85,167.00 76.43,167.00 C75.02,167.00 73.11,166.60 72.18,166.11 C69.64,164.78 57.09,163.66 59.15,164.95 C61.98,166.72 68.83,168.29 73.70,168.73 C71.82,168.64 70.33,168.51 69.50,168.32 C64.54,167.21 59.83,165.71 55.36,163.82 C56.87,164.18 56.53,163.37 53.48,161.32 C51.29,159.85 49.35,158.28 49.17,157.84 C48.99,157.40 47.10,156.57 44.97,155.99 C42.16,155.24 38.61,152.50 32.05,146.05 C27.40,141.47 24.52,138.84 23.57,138.24 C21.03,134.66 18.75,130.82 16.73,126.71 C11.08,115.21 9.19,107.50 8.59,93.50 C8.32,87.23 8.42,84.70 8.82,87.61 C9.21,90.43 10.14,93.46 10.88,94.35 C12.11,95.84 12.47,95.80 15.11,93.92 C17.91,91.93 22.00,92.00 22.00,94.04 C22.00,94.53 22.69,94.67 23.53,94.35 C24.47,93.99 25.98,94.83 27.43,96.51 L 29.79 99.26 L 30.98 97.05 C31.63,95.83 32.36,95.03 32.60,95.27 C32.84,95.51 34.63,94.19 36.59,92.35 C39.49,89.61 40.40,89.23 41.54,90.25 C45.04,93.39 46.03,94.00 47.63,94.00 C48.57,94.00 50.17,94.74 51.17,95.65 C52.89,97.21 53.00,97.17 52.99,94.90 C52.99,93.58 52.31,91.20 51.48,89.61 C50.65,88.02 50.14,85.54 50.34,84.11 C50.59,82.32 49.81,80.47 47.85,78.22 C45.28,75.25 44.46,73.14 44.92,70.62 C45.01,70.14 44.38,68.97 43.52,68.02 C42.45,66.84 42.21,65.61 42.76,64.12 C42.87,63.82 43.00,63.59 43.17,63.46 C43.79,64.77 46.39,67.98 49.48,71.19 C53.01,74.87 57.08,79.75 58.52,82.03 C59.96,84.32 61.41,85.92 61.74,85.59 C62.07,85.26 63.12,85.71 64.08,86.58 C65.69,88.03 65.71,88.45 64.31,91.83 C63.47,93.85 62.16,95.86 61.40,96.29 C59.66,97.30 57.63,101.00 58.83,101.00 C59.05,101.00 59.69,100.54 60.55,99.79 C59.39,100.99 58.15,102.26 56.87,103.55 C43.66,116.89 43.04,117.64 43.02,120.29 C43.00,121.88 47.52,127.26 50.81,130.14 C50.07,129.52 49.27,128.79 48.50,128.00 C44.21,123.61 43.49,123.29 42.65,125.47 C41.87,127.50 49.70,135.00 52.60,135.00 C53.86,135.00 55.16,135.45 55.50,136.00 C56.38,137.43 59.98,137.24 60.12,135.75 ZM 88.97 69.17 C85.93,72.38 82.99,75.00 82.44,75.00 C81.41,75.00 72.00,65.88 72.00,64.88 C72.00,63.37 75.82,64.56 78.25,66.81 C79.76,68.22 81.00,68.94 81.00,68.40 C81.00,67.87 82.60,67.48 84.55,67.55 C86.49,67.61 88.36,67.22 88.70,66.68 C89.08,66.07 88.77,66.02 87.90,66.54 C86.70,67.26 86.70,67.14 87.89,65.67 C88.66,64.72 89.49,64.16 89.75,64.42 C90.00,64.67 91.31,63.78 92.65,62.44 C95.42,59.67 98.02,59.05 95.87,61.67 C95.12,62.60 92.01,65.97 88.97,69.17 ZM 75.92 67.25 C77.26,68.76 78.50,70.00 78.67,70.00 C79.46,70.00 78.82,69.19 76.25,66.92 L 73.50 64.50 ZM 110.10 73.68 C109.23,74.64 108.33,75.60 107.41,76.58 L 103.30 80.93 L 107.94 75.98 C108.71,75.17 109.42,74.41 110.10,73.68 ZM 95.95 167.92 C96.33,167.84 96.70,167.75 97.06,167.66 C96.65,167.79 96.29,167.89 96.00,167.95 C95.65,168.03 95.20,168.10 94.69,168.17 C95.11,168.09 95.53,168.01 95.95,167.92 ZM 53.79 132.00 C55.10,131.99 55.65,131.61 66.37,120.35 C55.53,131.73 55.09,132.00 53.80,132.00 C53.80,132.00 53.79,132.00 53.79,132.00 ZM 68.62 90.92 C68.82,90.61 68.95,90.37 68.99,90.22 C69.00,90.24 69.00,90.26 69.00,90.28 C69.00,90.37 68.87,90.59 68.62,90.92 Z" fill="rgb(213,43,35)"/>
<path d="M 29.81 33.81 C30.53,32.82 31.69,32.00 32.40,32.00 C33.11,32.00 34.50,31.10 35.50,30.00 C36.50,28.90 37.00,28.00 36.62,28.00 C36.24,28.00 36.45,26.99 37.08,25.75 C37.45,25.03 36.97,25.21 36.04,25.92 C38.94,23.47 42.05,21.29 45.50,19.25 C51.06,15.97 56.74,13.49 62.56,11.83 L 65.50 11.89 C67.15,11.93 70.75,11.31 73.50,10.51 L 77.45 9.35 C82.75,9.09 88.15,9.44 93.66,10.41 C117.41,14.61 135.27,28.35 147.23,51.62 C148.46,54.02 149.55,56.35 150.50,58.62 C150.24,58.21 150.01,58.00 149.81,58.00 C149.24,58.00 149.00,58.90 149.29,60.00 C149.58,61.10 149.41,61.75 148.91,61.44 C148.41,61.13 148.00,61.61 148.00,62.50 C148.00,63.39 147.56,63.84 147.01,63.51 C146.44,63.16 146.28,63.56 146.62,64.45 C147.30,66.23 148.60,66.48 149.34,64.97 C149.62,64.41 149.72,64.52 149.57,65.22 C149.41,65.93 149.66,67.51 150.12,68.75 C151.19,71.64 149.79,71.70 148.49,68.82 C146.62,64.69 137.91,66.13 133.08,71.37 C128.68,76.14 123.05,74.22 125.72,68.87 C126.95,66.39 126.99,65.36 125.93,62.70 C124.61,59.34 122.16,56.00 121.02,56.00 C120.72,56.00 120.59,56.85 120.68,58.02 C119.18,54.29 112.92,48.00 110.25,48.00 C109.09,48.00 106.24,50.22 103.51,53.25 C100.67,56.41 98.15,59.19 95.91,61.62 C97.99,59.06 95.40,59.69 92.65,62.44 C91.31,63.78 90.00,64.67 89.75,64.42 C89.49,64.16 88.66,64.72 87.89,65.67 C86.70,67.14 86.70,67.26 87.90,66.54 C88.77,66.02 89.08,66.07 88.70,66.68 C88.36,67.22 86.49,67.61 84.55,67.55 C82.60,67.48 81.00,67.87 81.00,68.40 C81.00,68.94 79.76,68.22 78.25,66.81 C75.82,64.56 72.00,63.37 72.00,64.88 C72.00,64.99 72.11,65.20 72.31,65.47 C71.24,64.37 70.13,63.20 69.00,62.00 C55.00,47.12 54.04,46.70 47.18,52.58 C41.62,57.34 41.03,58.85 49.94,68.78 C43.38,61.84 43.00,61.78 43.03,63.02 C43.03,63.12 43.08,63.27 43.17,63.46 C43.00,63.59 42.87,63.82 42.76,64.12 C42.21,65.61 42.45,66.84 43.52,68.02 C44.38,68.97 45.01,70.14 44.92,70.62 C44.46,73.14 45.28,75.25 47.85,78.22 C49.81,80.47 50.59,82.32 50.34,84.11 C50.14,85.54 50.65,88.02 51.48,89.61 C52.31,91.20 52.99,93.58 52.99,94.90 C53.00,97.17 52.89,97.21 51.17,95.65 C50.17,94.74 48.57,94.00 47.63,94.00 C46.03,94.00 45.04,93.39 41.54,90.25 C40.40,89.23 39.49,89.61 36.59,92.35 C34.63,94.19 32.84,95.51 32.60,95.27 C32.36,95.03 31.63,95.83 30.98,97.05 L 29.79 99.26 L 27.43 96.51 C25.98,94.83 24.47,93.99 23.53,94.35 C22.69,94.67 22.00,94.53 22.00,94.04 C22.00,92.00 17.91,91.93 15.11,93.92 C12.47,95.80 12.11,95.84 10.88,94.35 C10.14,93.46 9.21,90.43 8.82,87.61 C8.78,87.29 8.74,87.03 8.70,86.84 C8.77,75.86 9.18,72.97 11.42,65.50 C12.83,60.79 14.14,56.95 15.57,53.55 L 17.57 52.64 C18.94,52.01 20.30,50.38 20.59,49.00 C21.63,44.13 21.95,42.36 21.64,42.33 C22.37,41.24 23.15,40.15 23.99,39.02 C24.94,37.74 25.88,36.52 26.83,35.36 C26.83,35.36 26.83,35.37 26.83,35.37 C26.02,36.85 26.09,37.07 27.15,36.43 C27.89,35.99 29.09,34.81 29.81,33.81 ZM 75.92 67.25 L 73.50 64.50 L 76.25 66.92 C78.82,69.19 79.46,70.00 78.67,70.00 C78.50,70.00 77.26,68.76 75.92,67.25 ZM 8.90 98.76 C9.76,109.61 11.83,116.73 16.73,126.71 C11.52,116.10 9.50,109.56 8.90,98.76 ZM 46.03 114.74 C48.03,112.50 51.35,109.12 56.87,103.55 C52.46,108.01 48.40,112.20 46.03,114.74 ZM 43.12 119.12 C42.99,120.11 43.25,121.14 43.94,122.36 C43.36,121.47 43.01,120.73 43.02,120.29 C43.02,119.87 43.04,119.50 43.12,119.12 ZM 155.65 85.63 C155.62,86.69 155.58,87.76 155.51,88.85 C155.34,91.52 155.13,94.08 154.87,96.53 C153.91,105.72 152.25,113.48 149.65,120.42 C145.81,130.69 139.92,139.16 131.12,147.87 C139.91,139.17 145.81,130.68 149.65,120.42 C152.24,113.49 153.89,105.74 154.87,96.53 C155.12,94.12 155.33,91.62 155.49,89.00 C155.56,87.85 155.61,86.72 155.65,85.63 ZM 49.23 128.66 C50.41,129.80 51.54,130.75 52.40,131.34 C51.93,131.03 51.38,130.62 50.81,130.14 C50.31,129.70 49.77,129.20 49.23,128.66 ZM 120.60 60.88 C120.55,61.03 120.49,61.18 120.42,61.34 C120.33,61.48 120.22,61.64 120.11,61.80 C120.31,61.47 120.47,61.16 120.60,60.88 ZM 110.10 73.68 C109.42,74.41 108.71,75.17 107.94,75.98 C108.86,75.00 109.72,74.08 110.53,73.21 C110.38,73.37 110.24,73.53 110.10,73.68 ZM 82.26 74.95 C82.33,74.98 82.38,75.00 82.42,75.00 C82.42,75.00 82.41,75.00 82.41,75.00 C82.37,75.00 82.32,74.98 82.26,74.95 ZM 68.99 90.21 C69.00,90.24 69.00,90.25 69.00,90.27 L 69.00 90.27 C69.00,90.26 68.99,90.24 68.99,90.22 ZM 82.89 74.80 C82.94,74.76 83.01,74.72 83.07,74.68 C83.01,74.72 82.94,74.76 82.89,74.80 Z" fill="rgb(234,64,52)"/>
<path d="M 0.00 86.50 L 0.00 0.00 L 80.00 0.00 L 160.00 0.00 L 160.00 86.50 L 160.00 173.00 L 80.00 173.00 L 0.00 173.00 L 0.00 86.50 ZM 96.00 167.95 C98.47,167.40 105.65,164.37 111.95,161.22 C121.49,156.46 124.70,154.22 131.12,147.87 C147.44,131.70 153.77,116.39 155.51,88.85 C156.35,75.47 153.96,64.74 147.23,51.62 C135.27,28.35 117.41,14.61 93.66,10.41 C76.59,7.40 60.59,10.33 45.50,19.25 C36.93,24.31 30.52,30.20 23.99,39.02 C18.07,46.99 15.05,53.37 11.42,65.50 C9.04,73.44 8.72,76.21 8.69,89.00 C8.65,106.35 10.13,113.26 16.73,126.71 C27.47,148.59 45.77,163.01 69.50,168.32 C73.39,169.19 91.56,168.94 96.00,167.95 ZM 47.64 127.04 C43.08,122.17 42.19,119.83 43.89,117.15 C44.36,116.40 50.20,110.28 56.87,103.55 C63.54,96.81 69.00,90.84 69.00,90.27 C69.00,89.70 63.16,82.99 56.02,75.37 C40.98,59.30 40.57,58.24 47.18,52.58 C54.04,46.70 55.00,47.12 69.00,62.00 C75.72,69.15 81.76,75.00 82.41,75.00 C83.47,75.00 89.88,68.40 103.51,53.25 C106.24,50.22 109.09,48.00 110.25,48.00 C113.29,48.00 121.00,56.17 121.00,59.40 C121.00,61.44 117.92,65.35 107.84,76.09 L 94.69 90.12 L 99.62 95.31 C102.33,98.16 108.25,104.38 112.77,109.13 C118.41,115.04 121.00,118.51 121.00,120.17 C121.00,121.73 119.27,124.28 116.06,127.44 C111.31,132.12 111.03,132.25 108.81,130.75 C107.54,129.90 101.32,123.57 95.00,116.68 C88.68,109.80 83.14,104.13 82.70,104.08 C82.25,104.04 77.30,108.83 71.70,114.74 C55.60,131.69 55.28,132.00 53.74,132.00 C52.93,132.00 50.19,129.77 47.64,127.04 Z" fill="rgb(249,248,247)"/>
</g>
</svg>