<svg xmlns="http://www.w3.org/2000/svg" width="157" height="177" viewBox="0 0 157 177">
<g>
<path d="M 97.65 168.43 C80.22,172.93 60.61,170.55 44.00,161.92 C25.43,152.27 10.44,133.88 4.92,113.96 C2.58,105.51 2.39,100.46 4.66,107.00 C5.51,109.47 6.56,111.95 6.98,112.50 C7.40,113.05 8.27,115.14 8.91,117.15 C9.56,119.15 10.95,121.79 12.01,123.01 C13.77,125.04 14.05,125.09 15.54,123.60 C17.32,121.83 19.00,122.29 19.00,124.56 C19.00,125.35 19.45,126.00 20.00,126.00 C20.55,126.00 21.00,125.32 21.00,124.50 C21.00,123.68 20.66,123.00 20.25,123.00 C19.84,123.00 19.66,120.20 19.85,116.78 C20.12,111.90 20.64,110.24 22.24,109.12 C24.24,107.72 24.23,107.68 21.54,106.27 C19.19,105.04 18.89,104.39 19.40,101.67 C19.72,99.93 20.26,95.80 20.60,92.50 C21.97,79.04 26.27,64.08 29.03,63.16 C29.81,62.90 29.43,64.18 28.09,66.36 C26.85,68.36 26.15,70.00 26.54,70.00 C26.93,70.00 26.68,70.68 26.00,71.50 C25.32,72.32 25.00,73.00 25.31,73.00 C25.61,73.00 25.42,74.46 24.88,76.25 C20.92,89.41 24.30,110.01 32.58,123.13 C36.93,130.01 46.54,138.74 53.81,142.40 C76.35,153.76 98.69,150.25 116.61,132.53 C128.40,120.88 134.00,107.35 134.00,90.50 C134.00,80.37 132.29,72.47 128.44,64.88 C127.02,62.09 126.35,60.10 126.96,60.47 C128.21,61.25 134.00,73.64 134.00,75.55 C134.00,76.26 134.44,76.98 134.99,77.17 C135.53,77.35 136.38,79.53 136.88,82.00 C137.38,84.47 138.56,89.88 139.51,94.00 C140.46,98.12 141.19,102.53 141.13,103.78 C141.06,105.13 141.74,106.32 142.76,106.69 C143.72,107.03 145.24,107.94 146.15,108.72 C147.59,109.95 148.05,109.86 149.81,107.98 C150.91,106.80 152.10,104.28 152.46,102.39 C153.32,97.78 155.01,99.03 154.33,103.77 C152.34,117.59 144.15,135.04 134.78,145.42 C124.80,156.48 111.12,164.96 97.65,168.43 ZM 92.29 138.99 C84.86,141.29 74.05,141.53 66.89,139.55 C50.34,134.99 35.58,119.14 31.90,101.99 C30.58,95.83 31.19,79.97 32.91,75.61 C35.03,70.26 35.84,75.14 34.14,83.00 C32.42,90.98 37.13,107.93 40.69,106.56 C41.49,106.26 42.98,106.45 44.00,107.00 C45.02,107.55 46.57,107.72 47.45,107.38 C49.63,106.55 53.70,97.57 54.54,91.75 C54.92,89.14 55.63,87.00 56.11,87.00 C56.60,87.00 57.00,82.95 57.00,78.00 C57.00,72.67 57.41,69.00 58.00,69.00 C58.64,69.00 59.00,77.33 59.00,92.00 C59.00,113.67 59.12,115.12 61.00,117.00 C62.24,118.24 64.33,119.00 66.50,119.00 C68.67,119.00 70.76,118.24 72.00,117.00 C73.89,115.11 74.00,113.67 74.00,90.70 C74.00,73.13 73.67,66.07 72.80,65.20 C72.00,64.40 71.96,64.00 72.69,64.00 C73.95,64.00 75.00,66.31 75.00,69.08 C75.00,70.14 75.45,71.00 76.00,71.00 C76.55,71.00 76.95,71.34 76.88,71.75 C76.82,72.16 76.83,73.62 76.91,75.00 C77.06,77.43 77.10,77.45 78.55,75.53 C79.37,74.44 79.82,72.98 79.55,72.28 C79.28,71.58 79.50,71.00 80.03,71.00 C80.56,71.00 81.00,70.10 81.00,69.00 C81.00,67.90 81.35,67.00 81.77,67.00 C82.20,67.00 82.37,77.54 82.16,90.43 L 81.77 113.86 L 84.34 116.43 C87.46,119.55 92.86,119.91 95.35,117.17 C96.77,115.60 97.01,112.36 97.10,93.92 C97.15,82.14 97.56,71.38 98.00,70.00 C98.44,68.62 98.88,68.18 98.98,69.00 C99.07,69.82 99.28,71.18 99.43,72.00 C99.59,72.82 100.02,75.97 100.40,79.00 C100.77,82.03 102.22,86.86 103.61,89.75 C105.91,94.50 106.94,95.48 109.25,95.12 C109.66,95.05 110.00,95.45 110.00,96.00 C110.00,97.91 112.51,96.90 114.89,94.03 C116.83,91.69 117.70,91.31 119.53,92.01 C121.43,92.73 121.79,92.53 121.83,90.68 C121.86,89.48 122.19,87.03 122.56,85.24 C122.93,83.45 122.80,81.42 122.28,80.74 C121.76,80.06 121.22,77.25 121.09,74.50 C120.93,71.31 120.17,68.78 118.99,67.50 C117.98,66.40 117.00,64.86 116.82,64.07 C115.80,59.56 105.80,50.43 97.50,46.44 C93.19,44.37 91.34,43.06 92.69,43.04 C93.90,43.02 95.16,43.45 95.50,44.00 C95.84,44.55 96.96,45.00 97.99,45.00 C99.02,45.00 100.53,45.67 101.36,46.50 C102.18,47.33 103.13,48.00 103.47,48.00 C104.48,48.00 107.07,50.20 112.66,55.82 C123.81,67.02 128.90,83.98 125.80,99.68 C121.94,119.27 109.72,133.61 92.29,138.99 Z" fill="rgb(29,102,179)"/>
<path d="M 154.31 100.16 C153.92,98.87 153.01,99.40 152.46,102.39 C152.10,104.28 150.91,106.80 149.81,107.98 C148.05,109.86 147.59,109.95 146.15,108.72 C145.24,107.94 143.72,107.03 142.76,106.69 C141.74,106.32 141.06,105.13 141.13,103.78 C141.19,102.53 140.46,98.12 139.51,94.00 C138.56,89.88 137.38,84.47 136.88,82.00 C136.38,79.53 135.53,77.35 134.99,77.17 C134.44,76.98 134.00,76.26 134.00,75.55 C134.00,73.64 128.21,61.25 126.96,60.47 C126.35,60.10 127.02,62.09 128.44,64.88 C132.29,72.47 134.00,80.37 134.00,90.50 C134.00,90.77 134.00,91.04 134.00,91.31 C133.90,83.44 132.68,75.00 130.64,70.06 C123.77,53.40 112.55,41.92 97.23,35.86 C92.29,33.91 89.70,33.60 78.50,33.63 C66.00,33.65 65.23,33.78 58.56,36.87 C45.79,42.79 38.72,48.97 31.72,60.33 C25.39,70.60 22.67,82.97 23.54,95.17 C22.87,88.30 23.26,81.65 24.88,76.25 C25.42,74.46 25.61,73.00 25.31,73.00 C25.00,73.00 25.32,72.32 26.00,71.50 C26.68,70.68 26.93,70.00 26.54,70.00 C26.15,70.00 26.85,68.36 28.09,66.36 C29.43,64.18 29.81,62.90 29.03,63.16 C26.27,64.08 21.97,79.04 20.60,92.50 C20.26,95.80 19.72,99.93 19.40,101.67 C18.89,104.39 19.19,105.04 21.54,106.27 C24.23,107.68 24.24,107.72 22.24,109.12 C20.64,110.24 20.12,111.90 19.85,116.78 C19.66,120.20 19.84,123.00 20.25,123.00 C20.66,123.00 21.00,123.68 21.00,124.50 C21.00,125.32 20.55,126.00 20.00,126.00 C19.45,126.00 19.00,125.35 19.00,124.56 C19.00,122.29 17.32,121.83 15.54,123.60 C14.05,125.09 13.77,125.04 12.01,123.01 C10.95,121.79 9.56,119.15 8.91,117.15 C8.27,115.14 7.40,113.05 6.98,112.50 C6.56,111.95 5.51,109.47 4.66,107.00 C3.59,103.93 3.07,103.41 3.06,104.60 C1.41,92.80 1.73,77.70 4.09,68.20 C8.41,50.84 18.21,34.38 29.32,25.85 C32.43,23.46 31.76,24.41 26.70,29.57 C22.97,33.38 18.82,38.34 17.49,40.59 C15.28,44.34 15.21,44.85 16.61,46.85 C17.45,48.05 18.50,48.81 18.95,48.53 C19.40,48.25 20.01,48.92 20.29,50.01 C20.58,51.11 21.30,52.00 21.91,52.00 C23.40,52.00 23.29,47.73 21.75,46.00 C20.70,44.82 20.76,44.79 22.09,45.79 C22.97,46.45 24.00,46.66 24.39,46.27 C24.79,45.88 24.80,46.45 24.42,47.53 C23.74,49.47 23.76,49.47 25.28,47.51 C26.13,46.42 26.64,45.22 26.41,44.85 C26.18,44.49 27.01,44.41 28.25,44.68 C30.07,45.08 30.21,44.96 29.00,44.09 C27.67,43.12 27.67,42.89 29.00,42.02 C31.09,40.64 31.76,40.75 32.82,42.64 C33.43,43.73 34.20,43.99 35.12,43.42 C36.50,42.55 38.05,42.14 41.18,41.78 C42.11,41.67 42.64,41.23 42.37,40.79 C42.10,40.36 42.61,40.00 43.50,40.00 C44.39,40.00 44.84,39.56 44.51,39.01 C44.16,38.45 44.56,38.28 45.44,38.62 C46.32,38.95 47.23,38.57 47.56,37.72 C48.18,36.10 52.32,34.84 58.26,34.46 C60.33,34.33 64.56,32.98 67.65,31.47 C73.02,28.84 73.68,28.75 82.39,29.50 C87.40,29.93 93.15,30.39 95.18,30.53 C97.20,30.68 99.34,31.09 99.93,31.45 C100.52,31.82 101.00,31.63 101.00,31.03 C101.00,30.34 102.03,30.48 103.83,31.41 C106.42,32.75 106.80,32.71 108.33,30.93 C109.93,29.06 110.16,29.05 113.75,30.65 C115.81,31.57 118.51,32.36 119.75,32.41 C120.99,32.46 122.00,32.79 122.00,33.14 C122.00,34.22 126.67,33.58 127.81,32.35 C128.59,31.53 128.35,30.72 126.97,29.47 C125.91,28.51 125.32,27.28 125.66,26.73 C126.00,26.19 124.53,24.18 122.39,22.28 L 118.50 18.83 L 122.00 21.14 C123.93,22.41 128.88,26.83 133.00,30.97 C142.57,40.58 149.66,53.82 153.02,68.35 C155.00,76.94 155.20,79.84 154.71,92.80 C154.61,95.48 154.48,97.91 154.31,100.16 ZM 92.92 43.04 C92.84,43.04 92.77,43.03 92.69,43.04 C91.34,43.06 93.19,44.37 97.50,46.44 C105.80,50.43 115.80,59.56 116.82,64.07 C117.00,64.86 117.98,66.40 118.99,67.50 C120.17,68.78 120.93,71.31 121.09,74.50 C121.22,77.25 121.76,80.06 122.28,80.74 C122.80,81.42 122.93,83.45 122.56,85.24 C122.19,87.03 121.86,89.48 121.83,90.68 C121.79,92.53 121.43,92.73 119.53,92.01 C117.70,91.31 116.83,91.69 114.89,94.03 C112.51,96.90 110.00,97.91 110.00,96.00 C110.00,95.45 109.66,95.05 109.25,95.12 C106.94,95.48 105.91,94.50 103.61,89.75 C102.22,86.86 100.77,82.03 100.40,79.00 C100.02,75.97 99.59,72.82 99.43,72.00 C99.28,71.18 99.07,69.82 98.98,69.00 C98.88,68.18 98.44,68.62 98.00,70.00 C97.56,71.38 97.15,82.14 97.10,93.92 C97.01,112.36 96.77,115.60 95.35,117.17 C95.34,117.18 95.33,117.18 95.33,117.19 C96.71,115.64 96.95,111.91 97.03,90.49 C97.13,67.80 96.98,65.46 95.38,64.29 C93.36,62.81 87.18,62.60 85.08,63.93 C83.43,64.97 82.58,70.09 82.25,82.22 C82.28,73.35 82.10,67.00 81.77,67.00 C81.35,67.00 81.00,67.90 81.00,69.00 C81.00,70.10 80.56,71.00 80.03,71.00 C79.50,71.00 79.28,71.58 79.55,72.28 C79.82,72.98 79.37,74.44 78.55,75.53 C77.10,77.45 77.06,77.43 76.91,75.00 C76.83,73.62 76.82,72.16 76.88,71.75 C76.95,71.34 76.55,71.00 76.00,71.00 C75.45,71.00 75.00,70.14 75.00,69.08 C75.00,66.31 73.95,64.00 72.69,64.00 C71.96,64.00 72.00,64.40 72.80,65.20 C73.34,65.74 73.68,68.71 73.85,75.15 C73.46,63.60 72.07,63.00 67.17,63.00 C65.12,63.00 62.44,63.70 61.22,64.56 C59.03,66.09 59.00,66.43 59.00,90.56 C59.00,112.68 59.10,114.95 60.77,116.76 C59.11,114.95 59.00,112.74 59.00,92.00 C59.00,77.33 58.64,69.00 58.00,69.00 C57.41,69.00 57.00,72.67 57.00,78.00 C57.00,82.95 56.60,87.00 56.11,87.00 C55.63,87.00 54.92,89.14 54.54,91.75 C53.70,97.57 49.63,106.55 47.45,107.38 C46.57,107.72 45.02,107.55 44.00,107.00 C42.98,106.45 41.49,106.26 40.69,106.56 C37.13,107.93 32.42,90.98 34.14,83.00 C35.78,75.42 35.08,70.61 33.13,75.08 C33.77,72.81 34.54,71.03 35.41,70.03 C36.14,69.19 37.01,67.32 37.36,65.87 C37.70,64.42 41.02,60.12 44.74,56.32 C56.53,44.25 69.42,40.15 88.87,42.29 C90.23,42.44 91.58,42.69 92.92,43.04 ZM 130.18 31.45 C132.56,33.90 134.62,35.92 134.77,35.95 C135.58,36.10 131.65,31.06 129.50,29.19 C125.25,25.49 125.63,26.76 130.18,31.45 ZM 82.07 95.83 C82.00,113.70 82.06,114.14 84.34,116.43 L 81.77 113.86 ZM 43.46 161.64 C43.64,161.73 43.82,161.83 44.00,161.92 C53.68,166.95 64.38,169.86 75.07,170.52 C72.79,170.47 70.71,170.32 69.00,170.08 C59.95,168.80 51.32,165.88 43.46,161.64 ZM 117.83 119.73 C121.60,113.96 124.32,107.21 125.80,99.68 C126.57,95.80 126.83,91.85 126.63,87.93 C127.29,99.41 123.99,110.60 117.83,119.73 ZM 140.35 138.24 C145.80,130.18 150.38,120.18 152.84,110.92 C151.49,117.21 149.21,122.64 145.28,130.15 C143.82,132.95 142.16,135.65 140.35,138.24 ZM 53.50 36.00 C53.16,36.55 53.33,37.00 53.88,37.00 C54.43,37.00 55.16,36.55 55.50,36.00 C55.84,35.45 55.67,35.00 55.12,35.00 C54.57,35.00 53.84,35.45 53.50,36.00 ZM 74.48 148.69 C79.89,149.11 85.64,148.70 90.91,147.46 C98.14,145.75 105.15,142.14 111.33,137.24 C100.17,146.17 87.59,150.03 74.48,148.69 ZM 31.45 84.72 C31.01,90.88 31.10,98.23 31.90,101.99 C33.49,109.38 37.13,116.52 42.09,122.63 C37.27,116.75 33.69,109.95 32.09,103.00 C30.96,98.10 30.84,91.09 31.45,84.72 ZM 115.63 59.11 C114.70,57.97 113.71,56.87 112.66,55.82 C109.74,52.88 107.63,50.88 106.15,49.63 C109.62,52.26 112.83,55.47 115.63,59.11 ZM 45.72 137.06 C49.65,140.02 54.00,142.58 58.53,144.57 C56.96,143.92 55.39,143.20 53.81,142.40 C51.29,141.14 48.49,139.26 45.72,137.06 ZM 98.58 45.06 C98.37,45.02 98.17,45.00 97.99,45.00 C96.96,45.00 95.84,44.55 95.50,44.00 C95.44,43.91 95.36,43.82 95.25,43.73 C96.37,44.11 97.48,44.56 98.58,45.06 ZM 128.98 115.18 C126.32,121.02 122.57,126.41 117.69,131.44 C122.28,126.64 126.16,121.10 128.98,115.18 ZM 97.65 168.43 C106.93,166.04 116.30,161.28 124.50,154.93 C116.44,161.25 107.23,165.96 97.65,168.43 ZM 104.15 48.21 C103.87,48.07 103.65,48.00 103.47,48.00 C103.13,48.00 102.18,47.33 101.36,46.50 C101.34,46.49 101.33,46.47 101.32,46.46 C102.27,47.00 103.22,47.58 104.15,48.21 ZM 15.41 136.23 C19.52,142.24 24.46,147.75 30.01,152.46 C24.44,147.76 19.51,142.30 15.41,136.23 Z" fill="rgb(45,122,195)"/>
<path d="M 140.38 39.78 C138.13,36.60 135.66,33.64 133.00,30.97 C128.88,26.83 123.93,22.41 122.00,21.14 L 118.50 18.83 L 122.39 22.28 C124.53,24.18 126.00,26.19 125.66,26.73 C125.32,27.28 125.91,28.51 126.97,29.47 C128.35,30.72 128.59,31.53 127.81,32.35 C126.67,33.58 122.00,34.22 122.00,33.14 C122.00,32.79 120.99,32.46 119.75,32.41 C118.51,32.36 115.81,31.57 113.75,30.65 C110.16,29.05 109.93,29.06 108.33,30.93 C106.80,32.71 106.42,32.75 103.83,31.41 C102.03,30.48 101.00,30.34 101.00,31.03 C101.00,31.63 100.52,31.82 99.93,31.45 C99.34,31.09 97.20,30.68 95.18,30.53 C93.15,30.39 87.40,29.93 82.39,29.50 C73.68,28.75 73.02,28.84 67.65,31.47 C64.56,32.98 60.33,34.33 58.26,34.46 C52.32,34.84 48.18,36.10 47.56,37.72 C47.23,38.57 46.32,38.95 45.44,38.62 C44.56,38.28 44.16,38.45 44.51,39.01 C44.84,39.56 44.39,40.00 43.50,40.00 C42.61,40.00 42.10,40.36 42.37,40.79 C42.64,41.23 42.11,41.67 41.18,41.78 C38.05,42.14 36.50,42.55 35.12,43.42 C34.20,43.99 33.43,43.73 32.82,42.64 C31.76,40.75 31.09,40.64 29.00,42.02 C27.67,42.89 27.67,43.12 29.00,44.09 C30.21,44.96 30.07,45.08 28.25,44.68 C27.01,44.41 26.18,44.49 26.41,44.85 C26.64,45.22 26.13,46.42 25.28,47.51 C23.76,49.47 23.74,49.47 24.42,47.53 C24.80,46.45 24.79,45.88 24.39,46.27 C24.00,46.66 22.97,46.45 22.09,45.79 C20.76,44.79 20.70,44.82 21.75,46.00 C23.29,47.73 23.40,52.00 21.91,52.00 C21.30,52.00 20.58,51.11 20.29,50.01 C20.01,48.92 19.40,48.25 18.95,48.53 C18.50,48.81 17.45,48.05 16.61,46.85 C15.21,44.85 15.28,44.34 17.49,40.59 C18.82,38.34 22.97,33.38 26.70,29.57 C31.76,24.41 32.43,23.46 29.32,25.85 C22.33,31.21 15.86,39.72 10.95,49.61 C12.91,45.45 15.03,41.58 17.02,38.63 C21.64,31.77 34.97,19.89 42.60,15.82 C53.92,9.77 64.73,7.14 78.11,7.18 C84.37,7.19 92.40,7.85 95.94,8.63 C103.14,10.23 114.00,14.78 114.00,16.20 C114.00,16.70 114.45,16.84 115.00,16.50 C115.55,16.16 116.00,16.39 116.00,17.00 C116.00,17.61 116.41,17.87 116.91,17.56 C118.23,16.74 126.51,23.59 134.00,31.68 C136.23,34.10 138.38,36.83 140.38,39.78 ZM 130.18 31.45 C125.63,26.76 125.25,25.49 129.50,29.19 C131.65,31.06 135.58,36.10 134.77,35.95 C134.62,35.92 132.56,33.90 130.18,31.45 ZM 72.50 33.67 C68.25,34.03 64.37,34.72 61.57,35.77 C51.70,39.44 43.41,45.26 37.07,52.70 C42.61,45.89 48.98,41.31 58.56,36.87 C63.96,34.37 65.49,33.81 72.50,33.67 ZM 53.50 36.00 C53.84,35.45 54.57,35.00 55.12,35.00 C55.67,35.00 55.84,35.45 55.50,36.00 C55.16,36.55 54.43,37.00 53.88,37.00 C53.33,37.00 53.16,36.55 53.50,36.00 ZM 86.65 33.73 C91.50,33.94 93.80,34.50 97.23,35.86 C100.58,37.19 103.72,38.77 106.67,40.60 C110.63,43.06 114.23,45.98 117.47,49.36 C114.23,45.99 110.63,43.06 106.67,40.60 C103.72,38.77 100.57,37.19 97.23,35.88 C94.56,34.83 90.80,34.12 86.65,33.73 ZM 84.45 116.55 C84.42,116.51 84.39,116.48 84.36,116.45 C85.59,117.67 87.16,118.46 88.77,118.81 C90.52,119.18 92.34,119.03 93.77,118.35 C94.36,118.06 94.89,117.67 95.33,117.19 C95.32,117.20 95.32,117.20 95.31,117.21 C94.88,117.68 94.36,118.06 93.77,118.35 C92.33,119.05 90.53,119.19 88.77,118.81 C87.17,118.48 85.62,117.71 84.45,116.55 ZM 4.12 68.00 C4.39,66.92 4.71,65.78 5.07,64.60 C4.72,65.79 4.39,66.99 4.09,68.20 C3.78,69.45 3.51,70.79 3.27,72.22 C3.51,70.73 3.80,69.31 4.12,68.00 ZM 2.05 86.75 C1.95,92.81 2.29,99.07 3.06,104.60 C3.06,104.61 3.06,104.61 3.06,104.62 C2.28,99.08 1.94,92.83 2.05,86.75 Z" fill="rgb(75,144,206)"/>
<path d="M 0.00 88.50 L 0.00 0.00 L 78.50 0.00 L 157.00 0.00 L 157.00 88.50 L 157.00 177.00 L 78.50 177.00 L 0.00 177.00 L 0.00 88.50 ZM 97.65 168.43 C117.39,163.34 135.54,148.75 145.28,130.15 C152.35,116.65 154.06,109.88 154.71,92.80 C155.20,79.84 155.00,76.94 153.02,68.35 C149.96,55.14 142.65,41.03 134.00,31.68 C126.51,23.59 118.23,16.74 116.91,17.56 C116.41,17.87 116.00,17.61 116.00,17.00 C116.00,16.39 115.55,16.16 115.00,16.50 C114.45,16.84 114.00,16.70 114.00,16.20 C114.00,14.78 103.14,10.23 95.94,8.63 C92.40,7.85 84.37,7.19 78.11,7.18 C64.73,7.14 53.92,9.77 42.60,15.82 C34.97,19.89 21.64,31.77 17.02,38.63 C12.06,45.97 6.35,58.99 4.12,68.00 C1.19,79.89 1.36,99.90 4.48,112.04 C12.31,142.44 38.19,165.71 69.00,170.08 C76.30,171.12 90.39,170.31 97.65,168.43 ZM 65.50 147.11 C52.16,143.21 39.39,133.91 32.58,123.13 C25.93,112.60 22.23,97.05 23.51,85.08 C25.98,62.00 40.03,43.79 61.57,35.77 C70.16,32.56 88.93,32.62 97.23,35.88 C112.50,41.87 123.76,53.39 130.64,70.06 C133.82,77.75 135.00,93.88 133.07,103.18 C128.78,123.83 110.73,142.79 90.91,147.46 C82.57,149.43 72.99,149.29 65.50,147.11 ZM 92.29 138.99 C114.98,131.98 129.71,107.94 126.20,83.62 C123.21,62.91 106.33,44.22 88.87,42.29 C69.42,40.15 56.53,44.25 44.74,56.32 C41.02,60.12 37.70,64.42 37.36,65.87 C37.01,67.32 36.14,69.19 35.41,70.03 C31.67,74.36 29.79,93.03 32.09,103.00 C35.88,119.45 50.78,135.11 66.89,139.55 C74.05,141.53 84.86,141.29 92.29,138.99 ZM 61.00 117.00 C59.11,115.11 59.00,113.67 59.00,90.56 C59.00,66.43 59.03,66.09 61.22,64.56 C62.44,63.70 65.12,63.00 67.17,63.00 C73.74,63.00 74.00,64.08 74.00,91.22 C74.00,113.67 73.89,115.11 72.00,117.00 C70.76,118.24 68.67,119.00 66.50,119.00 C64.33,119.00 62.24,118.24 61.00,117.00 ZM 84.45 116.55 C82.01,114.10 82.00,113.99 82.07,94.80 C82.15,73.45 82.95,65.28 85.08,63.93 C87.18,62.60 93.36,62.81 95.38,64.29 C96.98,65.46 97.13,67.80 97.03,90.49 C96.95,111.99 96.71,115.66 95.31,117.21 C92.91,119.86 87.44,119.53 84.45,116.55 Z" fill="rgb(246,249,250)"/>
</g>
</svg>