<svg xmlns="http://www.w3.org/2000/svg" width="1024" height="1024" viewBox="0 0 1024 1024">
<g>
<path d="M 542.00 986.99 C471.32,991.78 393.67,978.41 329.00,950.30 C227.44,906.17 143.62,828.69 92.67,731.86 L 86.11 719.39 L 94.98 719.64 C104.38,719.90 105.24,719.55 106.32,714.98 C106.79,713.02 108.76,711.57 115.16,708.48 C123.10,704.64 123.44,704.33 124.84,699.75 C125.64,697.14 126.58,695.00 126.94,695.00 C127.29,695.00 128.12,697.00 128.77,699.43 C129.86,703.49 130.22,703.86 133.03,703.78 C135.59,703.71 136.21,703.21 136.68,700.85 C136.99,699.28 137.85,698.00 138.59,698.00 C139.33,698.00 140.41,697.10 141.00,696.00 C141.59,694.90 142.73,694.00 143.54,694.00 C144.34,694.00 145.00,693.55 145.00,693.00 C145.00,692.45 145.45,692.00 146.00,692.00 C146.57,692.00 147.00,694.98 147.00,698.94 C147.00,703.11 147.46,706.17 148.15,706.60 C148.83,707.02 149.04,706.87 148.65,706.25 C148.24,705.58 148.74,705.38 150.00,705.71 C151.11,706.00 152.77,705.62 153.70,704.87 C155.02,703.80 155.21,703.79 154.59,704.82 C154.15,705.55 152.83,706.53 151.65,707.01 C150.05,707.65 149.93,707.89 151.18,707.94 C153.67,708.03 157.26,703.00 156.47,700.54 C155.11,696.31 154.74,692.72 155.72,693.33 C157.09,694.17 159.00,689.61 159.00,685.48 C159.00,682.94 159.64,681.63 161.46,680.44 C162.81,679.55 164.38,679.12 164.95,679.47 C166.07,680.16 171.00,675.75 171.00,674.05 C171.00,673.47 171.59,673.00 172.32,673.00 C173.57,673.00 178.52,668.07 178.34,667.00 C178.12,665.70 179.31,664.07 180.10,664.56 C180.60,664.87 181.01,662.73 181.02,659.81 C181.02,656.89 181.47,653.83 182.00,653.00 C182.53,652.17 182.98,652.01 182.98,652.62 C182.99,653.24 184.12,653.75 185.50,653.75 C187.00,653.75 188.00,653.18 188.00,652.32 C188.00,651.53 188.45,651.16 189.00,651.50 C189.55,651.84 190.00,654.74 190.00,657.94 C190.00,664.11 191.40,666.45 194.70,665.82 C196.05,665.57 196.58,664.37 196.82,661.06 C197.02,658.17 197.98,655.62 199.57,653.74 C200.90,652.15 202.00,650.13 202.00,649.26 C202.00,648.24 203.40,649.11 206.00,651.76 C209.58,655.41 210.00,656.36 210.00,660.80 C210.00,663.92 210.54,666.20 211.46,666.96 C213.08,668.31 215.39,667.43 214.40,665.84 C214.02,665.22 214.89,664.94 216.64,665.13 C218.21,665.29 220.18,665.01 221.00,664.49 C221.83,663.98 223.51,663.69 224.75,663.85 C226.03,664.02 227.00,663.61 227.00,662.90 C227.00,662.21 228.15,662.73 229.59,664.08 L 232.18 666.50 L 234.59 663.50 C235.92,661.85 237.63,660.62 238.38,660.77 C240.24,661.12 240.97,657.90 240.99,649.36 C241.00,641.55 241.41,641.01 247.33,640.98 C251.02,640.97 253.53,639.66 252.64,638.22 C252.05,637.27 255.09,629.24 256.61,627.72 C257.00,627.34 257.86,627.47 258.53,628.02 C259.44,628.78 259.91,627.52 260.44,622.83 C260.83,619.42 261.73,615.47 262.46,614.06 C263.29,612.44 263.58,609.58 263.26,606.30 C262.78,601.40 262.90,601.06 265.26,600.47 C267.68,599.86 267.80,599.46 268.33,590.17 C269.45,570.54 270.14,564.63 271.55,562.62 C272.55,561.20 273.00,557.81 273.00,551.71 C273.00,546.85 273.53,541.89 274.17,540.68 C275.29,538.60 277.38,508.43 277.05,499.00 C276.80,491.76 277.08,465.90 277.46,461.00 C277.66,458.52 277.86,450.54 277.91,443.25 C277.96,435.15 278.39,430.00 279.00,430.00 C279.66,430.00 280.00,486.09 280.01,596.25 C280.02,604.65 280.02,612.65 280.02,620.26 C280.02,758.07 280.02,768.45 283.91,777.07 C284.44,778.25 285.05,779.39 285.73,780.82 C291.83,793.53 307.38,805.31 321.51,807.92 C329.70,809.43 687.22,809.44 695.57,807.92 C710.01,805.31 723.93,795.21 730.65,782.47 C737.63,769.26 737.38,772.04 737.76,703.75 C737.96,669.52 737.73,642.00 737.25,642.00 C736.77,642.00 727.97,650.49 717.69,660.86 L 699.00 679.72 L 699.00 717.65 C699.00,754.99 698.97,755.64 696.75,760.03 C695.51,762.48 692.97,765.50 691.10,766.74 L 687.70 769.00 L 599.24 769.00 L 583.37 774.59 C529.56,793.55 523.93,794.90 513.44,791.32 C506.60,788.99 498.62,780.91 496.71,774.38 L 495.29 769.50 L 411.90 769.00 C332.81,768.53 328.36,768.40 325.77,766.65 C324.26,765.63 322.13,763.32 321.02,761.53 C319.01,758.28 319.00,757.24 319.23,581.38 C319.34,495.62 319.62,435.67 319.89,435.67 C319.93,435.67 319.96,436.75 320.00,439.00 C320.30,457.98 320.71,472.15 320.91,470.50 C321.35,466.98 321.69,469.12 324.45,492.50 C325.42,500.75 327.11,510.05 328.20,513.17 C329.29,516.29 329.92,519.68 329.59,520.71 C329.13,522.18 329.70,522.79 332.25,523.54 L 335.50 524.50 L 335.78 535.77 L 336.07 547.04 L 333.03 547.64 C329.74,548.30 329.36,548.96 331.20,550.80 C332.13,551.73 332.13,552.27 331.20,553.20 C329.19,555.21 329.83,557.13 333.75,561.00 C339.15,566.32 339.82,567.38 340.18,571.12 C340.58,575.37 343.47,576.26 345.12,572.64 C346.08,570.54 346.54,570.32 348.08,571.28 C350.48,572.78 351.14,571.98 352.20,566.26 C352.69,563.64 353.34,560.29 353.65,558.81 C354.14,556.45 353.76,555.93 350.61,554.61 C347.17,553.17 345.92,550.79 347.93,549.54 C349.43,548.62 347.96,541.66 345.89,539.84 C344.43,538.55 344.00,536.81 344.00,532.11 C344.00,523.72 346.27,518.40 350.44,517.02 C353.03,516.17 353.98,515.07 355.08,511.72 L 356.46 507.50 L 356.79 511.25 C356.97,513.31 357.54,515.00 358.06,515.00 C358.58,515.00 358.89,515.34 358.76,515.75 C358.63,516.16 359.33,518.61 360.32,521.19 C362.36,526.51 368.19,532.27 374.36,535.08 C389.96,542.16 408.96,528.77 408.99,510.68 C409.00,506.80 409.51,504.35 410.53,503.33 C412.32,501.53 415.00,502.25 415.00,504.54 C415.00,505.63 415.72,506.04 417.25,505.82 C418.80,505.60 419.86,504.42 420.67,502.00 C421.97,498.08 423.39,497.96 426.18,501.50 C427.32,502.95 428.68,503.68 429.59,503.33 C432.18,502.33 435.00,506.44 435.00,511.21 C435.01,513.70 435.83,516.84 436.96,518.70 C437.59,519.74 438.04,520.61 438.65,521.33 C441.76,525.01 449.23,525.01 508.04,525.00 C511.05,525.00 514.20,525.00 517.48,525.00 C519.69,525.00 521.84,525.00 523.92,525.00 C586.42,525.00 594.16,525.00 597.41,521.18 C597.98,520.52 598.41,519.73 598.97,518.81 C601.24,515.09 601.65,508.15 599.89,503.12 C597.77,497.02 596.67,496.86 557.93,496.96 C534.69,497.02 523.00,496.71 523.00,496.02 C523.00,495.46 523.47,495.00 524.04,495.00 C524.66,495.00 524.57,494.46 523.83,493.67 C523.00,492.77 521.01,492.48 517.79,492.79 C514.63,493.10 513.00,492.87 513.00,492.13 C513.00,491.51 511.89,491.00 510.53,491.00 C507.16,491.00 508.22,488.47 512.18,487.09 C514.29,486.35 515.79,486.35 517.16,487.09 C518.61,487.86 519.55,487.79 520.72,486.82 C521.59,486.09 522.46,485.61 522.65,485.75 C522.84,485.89 524.08,486.00 525.41,486.00 C527.71,486.00 527.76,485.84 526.71,482.39 C525.81,479.48 525.47,479.14 524.92,480.64 C524.33,482.26 524.07,482.12 522.87,479.55 L 521.50 476.61 L 520.99 479.55 C520.41,482.92 517.12,484.05 515.07,481.58 C514.04,480.35 514.17,479.56 515.79,477.29 C516.88,475.75 517.94,473.60 518.15,472.50 C518.36,471.40 519.32,470.50 520.30,470.50 C521.27,470.50 522.48,469.84 522.98,469.03 C523.48,468.22 524.23,467.89 524.64,468.30 C525.57,469.24 527.86,463.94 527.24,462.25 C526.99,461.56 525.96,461.00 524.95,461.00 C523.94,461.00 522.84,460.55 522.50,460.00 C521.58,458.52 516.81,460.01 514.89,462.38 C513.47,464.13 512.99,464.24 511.61,463.10 C510.73,462.36 510.00,461.19 510.00,460.49 C510.00,459.19 507.00,458.04 503.50,458.01 C502.40,458.00 500.38,457.42 499.00,456.72 C497.36,455.88 494.96,455.69 492.00,456.15 C483.36,457.50 460.55,457.12 458.47,455.60 C457.28,454.73 455.28,454.40 453.20,454.74 C450.21,455.23 449.30,454.75 444.68,450.21 C441.83,447.41 438.28,444.83 436.79,444.47 C433.11,443.57 432.14,442.15 430.80,435.78 C429.72,430.64 429.79,430.21 432.00,428.00 C433.85,426.15 434.05,425.53 432.93,425.07 C432.14,424.76 431.44,423.72 431.36,422.76 C431.29,421.80 431.62,421.27 432.11,421.57 C432.60,421.87 433.00,421.45 433.00,420.63 C433.00,419.55 433.75,419.27 435.73,419.63 C437.23,419.90 438.69,420.47 438.98,420.90 C440.92,423.79 447.81,424.00 538.90,423.94 C589.83,423.91 633.72,423.52 636.44,423.07 C642.66,422.05 647.00,417.73 647.00,412.55 C647.00,409.74 647.36,409.15 649.00,409.27 C650.10,409.36 651.00,409.78 651.00,410.21 C651.00,410.65 651.70,411.00 652.56,411.00 C653.42,411.00 653.86,410.58 653.54,410.06 C653.22,409.54 653.88,409.19 655.02,409.28 C656.56,409.39 657.35,410.49 658.13,413.62 C658.96,416.91 659.73,417.91 661.71,418.28 C665.53,419.02 668.00,415.96 668.00,410.50 C668.00,406.44 668.23,406.00 670.35,406.00 C674.30,406.00 677.00,402.81 677.00,398.13 C677.00,395.86 676.55,394.00 676.00,394.00 C675.45,394.00 675.00,393.10 675.00,392.00 C675.00,390.90 674.48,390.00 673.85,390.00 C673.12,390.00 673.26,389.35 674.22,388.25 C675.83,386.42 676.65,383.04 677.66,374.18 C678.14,369.89 678.69,368.69 680.49,368.00 C683.12,367.00 684.00,365.10 684.00,360.42 C684.00,356.82 686.82,353.00 689.48,353.00 C691.49,353.00 692.33,349.05 691.77,342.28 C691.41,337.84 690.77,336.20 688.77,334.48 C687.37,333.27 685.73,331.36 685.12,330.23 C684.44,328.96 681.52,327.34 677.48,325.99 C673.88,324.79 669.68,322.76 668.14,321.47 C666.33,319.94 664.15,319.15 661.93,319.20 C660.04,319.25 657.04,319.03 655.25,318.71 C653.46,318.40 652.00,318.52 652.00,318.98 C652.00,319.45 651.21,319.67 650.25,319.49 C649.29,319.30 648.50,319.08 648.50,318.99 C648.50,318.91 647.38,318.70 646.00,318.54 C642.52,318.14 640.34,319.50 639.58,322.55 C639.11,324.40 637.61,325.73 634.32,327.18 C629.35,329.38 625.08,333.50 625.03,336.14 C625.01,337.05 624.30,338.05 623.45,338.38 C622.56,338.72 622.16,338.56 622.51,337.99 C623.38,336.57 621.78,336.77 619.47,338.36 C616.76,340.22 603.77,341.96 590.00,342.29 C583.67,342.45 578.05,342.85 577.50,343.18 C575.43,344.45 564.30,344.49 562.79,343.24 C560.15,341.05 551.89,340.01 549.00,341.50 C547.14,342.46 545.92,342.54 544.57,341.78 C543.39,341.12 529.61,340.63 507.43,340.46 C481.68,340.26 471.19,339.84 468.58,338.89 C465.72,337.86 463.83,337.84 459.19,338.80 C452.11,340.26 446.26,340.33 442.40,339.00 C440.80,338.45 435.57,337.61 430.77,337.13 C424.74,336.52 420.37,335.44 416.67,333.63 C413.72,332.18 410.84,331.00 410.27,331.00 C408.40,331.00 396.00,315.35 396.00,312.99 C396.00,312.39 396.71,310.52 397.58,308.84 L 399.16 305.78 L 401.83 308.18 C403.30,309.49 406.52,311.68 409.00,313.04 L 413.50 315.50 L 509.41 315.77 C515.03,315.79 520.34,315.81 525.37,315.82 C602.61,316.06 612.08,316.09 617.61,311.43 C618.74,310.48 619.71,309.33 621.05,307.94 C628.11,300.70 628.96,296.85 629.20,270.85 C629.37,252.45 629.48,251.16 629.96,261.50 C630.30,268.87 630.74,272.15 631.10,270.00 C631.67,266.57 631.68,266.59 631.90,271.00 C632.11,275.14 632.21,275.30 633.18,273.00 C633.95,271.16 634.37,270.89 634.77,271.98 C635.54,274.07 637.65,276.02 638.36,275.31 C638.68,274.98 639.27,275.57 639.65,276.61 C640.04,277.65 640.80,278.80 641.35,279.17 C642.42,279.88 646.00,273.98 646.00,271.50 C646.00,270.68 646.45,270.00 647.00,270.00 C647.59,270.00 648.00,273.60 648.00,278.80 C648.00,284.31 648.45,288.05 649.20,288.80 C650.05,289.65 655.86,290.00 668.95,290.00 C690.61,290.00 692.90,290.66 696.70,297.91 L 699.00 302.31 L 699.00 518.00 L 702.36 518.00 C704.30,518.00 707.28,516.94 709.40,515.50 C711.43,514.12 713.64,513.00 714.32,513.00 C715.00,513.00 729.04,526.50 745.51,543.00 L 775.48 573.00 L 788.28 560.25 C804.23,544.37 807.51,538.69 807.47,527.02 C807.44,516.06 805.21,512.53 786.82,494.35 C769.44,477.15 765.93,474.91 755.36,474.22 C744.60,473.51 739.31,476.29 725.76,489.77 L 715.02 500.45 L 709.43 494.97 C705.41,491.03 703.14,489.09 703.00,487.00 C702.84,484.65 705.38,482.11 711.15,476.35 C711.77,475.74 712.41,475.09 713.10,474.40 C720.76,466.72 726.36,462.03 730.45,459.86 C733.78,458.11 736.83,456.18 737.23,455.58 C737.64,454.99 738.02,419.40 738.08,376.50 C738.15,333.60 738.56,299.62 739.00,301.00 C739.52,302.61 739.84,302.89 739.90,301.78 C740.10,298.30 746.00,302.35 746.00,305.97 C746.00,307.13 746.90,309.84 748.00,312.00 C749.10,314.16 750.00,317.45 750.00,319.31 C750.00,321.50 750.84,323.62 752.37,325.26 C753.67,326.67 755.10,329.10 755.55,330.66 C756.28,333.21 756.40,333.28 756.74,331.32 C757.17,328.86 760.00,325.92 760.00,327.94 C760.00,328.60 761.01,328.99 762.25,328.81 C764.15,328.55 764.63,329.12 765.35,332.50 C766.90,339.72 767.72,341.00 770.82,341.00 C774.77,341.00 777.00,338.20 777.00,333.23 C777.00,330.97 777.49,328.81 778.10,328.44 C778.86,327.97 779.09,329.45 778.85,333.30 C778.58,337.64 778.77,338.61 779.75,337.80 C780.62,337.07 781.39,337.08 782.29,337.83 C784.16,339.37 792.58,341.18 791.12,339.72 C790.50,339.10 790.00,338.15 790.00,337.60 C790.00,337.04 790.53,337.13 791.20,337.80 C793.43,340.03 796.01,339.19 796.64,336.04 C796.97,334.41 797.52,333.11 797.87,333.16 C800.75,333.52 806.00,328.85 806.00,325.92 C806.00,322.89 807.82,322.78 809.41,325.72 C810.24,327.25 810.94,328.03 810.96,327.46 C811.01,326.17 815.00,326.08 815.00,327.37 C815.00,327.89 815.90,327.50 817.00,326.50 C818.31,325.31 819.00,323.42 819.00,320.99 C819.00,315.97 820.98,310.36 822.12,312.15 C822.78,313.19 822.97,313.10 822.98,311.75 C823.01,309.17 825.56,309.62 827.93,312.63 C829.07,314.08 830.00,314.69 830.00,313.98 C830.00,313.10 830.64,313.27 832.00,314.50 C833.10,315.50 834.00,315.96 834.00,315.53 C834.00,315.10 834.76,315.37 835.69,316.13 C836.84,317.06 837.14,317.10 836.63,316.25 C836.22,315.56 836.36,315.00 836.94,315.00 C837.52,315.00 838.00,314.30 838.00,313.44 C838.00,312.58 838.34,312.08 838.75,312.32 C839.16,312.57 840.51,312.38 841.75,311.91 C843.56,311.23 844.00,310.29 844.00,307.09 C844.00,301.35 845.82,301.06 846.26,306.73 L 846.64 311.50 L 846.82 306.25 C846.92,303.23 847.46,301.00 848.09,301.00 C848.83,301.00 848.96,302.63 848.50,306.00 C847.86,310.62 847.99,311.06 850.16,311.88 C851.45,312.37 852.91,312.52 853.40,312.23 C853.90,311.93 853.99,312.21 853.60,312.85 C853.19,313.50 853.47,314.00 854.23,314.00 C854.97,314.00 855.64,314.90 855.73,316.00 C855.84,317.56 855.26,318.00 853.05,318.00 C849.81,318.00 845.80,321.26 813.23,350.35 C787.79,373.07 786.32,375.56 793.88,383.12 C799.01,388.24 803.28,388.42 808.70,383.75 C810.77,381.96 818.10,375.58 824.98,369.56 C864.79,334.76 868.37,331.41 867.36,329.78 C866.78,328.84 866.57,327.68 866.13,323.19 C866.06,322.47 865.61,322.12 865.13,322.42 C864.66,322.71 863.46,322.06 862.48,320.98 C861.49,319.89 860.13,319.00 859.45,319.00 C858.77,319.00 857.97,318.36 857.66,317.57 C857.29,316.59 858.04,315.93 859.99,315.50 C863.83,314.66 867.24,316.99 869.51,322.02 C871.22,325.81 873.63,327.82 872.30,324.34 C871.89,323.28 872.05,322.92 872.75,323.34 C873.34,323.71 873.03,321.83 872.05,319.15 C870.49,314.87 870.45,314.00 871.70,311.89 C873.10,309.54 873.11,309.56 872.58,312.79 C871.73,317.91 874.49,318.19 878.58,313.40 C881.85,309.59 881.93,309.28 881.96,300.18 C882.00,290.76 883.38,285.37 885.05,288.09 C885.73,289.18 886.36,289.01 888.22,287.26 C891.21,284.45 895.00,285.18 895.00,288.56 C895.00,289.84 895.45,291.16 896.00,291.50 C896.55,291.84 897.00,291.61 897.00,291.00 C897.00,290.39 897.45,290.16 898.01,290.50 C900.29,291.91 902.00,288.14 902.00,281.69 C902.00,277.18 902.45,274.87 903.50,274.00 C904.33,273.32 905.00,271.94 905.00,270.94 C905.00,269.94 905.46,268.84 906.02,268.49 C906.58,268.14 906.81,267.49 906.53,267.04 C906.25,266.60 906.90,266.00 907.97,265.72 C910.10,265.16 912.54,267.32 911.57,268.89 C911.24,269.42 911.49,270.19 912.14,270.59 C912.92,271.07 913.04,270.87 912.49,269.98 C911.90,269.02 912.13,268.84 913.34,269.30 C915.61,270.17 915.42,269.08 912.83,266.31 C911.49,264.90 911.15,264.00 911.93,264.00 C912.64,264.00 912.97,263.35 912.66,262.55 C912.29,261.58 912.58,261.29 913.55,261.66 C914.34,261.96 914.76,262.57 914.49,263.02 C914.21,263.46 914.33,264.02 914.74,264.25 C915.16,264.48 914.94,264.54 914.25,264.37 C912.53,263.95 912.68,264.99 914.65,267.17 C916.15,268.82 916.16,269.17 914.77,270.75 C913.25,272.49 913.73,276.31 915.43,275.99 C916.75,275.74 917.97,278.23 917.98,281.23 C918.00,283.87 918.15,283.94 922.27,283.38 L 926.53 282.79 L 934.20 298.51 C940.53,311.48 941.68,314.54 940.75,316.03 C939.50,318.03 941.15,321.00 943.50,321.00 C946.20,321.00 961.39,363.33 968.59,390.89 C979.68,433.34 983.98,467.51 983.96,513.00 C983.95,552.50 981.95,573.48 974.92,608.00 C957.31,694.37 917.55,771.38 857.18,836.00 C772.22,926.94 664.18,978.70 542.00,986.99 ZM 518.42 771.11 C520.11,772.15 522.81,772.99 524.40,773.00 C528.02,773.00 597.40,747.91 605.24,743.77 C609.62,741.45 616.47,735.14 634.24,717.07 C647.03,704.05 681.02,669.51 709.77,640.31 L 762.04 587.21 L 729.27 554.07 C711.25,535.84 695.99,520.94 695.36,520.96 C694.73,520.98 660.49,554.95 619.27,596.44 C558.07,658.04 544.02,672.66 542.71,676.19 C537.70,689.59 514.75,754.91 513.79,758.49 C512.35,763.88 514.02,768.43 518.42,771.11 ZM 442.50 625.05 C443.60,625.50 464.01,625.90 487.85,625.94 C525.99,625.99 531.61,625.80 534.64,624.37 C539.31,622.15 541.00,618.45 541.00,610.47 C541.00,604.48 540.72,603.57 538.08,600.92 L 535.15 598.00 L 488.51 598.00 C458.43,598.00 441.19,598.37 439.94,599.03 C434.35,602.02 433.15,616.31 438.05,621.58 C439.40,623.03 441.40,624.59 442.50,625.05 ZM 372.86 635.49 C382.15,640.33 393.72,638.26 401.47,630.37 C406.81,624.93 408.95,619.75 408.98,612.19 C409.03,596.98 397.84,586.00 382.29,586.00 C373.00,586.00 362.44,594.42 359.56,604.12 C357.62,610.64 357.61,613.32 359.48,619.61 C361.33,625.83 366.81,632.34 372.86,635.49 ZM 173.50 582.82 C166.08,584.99 163.89,584.45 159.24,579.30 C154.49,574.03 154.15,572.71 156.94,570.32 C158.35,569.11 158.64,568.19 157.97,566.95 C157.18,565.46 157.73,565.18 162.28,564.79 C167.23,564.36 168.87,563.33 194.44,544.60 C219.87,525.97 227.28,520.87 224.28,524.04 C223.32,525.07 223.59,525.82 225.61,527.69 C229.99,531.75 230.36,535.39 226.95,540.93 C225.33,543.56 224.00,546.68 224.00,547.86 C224.00,549.04 223.59,550.00 223.08,550.00 C222.58,550.00 221.53,551.90 220.76,554.22 C219.58,557.76 218.82,558.56 216.09,559.11 C212.65,559.82 202.00,566.63 202.00,568.12 C202.00,568.60 201.36,569.00 200.58,569.00 C199.79,569.00 197.81,570.13 196.17,571.51 C194.52,572.90 191.52,574.72 189.48,575.57 C187.45,576.42 184.60,578.22 183.14,579.57 C181.69,580.93 179.82,581.95 179.00,581.84 C178.18,581.73 175.70,582.17 173.50,582.82 ZM 816.34 451.67 C819.16,454.26 820.84,455.00 823.88,455.00 C827.48,455.00 869.12,450.84 880.34,449.36 C892.02,447.82 896.73,435.65 888.23,428.97 C886.81,427.85 884.17,426.99 882.12,426.98 C875.77,426.95 823.65,432.05 819.75,433.09 C814.90,434.37 812.47,438.04 812.60,443.87 C812.68,447.67 813.25,448.84 816.34,451.67 ZM 859.00 562.86 C863.16,565.39 865.11,565.51 869.03,563.48 C874.24,560.79 876.36,554.07 873.78,548.42 C873.08,546.88 866.21,541.03 857.53,534.58 C837.18,519.45 825.44,511.00 824.76,511.00 C824.45,511.00 824.86,513.14 825.67,515.75 C826.71,519.09 827.03,523.40 826.73,530.25 L 826.30 540.00 L 840.90 550.36 C848.93,556.06 857.08,561.69 859.00,562.86 ZM 394.88 458.26 C394.53,458.78 391.38,459.36 387.88,459.55 C381.65,459.88 377.61,458.92 371.14,455.57 C367.72,453.80 360.48,442.07 359.46,436.64 C359.07,434.55 358.13,432.60 357.37,432.31 C356.62,432.02 356.00,431.16 356.00,430.39 C356.00,428.83 359.50,425.00 360.92,425.00 C361.42,425.00 364.13,426.95 366.93,429.34 C372.63,434.21 377.40,436.00 384.67,436.00 C391.35,436.00 399.10,432.05 403.34,426.50 L 406.61 422.22 L 408.88 425.53 C410.74,428.25 410.95,429.23 410.02,430.95 C409.40,432.11 408.99,435.67 409.11,438.87 C409.29,443.99 408.92,445.26 405.97,449.59 C402.19,455.14 401.50,455.76 398.00,456.66 C396.62,457.02 395.22,457.74 394.88,458.26 ZM 593.60 727.06 C588.98,729.23 584.60,730.94 583.85,730.88 C583.11,730.81 576.03,724.08 568.12,715.93 C557.48,704.96 553.88,700.64 554.30,699.30 C556.50,692.17 560.74,682.59 561.86,682.21 C563.40,681.70 601.96,719.76 601.98,721.81 C601.99,722.54 598.22,724.90 593.60,727.06 ZM 321.01 317.00 L 320.72 313.50 L 319.95 317.50 C319.45,320.17 319.24,317.61 319.35,309.83 C319.49,298.87 319.65,297.99 322.00,295.45 C326.63,290.44 329.12,290.00 352.72,290.02 C367.61,290.03 374.03,290.35 373.00,291.03 C371.73,291.88 371.94,292.42 374.31,294.53 C382.03,301.35 369.72,306.99 345.84,307.57 C341.08,307.69 335.45,308.35 333.34,309.03 C327.66,310.88 322.17,315.11 321.70,318.00 C321.38,320.01 321.24,319.82 321.01,317.00 ZM 194.50 469.49 C192.30,469.82 189.15,470.29 187.50,470.54 C185.85,470.79 183.25,470.33 181.71,469.53 C179.91,468.59 176.03,468.10 170.71,468.13 C160.63,468.18 159.18,467.95 155.89,465.72 C154.46,464.75 152.57,464.23 151.69,464.56 C149.26,465.50 142.00,459.25 142.24,456.42 C142.34,455.17 142.78,454.36 143.21,454.63 C143.65,454.90 144.00,454.61 144.00,454.00 C144.00,453.39 144.52,453.20 145.15,453.60 C145.79,453.99 146.04,453.88 145.72,453.36 C145.40,452.83 145.53,451.76 146.02,450.97 C146.78,449.73 149.77,449.86 167.61,451.84 C179.00,453.11 192.29,454.41 197.16,454.72 C204.73,455.21 206.00,455.55 206.00,457.06 C206.00,458.04 205.44,459.06 204.75,459.34 C203.81,459.72 203.87,460.11 205.00,460.91 C205.82,461.49 206.11,461.98 205.63,461.98 C205.15,461.99 205.23,462.58 205.82,463.28 C206.41,463.99 206.57,465.00 206.19,465.54 C205.30,466.79 199.61,468.71 194.50,469.49 ZM 494.94 222.59 C494.08,222.66 492.16,223.50 490.69,224.47 L 488.00 226.23 L 488.00 220.77 C488.00,216.71 488.52,214.70 490.03,212.96 C491.15,211.67 491.82,209.97 491.51,209.18 C490.61,206.82 495.57,201.39 501.17,198.60 C509.94,194.23 521.79,195.62 528.36,201.79 C532.86,206.01 535.98,213.55 535.99,220.25 C536.00,223.42 535.55,226.00 535.00,226.00 C534.45,226.00 534.00,224.91 534.00,223.57 C534.00,221.42 533.64,221.19 530.75,221.56 C528.39,221.86 525.60,220.98 520.56,218.33 C513.88,214.83 513.44,214.73 509.06,215.89 C506.55,216.56 502.70,218.31 500.50,219.79 C498.30,221.27 495.80,222.53 494.94,222.59 ZM 225.00 389.51 C225.00,391.54 221.60,395.06 220.43,394.24 C219.84,393.83 219.08,392.75 218.74,391.84 C218.41,390.93 216.75,389.89 215.07,389.51 C213.38,389.14 212.00,388.41 212.00,387.88 C212.00,387.35 208.68,385.36 204.63,383.46 C198.75,380.71 196.41,378.92 193.13,374.66 C190.86,371.72 189.00,368.94 189.00,368.47 C189.00,368.01 187.99,366.48 186.75,365.07 C184.94,363.01 184.89,362.82 186.50,364.11 C190.34,367.16 191.48,367.30 189.00,364.42 C187.12,362.23 187.03,361.96 188.63,363.30 C189.80,364.28 192.05,365.32 193.63,365.60 C195.21,365.89 197.62,367.15 199.00,368.40 C210.34,378.72 219.02,385.78 221.75,386.90 C223.54,387.64 225.00,388.81 225.00,389.51 ZM 536.68 483.29 C536.96,483.74 537.93,483.97 538.84,483.79 C540.03,483.56 540.68,481.98 541.14,478.23 C541.50,475.34 542.51,471.87 543.39,470.52 C545.27,467.65 545.54,460.45 543.80,459.38 C539.88,456.96 534.00,460.01 534.00,464.47 C534.00,467.80 536.06,482.29 536.68,483.29 ZM 461.78 492.82 C453.38,492.95 445.60,493.30 444.50,493.59 C443.13,493.96 442.91,493.85 443.78,493.24 C444.49,492.74 444.81,491.67 444.50,490.86 C444.19,490.04 444.76,488.62 445.78,487.70 C447.45,486.19 449.01,486.14 462.06,487.14 C471.85,487.89 476.98,488.70 478.00,489.66 C480.55,492.06 477.95,492.57 461.78,492.82 ZM 171.68 710.35 C173.06,711.73 174.18,709.21 173.09,707.17 C172.49,706.05 172.00,703.56 172.00,701.65 C172.00,695.38 170.35,693.50 167.43,696.43 C165.74,698.12 165.53,701.00 167.11,701.00 C167.79,701.00 168.00,702.06 167.65,703.75 C167.34,705.26 167.33,705.92 167.64,705.21 C168.39,703.46 171.00,705.59 171.00,707.96 C171.00,708.90 171.31,709.97 171.68,710.35 ZM 226.00 651.88 C226.00,652.49 225.53,653.00 224.95,653.00 C224.30,653.00 224.02,650.79 224.20,647.25 C224.43,642.93 224.85,641.58 225.91,641.80 C226.68,641.97 227.69,641.52 228.14,640.80 C228.63,640.04 228.98,642.36 228.98,646.37 C229.00,652.37 228.81,653.09 227.50,652.00 C226.46,651.14 226.00,651.10 226.00,651.88 ZM 130.43 716.53 C133.41,721.07 137.77,718.90 136.42,713.54 C135.96,711.71 135.21,711.27 132.75,711.40 C129.00,711.59 128.26,713.23 130.43,716.53 ZM 172.75 659.29 C171.23,662.57 170.57,662.65 168.56,659.78 C165.75,655.77 167.21,652.51 171.34,653.55 C174.31,654.30 174.57,655.37 172.75,659.29 ZM 838.47 319.96 C839.46,321.56 840.70,321.22 843.20,318.64 C845.70,316.07 849.15,310.63 847.00,312.67 C846.31,313.32 845.14,313.61 844.38,313.31 C843.46,312.96 843.00,313.53 843.00,315.00 C843.00,316.51 842.54,317.04 841.57,316.67 C839.87,316.01 837.55,318.47 838.47,319.96 ZM 164.56 688.10 C164.87,688.60 165.74,689.00 166.50,689.00 C167.26,689.00 168.13,688.60 168.44,688.10 C169.36,686.60 167.84,681.00 166.50,681.00 C165.16,681.00 163.64,686.60 164.56,688.10 ZM 144.00 683.88 C144.00,685.46 143.34,687.30 142.54,687.97 C141.34,688.96 140.97,688.72 140.43,686.59 C139.62,683.35 140.47,681.00 142.47,681.00 C143.49,681.00 144.00,681.96 144.00,683.88 ZM 409.71 422.38 C410.05,422.72 409.86,423.00 409.27,423.00 C407.54,423.00 407.33,420.77 408.62,416.00 C409.48,412.81 409.86,412.24 409.92,414.05 C409.96,415.45 410.48,417.08 411.06,417.66 C411.82,418.42 411.68,419.17 410.61,420.25 C409.78,421.08 409.37,422.04 409.71,422.38 ZM 854.99 305.51 C852.60,308.39 851.00,307.25 851.06,302.75 C851.11,299.39 851.30,298.94 851.98,300.61 C852.45,301.77 853.60,303.01 854.53,303.37 C855.91,303.90 855.99,304.30 854.99,305.51 ZM 103.12 739.37 C104.32,741.99 107.56,741.91 106.56,739.29 C106.25,738.49 106.00,737.42 106.00,736.92 C106.00,736.41 105.10,736.00 104.00,736.00 C101.67,736.00 101.64,736.12 103.12,739.37 ZM 650.01 404.98 C649.42,406.09 648.50,407.00 647.96,407.00 C646.49,407.00 646.82,403.40 648.41,402.07 C650.35,400.47 651.40,402.38 650.01,404.98 ZM 563.67 469.33 C564.03,469.70 565.21,470.00 566.29,470.00 C567.91,470.00 568.03,469.75 567.00,468.50 C566.32,467.67 565.14,467.00 564.38,467.00 C562.92,467.00 562.55,468.22 563.67,469.33 ZM 446.40 495.39 C445.72,497.18 445.37,497.24 442.50,496.00 C440.90,495.31 440.84,495.13 442.17,495.07 C443.09,495.03 444.55,494.72 445.43,494.39 C446.60,493.94 446.86,494.21 446.40,495.39 ZM 90.65 707.32 C90.94,707.61 91.02,708.62 90.84,709.58 C90.53,711.14 90.37,711.16 89.20,709.74 C88.27,708.62 88.22,707.98 89.02,707.49 C89.63,707.11 90.37,707.03 90.65,707.32 ZM 89.00 711.42 C89.00,712.29 88.29,713.00 87.42,713.00 C86.55,713.00 86.01,712.47 86.23,711.81 C86.85,709.96 89.00,709.65 89.00,711.42 ZM 905.00 274.00 C905.00,274.55 906.01,274.99 907.25,274.98 C909.07,274.97 909.21,274.78 908.00,274.00 C906.06,272.75 905.00,272.75 905.00,274.00 ZM 158.00 702.56 C158.00,703.42 158.45,703.84 159.00,703.50 C159.55,703.16 160.00,702.46 160.00,701.94 C160.00,701.42 159.55,701.00 159.00,701.00 C158.45,701.00 158.00,701.70 158.00,702.56 ZM 157.68 687.81 C157.97,688.53 157.94,689.40 157.60,689.73 C157.27,690.06 157.04,689.47 157.08,688.42 C157.13,687.25 157.36,687.01 157.68,687.81 Z" fill="rgb(18,158,47)"/>
<path d="M 321.01 317.00 C321.24,319.82 321.38,320.01 321.70,318.00 C322.17,315.11 327.66,310.88 333.34,309.03 C335.45,308.35 341.08,307.69 345.84,307.57 C369.72,306.99 382.03,301.35 374.31,294.53 C371.94,292.42 371.73,291.88 373.00,291.03 C374.03,290.35 367.61,290.03 352.72,290.02 C332.44,290.00 327.75,290.32 323.89,293.59 C327.52,290.39 332.26,290.00 352.35,290.00 C369.33,290.00 373.99,289.71 374.90,288.62 C375.69,287.67 375.96,281.57 375.77,268.87 L 375.50 250.50 L 350.50 250.19 C334.13,249.99 323.60,250.28 320.00,251.05 C306.64,253.87 292.10,264.92 286.10,276.80 C285.33,278.32 284.66,279.41 284.07,280.54 C279.90,288.56 279.90,298.75 279.96,480.47 C279.97,495.28 279.97,511.23 279.98,528.41 C279.98,534.24 279.98,539.93 279.98,545.48 C279.88,468.88 279.55,430.00 279.00,430.00 C278.39,430.00 277.96,435.15 277.91,443.25 C277.86,450.54 277.66,458.52 277.46,461.00 C277.08,465.90 276.80,491.76 277.05,499.00 C277.38,508.43 275.29,538.60 274.17,540.68 C273.53,541.89 273.00,546.85 273.00,551.71 C273.00,557.81 272.55,561.20 271.55,562.62 C270.14,564.63 269.45,570.54 268.33,590.17 C267.80,599.46 267.68,599.86 265.26,600.47 C262.90,601.06 262.78,601.40 263.26,606.30 C263.58,609.58 263.29,612.44 262.46,614.06 C261.73,615.47 260.83,619.42 260.44,622.83 C259.91,627.52 259.44,628.78 258.53,628.02 C257.86,627.47 257.00,627.34 256.61,627.72 C255.09,629.24 252.05,637.27 252.64,638.22 C253.53,639.66 251.02,640.97 247.33,640.98 C241.41,641.01 241.00,641.55 240.99,649.36 C240.97,657.90 240.24,661.12 238.38,660.77 C237.63,660.62 235.92,661.85 234.59,663.50 L 232.18 666.50 L 229.59 664.08 C228.15,662.73 227.00,662.21 227.00,662.90 C227.00,663.61 226.03,664.02 224.75,663.85 C223.51,663.69 221.83,663.98 221.00,664.49 C220.18,665.01 218.21,665.29 216.64,665.13 C214.89,664.94 214.02,665.22 214.40,665.84 C215.39,667.43 213.08,668.31 211.46,666.96 C210.54,666.20 210.00,663.92 210.00,660.80 C210.00,656.36 209.58,655.41 206.00,651.76 C203.40,649.11 202.00,648.24 202.00,649.26 C202.00,650.13 200.90,652.15 199.57,653.74 C197.98,655.62 197.02,658.17 196.82,661.06 C196.58,664.37 196.05,665.57 194.70,665.82 C191.40,666.45 190.00,664.11 190.00,657.94 C190.00,654.74 189.55,651.84 189.00,651.50 C188.45,651.16 188.00,651.53 188.00,652.32 C188.00,653.18 187.00,653.75 185.50,653.75 C184.12,653.75 182.99,653.24 182.98,652.62 C182.98,652.01 182.53,652.17 182.00,653.00 C181.47,653.83 181.02,656.89 181.02,659.81 C181.01,662.73 180.60,664.87 180.10,664.56 C179.31,664.07 178.12,665.70 178.34,667.00 C178.52,668.07 173.57,673.00 172.32,673.00 C171.59,673.00 171.00,673.47 171.00,674.05 C171.00,675.75 166.07,680.16 164.95,679.47 C164.38,679.12 162.81,679.55 161.46,680.44 C159.64,681.63 159.00,682.94 159.00,685.48 C159.00,689.61 157.09,694.17 155.72,693.33 C154.74,692.72 155.11,696.31 156.47,700.54 C157.26,703.00 153.67,708.03 151.18,707.94 C149.93,707.89 150.05,707.65 151.65,707.01 C152.83,706.53 154.15,705.55 154.59,704.82 C155.21,703.79 155.02,703.80 153.70,704.87 C152.77,705.62 151.11,706.00 150.00,705.71 C148.74,705.38 148.24,705.58 148.65,706.25 C149.04,706.87 148.83,707.02 148.15,706.60 C147.46,706.17 147.00,703.11 147.00,698.94 C147.00,694.98 146.57,692.00 146.00,692.00 C145.45,692.00 145.00,692.45 145.00,693.00 C145.00,693.55 144.34,694.00 143.54,694.00 C142.73,694.00 141.59,694.90 141.00,696.00 C140.41,697.10 139.33,698.00 138.59,698.00 C137.85,698.00 136.99,699.28 136.68,700.85 C136.21,703.21 135.59,703.71 133.03,703.78 C130.22,703.86 129.86,703.49 128.77,699.43 C128.12,697.00 127.29,695.00 126.94,695.00 C126.58,695.00 125.64,697.14 124.84,699.75 C123.44,704.33 123.10,704.64 115.16,708.48 C108.76,711.57 106.79,713.02 106.32,714.98 C105.24,719.55 104.38,719.90 94.98,719.64 L 86.11 719.39 L 92.67 731.86 C110.98,766.66 133.54,798.96 159.63,828.11 C133.63,799.09 111.16,766.99 92.97,732.50 C90.08,727.00 87.13,721.60 86.42,720.50 C85.72,719.40 83.48,714.67 81.45,710.00 C79.42,705.33 76.87,699.50 75.77,697.06 C71.84,688.31 65.19,670.29 61.54,658.50 C59.50,651.90 57.20,644.47 56.44,642.00 C50.68,623.35 43.56,585.59 40.98,560.00 C39.21,542.38 38.63,499.10 39.92,480.21 C45.57,397.20 73.61,315.06 120.56,244.00 C185.34,145.95 287.56,73.20 398.88,45.91 C435.03,37.05 464.01,33.20 501.50,32.31 C567.60,30.73 625.50,41.29 687.50,66.23 C740.57,87.59 792.38,121.15 832.91,160.44 C855.77,182.59 873.26,202.24 886.80,221.00 C890.18,225.68 893.39,230.03 893.93,230.67 C896.43,233.61 914.30,261.56 919.72,271.00 C921.95,274.87 924.13,278.82 926.27,282.83 L 922.27 283.38 C918.15,283.94 918.00,283.87 917.98,281.23 C917.97,278.23 916.75,275.74 915.43,275.99 C913.73,276.31 913.25,272.49 914.77,270.75 C916.16,269.17 916.15,268.82 914.65,267.17 C912.68,264.99 912.53,263.95 914.25,264.37 C914.94,264.54 915.16,264.48 914.74,264.25 C914.33,264.02 914.21,263.46 914.49,263.02 C914.76,262.57 914.34,261.96 913.55,261.66 C912.58,261.29 912.29,261.58 912.66,262.55 C912.97,263.35 912.64,264.00 911.93,264.00 C911.15,264.00 911.49,264.90 912.83,266.31 C915.42,269.08 915.61,270.17 913.34,269.30 C912.13,268.84 911.90,269.02 912.49,269.98 C913.04,270.87 912.92,271.07 912.14,270.59 C911.49,270.19 911.24,269.42 911.57,268.89 C912.54,267.32 910.10,265.16 907.97,265.72 C906.90,266.00 906.25,266.60 906.53,267.04 C906.81,267.49 906.58,268.14 906.02,268.49 C905.46,268.84 905.00,269.94 905.00,270.94 C905.00,271.94 904.33,273.32 903.50,274.00 C902.45,274.87 902.00,277.18 902.00,281.69 C902.00,288.14 900.29,291.91 898.01,290.50 C897.45,290.16 897.00,290.39 897.00,291.00 C897.00,291.61 896.55,291.84 896.00,291.50 C895.45,291.16 895.00,289.84 895.00,288.56 C895.00,285.18 891.21,284.45 888.22,287.26 C886.36,289.01 885.73,289.18 885.05,288.09 C883.38,285.37 882.00,290.76 881.96,300.18 C881.93,309.28 881.85,309.59 878.58,313.40 C874.49,318.19 871.73,317.91 872.58,312.79 C873.11,309.56 873.10,309.54 871.70,311.89 C870.45,314.00 870.49,314.87 872.05,319.15 C873.03,321.83 873.34,323.71 872.75,323.34 C872.05,322.92 871.89,323.28 872.30,324.34 C873.63,327.82 871.22,325.81 869.51,322.02 C867.24,316.99 863.83,314.66 859.99,315.50 C858.04,315.93 857.29,316.59 857.66,317.57 C857.97,318.36 858.77,319.00 859.45,319.00 C860.13,319.00 861.49,319.89 862.48,320.98 C863.46,322.06 864.66,322.71 865.13,322.42 C865.61,322.12 866.06,322.47 866.13,323.19 C866.57,327.68 866.78,328.84 867.36,329.78 C867.85,330.56 867.27,331.75 862.09,336.66 C864.21,334.24 864.93,332.16 864.96,329.20 C865.04,322.14 860.82,318.00 853.54,318.00 C852.07,318.00 850.76,318.32 847.78,320.45 C850.56,318.44 851.86,318.00 853.05,318.00 C855.26,318.00 855.84,317.56 855.73,316.00 C855.64,314.90 854.97,314.00 854.23,314.00 C853.47,314.00 853.19,313.50 853.60,312.85 C853.99,312.21 853.90,311.93 853.40,312.23 C852.91,312.52 851.45,312.37 850.16,311.88 C847.99,311.06 847.86,310.62 848.50,306.00 C848.96,302.63 848.83,301.00 848.09,301.00 C847.46,301.00 846.92,303.23 846.82,306.25 L 846.64 311.50 L 846.26 306.73 C845.82,301.06 844.00,301.35 844.00,307.09 C844.00,310.29 843.56,311.23 841.75,311.91 C840.51,312.38 839.16,312.57 838.75,312.32 C838.34,312.08 838.00,312.58 838.00,313.44 C838.00,314.30 837.52,315.00 836.94,315.00 C836.36,315.00 836.22,315.56 836.63,316.25 C837.14,317.10 836.84,317.06 835.69,316.13 C834.76,315.37 834.00,315.10 834.00,315.53 C834.00,315.96 833.10,315.50 832.00,314.50 C830.64,313.27 830.00,313.10 830.00,313.98 C830.00,314.69 829.07,314.08 827.93,312.63 C825.56,309.62 823.01,309.17 822.98,311.75 C822.97,313.10 822.78,313.19 822.12,312.15 C820.98,310.36 819.00,315.97 819.00,320.99 C819.00,323.42 818.31,325.31 817.00,326.50 C815.90,327.50 815.00,327.89 815.00,327.37 C815.00,326.08 811.01,326.17 810.96,327.46 C810.94,328.03 810.24,327.25 809.41,325.72 C807.82,322.78 806.00,322.89 806.00,325.92 C806.00,328.85 800.75,333.52 797.87,333.16 C797.52,333.11 796.97,334.41 796.64,336.04 C796.01,339.19 793.43,340.03 791.20,337.80 C790.53,337.13 790.00,337.04 790.00,337.60 C790.00,338.15 790.50,339.10 791.12,339.72 C792.58,341.18 784.16,339.37 782.29,337.83 C781.39,337.08 780.62,337.07 779.75,337.80 C778.77,338.61 778.58,337.64 778.85,333.30 C779.09,329.45 778.86,327.97 778.10,328.44 C777.49,328.81 777.00,330.97 777.00,333.23 C777.00,338.20 774.77,341.00 770.82,341.00 C767.72,341.00 766.90,339.72 765.35,332.50 C764.63,329.12 764.15,328.55 762.25,328.81 C761.01,328.99 760.00,328.60 760.00,327.94 C760.00,325.92 757.17,328.86 756.74,331.32 C756.40,333.28 756.28,333.21 755.55,330.66 C755.10,329.10 753.67,326.67 752.37,325.26 C750.84,323.62 750.00,321.50 750.00,319.31 C750.00,317.45 749.10,314.16 748.00,312.00 C746.90,309.84 746.00,307.13 746.00,305.97 C746.00,302.35 740.10,298.30 739.90,301.78 C739.84,302.89 739.52,302.61 739.00,301.00 C738.56,299.62 738.15,333.60 738.08,376.50 C738.02,419.40 737.64,454.99 737.23,455.58 C737.19,455.65 737.11,455.74 736.99,455.84 L 737.00 374.96 L 737.00 371.47 C737.00,298.25 737.00,288.70 733.38,280.82 C732.78,279.51 732.08,278.25 731.27,276.75 C727.55,269.93 718.24,260.11 711.87,256.29 C702.60,250.74 697.19,249.93 671.40,250.23 L 648.50 250.50 L 648.23 268.87 C648.04,281.57 648.31,287.67 649.10,288.62 C649.32,288.88 649.74,289.10 650.46,289.28 C649.79,289.14 649.38,288.98 649.20,288.80 C648.45,288.05 648.00,284.31 648.00,278.80 C648.00,273.60 647.59,270.00 647.00,270.00 C646.45,270.00 646.00,270.68 646.00,271.50 C646.00,273.98 642.42,279.88 641.35,279.17 C640.80,278.80 640.04,277.65 639.65,276.61 C639.27,275.57 638.68,274.98 638.36,275.31 C637.65,276.02 635.54,274.07 634.77,271.98 C634.37,270.89 633.95,271.16 633.18,273.00 C632.21,275.30 632.11,275.14 631.90,271.00 C631.68,266.59 631.67,266.57 631.10,270.00 C630.74,272.15 630.30,268.87 629.96,261.50 C629.48,251.16 629.37,252.45 629.20,270.85 C629.09,282.43 628.86,289.61 628.02,294.66 C628.85,289.47 629.00,281.98 629.00,269.65 C629.00,257.20 628.51,244.83 627.91,242.03 C626.35,234.72 621.39,228.07 615.04,224.75 C609.80,222.01 609.67,222.00 589.49,222.00 C588.54,222.00 587.63,222.00 586.75,222.00 C573.95,222.01 569.87,222.01 568.58,220.11 C567.98,219.23 567.98,217.92 568.00,216.00 C568.00,215.73 568.00,215.43 568.00,215.13 C568.00,200.91 557.66,182.53 544.03,172.53 C522.88,156.99 492.03,159.69 473.12,178.72 C462.49,189.41 457.33,200.15 456.14,214.00 L 455.50 221.50 L 434.00 222.00 C414.18,222.46 412.17,222.67 408.31,224.74 C404.03,227.03 400.70,230.76 397.37,237.00 C395.67,240.18 395.50,243.07 395.50,268.50 L 395.50 296.50 L 398.24 301.70 C401.14,307.20 408.46,313.64 412.93,314.61 C414.34,314.92 415.95,315.33 416.50,315.51 L 413.50 315.50 L 409.00 313.04 C406.52,311.68 403.30,309.49 401.83,308.18 L 399.16 305.78 L 397.58 308.84 C396.71,310.52 396.00,312.39 396.00,312.99 C396.00,315.35 408.40,331.00 410.27,331.00 C410.84,331.00 413.72,332.18 416.67,333.63 C420.37,335.44 424.74,336.52 430.77,337.13 C435.57,337.61 440.80,338.45 442.40,339.00 C446.26,340.33 452.11,340.26 459.19,338.80 C463.83,337.84 465.72,337.86 468.58,338.89 C471.19,339.84 481.68,340.26 507.43,340.46 C529.61,340.63 543.39,341.12 544.57,341.78 C545.92,342.54 547.14,342.46 549.00,341.50 C551.89,340.01 560.15,341.05 562.79,343.24 C564.30,344.49 575.43,344.45 577.50,343.18 C578.05,342.85 583.67,342.45 590.00,342.29 C603.77,341.96 616.76,340.22 619.47,338.36 C621.78,336.77 623.38,336.57 622.51,337.99 C622.16,338.56 622.56,338.72 623.45,338.38 C624.30,338.05 625.01,337.05 625.03,336.14 C625.08,333.50 629.35,329.38 634.32,327.18 C637.61,325.73 639.11,324.40 639.58,322.55 C640.34,319.50 642.52,318.14 646.00,318.54 C647.38,318.70 648.50,318.91 648.50,318.99 C648.50,319.08 649.29,319.30 650.25,319.49 C651.21,319.67 652.00,319.45 652.00,318.98 C652.00,318.52 653.46,318.40 655.25,318.71 C657.04,319.03 660.04,319.25 661.93,319.20 C664.15,319.15 666.33,319.94 668.14,321.47 C669.68,322.76 673.88,324.79 677.48,325.99 C681.52,327.34 684.44,328.96 685.12,330.23 C685.73,331.36 687.37,333.27 688.77,334.48 C690.77,336.20 691.41,337.84 691.77,342.28 C692.33,349.05 691.49,353.00 689.48,353.00 C686.82,353.00 684.00,356.82 684.00,360.42 C684.00,365.10 683.12,367.00 680.49,368.00 C678.69,368.69 678.14,369.89 677.66,374.18 C676.65,383.04 675.83,386.42 674.22,388.25 C673.26,389.35 673.12,390.00 673.85,390.00 C674.48,390.00 675.00,390.90 675.00,392.00 C675.00,393.10 675.45,394.00 676.00,394.00 C676.55,394.00 677.00,395.86 677.00,398.13 C677.00,402.81 674.30,406.00 670.35,406.00 C668.23,406.00 668.00,406.44 668.00,410.50 C668.00,415.96 665.53,419.02 661.71,418.28 C659.73,417.91 658.96,416.91 658.13,413.62 C657.35,410.49 656.56,409.39 655.02,409.28 C653.88,409.19 653.22,409.54 653.54,410.06 C653.86,410.58 653.42,411.00 652.56,411.00 C651.70,411.00 651.00,410.65 651.00,410.21 C651.00,409.78 650.10,409.36 649.00,409.27 C647.36,409.15 647.00,409.74 647.00,412.55 C647.00,414.54 646.35,416.42 645.20,418.02 C646.43,415.99 647.00,413.32 647.00,409.93 C647.00,406.50 646.35,402.64 645.48,400.97 C645.03,400.10 644.75,399.35 644.31,398.72 C641.72,394.99 633.75,394.99 555.20,395.00 C550.70,395.00 545.97,395.00 541.00,395.00 C536.03,395.00 531.30,395.00 526.80,395.00 C448.25,394.99 440.28,394.99 437.69,398.72 C437.25,399.35 436.97,400.10 436.52,400.97 C435.68,402.59 435.00,406.47 435.00,409.64 C435.00,415.76 437.21,420.28 441.08,422.25 C439.87,421.88 439.34,421.43 438.98,420.90 C438.69,420.47 437.23,419.90 435.73,419.63 C433.75,419.27 433.00,419.55 433.00,420.63 C433.00,421.45 432.60,421.87 432.11,421.57 C431.62,421.27 431.29,421.80 431.36,422.76 C431.44,423.72 432.14,424.76 432.93,425.07 C434.05,425.53 433.85,426.15 432.00,428.00 C429.79,430.21 429.72,430.64 430.80,435.78 C432.14,442.15 433.11,443.57 436.79,444.47 C438.28,444.83 441.83,447.41 444.68,450.21 C449.30,454.75 450.21,455.23 453.20,454.74 C455.28,454.40 457.28,454.73 458.47,455.60 C460.55,457.12 483.36,457.50 492.00,456.15 C494.96,455.69 497.36,455.88 499.00,456.72 C500.38,457.42 502.40,458.00 503.50,458.01 C507.00,458.04 510.00,459.19 510.00,460.49 C510.00,461.19 510.73,462.36 511.61,463.10 C512.99,464.24 513.47,464.13 514.89,462.38 C516.81,460.01 521.58,458.52 522.50,460.00 C522.84,460.55 523.94,461.00 524.95,461.00 C525.96,461.00 526.99,461.56 527.24,462.25 C527.86,463.94 525.57,469.24 524.64,468.30 C524.23,467.89 523.48,468.22 522.98,469.03 C522.48,469.84 521.27,470.50 520.30,470.50 C519.32,470.50 518.36,471.40 518.15,472.50 C517.94,473.60 516.88,475.75 515.79,477.29 C514.17,479.56 514.04,480.35 515.07,481.58 C517.12,484.05 520.41,482.92 520.99,479.55 L 521.50 476.61 L 522.87 479.55 C524.07,482.12 524.33,482.26 524.92,480.64 C525.47,479.14 525.81,479.48 526.71,482.39 C527.76,485.84 527.71,486.00 525.41,486.00 C524.08,486.00 522.84,485.89 522.65,485.75 C522.46,485.61 521.59,486.09 520.72,486.82 C519.55,487.79 518.61,487.86 517.16,487.09 C515.79,486.35 514.29,486.35 512.18,487.09 C508.22,488.47 507.16,491.00 510.53,491.00 C511.89,491.00 513.00,491.51 513.00,492.13 C513.00,492.87 514.63,493.10 517.79,492.79 C521.01,492.48 523.00,492.77 523.83,493.67 C524.57,494.46 524.66,495.00 524.04,495.00 C523.47,495.00 523.00,495.46 523.00,496.02 C523.00,496.57 530.42,496.88 545.17,496.95 C539.36,496.95 532.90,496.95 525.74,496.95 C523.01,496.95 520.17,496.96 517.23,496.96 L 441.50 496.98 L 438.25 500.48 C435.39,503.55 435.00,504.64 435.00,509.53 C435.00,516.19 436.96,520.40 441.30,523.04 C441.36,523.08 441.42,523.11 441.48,523.15 C440.09,522.67 439.28,522.08 438.65,521.33 C438.04,520.61 437.59,519.74 436.96,518.70 C435.83,516.84 435.01,513.70 435.00,511.21 C435.00,506.44 432.18,502.33 429.59,503.33 C428.68,503.68 427.32,502.95 426.18,501.50 C423.39,497.96 421.97,498.08 420.67,502.00 C419.86,504.42 418.80,505.60 417.25,505.82 C415.72,506.04 415.00,505.63 415.00,504.54 C415.00,502.25 412.32,501.53 410.53,503.33 C409.51,504.35 409.00,506.80 408.99,510.68 C408.98,514.01 408.34,517.18 407.18,520.10 C408.50,516.72 409.10,513.01 408.75,509.16 C406.74,487.00 381.87,477.47 366.04,492.79 C359.56,499.07 357.23,507.36 358.55,515.13 C358.43,515.05 358.26,515.00 358.06,515.00 C357.54,515.00 356.97,513.31 356.79,511.25 L 356.46 507.50 L 355.08 511.72 C353.98,515.07 353.03,516.17 350.44,517.02 C346.27,518.40 344.00,523.72 344.00,532.11 C344.00,536.81 344.43,538.55 345.89,539.84 C347.96,541.66 349.43,548.62 347.93,549.54 C345.92,550.79 347.17,553.17 350.61,554.61 C353.76,555.93 354.14,556.45 353.65,558.81 C353.34,560.29 352.69,563.64 352.20,566.26 C351.14,571.98 350.48,572.78 348.08,571.28 C346.54,570.32 346.08,570.54 345.12,572.64 C343.47,576.26 340.58,575.37 340.18,571.12 C339.82,567.38 339.15,566.32 333.75,561.00 C329.83,557.13 329.19,555.21 331.20,553.20 C332.13,552.27 332.13,551.73 331.20,550.80 C329.36,548.96 329.74,548.30 333.03,547.64 L 336.07 547.04 L 335.78 535.77 L 335.50 524.50 L 332.25 523.54 C329.70,522.79 329.13,522.18 329.59,520.71 C329.92,519.68 329.29,516.29 328.20,513.17 C327.11,510.05 325.42,500.75 324.45,492.50 C321.69,469.12 321.35,466.98 320.91,470.50 C320.71,472.15 320.30,457.98 320.00,439.00 C319.96,436.75 319.93,435.67 319.89,435.67 C319.62,435.67 319.34,495.62 319.23,581.38 C319.03,738.86 319.01,756.16 320.45,760.38 C320.32,760.14 320.20,759.91 320.09,759.68 L 318.00 755.37 L 318.00 529.83 C318.00,363.84 318.30,303.40 319.14,300.90 C319.34,300.30 319.63,299.63 319.96,298.94 C319.51,300.83 319.43,303.81 319.35,309.83 C319.24,317.61 319.45,320.17 319.95,317.50 L 320.72 313.50 ZM 173.50 582.82 C175.70,582.17 178.18,581.73 179.00,581.84 C179.82,581.95 181.69,580.93 183.14,579.57 C184.60,578.22 187.45,576.42 189.48,575.57 C191.52,574.72 194.52,572.90 196.17,571.51 C197.81,570.13 199.79,569.00 200.58,569.00 C201.36,569.00 202.00,568.60 202.00,568.12 C202.00,566.63 212.65,559.82 216.09,559.11 C218.82,558.56 219.58,557.76 220.76,554.22 C221.53,551.90 222.58,550.00 223.08,550.00 C223.59,550.00 224.00,549.04 224.00,547.86 C224.00,546.68 225.33,543.56 226.95,540.93 C230.36,535.39 229.99,531.75 225.61,527.69 C223.59,525.82 223.32,525.07 224.28,524.04 C227.28,520.87 219.87,525.97 194.44,544.60 C176.18,557.97 170.13,562.32 166.35,563.87 C170.45,561.67 180.36,554.88 194.56,544.51 C224.03,522.98 225.53,521.76 227.60,517.80 C229.77,513.62 229.28,510.39 225.90,506.53 C223.21,503.48 222.19,503.00 218.31,503.00 C213.39,503.00 212.66,503.48 172.50,533.24 C157.03,544.71 154.33,547.11 153.26,550.34 C151.64,555.24 153.54,560.12 158.19,563.03 C159.84,564.05 161.50,564.62 163.09,564.71 C162.83,564.74 162.56,564.77 162.28,564.79 C157.73,565.18 157.18,565.46 157.97,566.95 C158.64,568.19 158.35,569.11 156.94,570.32 C154.15,572.71 154.49,574.03 159.24,579.30 C163.89,584.45 166.08,584.99 173.50,582.82 ZM 394.88 458.26 C395.22,457.74 396.62,457.02 398.00,456.66 C401.50,455.76 402.19,455.14 405.97,449.59 C408.92,445.26 409.29,443.99 409.11,438.87 C408.99,435.67 409.40,432.11 410.02,430.95 C410.95,429.23 410.74,428.25 408.88,425.53 L 406.61 422.22 L 404.48 425.02 C407.30,421.02 409.00,416.25 409.00,411.28 C409.00,401.04 403.17,391.20 394.68,387.09 C389.44,384.55 379.65,384.28 374.27,386.53 C361.20,391.99 355.12,406.69 360.33,420.22 C361.60,423.53 364.92,427.58 368.49,430.62 C367.97,430.22 367.45,429.79 366.93,429.34 C364.13,426.95 361.42,425.00 360.92,425.00 C359.50,425.00 356.00,428.83 356.00,430.39 C356.00,431.16 356.62,432.02 357.37,432.31 C358.13,432.60 359.07,434.55 359.46,436.64 C360.48,442.07 367.72,453.80 371.14,455.57 C377.61,458.92 381.65,459.88 387.88,459.55 C391.38,459.36 394.53,458.78 394.88,458.26 ZM 194.50 469.49 C199.61,468.71 205.30,466.79 206.19,465.54 C206.57,465.00 206.41,463.99 205.82,463.28 C205.23,462.58 205.15,461.99 205.63,461.98 C206.11,461.98 205.82,461.49 205.00,460.91 C203.87,460.11 203.81,459.72 204.75,459.34 C205.44,459.06 206.00,458.04 206.00,457.06 C206.00,455.70 204.98,455.29 199.29,454.87 C207.77,454.82 211.47,452.52 213.08,447.14 C213.73,444.96 213.96,441.98 213.59,440.50 C212.74,437.13 208.89,433.22 205.84,432.63 C202.17,431.92 147.89,426.94 144.15,426.97 C139.57,427.01 134.00,432.49 134.00,436.95 C134.00,444.12 138.38,448.18 147.40,449.36 C150.61,449.78 166.08,451.59 177.83,452.94 C174.43,452.59 170.94,452.21 167.61,451.84 C149.77,449.86 146.78,449.73 146.02,450.97 C145.53,451.76 145.40,452.83 145.72,453.36 C146.04,453.88 145.79,453.99 145.15,453.60 C144.52,453.20 144.00,453.39 144.00,454.00 C144.00,454.61 143.65,454.90 143.21,454.63 C142.78,454.36 142.34,455.17 142.24,456.42 C142.00,459.25 149.26,465.50 151.69,464.56 C152.57,464.23 154.46,464.75 155.89,465.72 C159.18,467.95 160.63,468.18 170.71,468.13 C176.03,468.10 179.91,468.59 181.71,469.53 C183.25,470.33 185.85,470.79 187.50,470.54 C189.15,470.29 192.30,469.82 194.50,469.49 ZM 225.00 389.51 C225.00,388.81 223.54,387.64 221.75,386.90 C221.45,386.78 221.07,386.58 220.62,386.31 C227.08,388.76 235.03,383.54 234.96,376.35 C234.92,371.32 233.42,368.79 227.65,364.02 C225.04,361.87 219.21,356.80 214.70,352.77 C187.61,328.56 179.23,321.21 177.03,319.70 C174.21,317.76 169.21,317.49 165.71,319.09 C161.31,321.09 158.68,328.40 160.58,333.35 C160.90,334.19 166.19,339.28 172.33,344.67 C178.47,350.06 185.30,356.12 187.50,358.15 C190.46,360.88 194.19,364.23 198.06,367.65 C196.68,366.68 194.89,365.83 193.63,365.60 C192.05,365.32 189.80,364.28 188.63,363.30 C187.03,361.96 187.12,362.23 189.00,364.42 C191.48,367.30 190.34,367.16 186.50,364.11 C184.89,362.82 184.94,363.01 186.75,365.07 C187.99,366.48 189.00,368.01 189.00,368.47 C189.00,368.94 190.86,371.72 193.13,374.66 C196.41,378.92 198.75,380.71 204.63,383.46 C208.68,385.36 212.00,387.35 212.00,387.88 C212.00,388.41 213.38,389.14 215.07,389.51 C216.75,389.89 218.41,390.93 218.74,391.84 C219.08,392.75 219.84,393.83 220.43,394.24 C221.60,395.06 225.00,391.54 225.00,389.51 ZM 494.94 222.59 C495.80,222.53 498.30,221.27 500.50,219.79 C502.70,218.31 506.55,216.56 509.06,215.89 C513.44,214.73 513.88,214.83 520.56,218.33 C525.60,220.98 528.39,221.86 530.75,221.56 C533.64,221.19 534.00,221.42 534.00,223.57 C534.00,224.91 534.45,226.00 535.00,226.00 C535.55,226.00 536.00,223.42 535.99,220.25 C535.99,217.45 535.44,214.49 534.47,211.70 C536.68,217.72 536.82,224.61 534.13,230.50 C532.03,235.12 525.29,241.57 520.42,243.60 C516.19,245.37 507.47,245.34 503.36,243.55 C498.62,241.49 491.92,235.01 489.87,230.50 C489.29,229.24 488.84,227.66 488.52,225.89 L 490.69 224.47 C492.16,223.50 494.08,222.66 494.94,222.59 ZM 536.68 483.29 C536.06,482.29 534.00,467.80 534.00,464.47 C534.00,460.01 539.88,456.96 543.80,459.38 C545.54,460.45 545.27,467.65 543.39,470.52 C542.51,471.87 541.50,475.34 541.14,478.23 C540.68,481.98 540.03,483.56 538.84,483.79 C537.93,483.97 536.96,483.74 536.68,483.29 ZM 461.78 492.82 C477.95,492.57 480.55,492.06 478.00,489.66 C476.98,488.70 471.85,487.89 462.06,487.14 C449.01,486.14 447.45,486.19 445.78,487.70 C444.76,488.62 444.19,490.04 444.50,490.86 C444.81,491.67 444.49,492.74 443.78,493.24 C442.91,493.85 443.13,493.96 444.50,493.59 C445.60,493.30 453.38,492.95 461.78,492.82 ZM 171.68 710.35 C171.31,709.97 171.00,708.90 171.00,707.96 C171.00,705.59 168.39,703.46 167.64,705.21 C167.33,705.92 167.34,705.26 167.65,703.75 C168.00,702.06 167.79,701.00 167.11,701.00 C165.53,701.00 165.74,698.12 167.43,696.43 C170.35,693.50 172.00,695.38 172.00,701.65 C172.00,703.56 172.49,706.05 173.09,707.17 C174.18,709.21 173.06,711.73 171.68,710.35 ZM 226.00 651.88 C226.00,651.10 226.46,651.14 227.50,652.00 C228.81,653.09 229.00,652.37 228.98,646.37 C228.98,642.36 228.63,640.04 228.14,640.80 C227.69,641.52 226.68,641.97 225.91,641.80 C224.85,641.58 224.43,642.93 224.20,647.25 C224.02,650.79 224.30,653.00 224.95,653.00 C225.53,653.00 226.00,652.49 226.00,651.88 ZM 130.43 716.53 C128.26,713.23 129.00,711.59 132.75,711.40 C135.21,711.27 135.96,711.71 136.42,713.54 C137.77,718.90 133.41,721.07 130.43,716.53 ZM 172.75 659.29 C174.57,655.37 174.31,654.30 171.34,653.55 C167.21,652.51 165.75,655.77 168.56,659.78 C170.57,662.65 171.23,662.57 172.75,659.29 ZM 320.10 807.63 C326.80,808.71 485.22,809.20 594.16,808.94 C485.21,809.26 326.93,808.92 321.51,807.92 C321.04,807.83 320.57,807.73 320.10,807.63 ZM 838.47 319.96 C837.55,318.47 839.87,316.01 841.57,316.67 C842.54,317.04 843.00,316.51 843.00,315.00 C843.00,313.53 843.46,312.96 844.38,313.31 C845.14,313.61 846.31,313.32 847.00,312.67 C849.15,310.63 845.70,316.07 843.20,318.64 C840.70,321.22 839.46,321.56 838.47,319.96 ZM 164.56 688.10 C163.64,686.60 165.16,681.00 166.50,681.00 C167.84,681.00 169.36,686.60 168.44,688.10 C168.13,688.60 167.26,689.00 166.50,689.00 C165.74,689.00 164.87,688.60 164.56,688.10 ZM 144.00 683.88 C144.00,681.96 143.49,681.00 142.47,681.00 C140.47,681.00 139.62,683.35 140.43,686.59 C140.97,688.72 141.34,688.96 142.54,687.97 C143.34,687.30 144.00,685.46 144.00,683.88 ZM 591.22 423.77 C575.94,423.87 557.91,423.93 538.90,423.94 C480.45,423.98 456.67,423.91 446.62,423.08 C465.21,423.73 541.15,423.99 591.22,423.77 ZM 409.71 422.38 C409.37,422.04 409.78,421.08 410.61,420.25 C411.68,419.17 411.82,418.42 411.06,417.66 C410.48,417.08 409.96,415.45 409.92,414.05 C409.86,412.24 409.48,412.81 408.62,416.00 C407.33,420.77 407.54,423.00 409.27,423.00 C409.86,423.00 410.05,422.72 409.71,422.38 ZM 854.99 305.51 C855.99,304.30 855.91,303.90 854.53,303.37 C853.60,303.01 852.45,301.77 851.98,300.61 C851.30,298.94 851.11,299.39 851.06,302.75 C851.00,307.25 852.60,308.39 854.99,305.51 ZM 103.12 739.37 C101.64,736.12 101.67,736.00 104.00,736.00 C105.10,736.00 106.00,736.41 106.00,736.92 C106.00,737.42 106.25,738.49 106.56,739.29 C107.56,741.91 104.32,741.99 103.12,739.37 ZM 946.22 325.12 C944.96,322.50 944.01,321.00 943.50,321.00 C941.15,321.00 939.50,318.03 940.75,316.03 C941.68,314.54 940.53,311.48 934.20,298.51 L 931.08 292.11 C936.45,302.76 941.52,313.82 946.22,325.12 ZM 650.01 404.98 C651.40,402.38 650.35,400.47 648.41,402.07 C646.82,403.40 646.49,407.00 647.96,407.00 C648.50,407.00 649.42,406.09 650.01,404.98 ZM 326.43 767.02 C329.48,768.42 338.87,768.56 411.90,769.00 L 328.50 768.50 ZM 563.67 469.33 C562.55,468.22 562.92,467.00 564.38,467.00 C565.14,467.00 566.32,467.67 567.00,468.50 C568.03,469.75 567.91,470.00 566.29,470.00 C565.21,470.00 564.03,469.70 563.67,469.33 ZM 488.02 219.44 C488.03,214.22 488.54,212.51 491.25,207.99 C491.40,207.74 491.55,207.50 491.71,207.26 C491.40,208.01 491.32,208.66 491.51,209.18 C491.82,209.97 491.15,211.67 490.03,212.96 C488.70,214.50 488.13,216.25 488.02,219.44 ZM 280.02 652.77 C280.11,742.89 280.53,764.45 282.52,773.11 C280.26,764.19 280.04,743.80 280.02,652.77 ZM 446.40 495.39 C446.86,494.21 446.60,493.94 445.43,494.39 C444.55,494.72 443.09,495.03 442.17,495.07 C440.84,495.13 440.90,495.31 442.50,496.00 C445.37,497.24 445.72,497.18 446.40,495.39 ZM 90.65 707.32 C90.37,707.03 89.63,707.11 89.02,707.49 C88.22,707.98 88.27,708.62 89.20,709.74 C90.37,711.16 90.53,711.14 90.84,709.58 C91.02,708.62 90.94,707.61 90.65,707.32 ZM 555.87 496.97 C556.55,496.96 557.23,496.96 557.93,496.96 C585.86,496.89 594.22,496.95 597.51,499.28 C594.30,497.44 585.39,497.04 555.87,496.97 ZM 89.00 711.42 C89.00,709.65 86.85,709.96 86.23,711.81 C86.01,712.47 86.55,713.00 87.42,713.00 C88.29,713.00 89.00,712.29 89.00,711.42 ZM 905.00 274.00 C905.00,272.75 906.06,272.75 908.00,274.00 C909.21,274.78 909.07,274.97 907.25,274.98 C906.01,274.99 905.00,274.55 905.00,274.00 ZM 158.00 702.56 C158.00,701.70 158.45,701.00 159.00,701.00 C159.55,701.00 160.00,701.42 160.00,701.94 C160.00,702.46 159.55,703.16 159.00,703.50 C158.45,703.84 158.00,703.42 158.00,702.56 ZM 299.23 797.08 C293.44,792.43 288.60,786.76 285.77,780.89 C288.16,785.84 293.60,792.18 299.23,797.08 ZM 980.02 447.58 C982.88,468.10 983.97,487.66 983.96,513.00 C983.97,489.00 982.78,468.16 980.02,447.58 ZM 787.65 495.18 L 787.24 494.76 C799.92,507.31 804.76,512.79 806.52,518.73 C804.79,513.06 800.07,507.73 787.65,495.18 ZM 157.68 687.81 C157.36,687.01 157.13,687.25 157.08,688.42 C157.04,689.47 157.27,690.06 157.60,689.73 C157.94,689.40 157.97,688.53 157.68,687.81 ZM 403.29 426.57 C399.04,432.09 391.32,436.00 384.67,436.00 C382.28,436.00 380.17,435.81 378.20,435.38 C380.04,435.66 382.22,435.86 384.05,435.90 C391.52,436.04 398.59,432.27 403.29,426.57 ZM 857.00 341.35 C852.46,345.46 846.05,351.11 837.10,358.96 C840.41,356.03 843.34,353.44 845.50,351.50 C849.57,347.86 854.24,343.73 857.00,341.35 ZM 502.56 197.97 C506.99,196.06 512.00,195.50 517.10,196.47 C512.29,195.62 507.09,196.08 502.56,197.97 ZM 469.39 524.92 C480.20,524.99 495.49,525.00 517.28,525.00 C519.51,525.00 521.68,525.00 523.78,525.00 C570.76,525.00 586.86,525.00 593.35,523.39 C586.87,525.00 570.80,525.00 523.92,525.00 C521.84,525.00 519.69,525.00 517.48,525.00 C514.20,525.00 511.05,525.00 508.04,525.00 L 508.03 525.00 C491.40,525.00 478.87,525.01 469.39,524.92 ZM 586.24 315.78 C609.04,315.41 614.12,314.35 617.62,311.41 C618.46,310.70 619.21,309.89 620.09,308.95 C619.20,309.90 618.45,310.72 617.61,311.43 C614.11,314.38 609.04,315.45 586.24,315.78 ZM 360.32 521.19 C360.13,520.71 359.96,520.23 359.80,519.77 C360.83,522.55 362.36,525.19 364.36,527.56 C362.55,525.51 361.13,523.31 360.32,521.19 ZM 213.25 380.81 C210.20,378.31 206.51,375.14 202.39,371.46 C206.36,374.93 210.21,378.25 213.25,380.81 ZM 727.63 461.60 C723.88,464.16 719.13,468.36 713.10,474.40 C712.41,475.09 711.77,475.74 711.15,476.35 C709.62,477.88 708.31,479.19 707.22,480.32 C708.75,478.73 710.72,476.79 713.15,474.35 C719.39,468.09 723.87,464.13 727.63,461.60 ZM 755.36 474.22 C753.32,474.09 751.47,474.08 749.72,474.24 C751.47,474.08 753.32,474.08 755.36,474.22 C758.31,474.41 760.71,474.72 763.01,475.45 C760.70,474.73 758.28,474.41 755.36,474.22 ZM 318.44 807.21 C317.60,806.99 316.77,806.73 315.94,806.45 C316.81,806.74 317.66,807.00 318.44,807.21 Z" fill="rgb(52,175,48)"/>
<path d="M 0.00 512.00 L 0.00 0.00 L 512.00 0.00 L 1024.00 0.00 L 1024.00 512.00 L 1024.00 1024.00 L 512.00 1024.00 L 0.00 1024.00 L 0.00 512.00 ZM 542.00 986.99 C664.18,978.70 772.22,926.94 857.18,836.00 C917.55,771.38 957.31,694.37 974.92,608.00 C981.95,573.48 983.95,552.50 983.96,513.00 C983.98,475.46 981.57,450.59 974.60,416.50 C964.51,367.14 944.57,314.26 919.72,271.00 C914.30,261.56 896.43,233.61 893.93,230.67 C893.39,230.03 890.18,225.68 886.80,221.00 C873.26,202.24 855.77,182.59 832.91,160.44 C792.38,121.15 740.57,87.59 687.50,66.23 C625.50,41.29 567.60,30.73 501.50,32.31 C464.01,33.20 435.03,37.05 398.88,45.91 C287.56,73.20 185.34,145.95 120.56,244.00 C73.61,315.06 45.57,397.20 39.92,480.21 C38.63,499.10 39.21,542.38 40.98,560.00 C43.56,585.59 50.68,623.35 56.44,642.00 C57.20,644.47 59.50,651.90 61.54,658.50 C65.19,670.29 71.84,688.31 75.77,697.06 C76.87,699.50 79.42,705.33 81.45,710.00 C83.48,714.67 85.72,719.40 86.42,720.50 C87.13,721.60 90.08,727.00 92.97,732.50 C143.70,828.73 227.77,906.31 329.00,950.30 C393.67,978.41 471.32,991.78 542.00,986.99 ZM 320.00 807.61 C316.98,806.94 311.80,805.10 308.50,803.52 C300.72,799.81 289.45,788.57 285.73,780.81 C279.68,768.20 280.03,783.93 279.98,528.41 C279.92,270.72 279.45,289.97 286.10,276.80 C292.10,264.92 306.64,253.87 320.00,251.05 C323.60,250.28 334.13,249.99 350.50,250.19 L 375.50 250.50 L 375.77 268.87 C375.96,281.57 375.69,287.67 374.90,288.62 C373.99,289.71 369.33,290.00 352.35,290.00 C329.43,290.00 326.49,290.50 322.39,295.12 C321.23,296.43 319.76,299.03 319.14,300.90 C318.30,303.40 318.00,363.84 318.00,529.83 L 318.00 755.37 L 320.09 759.68 C321.23,762.05 323.60,765.00 325.34,766.24 L 328.50 768.50 L 411.90 769.00 L 495.29 769.50 L 496.71 774.38 C498.62,780.91 506.60,788.99 513.44,791.32 C523.93,794.90 529.56,793.55 583.37,774.59 L 599.24 769.00 L 643.47 769.00 L 687.70 769.00 L 691.10 766.74 C692.97,765.50 695.51,762.48 696.75,760.03 C698.97,755.64 699.00,754.99 699.00,717.65 L 699.00 679.72 L 717.69 660.86 C727.97,650.49 736.77,642.00 737.25,642.00 C737.73,642.00 737.96,669.52 737.76,703.75 C737.38,772.04 737.63,769.26 730.65,782.47 C723.93,795.21 710.01,805.31 695.57,807.92 C686.55,809.56 327.41,809.26 320.00,807.61 ZM 518.42 771.11 C514.02,768.43 512.35,763.88 513.79,758.49 C514.75,754.91 537.70,689.59 542.71,676.19 C544.02,672.66 558.07,658.04 619.27,596.44 C660.49,554.95 694.73,520.98 695.36,520.96 C695.99,520.94 711.25,535.84 729.27,554.07 L 762.04 587.21 L 709.77 640.31 C681.02,669.51 647.03,704.05 634.24,717.07 C616.47,735.14 609.62,741.45 605.24,743.77 C597.40,747.91 528.02,773.00 524.40,773.00 C522.81,772.99 520.11,772.15 518.42,771.11 ZM 593.60 727.06 C598.22,724.90 601.99,722.54 601.98,721.81 C601.96,719.76 563.40,681.70 561.86,682.21 C560.74,682.59 556.50,692.17 554.30,699.30 C553.88,700.64 557.48,704.96 568.12,715.93 C576.03,724.08 583.11,730.81 583.85,730.88 C584.60,730.94 588.98,729.23 593.60,727.06 ZM 372.86 635.49 C366.81,632.34 361.33,625.83 359.48,619.61 C357.61,613.32 357.62,610.64 359.56,604.12 C362.44,594.42 373.00,586.00 382.29,586.00 C397.84,586.00 409.03,596.98 408.98,612.19 C408.95,619.75 406.81,624.93 401.47,630.37 C393.72,638.26 382.15,640.33 372.86,635.49 ZM 442.50 625.05 C441.40,624.59 439.40,623.03 438.05,621.58 C433.15,616.31 434.35,602.02 439.94,599.03 C441.19,598.37 458.43,598.00 488.51,598.00 L 535.15 598.00 L 538.08 600.92 C540.72,603.57 541.00,604.48 541.00,610.47 C541.00,618.45 539.31,622.15 534.64,624.37 C531.61,625.80 525.99,625.99 487.85,625.94 C464.01,625.90 443.60,625.50 442.50,625.05 ZM 745.51 543.00 C729.04,526.50 715.00,513.00 714.32,513.00 C713.64,513.00 711.43,514.12 709.40,515.50 C707.28,516.94 704.30,518.00 702.36,518.00 L 699.00 518.00 L 699.00 410.16 L 699.00 302.31 L 696.70 297.91 C692.90,290.65 690.62,290.00 668.87,290.00 C654.25,290.00 650.00,289.70 649.10,288.62 C648.31,287.67 648.04,281.57 648.23,268.87 L 648.50 250.50 L 671.40 250.23 C697.19,249.93 702.60,250.74 711.87,256.29 C718.24,260.11 727.55,269.93 731.27,276.75 C737.08,287.43 737.00,286.09 737.00,374.96 L 736.99 456.50 L 730.75 459.73 C726.31,462.02 721.21,466.27 713.15,474.35 C700.19,487.35 700.41,486.12 709.43,494.97 L 715.02 500.45 L 725.76 489.77 C739.31,476.29 744.60,473.51 755.36,474.22 C766.23,474.93 770.15,477.47 787.65,495.18 C805.51,513.23 807.44,516.33 807.48,527.02 C807.51,538.69 804.23,544.37 788.28,560.25 L 775.48 573.00 L 745.51 543.00 ZM 158.19 563.03 C153.54,560.12 151.64,555.24 153.26,550.34 C154.33,547.11 157.03,544.71 172.50,533.24 C212.66,503.48 213.39,503.00 218.31,503.00 C222.19,503.00 223.21,503.48 225.90,506.53 C229.28,510.39 229.77,513.62 227.60,517.80 C225.53,521.76 224.03,522.98 194.56,544.51 C177.40,557.04 166.51,564.35 164.56,564.64 C162.56,564.94 160.35,564.38 158.19,563.03 ZM 859.00 562.86 C857.08,561.69 848.93,556.06 840.90,550.36 L 826.30 540.00 L 826.73 530.25 C827.03,523.40 826.71,519.09 825.67,515.75 C824.86,513.14 824.45,511.00 824.76,511.00 C825.44,511.00 837.18,519.45 857.53,534.58 C866.21,541.03 873.08,546.88 873.78,548.42 C876.36,554.07 874.24,560.79 869.03,563.48 C865.11,565.51 863.16,565.39 859.00,562.86 ZM 374.43 535.11 C356.95,527.17 352.70,505.71 366.04,492.79 C381.87,477.47 406.74,487.00 408.75,509.16 C410.41,527.48 390.61,542.46 374.43,535.11 ZM 441.30 523.04 C436.96,520.40 435.00,516.19 435.00,509.53 C435.00,504.64 435.39,503.55 438.25,500.48 L 441.50 496.98 L 517.23 496.96 C600.77,496.93 597.65,496.70 599.89,503.12 C601.65,508.15 601.24,515.09 598.97,518.81 C595.09,525.18 597.49,525.00 517.28,525.00 C446.86,524.99 444.40,524.93 441.30,523.04 ZM 190.00 454.31 C182.51,453.51 152.05,449.97 147.40,449.36 C138.38,448.18 134.00,444.12 134.00,436.95 C134.00,432.49 139.57,427.01 144.15,426.97 C147.89,426.94 202.17,431.92 205.84,432.63 C208.89,433.22 212.74,437.13 213.59,440.50 C213.96,441.98 213.73,444.96 213.08,447.14 C210.97,454.17 205.29,455.94 190.00,454.31 ZM 816.34 451.67 C813.25,448.84 812.68,447.67 812.60,443.87 C812.47,438.04 814.90,434.37 819.75,433.09 C823.65,432.05 875.77,426.95 882.12,426.98 C884.17,426.99 886.81,427.85 888.23,428.97 C896.73,435.65 892.02,447.82 880.34,449.36 C869.12,450.84 827.48,455.00 823.88,455.00 C820.84,455.00 819.16,454.26 816.34,451.67 ZM 375.17 434.73 C370.02,433.08 362.42,425.65 360.33,420.22 C355.12,406.69 361.20,391.99 374.27,386.53 C379.65,384.28 389.44,384.55 394.68,387.09 C403.17,391.20 409.00,401.04 409.00,411.28 C409.00,424.42 397.13,436.14 384.05,435.90 C381.00,435.84 377.00,435.32 375.17,434.73 ZM 442.46 422.81 C437.74,421.29 435.00,416.45 435.00,409.64 C435.00,406.47 435.68,402.59 436.52,400.97 C439.76,394.69 434.40,395.00 541.00,395.00 C647.60,395.00 642.24,394.69 645.48,400.97 C646.35,402.64 647.00,406.50 647.00,409.93 C647.00,417.91 643.83,421.86 636.44,423.07 C629.20,424.26 446.18,424.02 442.46,422.81 ZM 219.35 385.71 C217.42,384.62 197.78,367.63 187.50,358.15 C185.30,356.12 178.47,350.06 172.33,344.67 C166.19,339.28 160.90,334.19 160.58,333.35 C158.68,328.40 161.31,321.09 165.71,319.09 C169.21,317.49 174.21,317.76 177.03,319.70 C179.23,321.21 187.61,328.56 214.70,352.77 C219.21,356.80 225.04,361.87 227.65,364.02 C233.42,368.79 234.92,371.32 234.96,376.35 C235.04,384.03 225.98,389.46 219.35,385.71 ZM 793.88 383.12 C786.32,375.56 787.79,373.07 813.23,350.35 C847.03,320.16 849.72,318.00 853.54,318.00 C860.82,318.00 865.04,322.14 864.96,329.20 C864.92,333.43 863.46,335.88 858.50,340.06 C856.30,341.92 850.45,347.06 845.50,351.50 C837.36,358.80 818.40,375.41 808.71,383.75 C803.28,388.42 799.00,388.24 793.88,383.12 ZM 416.50 315.51 C415.95,315.33 414.34,314.92 412.93,314.61 C408.46,313.64 401.14,307.20 398.24,301.70 L 395.50 296.50 L 395.50 268.50 C395.50,243.07 395.67,240.18 397.37,237.00 C400.70,230.76 404.03,227.03 408.31,224.74 C412.17,222.67 414.18,222.46 434.00,222.00 L 455.50 221.50 L 456.14 214.00 C457.33,200.15 462.49,189.41 473.12,178.72 C492.03,159.69 522.88,156.99 544.03,172.53 C557.66,182.53 568.00,200.91 568.00,215.13 C568.00,222.32 567.00,222.00 589.49,222.00 C609.67,222.00 609.80,222.01 615.04,224.75 C621.39,228.07 626.35,234.72 627.91,242.03 C628.51,244.83 629.00,257.20 629.00,269.65 C629.00,296.96 628.26,300.55 621.07,307.93 C612.76,316.46 618.92,316.01 511.57,315.92 C459.83,315.88 417.05,315.69 416.50,315.51 ZM 520.42 243.60 C525.29,241.57 532.03,235.12 534.13,230.50 C539.76,218.16 533.00,201.49 520.73,197.41 C509.13,193.56 497.38,197.78 491.25,207.99 C488.46,212.65 488.00,214.33 488.02,219.96 C488.04,224.11 488.71,227.96 489.87,230.50 C491.92,235.01 498.62,241.49 503.36,243.55 C507.47,245.34 516.19,245.37 520.42,243.60 Z" fill="rgb(250,251,250)"/>
</g>
</svg>