<svg xmlns="http://www.w3.org/2000/svg" width="1024" height="1024" viewBox="0 0 1024 1024">
<g>
<path d="M 531.50 987.98 C514.35,988.92 509.20,988.96 492.00,988.33 C396.66,984.81 304.93,952.10 226.71,893.73 C132.32,823.30 70.43,724.64 46.52,606.50 C42.02,584.28 37.79,548.53 38.18,536.00 C38.33,531.00 38.38,530.89 38.73,534.75 C38.94,537.09 39.57,539.00 40.13,539.00 C40.78,539.00 40.89,541.00 40.46,544.50 C40.02,547.96 40.14,550.00 40.77,550.00 C41.32,550.00 42.09,552.55 42.48,555.66 C43.50,563.89 43.61,564.04 47.13,562.29 C49.88,560.91 50.24,560.94 51.56,562.65 C52.34,563.67 52.77,565.47 52.50,566.65 C52.23,567.85 52.57,569.00 53.27,569.27 C54.11,569.60 54.41,571.30 54.17,574.38 C53.73,579.80 52.00,580.64 52.00,575.43 C52.00,572.63 51.64,571.92 50.33,572.18 C48.90,572.45 48.18,574.34 47.92,578.50 C47.88,579.05 48.12,580.62 48.45,582.00 C48.94,584.08 48.89,584.16 48.14,582.50 C47.29,580.63 47.18,580.68 46.52,583.19 C45.69,586.35 46.78,588.98 48.06,586.91 C48.64,585.96 49.19,586.32 50.07,588.26 C51.06,590.43 51.01,591.34 49.79,593.21 C44.87,600.77 48.16,615.41 54.50,614.16 C57.24,613.62 57.94,612.25 58.15,607.00 L 58.33 602.50 L 59.67 613.50 L 59.84 607.86 C59.98,602.98 60.35,602.00 62.63,600.51 C65.57,598.58 66.96,599.59 66.98,603.68 C67.00,605.89 69.39,609.00 71.07,609.00 C72.51,609.00 72.16,613.62 70.62,614.90 C68.96,616.28 67.16,622.88 66.78,629.00 L 66.50 633.50 L 72.50 634.30 C75.80,634.74 80.75,635.19 83.50,635.30 L 88.50 635.50 L 89.21 643.38 C90.01,652.18 90.52,653.39 91.92,649.90 C92.87,647.51 92.87,647.51 92.94,649.75 C92.98,651.16 93.62,652.00 94.67,652.00 C95.59,652.00 97.11,652.70 98.05,653.55 C99.60,654.95 99.92,654.94 101.38,653.48 C102.30,652.56 103.00,652.35 103.00,652.99 C103.00,653.61 103.46,653.83 104.02,653.48 C104.59,653.14 104.99,653.22 104.91,653.68 C104.83,654.13 104.82,656.64 104.88,659.25 C104.97,662.61 105.41,664.00 106.41,664.00 C108.25,664.00 109.03,653.47 107.32,651.71 C106.01,650.36 105.21,641.46 106.30,640.37 C106.69,639.98 107.00,637.04 107.00,633.83 C107.00,630.62 107.44,628.00 107.97,628.00 C108.50,628.00 108.64,627.21 108.28,626.25 C107.71,624.72 107.84,624.67 109.31,625.87 C110.86,627.13 111.00,626.78 111.00,621.74 C111.00,618.08 111.50,615.83 112.50,615.00 C113.55,614.13 113.95,612.06 113.85,608.13 C113.77,605.03 113.51,603.75 113.28,605.27 C112.75,608.82 111.00,607.80 111.00,603.94 C111.00,601.25 111.29,601.00 114.50,601.00 C116.96,601.00 118.00,600.55 118.00,599.48 C118.00,595.71 120.56,590.00 122.24,590.00 C123.65,590.00 124.00,590.87 124.00,594.30 C124.00,598.91 122.69,601.00 119.80,601.00 C118.29,601.00 118.00,601.86 118.00,606.30 C118.00,612.21 119.16,614.00 123.00,614.00 C126.70,614.00 128.00,615.76 128.00,620.77 C128.00,625.20 129.36,629.00 130.94,629.00 C131.42,629.00 134.19,626.71 137.09,623.91 L 142.37 618.83 L 141.18 614.40 C139.82,609.30 139.61,600.36 140.83,599.61 C141.29,599.32 142.24,596.69 142.94,593.75 L 144.22 588.40 L 149.39 587.20 C157.41,585.34 158.27,585.51 157.54,588.84 C157.09,590.85 157.40,592.09 158.59,593.07 C160.07,594.30 160.55,594.10 162.70,591.31 C164.89,588.48 165.43,588.25 167.98,589.14 C170.36,589.97 171.25,589.77 173.41,587.89 C175.78,585.83 176.00,584.97 176.00,577.94 C176.00,569.09 176.56,568.28 183.01,567.82 C186.75,567.55 187.70,567.05 188.80,564.75 C191.34,559.42 196.00,561.89 196.00,568.58 C196.00,573.80 197.26,574.85 204.58,575.77 L 210.40 576.50 L 211.88 581.25 C213.49,586.44 214.98,587.24 216.51,583.75 C217.29,581.98 218.46,581.43 221.98,581.18 C224.44,581.01 227.00,580.42 227.66,579.87 C228.32,579.32 229.08,575.21 229.37,570.69 C230.40,554.12 231.18,550.83 234.50,548.98 C237.48,547.32 237.50,547.23 237.39,538.99 C237.30,532.53 236.91,530.41 235.64,529.48 C233.51,527.92 233.61,526.05 235.97,523.22 C237.39,521.51 238.51,521.09 240.35,521.55 C242.55,522.10 243.06,521.65 244.91,517.46 C246.06,514.87 247.00,512.13 247.00,511.37 C247.00,509.47 249.70,509.65 250.81,511.63 C251.31,512.52 251.99,512.83 252.31,512.32 C253.10,511.03 253.19,496.13 252.43,492.86 C252.09,491.41 252.35,487.13 253.02,483.36 C253.68,479.59 254.44,474.81 254.72,472.75 C254.99,470.69 255.61,469.00 256.11,469.00 C256.60,469.00 256.99,468.21 256.98,467.25 C256.97,465.91 256.77,465.81 256.13,466.83 C255.53,467.77 255.09,467.21 254.64,464.96 C253.72,460.33 253.85,458.79 255.10,459.56 C255.90,460.06 255.90,459.68 255.10,458.19 C253.44,455.09 253.70,448.05 255.50,447.36 C256.39,447.02 257.01,445.50 257.02,443.64 C257.03,441.25 257.26,440.86 258.00,442.00 C258.63,442.98 258.98,415.88 259.00,364.50 C259.02,313.12 259.37,286.02 260.00,287.00 C260.62,287.96 260.98,377.43 261.00,534.50 C261.03,747.70 261.23,781.33 262.50,786.75 C267.00,805.82 281.33,820.65 302.00,827.63 C307.24,829.41 314.22,829.50 451.97,829.77 C531.43,829.92 597.05,829.81 597.81,829.52 C598.70,829.18 597.34,827.54 593.84,824.78 C585.59,818.26 573.12,805.88 566.50,797.61 L 560.50 790.13 L 438.00 790.04 C321.12,789.96 315.32,789.87 311.50,788.11 C306.87,785.97 303.58,782.69 302.07,778.68 C301.32,776.72 301.04,707.78 301.14,549.68 C301.21,425.96 301.43,325.49 301.62,325.49 C301.62,325.49 301.62,325.49 301.62,325.50 C301.82,326.60 302.19,336.50 302.45,347.50 C302.95,368.57 302.97,371.75 302.70,379.00 C302.60,381.48 302.91,395.98 303.38,411.24 C304.23,438.58 304.28,439.01 306.65,441.57 C308.18,443.22 309.03,445.31 309.00,447.33 C308.73,462.71 311.45,496.63 313.12,498.64 C313.81,499.48 313.80,500.51 313.07,501.87 C312.48,502.97 312.00,504.80 312.00,505.94 C312.00,508.05 317.79,519.98 319.37,521.13 C319.85,521.48 322.04,521.79 324.23,521.82 C327.28,521.86 328.33,521.45 328.70,520.05 C328.96,519.04 330.82,517.38 332.84,516.36 C334.85,515.34 337.18,513.77 338.01,512.88 C339.26,511.53 339.73,511.48 340.76,512.58 C341.44,513.32 342.00,514.85 342.00,515.99 C342.00,518.99 346.35,527.06 349.66,530.19 C351.22,531.67 355.14,534.09 358.37,535.57 C363.32,537.84 365.16,538.17 370.12,537.72 C387.73,536.13 399.88,516.34 392.78,500.82 C388.92,492.39 384.93,488.53 376.92,485.47 C372.34,483.72 368.59,482.92 366.05,483.17 C363.91,483.37 362.38,483.19 362.64,482.77 C362.90,482.35 365.90,482.00 369.31,482.00 C374.48,482.01 376.23,482.49 379.93,484.95 C384.57,488.03 386.50,488.03 385.70,484.95 C384.93,482.03 387.69,481.87 390.97,484.63 C393.68,486.91 395.41,490.99 393.05,489.53 C392.53,489.21 391.64,489.81 391.07,490.86 C390.29,492.33 390.57,493.74 392.27,496.88 C393.50,499.14 395.01,500.99 395.64,500.99 C396.27,501.00 397.06,501.70 397.39,502.56 C397.72,503.42 398.41,503.87 398.92,503.55 C399.44,503.23 400.14,503.88 400.50,504.99 C401.28,507.46 400.20,511.24 398.93,510.46 C398.42,510.14 398.00,511.27 398.00,512.97 C398.00,515.33 398.58,516.27 400.50,517.00 C402.28,517.68 403.00,518.70 403.00,520.53 C403.00,521.96 403.41,522.86 403.91,522.55 C404.42,522.24 405.01,522.53 405.23,523.19 C405.92,525.27 413.33,520.74 415.00,517.21 C415.83,515.46 417.06,514.23 417.75,514.48 C419.58,515.15 419.28,512.32 417.45,511.62 C416.41,511.22 416.13,511.43 416.59,512.26 C417.11,513.17 416.98,513.21 416.11,512.42 C414.19,510.65 415.93,507.75 418.61,508.27 C420.52,508.63 421.13,508.12 422.01,505.48 C422.59,503.70 424.06,501.40 425.27,500.37 C426.68,499.17 427.03,499.07 426.24,500.09 C425.57,500.97 425.30,501.97 425.65,502.32 C426.00,502.67 425.55,503.24 424.65,503.58 C423.75,503.93 423.24,504.58 423.52,505.04 C423.80,505.49 423.64,506.10 423.17,506.40 C421.89,507.19 423.40,515.43 425.38,518.46 C426.33,519.91 428.55,521.97 430.30,523.04 C433.40,524.93 435.95,524.99 511.78,525.00 L 518.01 525.00 C586.44,525.00 593.69,525.00 597.27,521.38 C597.80,520.84 598.25,520.23 598.81,519.52 C601.28,516.38 602.50,511.12 601.60,507.52 C601.25,506.16 599.66,503.54 598.05,501.72 C596.16,499.55 595.42,497.93 595.96,497.07 C596.45,496.27 597.32,496.06 598.14,496.54 C598.89,496.98 598.64,496.36 597.59,495.17 C596.54,493.97 595.96,492.71 596.29,492.37 C597.28,491.38 601.44,492.78 603.94,494.95 C605.22,496.06 606.61,496.74 607.04,496.47 C607.47,496.21 607.70,496.78 607.55,497.75 C607.28,499.52 605.79,499.70 599.70,498.72 L 596.90 498.26 L 599.20 500.85 C606.37,508.90 610.00,510.98 610.00,507.04 C610.00,504.13 616.53,502.36 621.37,503.96 C625.25,505.24 625.92,506.94 623.50,509.36 C621.44,511.41 621.44,522.30 623.50,524.36 C625.19,526.05 625.54,532.55 623.98,533.51 C623.42,533.86 623.21,534.53 623.50,535.00 C623.79,535.47 623.57,536.15 623.01,536.49 C622.34,536.91 622.33,537.74 622.96,538.93 C623.49,539.92 623.65,541.02 623.30,541.37 C622.14,542.53 625.74,542.02 628.37,540.65 C629.80,539.91 630.64,538.94 630.23,538.49 C629.83,538.04 630.04,537.99 630.71,538.37 C632.41,539.35 631.15,542.00 628.98,542.00 C627.98,542.00 627.02,542.34 626.83,542.75 C626.41,543.71 610.13,554.00 609.04,554.00 C608.58,554.00 607.98,554.61 607.69,555.36 C607.40,556.11 606.12,556.98 604.83,557.29 C602.71,557.80 602.77,557.65 605.41,555.68 C609.64,552.51 613.75,548.72 612.00,549.58 C611.17,549.99 611.57,549.15 612.87,547.71 C615.16,545.20 615.17,545.11 613.19,545.26 C612.06,545.35 611.36,545.77 611.63,546.21 C612.06,546.91 609.80,547.44 607.75,547.12 C607.34,547.05 607.11,547.35 607.25,547.77 C607.39,548.19 606.52,549.59 605.32,550.88 C604.13,552.17 603.39,553.85 603.68,554.61 C603.97,555.37 603.67,556.00 603.00,556.00 C602.31,556.00 602.04,556.67 602.38,557.56 C602.79,558.62 600.03,562.02 593.64,568.31 C588.50,573.36 582.75,579.44 580.86,581.81 C578.97,584.18 576.70,586.22 575.82,586.35 C574.16,586.59 568.98,592.14 569.02,593.64 C569.03,594.11 569.92,593.38 571.00,592.00 C572.50,590.08 572.96,589.89 572.98,591.17 C572.99,592.08 572.66,592.98 572.25,593.17 C570.09,594.13 555.99,622.82 552.47,633.41 C535.60,684.17 545.35,740.08 578.46,782.49 C592.82,800.87 616.36,819.71 637.03,829.35 C674.32,846.73 717.28,849.08 754.94,835.79 C806.38,817.63 844.63,775.61 858.03,722.53 C872.84,663.91 853.32,601.96 807.47,562.06 C800.26,555.78 780.33,542.00 778.47,542.00 C778.24,542.00 774.78,540.39 770.78,538.43 C753.09,529.75 728.46,524.22 706.00,523.89 C697.56,523.76 688.41,522.40 694.00,522.10 C696.00,522.00 696.20,521.77 695.00,521.00 C693.74,520.19 693.81,520.03 695.40,520.02 C697.25,520.00 697.25,519.93 695.50,518.00 C694.50,516.90 694.05,516.00 694.50,516.00 C694.95,516.00 694.51,515.11 693.52,514.03 C692.06,512.41 691.93,511.55 692.81,509.28 C693.40,507.75 694.17,504.59 694.53,502.26 C695.12,498.35 694.97,497.94 692.59,497.03 C689.56,495.88 689.21,493.49 691.87,492.07 C694.65,490.58 695.45,481.01 692.94,479.25 C691.55,478.27 691.25,477.11 691.64,474.24 C691.93,472.18 692.55,469.60 693.02,468.50 C693.49,467.40 694.10,464.92 694.37,463.00 C694.64,461.08 695.82,456.12 696.99,452.00 C698.76,445.76 699.12,441.81 699.12,428.50 C699.12,413.37 700.07,406.00 702.02,406.00 C702.50,406.00 703.06,403.86 703.26,401.25 C703.60,397.01 703.68,397.25 704.06,403.50 C704.28,407.35 704.71,388.00 705.00,360.50 C705.17,344.50 705.29,335.85 705.39,335.85 C705.55,335.85 705.64,357.86 705.76,407.18 C705.99,498.29 706.10,503.89 707.75,504.35 C708.71,504.62 713.63,505.13 718.67,505.49 C723.71,505.84 731.81,506.96 736.67,507.96 C741.53,508.96 745.82,509.48 746.22,509.12 C746.62,508.76 747.00,466.17 747.07,414.48 C747.14,362.79 747.54,317.58 747.96,314.00 C748.57,308.80 748.75,310.73 748.86,323.69 C748.94,332.73 749.42,340.14 749.95,340.47 C750.52,340.82 750.71,346.04 750.42,353.28 C749.70,371.14 749.71,387.88 750.43,431.00 C751.11,471.15 751.86,481.08 754.45,483.95 C755.30,484.89 756.00,486.72 756.00,488.01 C756.00,491.74 759.16,502.02 760.13,501.42 C760.61,501.12 761.00,501.70 761.01,502.69 C761.01,503.69 761.67,505.76 762.48,507.31 C763.60,509.46 763.68,510.54 762.81,511.93 C760.90,514.99 762.51,517.27 766.04,516.49 C767.90,516.08 769.65,516.29 770.54,517.03 C772.90,519.00 772.23,520.00 768.56,520.00 C766.34,520.00 764.65,520.66 763.81,521.86 C763.09,522.88 761.46,524.04 760.19,524.44 C757.49,525.30 757.84,527.65 760.61,527.17 C765.51,526.31 767.46,526.57 767.77,528.12 C767.99,529.23 767.15,529.92 765.07,530.34 C762.88,530.77 762.20,531.37 762.63,532.48 C763.53,534.83 767.31,535.32 771.40,533.61 C773.89,532.57 774.83,532.46 774.32,533.29 C772.15,536.75 774.74,539.12 777.58,536.28 C779.10,534.76 779.09,534.54 777.42,533.32 C775.80,532.14 775.98,532.00 779.14,532.00 C781.82,532.00 783.33,532.74 785.43,535.09 C787.34,537.24 788.79,538.03 790.19,537.66 C792.75,536.99 795.00,537.85 795.00,539.50 C795.00,540.72 797.09,542.00 799.08,542.00 C799.59,542.00 800.00,541.30 800.00,540.44 C800.00,539.58 799.59,539.13 799.09,539.44 C798.59,539.75 798.42,539.10 798.71,538.00 C799.33,535.61 801.26,535.41 803.04,537.54 C804.11,538.84 803.96,539.34 802.16,540.60 C800.97,541.43 800.00,542.58 800.00,543.15 C800.00,545.32 804.23,549.43 806.81,549.75 C808.60,549.98 811.70,552.43 816.07,557.05 C819.68,560.87 823.45,564.00 824.45,564.00 C825.45,564.00 827.79,565.62 829.66,567.60 C832.45,570.56 833.32,570.98 834.53,569.98 C835.34,569.31 836.00,567.78 836.00,566.58 C836.00,563.76 837.81,562.00 840.70,562.00 C842.43,562.00 843.00,561.43 843.00,559.70 C843.00,556.94 844.74,555.00 847.20,555.00 C848.41,555.00 849.00,555.75 849.00,557.30 C849.00,560.06 847.26,562.00 844.80,562.00 C843.29,562.00 843.00,562.87 843.00,567.38 C843.00,573.14 844.59,575.60 847.78,574.77 C849.28,574.38 849.50,574.83 849.18,577.62 L 848.79 580.94 L 861.64 581.22 L 874.50 581.50 L 874.82 584.80 L 875.13 588.10 L 880.74 587.80 C885.80,587.53 886.51,587.21 888.00,584.50 C889.36,582.02 890.37,581.45 893.82,581.19 C897.17,580.95 898.10,580.45 898.55,578.66 C898.87,577.37 899.88,576.43 900.94,576.43 C901.95,576.43 902.60,576.89 902.40,577.46 C901.78,579.16 903.43,580.92 906.00,581.32 C908.95,581.77 910.28,585.45 910.06,592.59 C909.89,598.09 911.47,600.53 914.46,599.38 C915.84,598.85 916.08,597.83 915.68,594.11 C915.41,591.57 914.87,588.28 914.49,586.79 C913.27,582.12 918.98,578.86 922.00,582.50 C923.57,584.39 925.97,584.41 928.61,582.56 C929.75,581.76 933.11,580.98 936.09,580.81 C940.64,580.55 941.66,580.13 942.50,578.18 C943.06,576.87 944.67,575.63 946.18,575.32 C947.65,575.02 948.70,574.27 948.51,573.64 C947.50,570.28 947.09,558.00 947.99,558.00 C948.57,558.00 949.00,560.95 949.00,564.94 C949.00,568.76 949.34,572.09 949.75,572.34 C950.16,572.59 950.54,569.40 950.58,565.26 C950.65,559.10 951.01,557.47 952.54,556.35 C953.57,555.59 954.89,555.13 955.46,555.31 C957.22,555.89 957.23,562.00 955.47,565.70 C954.56,567.63 953.99,570.50 954.22,572.07 C954.52,574.07 954.17,575.05 953.07,575.35 C951.77,575.70 951.79,575.79 953.22,575.88 C954.22,575.95 954.72,576.56 954.42,577.34 C953.56,579.58 956.60,581.14 961.18,580.81 C964.85,580.55 965.45,580.20 965.19,578.50 C964.94,576.87 965.36,577.06 967.41,579.50 C968.79,581.15 969.94,583.09 969.96,583.81 C969.98,584.53 970.45,584.84 971.00,584.50 C971.55,584.16 972.03,584.70 972.07,585.69 C972.13,587.35 972.21,587.34 972.90,585.57 C974.44,581.64 975.03,586.93 973.85,594.07 C972.74,600.78 971.00,603.52 971.00,598.56 C971.00,597.22 970.57,595.85 970.04,595.53 C969.52,595.20 969.34,594.29 969.64,593.50 C969.94,592.71 969.41,590.02 968.45,587.51 C966.77,583.12 966.66,583.04 965.26,585.05 C963.93,586.94 963.92,590.19 965.23,595.00 C965.45,595.83 965.97,597.92 966.38,599.67 C967.10,602.75 969.97,605.15 970.03,602.72 C970.05,602.05 970.53,602.30 971.10,603.28 C972.81,606.22 965.72,635.58 956.31,664.50 C942.10,708.16 919.42,753.43 893.70,789.50 C872.71,818.92 837.65,857.10 812.50,877.90 C731.78,944.67 635.71,982.31 531.50,987.98 ZM 731.15 801.14 C725.29,802.70 719.53,803.26 706.50,803.53 C697.15,803.73 688.60,803.67 687.50,803.41 C686.40,803.14 681.45,801.97 676.50,800.81 C655.21,795.79 637.62,786.18 621.45,770.73 C606.16,756.12 595.54,739.28 589.58,720.16 C581.25,693.47 582.38,665.61 592.90,638.39 C596.15,629.99 604.71,614.87 606.55,614.29 C607.64,613.96 771.94,779.60 772.77,781.87 C772.91,782.27 769.31,784.82 764.77,787.53 C755.84,792.84 743.34,797.91 731.15,801.14 ZM 810.99 737.94 C809.43,741.00 806.64,745.86 804.79,748.75 L 801.44 754.00 L 779.48 731.75 C767.40,719.51 729.95,681.80 696.26,647.94 C662.57,614.08 635.00,586.08 635.00,585.73 C635.00,585.38 638.24,583.20 642.19,580.89 C676.75,560.70 720.57,559.01 756.55,576.47 C791.07,593.22 813.93,623.58 822.08,663.50 C823.75,671.64 823.77,694.80 822.12,704.00 C820.47,713.23 814.81,730.47 810.99,737.94 ZM 466.92 444.84 C459.21,444.84 449.66,445.10 445.70,445.42 C437.89,446.06 432.84,444.82 429.41,441.43 C428.33,440.37 425.60,437.92 423.33,435.99 L 419.21 432.49 L 419.51 425.49 C419.68,421.65 420.02,417.38 420.28,416.00 C420.54,414.62 420.80,411.36 420.87,408.75 C421.02,403.17 423.00,402.24 423.01,407.75 C423.01,412.08 425.54,416.40 429.64,419.10 C432.39,420.92 436.26,420.99 534.50,420.99 C634.52,420.99 636.56,420.95 639.76,419.01 C641.55,417.91 643.85,415.65 644.87,413.97 L 646.72 410.93 L 648.48 413.61 C649.79,415.61 650.08,417.40 649.63,420.69 C649.30,423.12 649.37,424.89 649.80,424.62 C650.22,424.36 650.57,424.98 650.57,426.00 C650.57,427.02 650.22,427.63 649.79,427.37 C649.35,427.10 649.00,427.39 649.00,428.00 C649.00,428.61 648.48,428.80 647.85,428.40 C647.12,427.96 646.96,428.13 647.42,428.86 C648.21,430.15 644.89,436.09 641.73,439.04 C637.82,442.68 632.70,444.42 625.75,444.46 C622.04,444.48 619.00,444.10 619.00,443.61 C619.00,443.10 616.74,443.06 613.75,443.52 C610.86,443.95 603.78,444.45 598.00,444.61 C597.24,444.63 596.53,444.66 595.87,444.67 C590.98,444.82 588.50,444.89 586.02,444.85 C583.12,444.82 580.23,444.63 573.50,444.25 C551.69,443.02 518.73,443.35 515.59,444.84 C513.23,445.96 511.99,445.99 508.97,444.99 C506.11,444.05 502.68,444.02 494.01,444.87 C487.82,445.47 482.35,445.72 481.85,445.40 C481.34,445.09 474.62,444.84 466.92,444.84 ZM 422.78 315.26 C419.64,315.58 416.63,316.11 416.10,316.44 C415.57,316.76 414.85,316.57 414.50,316.00 C414.15,315.43 413.44,315.23 412.93,315.54 C412.42,315.86 412.00,315.64 412.00,315.06 C412.00,314.44 409.72,314.00 406.55,314.00 C403.55,314.00 400.06,313.58 398.80,313.07 C397.53,312.56 395.38,311.89 394.00,311.60 C387.92,310.27 378.68,298.05 382.14,295.91 C382.76,295.53 382.91,294.66 382.47,293.96 C381.96,293.13 382.09,292.94 382.85,293.40 C384.76,294.59 384.15,292.97 381.50,289.82 C378.83,286.65 378.34,285.00 380.06,285.00 C380.64,285.00 380.84,285.45 380.50,286.00 C380.16,286.55 380.36,287.00 380.94,287.00 C381.52,287.00 382.02,287.56 382.05,288.25 C382.13,290.47 391.36,297.01 396.57,298.55 C400.94,299.83 416.01,300.00 506.57,299.77 L 611.50 299.50 L 616.87 296.53 C619.82,294.89 623.40,291.96 624.82,290.03 C626.23,288.09 627.75,286.08 628.18,285.57 C628.61,285.05 628.71,287.08 628.39,290.07 C628.06,293.16 627.20,295.84 626.40,296.30 C625.63,296.74 625.00,297.54 625.00,298.08 C625.00,298.62 622.86,301.94 620.25,305.46 C617.01,309.82 614.41,312.24 612.09,313.06 C608.78,314.23 545.33,315.29 492.75,315.07 C490.41,315.06 481.75,315.06 473.50,315.07 C465.25,315.09 455.80,315.07 452.50,315.05 C449.20,315.02 444.25,315.03 441.50,315.08 C438.75,315.12 434.70,315.05 432.50,314.91 C430.30,314.78 425.93,314.94 422.78,315.26 ZM 430.71 632.91 C434.33,634.82 436.46,634.91 479.50,634.95 C520.42,634.99 524.81,634.84 527.93,633.25 C534.96,629.66 537.78,621.55 534.44,614.52 C533.67,612.90 533.13,611.63 532.27,610.63 C529.15,607.00 521.82,607.00 484.02,607.00 C482.71,607.00 481.37,607.00 479.98,607.00 C436.79,607.00 433.22,607.13 429.98,608.83 C420.49,613.83 420.91,627.74 430.71,632.91 ZM 361.94 646.68 C370.54,649.08 379.88,646.17 386.85,638.92 C391.33,634.25 395.00,626.00 395.00,620.58 C395.00,610.88 387.90,599.89 379.29,596.26 C374.33,594.17 361.00,592.58 361.00,594.08 C361.00,594.55 360.33,594.68 359.50,594.36 C358.67,594.05 358.00,594.23 358.00,594.77 C358.00,595.31 356.71,596.29 355.13,596.95 C351.39,598.50 346.72,603.43 343.99,608.74 C341.23,614.10 340.96,624.63 343.42,630.50 C346.42,637.65 354.32,644.55 361.94,646.68 ZM 379.88 455.21 C377.83,457.10 376.23,457.51 370.76,457.55 C367.12,457.57 364.22,457.19 364.32,456.69 C364.42,456.19 362.13,454.99 359.23,454.02 C356.32,453.06 353.14,451.53 352.15,450.63 C351.15,449.73 349.89,449.00 349.35,449.00 C347.77,449.00 344.43,444.90 342.00,440.00 C340.77,437.52 339.18,434.83 338.46,434.00 C336.32,431.54 335.64,427.31 337.24,426.35 C339.26,425.13 340.03,422.43 338.72,421.12 C337.97,420.37 337.95,420.00 338.66,420.00 C339.25,420.00 339.51,418.90 339.25,417.52 C338.66,414.44 339.70,410.00 341.02,410.00 C341.56,410.00 342.00,410.98 342.00,412.18 C342.00,415.84 345.89,422.67 350.17,426.54 C358.34,433.91 368.90,436.04 377.64,432.08 C387.18,427.74 393.30,419.35 394.90,408.40 C395.71,402.81 395.76,402.73 395.88,406.82 C395.95,409.19 396.50,412.07 397.12,413.23 C398.71,416.20 398.24,432.17 396.44,436.50 C395.62,438.45 394.06,440.94 392.98,442.02 C391.89,443.11 391.00,444.63 391.00,445.40 C391.00,446.16 389.46,448.15 387.57,449.80 C385.69,451.46 384.44,453.10 384.79,453.46 C385.15,453.81 384.75,453.84 383.90,453.52 C383.03,453.18 381.29,453.92 379.88,455.21 ZM 704.53 282.50 C706.36,286.09 706.51,287.69 705.97,298.00 L 705.37 309.50 L 705.12 301.00 C704.94,295.19 704.59,293.13 704.00,294.50 C703.27,296.21 703.13,296.25 703.07,294.75 C703.03,293.79 702.38,293.00 701.62,293.00 C700.86,293.00 699.65,292.29 698.93,291.42 C697.90,290.17 696.64,289.99 693.06,290.56 C686.73,291.58 684.22,291.29 680.62,289.13 C677.47,287.23 672.43,287.20 670.55,289.06 C668.70,290.89 662.95,289.96 657.04,286.86 C651.00,283.70 649.79,282.17 650.39,278.50 C650.57,277.40 650.22,276.17 649.61,275.77 C649.00,275.36 659.08,275.02 672.00,275.02 C698.93,275.00 700.94,275.46 704.53,282.50 ZM 303.03 297.00 C302.47,297.00 301.91,302.40 301.72,309.75 C301.52,317.26 301.41,314.82 301.44,303.82 C301.51,283.05 301.76,282.17 308.99,277.25 C312.18,275.08 313.07,275.00 335.40,275.02 C348.10,275.02 358.05,275.36 357.50,275.77 C356.95,276.17 356.36,277.62 356.19,279.00 C355.44,285.03 348.74,289.83 345.28,286.82 C342.19,284.13 338.50,283.82 335.71,286.01 C333.98,287.37 331.65,288.00 328.34,288.01 C316.75,288.03 304.17,292.03 304.04,295.75 C304.02,296.44 303.56,297.00 303.03,297.00 ZM 481.41 204.48 C482.10,207.27 481.56,207.90 480.61,205.42 C479.44,202.37 480.01,191.90 481.55,188.22 C483.50,183.54 488.38,178.40 493.25,175.89 C504.75,169.96 519.36,174.40 525.75,185.77 L 528.00 189.77 L 525.89 190.32 C524.71,190.63 523.99,191.44 524.26,192.18 C524.52,192.91 524.31,194.32 523.79,195.32 C522.90,197.05 522.73,197.05 520.24,195.42 C518.80,194.48 516.51,192.38 515.14,190.76 C512.70,187.86 512.52,187.81 505.08,188.34 C494.93,189.06 494.01,189.32 488.14,193.17 C482.64,196.78 480.41,200.52 481.41,204.48 ZM 595.39 496.42 C595.10,497.18 570.80,497.50 512.52,497.50 C446.96,497.50 430.33,497.25 431.31,496.26 C432.28,495.30 450.20,495.04 512.52,495.08 C520.11,495.09 527.02,495.09 533.30,495.10 C589.48,495.13 595.73,495.14 595.80,495.81 C595.81,495.90 595.72,495.99 595.62,496.10 C595.53,496.20 595.44,496.30 595.39,496.42 ZM 930.67 608.33 C931.28,608.95 937.92,609.32 938.06,608.75 C938.80,605.87 938.89,590.05 938.16,589.60 C935.77,588.12 934.00,590.26 934.00,594.61 C934.00,597.77 933.60,599.00 932.56,599.00 C931.59,599.00 930.99,597.61 930.73,594.75 C930.52,592.41 930.27,594.36 930.17,599.08 C930.08,603.80 930.30,607.97 930.67,608.33 ZM 171.21 632.81 C172.86,634.46 174.12,633.87 175.96,630.63 C176.81,629.13 178.62,627.35 180.00,626.67 C183.77,624.82 183.03,622.78 177.65,620.23 C173.88,618.44 172.49,618.18 171.40,619.08 C169.64,620.54 169.50,631.10 171.21,632.81 ZM 903.94 573.57 C902.50,575.31 897.85,575.45 896.20,573.80 C895.54,573.14 895.00,570.91 895.00,568.84 C895.00,564.56 897.28,562.67 901.80,563.19 C904.21,563.47 904.53,563.96 904.81,567.82 C904.98,570.20 904.59,572.79 903.94,573.57 ZM 848.04 597.54 C850.21,600.16 851.49,598.55 851.80,592.83 C852.01,588.81 851.67,586.97 850.55,586.04 C849.70,585.33 849.00,583.88 849.00,582.81 C849.00,579.90 844.82,580.88 843.25,584.15 C841.71,587.39 842.55,590.00 845.14,590.00 C847.91,590.00 848.55,592.72 846.37,595.21 C845.34,596.38 845.01,597.05 845.64,596.68 C846.26,596.32 847.34,596.71 848.04,597.54 ZM 77.84 604.60 C76.32,607.72 74.21,608.82 73.58,606.83 C73.34,606.10 72.87,603.43 72.54,600.90 C72.06,597.33 72.29,596.01 73.57,594.94 C74.99,593.77 75.42,593.85 76.65,595.54 C78.90,598.61 79.30,601.62 77.84,604.60 ZM 756.40 447.03 C756.64,448.94 756.49,453.88 756.06,458.00 C755.62,462.12 755.21,464.95 755.14,464.28 C755.06,463.61 754.33,463.32 753.50,463.64 C751.80,464.29 751.64,462.61 752.65,454.28 C752.99,451.40 753.66,449.29 754.14,449.58 C754.61,449.88 755.00,449.42 755.00,448.56 C755.00,447.70 754.49,447.00 753.88,447.00 C753.09,447.00 753.11,446.57 753.96,445.54 C754.63,444.74 754.84,443.51 754.44,442.79 C753.92,441.88 754.03,441.80 754.83,442.53 C755.45,443.09 756.15,445.12 756.40,447.03 ZM 151.00 625.50 C151.75,626.40 153.94,627.00 156.50,627.00 C159.06,627.00 161.25,626.40 162.00,625.50 C164.02,623.07 161.48,621.00 156.50,621.00 C151.52,621.00 148.98,623.07 151.00,625.50 ZM 345.01 497.25 C345.00,497.66 344.55,498.00 344.00,498.00 C342.56,498.00 342.76,496.78 344.67,494.06 C345.75,492.53 345.86,491.97 345.00,492.50 C344.02,493.11 343.83,492.88 344.30,491.66 C344.65,490.75 344.50,490.00 343.97,490.00 C342.67,490.00 342.73,487.29 344.04,486.47 C344.62,486.12 346.15,486.53 347.45,487.38 C349.63,488.81 350.02,488.77 352.32,486.96 C355.04,484.83 357.00,484.42 357.00,486.00 C357.00,486.55 356.33,487.00 355.50,487.00 C354.03,487.00 345.02,495.80 345.01,497.25 ZM 756.75 426.30 C755.81,436.00 753.25,433.77 752.94,423.00 C752.73,415.34 752.96,413.00 753.96,413.00 C755.54,413.00 757.24,421.13 756.75,426.30 ZM 62.12 631.90 C64.29,633.67 64.55,633.69 65.11,632.17 C66.04,629.64 65.27,628.52 60.95,626.09 C57.55,624.18 57.00,624.10 57.00,625.50 C57.00,626.39 56.52,626.82 55.93,626.46 C55.34,626.09 55.10,625.18 55.39,624.43 C55.68,623.68 55.48,622.80 54.96,622.47 C53.66,621.67 53.75,623.64 55.22,627.93 C56.19,630.78 56.53,631.84 57.04,631.92 C57.33,631.97 57.68,631.68 58.24,631.21 L 58.35 631.13 C59.43,630.23 60.27,630.40 62.12,631.90 ZM 165.00 577.58 C165.00,578.36 164.32,579.00 163.49,579.00 C162.28,579.00 162.10,578.16 162.61,574.75 C163.34,569.85 165.15,567.46 167.45,568.34 C170.40,569.48 170.50,572.16 167.66,574.23 C166.20,575.29 165.00,576.80 165.00,577.58 ZM 41.50 463.50 C41.23,467.90 40.60,473.08 40.11,475.00 L 39.20 478.50 L 39.10 474.29 C38.96,468.47 41.03,449.67 41.92,448.73 C42.32,448.30 42.50,449.65 42.32,451.73 C42.14,453.80 41.78,459.10 41.50,463.50 ZM 978.30 562.94 C977.98,566.82 977.44,570.00 977.10,570.00 C976.76,570.00 975.87,568.60 975.11,566.89 C974.07,564.53 974.02,563.61 974.92,563.05 C976.05,562.35 976.70,559.49 976.99,554.00 C977.12,551.55 977.14,551.54 978.01,553.69 C978.50,554.90 978.63,559.06 978.30,562.94 ZM 929.88 562.00 C928.94,562.00 927.95,562.56 927.67,563.25 C927.40,563.94 927.42,562.70 927.72,560.50 C928.40,555.35 930.28,553.16 932.45,554.96 C935.36,557.37 933.67,562.00 929.88,562.00 ZM 688.00 523.90 C688.00,524.82 673.16,526.72 671.93,525.96 C671.41,525.64 672.45,524.70 674.24,523.88 C677.48,522.40 688.00,522.41 688.00,523.90 ZM 168.21 606.76 C169.00,607.71 169.60,607.74 170.63,606.89 C173.53,604.48 171.01,598.29 167.65,599.58 C166.29,600.10 166.01,600.90 166.51,602.88 C166.87,604.31 167.63,606.06 168.21,606.76 ZM 666.18 527.22 C665.51,527.89 663.16,528.97 660.96,529.62 C657.33,530.69 656.87,530.62 655.90,528.82 C654.93,527.00 655.13,526.86 658.17,527.13 C660.24,527.32 661.42,527.01 661.28,526.31 C661.16,525.69 661.84,525.33 662.78,525.52 C663.73,525.70 665.15,525.88 665.95,525.92 C667.09,525.98 667.14,526.26 666.18,527.22 ZM 786.82 544.51 C787.49,545.97 788.58,546.97 789.26,546.75 C790.90,546.20 791.09,542.00 789.48,542.00 C788.79,542.00 786.96,541.34 785.42,540.54 C783.32,539.45 782.26,539.37 781.26,540.20 C779.59,541.59 781.35,542.98 783.92,542.31 C785.03,542.02 786.03,542.78 786.82,544.51 ZM 112.00 638.50 C114.25,641.21 118.00,639.52 118.00,635.80 C118.00,633.54 113.80,633.33 112.00,635.50 C111.01,636.70 111.01,637.30 112.00,638.50 ZM 841.51 598.98 C841.21,599.47 841.87,599.81 842.98,599.73 C844.09,599.64 845.00,599.47 845.00,599.33 C845.00,598.17 842.48,594.00 841.78,594.00 C841.29,594.00 841.20,593.48 841.60,592.85 C841.99,592.21 841.87,591.96 841.34,592.29 C840.80,592.62 839.58,591.57 838.63,589.95 C837.67,588.33 836.45,587.00 835.92,587.00 C835.10,587.00 837.38,591.47 838.98,593.00 C840.37,594.33 842.00,598.18 841.51,598.98 ZM 828.58 578.35 C829.10,579.69 834.69,580.30 835.44,579.10 C835.71,578.66 834.79,577.21 833.39,575.90 C830.94,573.60 830.78,573.57 829.49,575.35 C828.75,576.36 828.34,577.71 828.58,578.35 ZM 798.58 553.54 C801.54,555.96 803.59,556.76 802.55,555.09 C802.24,554.58 802.36,554.02 802.81,553.84 C803.26,553.65 803.38,552.57 803.06,551.42 C802.57,549.59 802.09,549.45 799.08,550.25 L 795.65 551.15 ZM 174.95 540.56 C174.29,541.35 173.42,542.00 173.00,542.00 C172.58,542.00 171.71,541.35 171.05,540.56 C169.77,539.02 171.18,535.00 173.00,535.00 C174.82,535.00 176.23,539.02 174.95,540.56 ZM 353.57 593.11 C354.31,594.31 356.29,594.23 359.68,592.88 C361.27,592.25 361.95,591.56 361.24,591.30 C360.55,591.04 360.28,590.35 360.64,589.77 C361.08,589.06 360.35,588.95 358.40,589.43 C354.92,590.31 352.82,591.90 353.57,593.11 ZM 870.00 592.50 C871.51,594.31 872.23,594.37 873.80,592.80 C875.67,590.93 875.26,588.00 873.12,588.00 C870.26,588.00 868.44,590.62 870.00,592.50 ZM 636.81 528.25 C637.08,531.50 636.84,532.00 635.00,532.00 C633.16,532.00 632.92,531.50 633.19,528.25 C633.40,525.72 633.99,524.50 635.00,524.50 C636.01,524.50 636.60,525.72 636.81,528.25 ZM 638.23 537.63 C636.13,539.72 633.10,539.36 633.27,537.04 C633.35,535.97 633.62,535.29 633.87,535.53 C634.11,535.78 634.88,535.51 635.57,534.94 C636.41,534.25 637.03,534.24 637.45,534.91 C637.86,535.59 638.94,535.59 640.67,534.93 C642.11,534.39 643.47,534.14 643.71,534.38 C643.95,534.62 643.13,535.14 641.87,535.54 C640.62,535.94 638.98,536.88 638.23,537.63 ZM 483.38 489.02 C481.99,490.41 479.11,490.78 475.50,490.04 C472.74,489.47 472.66,489.34 474.50,488.44 C475.60,487.90 477.40,487.51 478.50,487.58 C484.10,487.93 484.39,488.01 483.38,489.02 ZM 462.42 487.28 C463.58,488.44 463.54,488.80 462.15,489.66 C459.98,490.99 454.67,489.00 456.37,487.50 C458.18,485.89 460.94,485.79 462.42,487.28 ZM 102.00 604.56 C102.00,605.84 101.66,607.07 101.25,607.31 C99.57,608.26 98.00,606.66 98.00,604.01 C98.00,601.68 98.35,601.28 100.00,601.71 C101.28,602.04 102.00,603.07 102.00,604.56 ZM 240.00 545.06 C240.00,547.03 240.50,548.00 241.53,548.00 C243.65,548.00 244.38,545.58 243.03,543.05 C241.56,540.30 240.00,541.34 240.00,545.06 ZM 335.63 592.48 C336.05,593.59 336.67,593.71 338.04,592.98 C340.92,591.44 341.02,590.56 338.47,589.36 C335.89,588.14 334.53,589.62 335.63,592.48 ZM 339.17 582.83 C339.26,583.75 339.52,582.75 339.74,580.60 C340.01,577.99 339.63,576.20 338.59,575.16 C336.21,572.78 335.33,574.77 337.27,578.15 C338.22,579.80 339.08,581.91 339.17,582.83 ZM 566.88 590.75 C567.05,592.52 568.95,592.30 569.67,590.42 C570.54,588.15 567.40,585.20 565.81,586.79 C564.87,587.73 564.87,588.00 565.80,588.00 C566.46,588.00 566.95,588.34 566.88,588.75 C566.82,589.16 566.82,590.06 566.88,590.75 ZM 340.00 559.46 C340.00,561.33 340.53,562.00 342.00,562.00 C343.10,562.00 344.00,561.34 344.00,560.54 C344.00,559.73 343.10,558.59 342.00,558.00 C340.24,557.06 340.00,557.24 340.00,559.46 ZM 96.45 676.91 C96.82,677.51 97.51,678.00 98.00,678.00 C99.54,678.00 100.27,675.87 99.11,674.71 C97.73,673.33 95.42,675.25 96.45,676.91 ZM 959.51 631.01 C960.44,632.52 962.00,631.18 962.00,628.87 C962.00,627.04 961.85,627.00 960.44,628.42 C959.58,629.28 959.16,630.45 959.51,631.01 ZM 224.00 595.50 C224.00,596.33 224.68,597.00 225.50,597.00 C226.32,597.00 227.00,596.33 227.00,595.50 C227.00,594.67 226.32,594.00 225.50,594.00 C224.68,594.00 224.00,594.67 224.00,595.50 ZM 158.00 537.30 C158.00,540.31 157.25,540.82 156.34,538.43 C156.01,537.57 156.24,536.36 156.87,535.73 C157.71,534.89 158.00,535.29 158.00,537.30 ZM 341.64 582.50 C341.95,583.33 342.62,584.00 343.11,584.00 C343.60,584.00 344.00,583.33 344.00,582.50 C344.00,581.67 343.34,581.00 342.53,581.00 C341.64,581.00 341.29,581.59 341.64,582.50 ZM 60.70 639.33 C61.02,639.84 61.71,639.49 62.23,638.55 C62.75,637.62 62.89,636.56 62.54,636.20 C61.66,635.32 59.99,638.17 60.70,639.33 ZM 570.00 573.50 C570.00,574.33 570.45,575.00 571.00,575.00 C571.55,575.00 572.00,574.33 572.00,573.50 C572.00,572.67 571.55,572.00 571.00,572.00 C570.45,572.00 570.00,572.67 570.00,573.50 ZM 188.00 591.00 C188.00,591.55 188.68,592.00 189.50,592.00 C190.32,592.00 191.00,591.55 191.00,591.00 C191.00,590.45 190.32,590.00 189.50,590.00 C188.68,590.00 188.00,590.45 188.00,591.00 ZM 575.46 589.07 C574.52,590.59 573.01,590.13 573.64,588.51 C573.95,587.68 574.62,587.27 575.12,587.57 C575.62,587.88 575.77,588.56 575.46,589.07 ZM 943.58 678.13 C944.21,679.15 944.45,679.15 944.79,678.14 C945.27,676.69 944.29,675.37 943.40,676.27 C943.07,676.60 943.15,677.44 943.58,678.13 ZM 913.00 587.00 C913.00,587.55 912.55,588.00 912.00,588.00 C911.45,588.00 911.00,587.55 911.00,587.00 C911.00,586.45 911.45,586.00 912.00,586.00 C912.55,586.00 913.00,586.45 913.00,587.00 ZM 605.15 515.05 C604.93,515.71 605.29,516.07 605.95,515.85 C607.24,515.42 607.47,514.05 606.28,513.92 C605.88,513.88 605.37,514.39 605.15,515.05 Z" fill="rgb(202,36,30)"/>
<path d="M 704.53 282.50 C700.94,275.46 698.93,275.00 672.00,275.02 C659.08,275.02 649.00,275.36 649.61,275.77 C650.22,276.17 650.57,277.40 650.39,278.50 C649.79,282.17 651.00,283.70 657.04,286.86 C662.95,289.96 668.70,290.89 670.55,289.06 C672.43,287.20 677.47,287.23 680.62,289.13 C684.22,291.29 686.73,291.58 693.06,290.56 C696.64,289.99 697.90,290.17 698.93,291.42 C699.65,292.29 700.86,293.00 701.62,293.00 C702.38,293.00 703.03,293.79 703.07,294.75 C703.13,296.25 703.27,296.21 704.00,294.50 C704.59,293.13 704.94,295.19 705.12,301.00 L 705.37 309.50 L 705.97 298.00 C706.05,296.55 706.11,295.28 706.15,294.15 C706.59,306.67 706.72,333.68 707.00,395.00 L 707.50 504.22 C706.09,503.05 705.97,493.43 705.76,407.18 C705.64,357.86 705.55,335.85 705.39,335.85 C705.29,335.85 705.17,344.50 705.00,360.50 C704.71,388.00 704.28,407.35 704.06,403.50 C703.68,397.25 703.60,397.01 703.26,401.25 C703.06,403.86 702.50,406.00 702.02,406.00 C700.07,406.00 699.12,413.37 699.12,428.50 C699.12,441.81 698.76,445.76 696.99,452.00 C695.82,456.12 694.64,461.08 694.37,463.00 C694.10,464.92 693.49,467.40 693.02,468.50 C692.55,469.60 691.93,472.18 691.64,474.24 C691.25,477.11 691.55,478.27 692.94,479.25 C695.45,481.01 694.65,490.58 691.87,492.07 C689.21,493.49 689.56,495.88 692.59,497.03 C694.97,497.94 695.12,498.35 694.53,502.26 C694.17,504.59 693.40,507.75 692.81,509.28 C691.93,511.55 692.06,512.41 693.52,514.03 C694.51,515.11 694.95,516.00 694.50,516.00 C694.05,516.00 694.50,516.90 695.50,518.00 C697.25,519.93 697.25,520.00 695.40,520.02 C693.81,520.03 693.74,520.19 695.00,521.00 C696.20,521.77 696.00,522.00 694.00,522.10 C688.41,522.40 697.56,523.76 706.00,523.89 C711.31,523.97 716.74,524.34 722.17,524.97 C717.09,524.61 711.16,524.53 703.00,524.56 C693.97,524.58 688.34,524.69 683.84,525.05 C686.22,524.65 688.00,524.22 688.00,523.90 C688.00,522.41 677.48,522.40 674.24,523.88 C672.45,524.70 671.41,525.64 671.93,525.96 C672.35,526.22 674.37,526.16 676.84,525.95 C675.52,526.18 674.19,526.45 672.76,526.77 C643.24,533.31 617.88,546.07 597.46,564.44 C601.13,560.59 602.70,558.38 602.38,557.56 C602.04,556.67 602.31,556.00 603.00,556.00 C603.67,556.00 603.97,555.37 603.68,554.61 C603.39,553.85 604.13,552.17 605.32,550.88 C606.52,549.59 607.39,548.19 607.25,547.77 C607.11,547.35 607.34,547.05 607.75,547.12 C609.80,547.44 612.06,546.91 611.63,546.21 C611.36,545.77 612.06,545.35 613.19,545.26 C615.17,545.11 615.16,545.20 612.87,547.71 C611.57,549.15 611.17,549.99 612.00,549.58 C613.75,548.72 609.64,552.51 605.41,555.68 C602.77,557.65 602.71,557.80 604.83,557.29 C606.12,556.98 607.40,556.11 607.69,555.36 C607.98,554.61 608.58,554.00 609.04,554.00 C610.13,554.00 626.41,543.71 626.83,542.75 C627.02,542.34 627.98,542.00 628.98,542.00 C631.15,542.00 632.41,539.35 630.71,538.37 C630.04,537.99 629.83,538.04 630.23,538.49 C630.64,538.94 629.80,539.91 628.37,540.65 C625.74,542.02 622.14,542.53 623.30,541.37 C623.65,541.02 623.49,539.92 622.96,538.93 C622.33,537.74 622.34,536.91 623.01,536.49 C623.57,536.15 623.79,535.47 623.50,535.00 C623.21,534.53 623.42,533.86 623.98,533.51 C625.54,532.55 625.19,526.05 623.50,524.36 C621.44,522.30 621.44,511.41 623.50,509.36 C625.92,506.94 625.25,505.24 621.37,503.96 C616.53,502.36 610.00,504.13 610.00,507.04 C610.00,510.98 606.37,508.90 599.20,500.85 L 596.90 498.26 L 599.70 498.72 C605.79,499.70 607.28,499.52 607.55,497.75 C607.70,496.78 607.47,496.21 607.04,496.47 C606.61,496.74 605.22,496.06 603.94,494.95 C601.44,492.78 597.28,491.38 596.29,492.37 C595.96,492.71 596.54,493.97 597.59,495.17 C598.64,496.36 598.89,496.98 598.14,496.54 C597.32,496.06 596.45,496.27 595.96,497.07 C595.57,497.70 595.86,498.75 596.79,500.12 C594.44,498.34 589.86,497.57 575.95,497.24 C589.17,497.07 595.25,496.80 595.39,496.42 C595.44,496.30 595.53,496.20 595.62,496.10 C595.72,495.99 595.81,495.90 595.80,495.81 C595.73,495.14 589.48,495.13 533.30,495.10 C527.02,495.09 520.11,495.09 512.52,495.08 C450.20,495.04 432.28,495.30 431.31,496.26 C430.80,496.77 435.05,497.09 448.45,497.27 C433.35,497.65 429.92,498.55 427.66,500.70 C427.00,501.33 426.43,502.07 425.70,502.94 C423.66,505.37 422.82,508.40 423.02,511.45 C422.58,508.97 422.54,506.78 423.17,506.40 C423.64,506.10 423.80,505.49 423.52,505.04 C423.24,504.58 423.75,503.93 424.65,503.58 C425.55,503.24 426.00,502.67 425.65,502.32 C425.30,501.97 425.57,500.97 426.24,500.09 C427.03,499.07 426.68,499.17 425.27,500.37 C424.06,501.40 422.59,503.70 422.01,505.48 C421.13,508.12 420.52,508.63 418.61,508.27 C415.93,507.75 414.19,510.65 416.11,512.42 C416.98,513.21 417.11,513.17 416.59,512.26 C416.13,511.43 416.41,511.22 417.45,511.62 C419.28,512.32 419.58,515.15 417.75,514.48 C417.06,514.23 415.83,515.46 415.00,517.21 C413.33,520.74 405.92,525.27 405.23,523.19 C405.01,522.53 404.42,522.24 403.91,522.55 C403.41,522.86 403.00,521.96 403.00,520.53 C403.00,518.70 402.28,517.68 400.50,517.00 C398.58,516.27 398.00,515.33 398.00,512.97 C398.00,511.27 398.42,510.14 398.93,510.46 C400.20,511.24 401.28,507.46 400.50,504.99 C400.14,503.88 399.44,503.23 398.92,503.55 C398.41,503.87 397.72,503.42 397.39,502.56 C397.06,501.70 396.27,501.00 395.64,500.99 C395.01,500.99 393.50,499.14 392.27,496.88 C390.57,493.74 390.29,492.33 391.07,490.86 C391.64,489.81 392.53,489.21 393.05,489.53 C395.41,490.99 393.68,486.91 390.97,484.63 C387.69,481.87 384.93,482.03 385.70,484.95 C386.50,488.03 384.57,488.03 379.93,484.95 C376.23,482.49 374.48,482.01 369.31,482.00 C365.90,482.00 362.90,482.35 362.64,482.77 C362.38,483.19 363.91,483.37 366.05,483.17 C368.59,482.92 372.34,483.72 376.92,485.47 C384.72,488.45 388.70,492.19 392.47,500.17 C391.14,497.55 389.24,494.96 386.72,492.30 C380.69,485.92 375.01,483.74 365.54,484.16 C361.94,484.32 359.00,484.75 359.00,485.11 C359.00,485.46 357.68,486.31 356.06,486.97 C351.28,488.95 345.18,495.91 342.91,501.95 C341.45,505.86 341.03,509.98 341.63,514.12 C341.41,513.51 341.10,512.95 340.76,512.58 C339.73,511.48 339.26,511.53 338.01,512.88 C337.18,513.77 334.85,515.34 332.84,516.36 C330.82,517.38 328.96,519.04 328.70,520.05 C328.33,521.45 327.28,521.86 324.23,521.82 C322.04,521.79 319.85,521.48 319.37,521.13 C317.79,519.98 312.00,508.05 312.00,505.94 C312.00,504.80 312.48,502.97 313.07,501.87 C313.80,500.51 313.81,499.48 313.12,498.64 C311.45,496.63 308.73,462.71 309.00,447.33 C309.03,445.31 308.18,443.22 306.65,441.57 C304.28,439.01 304.23,438.58 303.38,411.24 C302.91,395.98 302.60,381.48 302.70,379.00 C302.97,371.75 302.95,368.57 302.45,347.50 C302.19,336.50 301.82,326.60 301.62,325.50 C301.62,325.49 301.62,325.49 301.62,325.49 C301.55,325.49 301.48,338.47 301.41,360.84 L 301.47 312.86 C301.51,315.17 301.60,314.23 301.72,309.75 C301.91,302.40 302.47,297.00 303.03,297.00 C303.56,297.00 304.02,296.44 304.04,295.75 C304.17,292.03 316.75,288.03 328.34,288.01 C331.65,288.00 333.98,287.37 335.71,286.01 C338.50,283.82 342.19,284.13 345.28,286.82 C348.74,289.83 355.44,285.03 356.19,279.00 C356.36,277.62 356.95,276.17 357.50,275.77 C358.05,275.36 348.10,275.02 335.40,275.02 C316.69,275.00 313.03,275.05 310.46,276.35 C312.86,275.11 315.75,275.00 327.40,274.99 C335.70,274.99 346.21,274.70 350.75,274.35 L 359.00 273.70 L 359.00 235.00 L 333.89 235.00 C314.24,235.00 307.46,235.34 302.64,236.58 C283.24,241.59 266.65,259.00 262.47,278.74 C261.65,282.62 261.14,353.92 260.94,441.95 C260.81,342.75 260.48,287.75 260.00,287.00 C259.37,286.02 259.02,313.12 259.00,364.50 C258.98,415.88 258.63,442.98 258.00,442.00 C257.26,440.86 257.03,441.25 257.02,443.64 C257.01,445.50 256.39,447.02 255.50,447.36 C253.70,448.05 253.44,455.09 255.10,458.19 C255.90,459.68 255.90,460.06 255.10,459.56 C253.85,458.79 253.72,460.33 254.64,464.96 C255.09,467.21 255.53,467.77 256.13,466.83 C256.77,465.81 256.97,465.91 256.98,467.25 C256.99,468.21 256.60,469.00 256.11,469.00 C255.61,469.00 254.99,470.69 254.72,472.75 C254.44,474.81 253.68,479.59 253.02,483.36 C252.35,487.13 252.09,491.41 252.43,492.86 C253.19,496.13 253.10,511.03 252.31,512.32 C251.99,512.83 251.31,512.52 250.81,511.63 C249.70,509.65 247.00,509.47 247.00,511.37 C247.00,512.13 246.06,514.87 244.91,517.46 C243.06,521.65 242.55,522.10 240.35,521.55 C238.51,521.09 237.39,521.51 235.97,523.22 C233.61,526.05 233.51,527.92 235.64,529.48 C236.91,530.41 237.30,532.53 237.39,538.99 C237.50,547.23 237.48,547.32 234.50,548.98 C231.18,550.83 230.40,554.12 229.37,570.69 C229.08,575.21 228.32,579.32 227.66,579.87 C227.00,580.42 224.44,581.01 221.98,581.18 C218.46,581.43 217.29,581.98 216.51,583.75 C214.98,587.24 213.49,586.44 211.88,581.25 L 210.40 576.50 L 204.58 575.77 C197.26,574.85 196.00,573.80 196.00,568.58 C196.00,561.89 191.34,559.42 188.80,564.75 C187.70,567.05 186.75,567.55 183.01,567.82 C176.56,568.28 176.00,569.09 176.00,577.94 C176.00,584.97 175.78,585.83 173.41,587.89 C171.25,589.77 170.36,589.97 167.98,589.14 C165.43,588.25 164.89,588.48 162.70,591.31 C160.55,594.10 160.07,594.30 158.59,593.07 C157.40,592.09 157.09,590.85 157.54,588.84 C158.27,585.51 157.41,585.34 149.39,587.20 L 144.22 588.40 L 142.94 593.75 C142.24,596.69 141.29,599.32 140.83,599.61 C139.61,600.36 139.82,609.30 141.18,614.40 L 142.37 618.83 L 137.09 623.91 C134.19,626.71 131.42,629.00 130.94,629.00 C129.36,629.00 128.00,625.20 128.00,620.77 C128.00,615.76 126.70,614.00 123.00,614.00 C119.16,614.00 118.00,612.21 118.00,606.30 C118.00,601.86 118.29,601.00 119.80,601.00 C122.69,601.00 124.00,598.91 124.00,594.30 C124.00,590.87 123.65,590.00 122.24,590.00 C120.56,590.00 118.00,595.71 118.00,599.48 C118.00,600.55 116.96,601.00 114.50,601.00 C111.29,601.00 111.00,601.25 111.00,603.94 C111.00,607.80 112.75,608.82 113.28,605.27 C113.51,603.75 113.77,605.03 113.85,608.13 C113.95,612.06 113.55,614.13 112.50,615.00 C111.50,615.83 111.00,618.08 111.00,621.74 C111.00,626.78 110.86,627.13 109.31,625.87 C107.84,624.67 107.71,624.72 108.28,626.25 C108.64,627.21 108.50,628.00 107.97,628.00 C107.44,628.00 107.00,630.62 107.00,633.83 C107.00,637.04 106.69,639.98 106.30,640.37 C105.21,641.46 106.01,650.36 107.32,651.71 C109.03,653.47 108.25,664.00 106.41,664.00 C105.41,664.00 104.97,662.61 104.88,659.25 C104.82,656.64 104.83,654.13 104.91,653.68 C104.99,653.22 104.59,653.14 104.02,653.48 C103.46,653.83 103.00,653.61 103.00,652.99 C103.00,652.35 102.30,652.56 101.38,653.48 C99.92,654.94 99.60,654.95 98.05,653.55 C97.11,652.70 95.59,652.00 94.67,652.00 C93.62,652.00 92.98,651.16 92.94,649.75 C92.87,647.51 92.87,647.51 91.92,649.90 C90.52,653.39 90.01,652.18 89.21,643.38 L 88.50 635.50 L 83.50 635.30 C80.75,635.19 75.80,634.74 72.50,634.30 L 66.50 633.50 L 66.78 629.00 C67.16,622.88 68.96,616.28 70.62,614.90 C72.16,613.62 72.51,609.00 71.07,609.00 C69.39,609.00 67.00,605.89 66.98,603.68 C66.96,599.59 65.57,598.58 62.63,600.51 C60.35,602.00 59.98,602.98 59.84,607.86 L 59.67 613.50 L 58.33 602.50 L 58.15 607.00 C57.94,612.25 57.24,613.62 54.50,614.16 C48.16,615.41 44.87,600.77 49.79,593.21 C51.01,591.34 51.06,590.43 50.07,588.26 C49.19,586.32 48.64,585.96 48.06,586.91 C46.78,588.98 45.69,586.35 46.52,583.19 C47.18,580.68 47.29,580.63 48.14,582.50 C48.89,584.16 48.94,584.08 48.45,582.00 C48.12,580.62 47.88,579.05 47.92,578.50 C48.18,574.34 48.90,572.45 50.33,572.18 C51.64,571.92 52.00,572.63 52.00,575.43 C52.00,580.64 53.73,579.80 54.17,574.38 C54.41,571.30 54.11,569.60 53.27,569.27 C52.57,569.00 52.23,567.85 52.50,566.65 C52.77,565.47 52.34,563.67 51.56,562.65 C50.24,560.94 49.88,560.91 47.13,562.29 C43.61,564.04 43.50,563.89 42.48,555.66 C42.09,552.55 41.32,550.00 40.77,550.00 C40.14,550.00 40.02,547.96 40.46,544.50 C40.89,541.00 40.78,539.00 40.13,539.00 C39.57,539.00 38.94,537.09 38.73,534.75 C38.38,530.89 38.33,531.00 38.18,536.00 C38.12,538.00 38.17,540.60 38.33,543.63 C36.89,522.11 36.72,500.64 38.01,482.50 C39.14,466.49 41.91,439.87 42.63,438.00 C42.95,437.17 43.57,434.02 44.02,431.00 C45.37,421.82 45.84,419.23 48.00,409.17 C67.86,316.51 113.98,231.96 181.47,164.46 C314.35,31.57 507.49,-8.85 679.50,60.24 C770.46,96.78 845.93,159.38 901.43,244.30 C905.45,250.46 909.82,257.37 911.12,259.66 C912.43,261.94 916.30,268.70 919.71,274.68 C945.84,320.37 965.55,378.27 974.99,437.07 C977.21,450.85 977.19,450.70 979.39,479.50 C981.14,502.45 980.50,540.03 978.43,560.97 C978.57,557.74 978.41,554.70 978.01,553.69 C977.14,551.54 977.12,551.55 976.99,554.00 C976.70,559.49 976.05,562.35 974.92,563.05 C974.02,563.61 974.07,564.53 975.11,566.89 C975.87,568.60 976.76,570.00 977.10,570.00 C977.17,570.00 977.25,569.87 977.33,569.62 C977.06,571.23 976.77,572.59 976.47,573.65 C975.66,576.49 975.00,580.76 974.99,583.15 C974.99,584.42 974.75,586.97 974.36,589.98 C974.75,585.15 974.12,582.44 972.90,585.57 C972.21,587.34 972.13,587.35 972.07,585.69 C972.03,584.70 971.55,584.16 971.00,584.50 C970.45,584.84 969.98,584.53 969.96,583.81 C969.94,583.09 968.79,581.15 967.41,579.50 C965.36,577.06 964.94,576.87 965.19,578.50 C965.45,580.20 964.85,580.55 961.18,580.81 C956.60,581.14 953.56,579.58 954.42,577.34 C954.72,576.56 954.22,575.95 953.22,575.88 C951.79,575.79 951.77,575.70 953.07,575.35 C954.17,575.05 954.52,574.07 954.22,572.07 C953.99,570.50 954.56,567.63 955.47,565.70 C957.23,562.00 957.22,555.89 955.46,555.31 C954.89,555.13 953.57,555.59 952.54,556.35 C951.01,557.47 950.65,559.10 950.58,565.26 C950.54,569.40 950.16,572.59 949.75,572.34 C949.34,572.09 949.00,568.76 949.00,564.94 C949.00,560.95 948.57,558.00 947.99,558.00 C947.09,558.00 947.50,570.28 948.51,573.64 C948.70,574.27 947.65,575.02 946.18,575.32 C944.67,575.63 943.06,576.87 942.50,578.18 C941.66,580.13 940.64,580.55 936.09,580.81 C933.11,580.98 929.75,581.76 928.61,582.56 C925.97,584.41 923.57,584.39 922.00,582.50 C918.98,578.86 913.27,582.12 914.49,586.79 C914.87,588.28 915.41,591.57 915.68,594.11 C916.08,597.83 915.84,598.85 914.46,599.38 C911.47,600.53 909.89,598.09 910.06,592.59 C910.28,585.45 908.95,581.77 906.00,581.32 C903.43,580.92 901.78,579.16 902.40,577.46 C902.60,576.89 901.95,576.43 900.94,576.43 C899.88,576.43 898.87,577.37 898.55,578.66 C898.10,580.45 897.17,580.95 893.82,581.19 C890.37,581.45 889.36,582.02 888.00,584.50 C886.51,587.21 885.80,587.53 880.74,587.80 L 875.13 588.10 L 874.82 584.80 L 874.50 581.50 L 861.64 581.22 L 848.79 580.94 L 849.18 577.62 C849.50,574.83 849.28,574.38 847.78,574.77 C844.59,575.60 843.00,573.14 843.00,567.38 C843.00,562.87 843.29,562.00 844.80,562.00 C847.26,562.00 849.00,560.06 849.00,557.30 C849.00,555.75 848.41,555.00 847.20,555.00 C844.74,555.00 843.00,556.94 843.00,559.70 C843.00,561.43 842.43,562.00 840.70,562.00 C837.81,562.00 836.00,563.76 836.00,566.58 C836.00,567.78 835.34,569.31 834.53,569.98 C833.32,570.98 832.45,570.56 829.66,567.60 C827.79,565.62 825.45,564.00 824.45,564.00 C823.45,564.00 819.68,560.87 816.07,557.05 C811.70,552.43 808.60,549.98 806.81,549.75 C804.23,549.43 800.00,545.32 800.00,543.15 C800.00,542.58 800.97,541.43 802.16,540.60 C803.96,539.34 804.11,538.84 803.04,537.54 C801.26,535.41 799.33,535.61 798.71,538.00 C798.42,539.10 798.59,539.75 799.09,539.44 C799.59,539.13 800.00,539.58 800.00,540.44 C800.00,541.30 799.59,542.00 799.08,542.00 C797.09,542.00 795.00,540.72 795.00,539.50 C795.00,537.85 792.75,536.99 790.19,537.66 C788.79,538.03 787.34,537.24 785.43,535.09 C783.33,532.74 781.82,532.00 779.14,532.00 C775.98,532.00 775.80,532.14 777.42,533.32 C779.09,534.54 779.10,534.76 777.58,536.28 C774.74,539.12 772.15,536.75 774.32,533.29 C774.83,532.46 773.89,532.57 771.40,533.61 C767.31,535.32 763.53,534.83 762.63,532.48 C762.20,531.37 762.88,530.77 765.07,530.34 C767.15,529.92 767.99,529.23 767.77,528.12 C767.46,526.57 765.51,526.31 760.61,527.17 C757.84,527.65 757.49,525.30 760.19,524.44 C761.46,524.04 763.09,522.88 763.81,521.86 C764.65,520.66 766.34,520.00 768.56,520.00 C772.23,520.00 772.90,519.00 770.54,517.03 C769.65,516.29 767.90,516.08 766.04,516.49 C762.51,517.27 760.90,514.99 762.81,511.93 C763.68,510.54 763.60,509.46 762.48,507.31 C761.67,505.76 761.01,503.69 761.01,502.69 C761.00,501.70 760.61,501.12 760.13,501.42 C759.16,502.02 756.00,491.74 756.00,488.01 C756.00,486.72 755.30,484.89 754.45,483.95 C751.86,481.08 751.11,471.15 750.43,431.00 C749.71,387.88 749.70,371.14 750.42,353.28 C750.71,346.04 750.52,340.82 749.95,340.47 C749.42,340.14 748.94,332.73 748.86,323.69 C748.75,310.73 748.57,308.80 747.96,314.00 C747.54,317.58 747.14,362.79 747.07,414.48 C747.04,434.62 746.97,453.38 746.86,468.79 C746.95,449.02 747.01,423.53 747.02,395.86 C747.05,297.55 746.86,282.75 745.51,277.50 C740.36,257.56 724.90,241.52 705.99,236.49 C698.60,234.52 649.41,234.32 648.86,236.25 C648.66,236.94 648.50,245.60 648.50,255.50 L 648.50 273.50 L 671.50 274.00 C697.43,274.56 700.61,275.33 704.47,282.00 C704.83,282.62 705.13,283.19 705.38,284.34 C705.15,283.75 704.87,283.16 704.53,282.50 ZM 422.78 315.26 C425.93,314.94 430.30,314.78 432.50,314.91 C434.70,315.05 438.75,315.12 441.50,315.08 C444.25,315.03 449.20,315.02 452.50,315.05 C455.80,315.07 465.25,315.09 473.50,315.07 C481.75,315.06 490.41,315.06 492.75,315.07 C545.33,315.29 608.78,314.23 612.09,313.06 C614.41,312.24 617.01,309.82 620.25,305.46 C622.86,301.94 625.00,298.62 625.00,298.08 C625.00,297.54 625.63,296.74 626.40,296.30 C627.20,295.84 628.06,293.16 628.39,290.07 C628.71,287.08 628.61,285.05 628.18,285.57 C627.75,286.08 626.23,288.09 624.82,290.03 C623.61,291.67 620.86,294.02 618.26,295.70 C622.04,293.22 625.30,289.81 627.21,286.14 L 630.00 280.77 L 630.00 217.39 L 627.45 212.28 C624.71,206.77 619.83,202.42 614.09,200.37 C611.72,199.52 604.68,199.07 593.39,199.04 C583.98,199.02 574.25,198.72 571.77,198.38 L 567.27 197.77 L 566.71 191.07 C564.55,165.27 542.91,140.84 517.50,135.50 C496.77,131.15 475.49,137.48 460.69,152.41 C449.54,163.64 444.33,173.83 441.88,189.15 C441.23,193.19 440.26,197.06 439.73,197.75 C439.01,198.68 433.43,199.00 418.13,199.01 C398.53,199.02 397.25,199.14 392.50,201.38 C386.37,204.28 382.82,207.95 379.80,214.50 C377.56,219.36 377.50,220.32 377.50,249.00 C377.50,277.96 377.54,278.60 379.89,283.79 C381.71,287.82 385.04,291.76 388.81,294.63 C385.20,292.26 382.10,289.54 382.05,288.25 C382.02,287.56 381.52,287.00 380.94,287.00 C380.36,287.00 380.16,286.55 380.50,286.00 C380.84,285.45 380.64,285.00 380.06,285.00 C378.34,285.00 378.83,286.65 381.50,289.82 C384.15,292.97 384.76,294.59 382.85,293.40 C382.09,292.94 381.96,293.13 382.47,293.96 C382.91,294.66 382.76,295.53 382.14,295.91 C378.68,298.05 387.92,310.27 394.00,311.60 C395.38,311.89 397.53,312.56 398.80,313.07 C400.06,313.58 403.55,314.00 406.55,314.00 C409.72,314.00 412.00,314.44 412.00,315.06 C412.00,315.64 412.42,315.86 412.93,315.54 C413.44,315.23 414.15,315.43 414.50,316.00 C414.85,316.57 415.57,316.76 416.10,316.44 C416.63,316.11 419.64,315.58 422.78,315.26 ZM 466.92 444.84 C474.62,444.84 481.34,445.09 481.85,445.40 C482.35,445.72 487.82,445.47 494.01,444.87 C502.68,444.02 506.11,444.05 508.97,444.99 C511.99,445.99 513.23,445.96 515.59,444.84 C518.73,443.35 551.69,443.02 573.50,444.25 C580.23,444.63 583.12,444.82 586.02,444.85 C588.50,444.89 590.98,444.82 595.86,444.67 L 595.87 444.67 C596.53,444.66 597.24,444.63 598.00,444.61 C603.78,444.45 610.86,443.95 613.75,443.52 C616.74,443.06 619.00,443.10 619.00,443.61 C619.00,444.10 622.04,444.48 625.75,444.46 C632.70,444.42 637.82,442.68 641.73,439.04 C644.89,436.09 648.21,430.15 647.42,428.86 C646.96,428.13 647.12,427.96 647.85,428.40 C648.48,428.80 649.00,428.61 649.00,428.00 C649.00,427.39 649.35,427.10 649.79,427.37 C650.22,427.63 650.57,427.02 650.57,426.00 C650.57,424.98 650.22,424.36 649.80,424.62 C649.37,424.89 649.30,423.12 649.63,420.69 C650.08,417.40 649.79,415.61 648.48,413.61 L 646.72 410.93 L 645.28 413.30 C647.14,409.82 647.10,406.01 645.19,401.69 C644.53,400.21 644.30,399.03 643.70,398.06 C641.16,394.02 632.19,394.02 558.86,393.96 C551.65,393.96 543.83,393.95 535.33,393.94 C463.87,393.86 431.60,394.15 430.21,394.89 C429.11,395.47 427.04,397.35 425.61,399.05 C423.96,401.01 423.08,403.39 422.90,405.85 C422.49,402.58 421.00,403.93 420.87,408.75 C420.80,411.36 420.54,414.62 420.28,416.00 C420.02,417.38 419.68,421.65 419.51,425.49 L 419.21 432.49 L 423.33 435.99 C425.60,437.92 428.33,440.37 429.41,441.43 C432.84,444.82 437.89,446.06 445.70,445.42 C449.66,445.10 459.21,444.84 466.92,444.84 ZM 379.88 455.21 C381.29,453.92 383.03,453.18 383.90,453.52 C384.75,453.84 385.15,453.81 384.79,453.46 C384.44,453.10 385.69,451.46 387.57,449.80 C389.46,448.15 391.00,446.16 391.00,445.40 C391.00,444.63 391.89,443.11 392.98,442.02 C394.06,440.94 395.62,438.45 396.44,436.50 C398.24,432.17 398.71,416.20 397.12,413.23 C396.50,412.07 395.95,409.19 395.88,406.82 C395.76,402.73 395.71,402.81 394.90,408.40 C394.88,408.51 394.86,408.61 394.85,408.72 C395.06,406.22 394.61,403.89 393.50,399.46 C392.21,394.36 391.15,392.70 386.20,387.97 C379.88,381.93 375.29,379.99 367.38,380.02 C358.39,380.06 348.35,386.64 343.76,395.50 C341.75,399.39 341.10,405.43 341.81,410.89 C341.63,410.35 341.34,410.00 341.02,410.00 C339.70,410.00 338.66,414.44 339.25,417.52 C339.51,418.90 339.25,420.00 338.66,420.00 C337.95,420.00 337.97,420.37 338.72,421.12 C340.03,422.43 339.26,425.13 337.24,426.35 C335.64,427.31 336.32,431.54 338.46,434.00 C339.18,434.83 340.77,437.52 342.00,440.00 C344.43,444.90 347.77,449.00 349.35,449.00 C349.89,449.00 351.15,449.73 352.15,450.63 C353.14,451.53 356.32,453.06 359.23,454.02 C362.13,454.99 364.42,456.19 364.32,456.69 C364.22,457.19 367.12,457.57 370.76,457.55 C376.23,457.51 377.83,457.10 379.88,455.21 ZM 481.41 204.48 C480.41,200.52 482.64,196.78 488.14,193.17 C494.01,189.32 494.93,189.06 505.08,188.34 C512.52,187.81 512.70,187.86 515.14,190.76 C516.51,192.38 518.80,194.48 520.24,195.42 C522.73,197.05 522.90,197.05 523.79,195.32 C524.31,194.32 524.52,192.91 524.26,192.18 C523.99,191.44 524.71,190.63 525.89,190.32 L 527.50 189.90 C527.90,191.57 528.00,193.56 528.00,196.73 C528.00,200.82 527.37,205.57 526.57,207.48 C524.67,212.04 519.33,217.78 514.90,220.05 C510.66,222.21 502.55,223.27 499.00,222.11 C489.88,219.15 484.00,214.05 481.45,206.94 C481.79,207.15 481.85,206.24 481.41,204.48 ZM 930.67 608.33 C930.30,607.97 930.08,603.80 930.17,599.08 C930.27,594.36 930.52,592.41 930.73,594.75 C930.99,597.61 931.59,599.00 932.56,599.00 C933.60,599.00 934.00,597.77 934.00,594.61 C934.00,590.26 935.77,588.12 938.16,589.60 C938.89,590.05 938.80,605.87 938.06,608.75 C937.92,609.32 931.28,608.95 930.67,608.33 ZM 171.21 632.81 C169.50,631.10 169.64,620.54 171.40,619.08 C172.49,618.18 173.88,618.44 177.65,620.23 C183.03,622.78 183.77,624.82 180.00,626.67 C178.62,627.35 176.81,629.13 175.96,630.63 C174.12,633.87 172.86,634.46 171.21,632.81 ZM 903.94 573.57 C904.59,572.79 904.98,570.20 904.81,567.82 C904.53,563.96 904.21,563.47 901.80,563.19 C897.28,562.67 895.00,564.56 895.00,568.84 C895.00,570.91 895.54,573.14 896.20,573.80 C897.85,575.45 902.50,575.31 903.94,573.57 ZM 848.04 597.54 C847.34,596.71 846.26,596.32 845.64,596.68 C845.01,597.05 845.34,596.38 846.37,595.21 C848.55,592.72 847.91,590.00 845.14,590.00 C842.55,590.00 841.71,587.39 843.25,584.15 C844.82,580.88 849.00,579.90 849.00,582.81 C849.00,583.88 849.70,585.33 850.55,586.04 C851.67,586.97 852.01,588.81 851.80,592.83 C851.49,598.55 850.21,600.16 848.04,597.54 ZM 970.50 611.97 C971.35,607.26 971.60,604.14 971.10,603.28 C970.53,602.30 970.05,602.05 970.03,602.72 C969.97,605.15 967.10,602.75 966.38,599.67 C965.97,597.92 965.45,595.83 965.23,595.00 C963.92,590.19 963.93,586.94 965.26,585.05 C966.66,583.04 966.77,583.12 968.45,587.51 C969.41,590.02 969.94,592.71 969.64,593.50 C969.34,594.29 969.52,595.20 970.04,595.53 C970.57,595.85 971.00,597.22 971.00,598.56 C971.00,602.99 972.39,601.29 973.47,596.10 C973.34,596.91 973.21,597.71 973.07,598.50 C972.29,602.98 971.44,607.47 970.50,611.97 ZM 77.84 604.60 C79.30,601.62 78.90,598.61 76.65,595.54 C75.42,593.85 74.99,593.77 73.57,594.94 C72.29,596.01 72.06,597.33 72.54,600.90 C72.87,603.43 73.34,606.10 73.58,606.83 C74.21,608.82 76.32,607.72 77.84,604.60 ZM 756.40 447.03 C756.15,445.12 755.45,443.09 754.83,442.53 C754.03,441.80 753.92,441.88 754.44,442.79 C754.84,443.51 754.63,444.74 753.96,445.54 C753.11,446.57 753.09,447.00 753.88,447.00 C754.49,447.00 755.00,447.70 755.00,448.56 C755.00,449.42 754.61,449.88 754.14,449.58 C753.66,449.29 752.99,451.40 752.65,454.28 C751.64,462.61 751.80,464.29 753.50,463.64 C754.33,463.32 755.06,463.61 755.14,464.28 C755.21,464.95 755.62,462.12 756.06,458.00 C756.49,453.88 756.64,448.94 756.40,447.03 ZM 151.00 625.50 C148.98,623.07 151.52,621.00 156.50,621.00 C161.48,621.00 164.02,623.07 162.00,625.50 C161.25,626.40 159.06,627.00 156.50,627.00 C153.94,627.00 151.75,626.40 151.00,625.50 ZM 345.01 497.25 C345.02,495.80 354.03,487.00 355.50,487.00 C356.33,487.00 357.00,486.55 357.00,486.00 C357.00,484.42 355.04,484.83 352.32,486.96 C350.02,488.77 349.63,488.81 347.45,487.38 C346.15,486.53 344.62,486.12 344.04,486.47 C342.73,487.29 342.67,490.00 343.97,490.00 C344.50,490.00 344.65,490.75 344.30,491.66 C343.83,492.88 344.02,493.11 345.00,492.50 C345.86,491.97 345.75,492.53 344.67,494.06 C342.76,496.78 342.56,498.00 344.00,498.00 C344.55,498.00 345.00,497.66 345.01,497.25 ZM 756.75 426.30 C757.24,421.13 755.54,413.00 753.96,413.00 C752.96,413.00 752.73,415.34 752.94,423.00 C753.25,433.77 755.81,436.00 756.75,426.30 ZM 62.12 631.90 C60.27,630.40 59.43,630.23 58.35,631.13 L 58.24 631.21 C57.68,631.68 57.33,631.97 57.04,631.92 C56.53,631.84 56.19,630.78 55.22,627.93 C53.75,623.64 53.66,621.67 54.96,622.47 C55.48,622.80 55.68,623.68 55.39,624.43 C55.10,625.18 55.34,626.09 55.93,626.46 C56.52,626.82 57.00,626.39 57.00,625.50 C57.00,624.10 57.55,624.18 60.95,626.09 C65.27,628.52 66.04,629.64 65.11,632.17 C64.55,633.69 64.29,633.67 62.12,631.90 ZM 165.00 577.58 C165.00,576.80 166.20,575.29 167.66,574.23 C170.50,572.16 170.40,569.48 167.45,568.34 C165.15,567.46 163.34,569.85 162.61,574.75 C162.10,578.16 162.28,579.00 163.49,579.00 C164.32,579.00 165.00,578.36 165.00,577.58 ZM 41.50 463.50 C41.78,459.10 42.14,453.80 42.32,451.73 C42.50,449.65 42.32,448.30 41.92,448.73 C41.03,449.67 38.96,468.47 39.10,474.29 L 39.20 478.50 L 40.11 475.00 C40.60,473.08 41.23,467.90 41.50,463.50 ZM 929.88 562.00 C933.67,562.00 935.36,557.37 932.45,554.96 C930.28,553.16 928.40,555.35 927.72,560.50 C927.42,562.70 927.40,563.94 927.67,563.25 C927.95,562.56 928.94,562.00 929.88,562.00 ZM 168.21 606.76 C167.63,606.06 166.87,604.31 166.51,602.88 C166.01,600.90 166.29,600.10 167.65,599.58 C171.01,598.29 173.53,604.48 170.63,606.89 C169.60,607.74 169.00,607.71 168.21,606.76 ZM 666.18 527.22 C667.14,526.26 667.09,525.98 665.95,525.92 C665.15,525.88 663.73,525.70 662.78,525.52 C661.84,525.33 661.16,525.69 661.28,526.31 C661.42,527.01 660.24,527.32 658.17,527.13 C655.13,526.86 654.93,527.00 655.90,528.82 C656.87,530.62 657.33,530.69 660.96,529.62 C663.16,528.97 665.51,527.89 666.18,527.22 ZM 786.82 544.51 C786.03,542.78 785.03,542.02 783.92,542.31 C781.35,542.98 779.59,541.59 781.26,540.20 C782.26,539.37 783.32,539.45 785.42,540.54 C786.96,541.34 788.79,542.00 789.48,542.00 C791.09,542.00 790.90,546.20 789.26,546.75 C788.58,546.97 787.49,545.97 786.82,544.51 ZM 112.00 638.50 C111.01,637.30 111.01,636.70 112.00,635.50 C113.80,633.33 118.00,633.54 118.00,635.80 C118.00,639.52 114.25,641.21 112.00,638.50 ZM 841.51 598.98 C842.00,598.18 840.37,594.33 838.98,593.00 C837.38,591.47 835.10,587.00 835.92,587.00 C836.45,587.00 837.67,588.33 838.63,589.95 C839.58,591.57 840.80,592.62 841.34,592.29 C841.87,591.96 841.99,592.21 841.60,592.85 C841.20,593.48 841.29,594.00 841.78,594.00 C842.48,594.00 845.00,598.17 845.00,599.33 C845.00,599.47 844.09,599.64 842.98,599.73 C841.87,599.81 841.21,599.47 841.51,598.98 ZM 828.58 578.35 C828.34,577.71 828.75,576.36 829.49,575.35 C830.78,573.57 830.94,573.60 833.39,575.90 C834.79,577.21 835.71,578.66 835.44,579.10 C834.69,580.30 829.10,579.69 828.58,578.35 ZM 798.58 553.54 L 795.65 551.15 L 799.08 550.25 C802.09,549.45 802.57,549.59 803.06,551.42 C803.38,552.57 803.26,553.65 802.81,553.84 C802.36,554.02 802.24,554.58 802.55,555.09 C803.59,556.76 801.54,555.96 798.58,553.54 ZM 174.95 540.56 C176.23,539.02 174.82,535.00 173.00,535.00 C171.18,535.00 169.77,539.02 171.05,540.56 C171.71,541.35 172.58,542.00 173.00,542.00 C173.42,542.00 174.29,541.35 174.95,540.56 ZM 353.57 593.11 C352.82,591.90 354.92,590.31 358.40,589.43 C360.35,588.95 361.08,589.06 360.64,589.77 C360.28,590.35 360.55,591.04 361.24,591.30 C361.95,591.56 361.27,592.25 359.68,592.88 C356.29,594.23 354.31,594.31 353.57,593.11 ZM 870.00 592.50 C868.44,590.62 870.26,588.00 873.12,588.00 C875.26,588.00 875.67,590.93 873.80,592.80 C872.23,594.37 871.51,594.31 870.00,592.50 ZM 636.81 528.25 C636.60,525.72 636.01,524.50 635.00,524.50 C633.99,524.50 633.40,525.72 633.19,528.25 C632.92,531.50 633.16,532.00 635.00,532.00 C636.84,532.00 637.08,531.50 636.81,528.25 ZM 638.23 537.63 C638.98,536.88 640.62,535.94 641.87,535.54 C643.13,535.14 643.95,534.62 643.71,534.38 C643.47,534.14 642.11,534.39 640.67,534.93 C638.94,535.59 637.86,535.59 637.45,534.91 C637.03,534.24 636.41,534.25 635.57,534.94 C634.88,535.51 634.11,535.78 633.87,535.53 C633.62,535.29 633.35,535.97 633.27,537.04 C633.10,539.36 636.13,539.72 638.23,537.63 ZM 483.38 489.02 C484.39,488.01 484.10,487.93 478.50,487.58 C477.40,487.51 475.60,487.90 474.50,488.44 C472.66,489.34 472.74,489.47 475.50,490.04 C479.11,490.78 481.99,490.41 483.38,489.02 ZM 462.42 487.28 C460.94,485.79 458.18,485.89 456.37,487.50 C454.67,489.00 459.98,490.99 462.15,489.66 C463.54,488.80 463.58,488.44 462.42,487.28 ZM 261.06 661.16 C261.32,731.32 261.80,783.77 262.50,786.75 C261.54,782.66 261.19,762.50 261.06,661.16 ZM 583.21 579.11 C580.54,582.25 577.99,585.51 575.55,588.89 C575.73,588.41 575.57,587.85 575.12,587.57 C574.62,587.27 573.95,587.68 573.64,588.51 C573.10,589.91 574.15,590.44 575.05,589.58 C571.09,595.14 567.43,601.01 564.10,607.20 C567.87,599.68 571.28,593.60 572.25,593.17 C572.66,592.98 572.99,592.08 572.98,591.17 C572.96,589.89 572.50,590.08 571.00,592.00 C569.92,593.38 569.03,594.11 569.02,593.64 C568.98,592.14 574.16,586.59 575.82,586.35 C576.70,586.22 578.97,584.18 580.86,581.81 C581.38,581.16 582.20,580.22 583.21,579.11 ZM 102.00 604.56 C102.00,603.07 101.28,602.04 100.00,601.71 C98.35,601.28 98.00,601.68 98.00,604.01 C98.00,606.66 99.57,608.26 101.25,607.31 C101.66,607.07 102.00,605.84 102.00,604.56 ZM 240.00 545.06 C240.00,541.34 241.56,540.30 243.03,543.05 C244.38,545.58 243.65,548.00 241.53,548.00 C240.50,548.00 240.00,547.03 240.00,545.06 ZM 335.63 592.48 C334.53,589.62 335.89,588.14 338.47,589.36 C341.02,590.56 340.92,591.44 338.04,592.98 C336.67,593.71 336.05,593.59 335.63,592.48 ZM 339.17 582.83 C339.08,581.91 338.22,579.80 337.27,578.15 C335.33,574.77 336.21,572.78 338.59,575.16 C339.63,576.20 340.01,577.99 339.74,580.60 C339.52,582.75 339.26,583.75 339.17,582.83 ZM 566.88 590.75 C566.82,590.06 566.82,589.16 566.88,588.75 C566.95,588.34 566.46,588.00 565.80,588.00 C564.87,588.00 564.87,587.73 565.81,586.79 C567.40,585.20 570.54,588.15 569.67,590.42 C568.95,592.30 567.05,592.52 566.88,590.75 ZM 340.00 559.46 C340.00,557.24 340.24,557.06 342.00,558.00 C343.10,558.59 344.00,559.73 344.00,560.54 C344.00,561.34 343.10,562.00 342.00,562.00 C340.53,562.00 340.00,561.33 340.00,559.46 ZM 301.16 670.43 C301.25,742.63 301.54,776.32 302.04,778.60 C301.80,777.97 301.62,777.34 301.51,776.72 C301.31,775.64 301.19,733.61 301.16,670.43 ZM 742.02 528.46 C752.51,530.93 762.42,534.33 770.78,538.43 C774.78,540.39 778.24,542.00 778.47,542.00 C779.49,542.00 785.91,546.12 792.71,550.89 C779.18,541.79 764.14,534.75 747.94,530.10 C745.81,529.49 743.85,528.94 742.02,528.46 ZM 96.45 676.91 C95.42,675.25 97.73,673.33 99.11,674.71 C100.27,675.87 99.54,678.00 98.00,678.00 C97.51,678.00 96.82,677.51 96.45,676.91 ZM 351.43 599.30 C352.70,598.25 353.96,597.43 355.13,596.95 C356.71,596.29 358.00,595.31 358.00,594.77 C358.00,594.23 358.67,594.05 359.50,594.36 C360.33,594.68 361.00,594.55 361.00,594.08 C361.00,593.20 365.63,593.39 370.45,594.12 C369.64,594.05 368.83,594.02 368.00,594.02 C361.53,594.02 355.84,595.94 351.43,599.30 ZM 959.51 631.01 C959.16,630.45 959.58,629.28 960.44,628.42 C961.85,627.00 962.00,627.04 962.00,628.87 C962.00,631.18 960.44,632.52 959.51,631.01 ZM 39.63 559.66 C41.20,574.83 43.81,593.12 46.52,606.50 C54.09,643.91 65.47,679.37 80.49,712.60 C64.45,677.21 52.58,639.37 45.13,599.50 C42.82,587.14 40.97,573.56 39.63,559.66 ZM 224.00 595.50 C224.00,594.67 224.68,594.00 225.50,594.00 C226.32,594.00 227.00,594.67 227.00,595.50 C227.00,596.33 226.32,597.00 225.50,597.00 C224.68,597.00 224.00,596.33 224.00,595.50 ZM 158.00 537.30 C158.00,535.29 157.71,534.89 156.87,535.73 C156.24,536.36 156.01,537.57 156.34,538.43 C157.25,540.82 158.00,540.31 158.00,537.30 ZM 500.48 829.83 C551.55,829.79 593.95,829.66 597.97,829.42 C597.93,829.46 597.87,829.50 597.81,829.52 C597.21,829.75 556.50,829.87 500.48,829.83 ZM 341.64 582.50 C341.29,581.59 341.64,581.00 342.53,581.00 C343.34,581.00 344.00,581.67 344.00,582.50 C344.00,583.33 343.60,584.00 343.11,584.00 C342.62,584.00 341.95,583.33 341.64,582.50 ZM 60.70 639.33 C59.99,638.17 61.66,635.32 62.54,636.20 C62.89,636.56 62.75,637.62 62.23,638.55 C61.71,639.49 61.02,639.84 60.70,639.33 ZM 713.90 844.02 C722.34,843.15 732.55,841.81 736.92,840.86 C743.61,839.41 750.19,837.51 756.61,835.19 C765.78,831.84 774.52,827.73 782.77,822.93 C797.87,814.11 811.55,802.82 823.12,789.59 C811.66,802.76 798.07,814.03 782.77,822.93 C774.44,827.80 765.68,831.91 756.61,835.19 C756.05,835.39 755.49,835.59 754.94,835.79 C741.75,840.44 727.92,843.18 713.90,844.02 ZM 456.96 299.86 C413.48,299.87 401.71,299.60 397.48,298.76 C402.34,299.45 416.36,299.74 456.96,299.86 ZM 570.00 573.50 C570.00,572.67 570.45,572.00 571.00,572.00 C571.55,572.00 572.00,572.67 572.00,573.50 C572.00,574.33 571.55,575.00 571.00,575.00 C570.45,575.00 570.00,574.33 570.00,573.50 ZM 188.00 591.00 C188.00,590.45 188.68,590.00 189.50,590.00 C190.32,590.00 191.00,590.45 191.00,591.00 C191.00,591.55 190.32,592.00 189.50,592.00 C188.68,592.00 188.00,591.55 188.00,591.00 ZM 639.69 419.04 C637.58,420.32 635.67,420.76 604.78,420.91 C627.67,420.75 635.98,420.30 639.69,419.04 ZM 301.49 297.03 L 301.50 285.15 L 303.13 282.94 C301.91,285.57 301.59,289.46 301.49,297.03 ZM 943.58 678.13 C943.15,677.44 943.07,676.60 943.40,676.27 C944.29,675.37 945.27,676.69 944.79,678.14 C944.45,679.15 944.21,679.15 943.58,678.13 ZM 615.53 297.27 L 611.50 299.50 L 596.31 299.54 C605.33,299.39 610.34,299.20 611.18,298.97 C612.64,298.56 614.11,297.98 615.53,297.27 ZM 554.19 628.82 C549.00,642.45 546.31,655.37 544.87,672.20 C544.59,675.39 544.42,678.59 544.36,681.78 C544.54,665.53 547.22,649.22 552.47,633.41 C552.90,632.12 553.49,630.57 554.19,628.82 ZM 390.22 421.29 C387.22,425.98 382.96,429.66 377.64,432.08 C374.15,433.66 370.38,434.27 366.58,433.97 C370.73,434.15 375.04,433.29 378.79,431.42 C383.20,429.22 387.35,425.45 390.22,421.29 ZM 913.00 587.00 C913.00,586.45 912.55,586.00 912.00,586.00 C911.45,586.00 911.00,586.45 911.00,587.00 C911.00,587.55 911.45,588.00 912.00,588.00 C912.55,588.00 913.00,587.55 913.00,587.00 ZM 572.09 773.74 C579.11,783.96 587.89,793.84 597.65,802.68 C590.40,796.21 583.80,789.32 578.46,782.49 C576.23,779.63 574.11,776.71 572.09,773.74 ZM 605.15 515.05 C605.37,514.39 605.88,513.88 606.28,513.92 C607.47,514.05 607.24,515.42 605.95,515.85 C605.29,516.07 604.93,515.71 605.15,515.05 ZM 282.86 817.64 C272.54,809.81 265.43,799.18 262.50,786.75 C265.39,799.00 272.84,809.88 282.86,817.64 ZM 600.60 516.40 C600.11,517.55 599.51,518.62 598.81,519.52 C598.25,520.23 597.80,520.84 597.27,521.38 C596.52,522.14 595.60,522.74 593.99,523.22 C597.04,521.65 599.30,519.19 600.60,516.40 ZM 862.85 679.06 C863.24,693.50 861.67,708.12 858.03,722.53 C857.28,725.51 856.45,728.45 855.54,731.36 C860.80,714.37 863.26,696.65 862.85,679.06 ZM 933.76 720.75 C922.15,745.27 908.65,768.54 893.70,789.50 C908.38,768.91 922.07,745.32 933.76,720.75 ZM 344.80 633.22 C344.27,632.32 343.81,631.41 343.42,630.50 C340.96,624.63 341.23,614.10 343.99,608.74 C344.08,608.57 344.17,608.40 344.26,608.22 C342.67,611.62 341.80,615.51 341.78,619.74 C341.75,625.23 342.68,629.50 344.80,633.22 ZM 955.51 666.94 C955.78,666.13 956.04,665.31 956.31,664.50 C959.58,654.46 962.56,644.37 965.00,635.35 C962.22,645.92 959.04,656.47 955.51,666.94 ZM 523.10 181.97 C520.66,179.10 517.61,176.88 514.25,175.40 C518.01,176.86 520.63,178.81 523.10,181.97 ZM 393.76 627.07 C395.42,621.80 395.26,618.03 393.35,612.12 C393.28,611.91 393.21,611.71 393.14,611.51 C394.33,614.49 395.00,617.59 395.00,620.58 C395.00,622.48 394.55,624.74 393.76,627.07 ZM 370.43 537.69 C370.33,537.70 370.22,537.71 370.12,537.72 C366.02,538.09 364.05,537.93 360.70,536.58 C363.92,537.66 367.22,538.00 370.43,537.69 ZM 802.76 558.25 C804.60,559.67 806.23,560.98 807.47,562.06 C812.39,566.34 817.01,570.88 821.31,575.64 C827.95,582.95 833.92,590.91 839.16,599.46 C841.80,603.76 844.23,608.17 846.45,612.68 C844.21,608.14 841.78,603.72 839.16,599.46 C834.00,591.05 828.04,583.07 821.31,575.64 C815.60,569.34 809.40,563.52 802.76,558.25 ZM 361.94 646.68 C369.08,648.67 376.87,646.78 383.07,642.26 C376.70,647.01 369.07,648.67 361.94,646.68 ZM 725.39 506.17 C722.94,505.87 720.59,505.62 718.67,505.49 C715.43,505.26 712.24,504.96 710.12,504.71 L 717.50 505.30 C719.80,505.49 722.58,505.80 725.39,506.17 ZM 554.69 740.23 C558.11,749.14 562.35,757.90 567.41,766.43 C562.35,758.04 558.11,749.27 554.69,740.23 ZM 297.19 825.82 C299.89,826.89 302.69,827.76 305.54,828.41 C303.87,828.20 302.91,827.94 302.00,827.63 C300.36,827.08 298.75,826.47 297.19,825.82 ZM 394.84 510.82 C394.75,515.92 393.06,520.98 390.19,525.31 C392.60,521.60 394.22,517.22 394.72,512.38 C394.78,511.86 394.82,511.34 394.84,510.82 ZM 600.43 505.02 C601.01,505.99 601.44,506.89 601.60,507.52 C601.86,508.57 601.94,509.75 601.87,510.98 C601.90,508.94 601.44,506.89 600.43,505.02 ZM 491.99 176.60 C488.56,178.68 485.25,181.95 483.10,185.30 C483.97,183.85 485.03,182.49 486.30,181.16 C488.06,179.33 489.97,177.80 491.99,176.60 ZM 480.81 190.84 C480.36,193.05 480.08,195.89 480.00,198.53 C480.00,198.35 480.00,198.18 480.00,198.00 C480.00,195.36 480.26,193.00 480.81,190.84 ZM 343.36 417.11 C342.51,415.25 342.00,413.51 342.00,412.18 L 342.00 412.16 C342.31,413.94 342.76,415.62 343.36,417.11 ZM 343.81 521.54 C342.77,519.38 342.05,517.37 342.00,516.13 C342.41,517.94 343.02,519.75 343.81,521.54 ZM 563.94 524.91 C552.95,525.00 538.13,525.00 518.05,525.00 L 518.01 525.00 L 511.78 525.00 C497.80,525.00 486.31,524.99 476.84,524.98 C486.35,524.99 497.92,524.99 512.00,524.99 C535.62,525.00 552.20,524.98 563.94,524.91 ZM 423.18 409.69 C423.95,413.33 426.17,416.82 429.64,419.10 C426.15,416.80 423.81,413.33 423.18,409.69 ZM 352.70 428.60 C351.84,427.97 350.99,427.28 350.17,426.54 C348.97,425.45 347.81,424.14 346.75,422.73 C348.43,424.86 350.49,426.89 352.70,428.60 ZM 383.46 598.66 C381.67,597.43 379.72,596.43 377.63,595.67 C378.25,595.86 378.81,596.06 379.29,596.26 C380.73,596.87 382.13,597.68 383.46,598.66 ZM 351.74 531.81 C350.88,531.22 350.15,530.66 349.66,530.19 C349.07,529.63 348.44,528.92 347.81,528.10 C348.96,529.47 350.24,530.69 351.74,531.81 ZM 352.17 641.49 C350.34,640.04 348.65,638.39 347.20,636.62 C347.55,637.03 347.92,637.44 348.30,637.84 C349.65,639.25 350.93,640.45 352.17,641.49 ZM 424.67 517.12 C425.28,518.27 426.05,519.36 426.97,520.35 C426.32,519.69 425.75,519.03 425.38,518.46 C425.14,518.09 424.90,517.63 424.67,517.12 ZM 309.21 786.90 C309.93,787.33 310.70,787.74 311.50,788.11 C312.57,788.61 313.80,788.97 317.61,789.24 C313.79,788.97 312.54,788.61 311.46,788.12 C310.69,787.77 309.94,787.36 309.21,786.90 ZM 597.36 827.93 C596.56,827.08 595.31,825.95 593.84,824.78 C595.50,826.09 596.68,827.15 597.36,827.93 ZM 578.84 811.13 C583.97,816.28 589.39,821.25 593.70,824.67 C589.45,821.31 584.01,816.31 578.84,811.13 ZM 432.32 523.89 C431.39,523.66 430.85,523.38 430.30,523.04 C430.86,523.38 431.40,523.66 432.32,523.89 Z" fill="rgb(222,46,39)"/>
<path d="M 0.00 512.00 L 0.00 0.00 L 512.00 0.00 L 1024.00 0.00 L 1024.00 512.00 L 1024.00 1024.00 L 512.00 1024.00 L 0.00 1024.00 L 0.00 512.00 ZM 531.50 987.98 C635.71,982.31 731.78,944.67 812.50,877.90 C837.65,857.10 872.71,818.92 893.70,789.50 C932.43,735.19 961.42,665.43 973.07,598.50 C974.13,592.45 974.99,585.54 974.99,583.15 C975.00,580.76 975.66,576.49 976.47,573.65 C979.98,561.32 981.61,508.63 979.39,479.50 C977.19,450.70 977.21,450.85 974.99,437.07 C965.55,378.27 945.84,320.37 919.71,274.68 C916.30,268.70 912.43,261.94 911.12,259.66 C909.82,257.37 905.45,250.46 901.43,244.30 C845.93,159.38 770.46,96.78 679.50,60.24 C507.49,-8.85 314.35,31.57 181.47,164.46 C113.98,231.96 67.86,316.51 48.00,409.17 C45.84,419.23 45.37,421.82 44.02,431.00 C43.57,434.02 42.95,437.17 42.63,438.00 C41.91,439.87 39.14,466.49 38.01,482.50 C35.56,516.96 38.39,563.42 45.13,599.50 C67.66,720.04 130.58,822.00 226.71,893.73 C304.93,952.10 396.66,984.81 492.00,988.33 C509.20,988.96 514.35,988.92 531.50,987.98 ZM 691.04 843.89 C672.49,842.24 654.01,837.26 637.03,829.35 C609.86,816.68 582.61,792.05 567.41,766.43 C549.84,736.81 542.11,704.48 544.87,672.20 C546.80,649.66 550.97,634.12 560.39,614.50 C582.47,568.48 621.28,538.18 672.76,526.77 C680.92,524.96 685.82,524.60 703.00,524.56 C725.17,524.50 730.84,525.20 747.94,530.10 C797.57,544.34 836.37,581.08 853.97,630.50 C869.23,673.32 864.74,722.57 841.89,763.10 C819.65,802.55 780.76,831.36 736.92,840.86 C729.23,842.52 703.48,845.40 701.10,844.86 C700.77,844.79 696.24,844.35 691.04,843.89 ZM 731.15 801.14 C743.34,797.91 755.84,792.84 764.77,787.53 C769.31,784.82 772.91,782.27 772.77,781.87 C771.94,779.60 607.64,613.96 606.55,614.29 C604.71,614.87 596.15,629.99 592.90,638.39 C582.38,665.61 581.25,693.47 589.58,720.16 C595.54,739.28 606.16,756.12 621.45,770.73 C637.62,786.18 655.21,795.79 676.50,800.81 C681.45,801.97 686.40,803.14 687.50,803.41 C688.60,803.67 697.15,803.73 706.50,803.53 C719.53,803.26 725.29,802.70 731.15,801.14 ZM 810.99 737.94 C814.81,730.47 820.47,713.23 822.12,704.00 C823.77,694.80 823.75,671.64 822.08,663.50 C813.93,623.58 791.07,593.22 756.55,576.47 C720.57,559.01 676.75,560.70 642.19,580.89 C638.24,583.20 635.00,585.38 635.00,585.73 C635.00,586.08 662.57,614.08 696.26,647.94 C729.95,681.80 767.40,719.51 779.48,731.75 L 801.44 754.00 L 804.79 748.75 C806.64,745.86 809.43,741.00 810.99,737.94 ZM 310.50 829.30 C287.49,826.25 267.68,808.69 262.50,786.75 C260.32,777.47 260.28,289.06 262.47,278.74 C266.65,259.00 283.24,241.59 302.64,236.58 C307.46,235.34 314.24,235.00 333.89,235.00 L 359.00 235.00 L 359.00 254.35 L 359.00 273.70 L 350.75 274.35 C346.21,274.70 335.70,274.99 327.40,274.99 C313.39,275.00 312.06,275.16 308.99,277.25 C307.17,278.49 304.74,280.77 303.59,282.32 L 301.50 285.15 L 301.22 529.32 C301.06,663.62 301.19,774.95 301.51,776.72 C302.27,781.02 306.50,785.87 311.46,788.12 C315.31,789.87 321.39,789.96 438.00,790.04 L 560.50 790.13 L 566.50 797.61 C573.08,805.82 585.58,818.25 593.70,824.67 C596.55,826.93 598.62,829.05 598.28,829.39 C597.62,830.05 315.49,829.96 310.50,829.30 ZM 361.94 646.68 C356.85,645.26 353.06,642.80 348.30,637.84 C343.67,633.01 341.74,627.64 341.78,619.74 C341.85,604.71 352.74,594.02 368.00,594.02 C379.95,594.02 389.77,601.03 393.35,612.12 C395.51,618.81 395.43,622.77 393.01,629.26 C388.17,642.19 374.10,650.08 361.94,646.68 ZM 430.71 632.91 C420.91,627.74 420.49,613.83 429.98,608.83 C433.22,607.13 436.79,607.00 479.98,607.00 C532.30,607.01 530.78,606.80 534.44,614.52 C537.78,621.55 534.96,629.66 527.93,633.25 C524.81,634.84 520.42,634.99 479.50,634.95 C436.46,634.91 434.33,634.82 430.71,632.91 ZM 358.00 535.49 C351.18,532.25 347.49,528.82 344.51,522.98 C340.96,516.03 340.40,508.66 342.91,501.95 C345.18,495.91 351.28,488.95 356.06,486.97 C357.68,486.31 359.00,485.46 359.00,485.11 C359.00,484.75 361.94,484.32 365.54,484.16 C375.01,483.74 380.69,485.92 386.72,492.30 C392.99,498.93 395.47,505.15 394.72,512.38 C392.78,531.18 373.90,543.06 358.00,535.49 ZM 430.24 523.01 C422.87,518.51 420.70,508.89 425.70,502.94 C430.89,496.78 427.61,497.00 512.72,497.00 C599.57,497.00 594.85,496.62 599.82,504.00 C604.14,510.41 601.37,519.45 593.93,523.25 C590.75,524.87 584.76,525.00 512.00,524.99 C435.43,524.99 433.42,524.94 430.24,523.01 ZM 736.00 507.91 C731.33,506.92 723.00,505.74 717.50,505.30 L 707.50 504.50 L 707.00 395.00 C706.51,287.28 706.47,285.44 704.47,282.00 C700.61,275.33 697.43,274.56 671.50,274.00 L 648.50 273.50 L 648.50 255.50 C648.50,245.60 648.66,236.94 648.86,236.25 C649.41,234.32 698.60,234.52 705.99,236.49 C724.90,241.52 740.36,257.56 745.51,277.50 C746.86,282.75 747.05,297.55 747.02,395.86 C747.00,457.66 746.73,508.62 746.43,509.11 C746.13,509.60 745.57,509.94 745.19,509.86 C744.81,509.79 740.67,508.91 736.00,507.91 ZM 358.36 432.08 C352.52,429.42 346.50,423.67 343.84,418.19 C340.79,411.91 340.75,401.30 343.76,395.50 C348.35,386.64 358.39,380.06 367.38,380.02 C375.29,379.99 379.88,381.93 386.20,387.97 C391.15,392.70 392.21,394.36 393.50,399.46 C395.37,406.87 395.37,408.40 393.50,414.67 C391.59,421.13 385.48,428.08 378.79,431.42 C372.42,434.59 364.47,434.85 358.36,432.08 ZM 429.64 419.10 C422.61,414.47 420.69,404.90 425.61,399.05 C427.04,397.35 429.11,395.47 430.21,394.89 C431.60,394.15 463.87,393.86 535.33,393.94 C650.93,394.08 641.53,393.41 645.19,401.69 C647.50,406.91 647.07,411.36 643.89,415.42 C639.26,421.30 645.18,421.00 534.30,420.99 C436.26,420.99 432.39,420.92 429.64,419.10 ZM 395.91 298.45 C389.65,296.52 382.81,290.26 379.89,283.79 C377.54,278.60 377.50,277.96 377.50,249.00 C377.50,220.32 377.56,219.36 379.80,214.50 C382.82,207.95 386.37,204.28 392.50,201.38 C397.25,199.14 398.53,199.02 418.13,199.01 C433.43,199.00 439.01,198.68 439.73,197.75 C440.26,197.06 441.23,193.19 441.88,189.15 C444.33,173.83 449.54,163.64 460.69,152.41 C475.49,137.48 496.77,131.15 517.50,135.50 C542.91,140.84 564.55,165.27 566.71,191.07 L 567.27 197.77 L 571.77 198.38 C574.25,198.72 583.98,199.02 593.39,199.04 C604.68,199.07 611.72,199.52 614.09,200.37 C619.83,202.42 624.71,206.77 627.45,212.28 L 630.00 217.39 L 630.00 249.08 L 630.00 280.77 L 627.21 286.14 C624.18,291.98 617.71,297.15 611.18,298.97 C608.78,299.63 571.57,299.97 504.00,299.92 C417.76,299.87 399.73,299.62 395.91,298.45 ZM 514.90 220.05 C519.33,217.78 524.67,212.04 526.57,207.48 C527.37,205.57 528.00,200.82 528.00,196.73 C528.00,190.37 527.62,188.79 525.14,184.88 C521.38,178.95 517.88,176.31 511.19,174.37 C501.95,171.68 493.06,174.11 486.30,181.16 C481.90,185.75 480.00,190.84 480.00,198.00 C480.00,209.87 486.43,218.03 499.00,222.11 C502.55,223.27 510.66,222.21 514.90,220.05 Z" fill="rgb(250,250,250)"/>
</g>
</svg>